<svg width="520" height="340" viewBox="0 0 520 340" fill="none" xmlns="http://www.w3.org/2000/svg">
<rect width="520" height="340" fill="#F2F2F2"/>
<g clip-path="url(#clip0_384_60251)">
<mask id="path-1-inside-1_384_60251" fill="white">
<path d="M16 16H26V26H16V16Z"/>
</mask>
<path d="M17 26V16H15V26H17Z" fill="black" mask="url(#path-1-inside-1_384_60251)"/>
<mask id="path-3-inside-2_384_60251" fill="white">
<path d="M16 16H26V26H16V16Z"/>
</mask>
<path d="M16 17H26V15H16V17Z" fill="black" mask="url(#path-3-inside-2_384_60251)"/>
<mask id="path-5-inside-3_384_60251" fill="white">
<path d="M494 16H504V26H494V16Z"/>
</mask>
<path d="M503 16V26H505V16H503Z" fill="black" mask="url(#path-5-inside-3_384_60251)"/>
<mask id="path-7-inside-4_384_60251" fill="white">
<path d="M494 16H504V26H494V16Z"/>
</mask>
<path d="M494 17H504V15H494V17Z" fill="black" mask="url(#path-7-inside-4_384_60251)"/>
<mask id="path-9-inside-5_384_60251" fill="white">
<path d="M494 324H504V314H494V324Z"/>
</mask>
<path d="M503 324V314H505V324H503Z" fill="black" mask="url(#path-9-inside-5_384_60251)"/>
<mask id="path-11-inside-6_384_60251" fill="white">
<path d="M494 324H504V314H494V324Z"/>
</mask>
<path d="M494 323H504V325H494V323Z" fill="black" mask="url(#path-11-inside-6_384_60251)"/>
<mask id="path-13-inside-7_384_60251" fill="white">
<path d="M16 314H26V324H16V314Z"/>
</mask>
<path d="M17 324V314H15V324H17Z" fill="black" mask="url(#path-13-inside-7_384_60251)"/>
<mask id="path-15-inside-8_384_60251" fill="white">
<path d="M16 314H26V324H16V314Z"/>
</mask>
<path d="M26 323H16V325H26V323Z" fill="black" mask="url(#path-15-inside-8_384_60251)"/>
<rect x="177.626" y="114.218" width="166.936" height="2.51889" fill="#050505"/>
<rect x="177.626" y="145.418" width="166.936" height="2.51889" fill="#FF443A"/>
<rect x="177.626" y="176.609" width="166.936" height="2.51889" fill="#6CD129"/>
<rect x="177.626" y="207.417" width="166.936" height="2.51889" fill="#383985"/>
<rect width="91.9396" height="23.0378" transform="translate(215.604 103.967)" fill="#050505"/>
<path d="M252.169 120.637C251.463 120.637 250.844 120.506 250.31 120.244C249.786 119.972 249.378 119.595 249.086 119.111C248.803 118.617 248.662 118.038 248.662 117.373V112.567C248.662 111.892 248.803 111.312 249.086 110.829C249.378 110.345 249.786 109.972 250.31 109.71C250.844 109.438 251.463 109.302 252.169 109.302C252.884 109.302 253.499 109.438 254.013 109.71C254.536 109.972 254.944 110.345 255.237 110.829C255.529 111.312 255.675 111.892 255.675 112.567H253.771C253.771 112.043 253.63 111.645 253.348 111.373C253.075 111.101 252.683 110.965 252.169 110.965C251.655 110.965 251.257 111.101 250.975 111.373C250.693 111.645 250.552 112.038 250.552 112.552V117.373C250.552 117.887 250.693 118.285 250.975 118.567C251.257 118.849 251.655 118.99 252.169 118.99C252.683 118.99 253.075 118.849 253.348 118.567C253.63 118.285 253.771 117.887 253.771 117.373V116.254H251.897V114.622H255.675V117.373C255.675 118.038 255.529 118.617 255.237 119.111C254.944 119.595 254.536 119.972 254.013 120.244C253.499 120.506 252.884 120.637 252.169 120.637ZM257.724 120.486V109.453H260.037L263.105 118.37C263.075 118.048 263.039 117.67 262.999 117.237C262.969 116.794 262.944 116.345 262.923 115.892C262.903 115.428 262.893 115.025 262.893 114.683V109.453H264.616V120.486H262.304L259.266 111.569C259.286 111.862 259.311 112.214 259.342 112.627C259.372 113.04 259.397 113.464 259.417 113.897C259.437 114.33 259.447 114.728 259.447 115.091V120.486H257.724ZM266.832 120.486V109.453H270.112C270.857 109.453 271.502 109.595 272.046 109.877C272.6 110.159 273.028 110.557 273.331 111.071C273.633 111.584 273.784 112.194 273.784 112.899V117.025C273.784 117.72 273.633 118.33 273.331 118.854C273.028 119.368 272.6 119.771 272.046 120.063C271.502 120.345 270.857 120.486 270.112 120.486H266.832ZM268.721 118.748H270.112C270.656 118.748 271.089 118.597 271.411 118.295C271.734 117.982 271.895 117.559 271.895 117.025V112.899C271.895 112.375 271.734 111.962 271.411 111.66C271.089 111.348 270.656 111.191 270.112 111.191H268.721V118.748Z" fill="white"/>
<rect width="91.9396" height="23.0378" transform="translate(215.604 166.94)" fill="#6CD129"/>
<path d="M226.283 183.458V172.426H233.145V174.179H228.142V177.126H232.752V178.879H228.172V183.458H226.283ZM234.665 183.458L237.446 172.426H239.879L242.675 183.458H240.741L240.136 180.783H237.204L236.6 183.458H234.665ZM237.552 179.242H239.789L239.124 176.28C239.013 175.786 238.917 175.343 238.837 174.95C238.756 174.547 238.701 174.254 238.67 174.073C238.64 174.254 238.585 174.547 238.504 174.95C238.434 175.343 238.338 175.781 238.217 176.265L237.552 179.242ZM244.287 183.458V172.426H246.599L249.667 181.343C249.637 181.02 249.601 180.642 249.561 180.209C249.531 179.766 249.506 179.317 249.486 178.864C249.465 178.401 249.455 177.998 249.455 177.655V172.426H251.178V183.458H248.866L245.828 174.542C245.848 174.834 245.874 175.186 245.904 175.6C245.934 176.013 245.959 176.436 245.979 176.869C245.999 177.302 246.01 177.7 246.01 178.063V183.458H244.287ZM264.905 183.458V174.179H262.018V172.426H269.695V174.179H266.809V183.458H264.905ZM270.914 183.458L273.695 172.426H276.128L278.924 183.458H276.989L276.385 180.783H273.453L272.848 183.458H270.914ZM273.8 179.242H276.037L275.372 176.28C275.261 175.786 275.166 175.343 275.085 174.95C275.004 174.547 274.949 174.254 274.919 174.073C274.889 174.254 274.833 174.547 274.753 174.95C274.682 175.343 274.586 175.781 274.465 176.265L273.8 179.242ZM284.041 183.61C283.336 183.61 282.716 183.479 282.182 183.217C281.658 182.945 281.25 182.567 280.958 182.083C280.676 181.589 280.535 181.01 280.535 180.345V175.539C280.535 174.864 280.676 174.285 280.958 173.801C281.25 173.317 281.658 172.945 282.182 172.683C282.716 172.411 283.336 172.275 284.041 172.275C284.757 172.275 285.371 172.411 285.885 172.683C286.409 172.945 286.817 173.317 287.109 173.801C287.402 174.285 287.548 174.864 287.548 175.539H285.643C285.643 175.015 285.502 174.617 285.22 174.345C284.948 174.073 284.555 173.937 284.041 173.937C283.527 173.937 283.129 174.073 282.847 174.345C282.565 174.617 282.424 175.01 282.424 175.524V180.345C282.424 180.859 282.565 181.257 282.847 181.539C283.129 181.811 283.527 181.947 284.041 181.947C284.555 181.947 284.948 181.811 285.22 181.539C285.502 181.257 285.643 180.859 285.643 180.345H287.548C287.548 181 287.402 181.574 287.109 182.068C286.817 182.562 286.409 182.945 285.885 183.217C285.371 183.479 284.757 183.61 284.041 183.61ZM289.673 183.458V172.426H291.562V176.854H294.524V172.426H296.413V183.458H294.524V178.607H291.562V183.458H289.673Z" fill="white"/>
<rect width="91.9396" height="23.0378" transform="translate(215.604 198.426)" fill="#383985"/>
<path d="M230.783 214.945V203.912H237.645V205.665H232.642V208.612H237.252V210.365H232.672V214.945H230.783ZM239.165 214.945L241.946 203.912H244.379L247.175 214.945H245.241L244.636 212.27H241.704L241.1 214.945H239.165ZM242.052 210.728H244.289L243.624 207.766C243.513 207.272 243.417 206.829 243.337 206.436C243.256 206.033 243.201 205.741 243.17 205.559C243.14 205.741 243.085 206.033 243.004 206.436C242.934 206.829 242.838 207.267 242.717 207.751L242.052 210.728ZM248.787 214.945V203.912H251.099L254.167 212.829C254.137 212.506 254.101 212.128 254.061 211.695C254.031 211.252 254.006 210.804 253.986 210.35C253.965 209.887 253.955 209.484 253.955 209.141V203.912H255.678V214.945H253.366L250.328 206.028C250.348 206.32 250.374 206.673 250.404 207.086C250.434 207.499 250.459 207.922 250.479 208.355C250.499 208.788 250.51 209.186 250.51 209.549V214.945H248.787ZM266.986 214.945V203.912H270.659C271.394 203.912 272.034 204.053 272.578 204.335C273.132 204.617 273.561 205.015 273.863 205.529C274.165 206.033 274.316 206.627 274.316 207.312C274.316 207.987 274.16 208.582 273.848 209.096C273.546 209.61 273.122 210.008 272.578 210.29C272.034 210.572 271.394 210.713 270.659 210.713H268.876V214.945H266.986ZM268.876 209.005H270.659C271.183 209.005 271.601 208.854 271.913 208.552C272.236 208.239 272.397 207.826 272.397 207.312C272.397 206.788 272.236 206.375 271.913 206.073C271.601 205.771 271.183 205.62 270.659 205.62H268.876V209.005ZM276.26 214.945L275.127 203.912H276.759L277.424 211.62C277.444 211.791 277.459 212.003 277.469 212.254C277.489 212.496 277.504 212.743 277.514 212.995C277.535 213.247 277.545 213.469 277.545 213.66C277.565 213.469 277.585 213.247 277.605 212.995C277.625 212.743 277.645 212.496 277.666 212.254C277.696 212.003 277.721 211.791 277.741 211.62L278.648 203.912H280.235L281.081 211.62C281.111 211.791 281.137 212.003 281.157 212.254C281.187 212.496 281.217 212.743 281.247 212.995C281.278 213.247 281.303 213.469 281.323 213.66C281.333 213.469 281.343 213.247 281.353 212.995C281.363 212.743 281.373 212.496 281.384 212.254C281.404 212.003 281.424 211.791 281.444 211.62L282.094 203.912H283.711L282.517 214.945H280.431L279.615 207.207C279.595 207.015 279.57 206.793 279.54 206.542C279.52 206.28 279.499 206.023 279.479 205.771C279.459 205.509 279.444 205.287 279.434 205.106C279.424 205.287 279.404 205.509 279.373 205.771C279.353 206.023 279.333 206.28 279.313 206.542C279.293 206.793 279.273 207.015 279.253 207.207L278.361 214.945H276.26ZM284.793 214.945V203.912H287.03L288.103 207.418C288.214 207.771 288.305 208.093 288.375 208.385C288.446 208.678 288.491 208.889 288.511 209.02C288.531 208.889 288.577 208.678 288.647 208.385C288.718 208.093 288.803 207.771 288.904 207.418L289.932 203.912H292.169V214.945H290.4V211.514C290.4 211.01 290.415 210.461 290.446 209.866C290.476 209.272 290.511 208.678 290.551 208.083C290.592 207.489 290.637 206.924 290.687 206.39C290.748 205.856 290.798 205.388 290.839 204.985L289.357 210.199H287.635L286.108 204.985C286.158 205.368 286.209 205.821 286.259 206.345C286.31 206.859 286.355 207.413 286.395 208.008C286.446 208.592 286.486 209.186 286.516 209.791C286.546 210.395 286.561 210.97 286.561 211.514V214.945H284.793Z" fill="white"/>
<rect width="91.9396" height="23.0378" transform="translate(215.604 135.453)" fill="#FF443A"/>
<path d="M238.593 152.123C237.575 152.123 236.759 151.872 236.145 151.368C235.53 150.854 235.193 150.159 235.132 149.282H237.021C237.062 149.665 237.213 149.962 237.475 150.174C237.747 150.375 238.12 150.476 238.593 150.476C239.117 150.476 239.515 150.34 239.787 150.068C240.059 149.786 240.195 149.398 240.195 148.904V147.831C240.195 147.327 240.059 146.945 239.787 146.683C239.515 146.411 239.117 146.275 238.593 146.275C238.271 146.275 237.994 146.34 237.762 146.471C237.53 146.602 237.354 146.783 237.233 147.015H235.389L235.465 140.94H241.676V142.647H237.248L237.218 145.851H237.656L237.203 146.229C237.203 145.766 237.384 145.403 237.747 145.141C238.12 144.869 238.618 144.733 239.243 144.733C240.14 144.723 240.835 144.995 241.329 145.549C241.832 146.093 242.084 146.854 242.084 147.831V148.904C242.084 149.902 241.772 150.688 241.147 151.262C240.533 151.836 239.681 152.123 238.593 152.123ZM246.446 151.972L243.665 140.94H245.63L247.293 148.133C247.383 148.486 247.469 148.864 247.549 149.267C247.63 149.67 247.69 149.997 247.731 150.249C247.771 149.997 247.827 149.67 247.897 149.267C247.968 148.864 248.043 148.481 248.124 148.118L249.771 140.94H251.675L248.895 151.972H246.446ZM262.424 151.972V140.94H266.097C266.832 140.94 267.472 141.081 268.016 141.363C268.57 141.645 268.999 142.043 269.301 142.557C269.603 143.06 269.754 143.655 269.754 144.34C269.754 145.015 269.598 145.61 269.286 146.123C268.983 146.637 268.56 147.035 268.016 147.317C267.472 147.599 266.832 147.741 266.097 147.741H264.313V151.972H262.424ZM264.313 146.033H266.097C266.621 146.033 267.039 145.882 267.351 145.579C267.674 145.267 267.835 144.854 267.835 144.34C267.835 143.816 267.674 143.403 267.351 143.101C267.039 142.798 266.621 142.647 266.097 142.647H264.313V146.033ZM271.698 151.972L270.564 140.94H272.197L272.862 148.647C272.882 148.819 272.897 149.03 272.907 149.282C272.927 149.524 272.942 149.771 272.952 150.023C272.973 150.275 272.983 150.496 272.983 150.688C273.003 150.496 273.023 150.275 273.043 150.023C273.063 149.771 273.083 149.524 273.104 149.282C273.134 149.03 273.159 148.819 273.179 148.647L274.086 140.94H275.673L276.519 148.647C276.549 148.819 276.575 149.03 276.595 149.282C276.625 149.524 276.655 149.771 276.685 150.023C276.716 150.275 276.741 150.496 276.761 150.688C276.771 150.496 276.781 150.275 276.791 150.023C276.801 149.771 276.811 149.524 276.821 149.282C276.842 149.03 276.862 148.819 276.882 148.647L277.532 140.94H279.149L277.955 151.972H275.869L275.053 144.234C275.033 144.043 275.008 143.821 274.978 143.569C274.957 143.307 274.937 143.05 274.917 142.798C274.897 142.537 274.882 142.315 274.872 142.133C274.862 142.315 274.842 142.537 274.811 142.798C274.791 143.05 274.771 143.307 274.751 143.569C274.731 143.821 274.711 144.043 274.69 144.234L273.799 151.972H271.698ZM280.533 151.972V140.94H284.025C284.76 140.94 285.395 141.076 285.929 141.348C286.473 141.62 286.896 142.003 287.198 142.496C287.501 142.98 287.652 143.554 287.652 144.219C287.652 144.945 287.465 145.584 287.093 146.139C286.73 146.693 286.236 147.086 285.611 147.317L287.803 151.972H285.687L283.768 147.589H282.423V151.972H280.533ZM282.423 145.927H284.025C284.559 145.927 284.977 145.781 285.279 145.489C285.581 145.196 285.732 144.793 285.732 144.28C285.732 143.756 285.581 143.348 285.279 143.055C284.977 142.753 284.559 142.602 284.025 142.602H282.423V145.927Z" fill="white"/>
<rect x="135" y="98.9294" width="73.0479" height="125.945" stroke="black" stroke-width="1.63728"/>
<path d="M148.854 98.9294V224.874" stroke="black" stroke-width="1.63728"/>
<path d="M145.076 98.9294L145.076 112.783" stroke="black" stroke-width="1.63728"/>
<path d="M145.076 174.496L145.076 224.874" stroke="black" stroke-width="1.63728"/>
<rect x="135" y="112.783" width="13.8539" height="61.7129" stroke="black" stroke-width="1.63728"/>
<path d="M166.955 213.543H177.629V203H166.955V213.543ZM170.892 210.656H173.692L175.136 212.1H169.449L170.892 210.656ZM171.33 207.331H173.298V209.212H171.33V207.331ZM174.742 209.65V206.937L176.229 205.494V211.137L174.742 209.693V209.65ZM173.736 205.888H170.936L169.492 204.444H175.179L173.736 205.888ZM169.93 206.894V209.606L168.442 211.05V205.406L169.93 206.85V206.894Z" fill="black" stroke="black" stroke-width="0.314862"/>
<path d="M166.952 182.397H177.626V171.854H166.952V182.397ZM170.889 179.51H173.689L175.133 180.954H169.446L170.889 179.51ZM171.327 176.185H173.295V178.066H171.327V176.185ZM174.739 178.504V175.792L176.226 174.348V179.991L174.739 178.548V178.504ZM173.733 174.742H170.933L169.489 173.298H175.176L173.733 174.742ZM169.927 175.748V178.46L168.439 179.904V174.26L169.927 175.704V175.748Z" fill="black" stroke="black" stroke-width="0.314862"/>
<path d="M166.955 151.206H177.629V140.663H166.955V151.206ZM170.892 148.319H173.692L175.136 149.762H169.449L170.892 148.319ZM171.33 144.994H173.298V146.875H171.33V144.994ZM174.742 147.312V144.6L176.229 143.157V148.8L174.742 147.356V147.312ZM173.736 143.55H170.936L169.492 142.107H175.179L173.736 143.55ZM169.93 144.556V147.269L168.442 148.712V143.069L169.93 144.513V144.556Z" fill="black" stroke="black" stroke-width="0.314862"/>
<path d="M166.952 120.059H177.626V109.517H166.952V120.059ZM170.889 117.172H173.689L175.132 118.616H169.445L170.889 117.172ZM171.326 113.847H173.295V115.729H171.326V113.847ZM174.738 116.166V113.454L176.226 112.01V117.653L174.738 116.21V116.166ZM173.732 112.404H170.933L169.489 110.96H175.176L173.732 112.404ZM169.926 113.41V116.122L168.439 117.566V111.923L169.926 113.366V113.41Z" fill="black" stroke="black" stroke-width="0.314862"/>
<rect x="373.665" y="224.874" width="59.194" height="125.945" transform="rotate(-180 373.665 224.874)" stroke="black" stroke-width="1.63728"/>
<rect x="379.962" y="177.015" width="6.29723" height="61.7129" transform="rotate(-180 379.962 177.015)" stroke="black" stroke-width="1.63728"/>
<rect x="385" y="188.35" width="11.335" height="11.335" transform="rotate(-180 385 188.35)" stroke="black" stroke-width="1.63728"/>
<rect x="385" y="115.302" width="11.335" height="11.335" transform="rotate(-180 385 115.302)" stroke="black" stroke-width="1.63728"/>
<rect x="354.972" y="120.084" width="9.21354" height="9.21354" transform="rotate(-180 354.972 120.084)" stroke="black" stroke-width="1.63728"/>
<rect x="354.972" y="182.476" width="9.21354" height="9.21354" transform="rotate(-180 354.972 182.476)" stroke="black" stroke-width="1.63728"/>
<rect x="354.972" y="151.285" width="9.21354" height="9.21354" transform="rotate(-180 354.972 151.285)" stroke="black" stroke-width="1.63728"/>
<rect x="354.972" y="213.283" width="9.21354" height="9.21354" transform="rotate(-180 354.972 213.283)" stroke="black" stroke-width="1.63728"/>
<path d="M288.045 254V245.959H292.775V246.861H289.013V249.534H292.489V250.436H289.035V254H288.045ZM296.368 254.11C295.73 254.11 295.227 253.949 294.861 253.626C294.494 253.296 294.311 252.852 294.311 252.295C294.311 251.73 294.494 251.287 294.861 250.964C295.227 250.641 295.722 250.48 296.346 250.48H298.216V249.875C298.216 249.501 298.102 249.215 297.875 249.017C297.655 248.812 297.339 248.709 296.929 248.709C296.569 248.709 296.269 248.786 296.027 248.94C295.785 249.087 295.645 249.288 295.609 249.545H294.619C294.685 249.024 294.93 248.61 295.356 248.302C295.781 247.994 296.313 247.84 296.951 247.84C297.647 247.84 298.197 248.02 298.601 248.379C299.004 248.738 299.206 249.226 299.206 249.842V254H298.238V252.845H298.073L298.238 252.68C298.238 253.12 298.065 253.468 297.721 253.725C297.383 253.982 296.932 254.11 296.368 254.11ZM296.61 253.329C297.079 253.329 297.464 253.212 297.765 252.977C298.065 252.742 298.216 252.442 298.216 252.075V251.217H296.368C296.038 251.217 295.777 251.309 295.587 251.492C295.396 251.675 295.301 251.925 295.301 252.24C295.301 252.577 295.414 252.845 295.642 253.043C295.876 253.234 296.199 253.329 296.61 253.329ZM301.203 254V247.95H302.193V249.105H302.402L302.193 249.336C302.193 248.859 302.336 248.493 302.622 248.236C302.908 247.972 303.304 247.84 303.81 247.84C304.419 247.84 304.903 248.027 305.262 248.401C305.622 248.775 305.801 249.285 305.801 249.93V254H304.811V250.04C304.811 249.607 304.694 249.277 304.459 249.05C304.232 248.815 303.92 248.698 303.524 248.698C303.114 248.698 302.787 248.823 302.545 249.072C302.311 249.321 302.193 249.681 302.193 250.15V254H301.203ZM314.373 254V245.97H315.693L318.146 252.845C318.131 252.662 318.113 252.438 318.091 252.174C318.076 251.903 318.061 251.62 318.047 251.327C318.039 251.026 318.036 250.744 318.036 250.48V245.97H318.993V254H317.673L315.231 247.125C315.245 247.301 315.26 247.525 315.275 247.796C315.289 248.06 315.3 248.342 315.308 248.643C315.322 248.936 315.33 249.219 315.33 249.49V254H314.373ZM321.024 254V245.959H325.754V246.861H321.992V249.534H325.468V250.436H322.014V254H321.024ZM328.114 250.81V249.93H331.634V250.81H328.114ZM333.72 254L335.81 245.97H337.141L339.22 254H338.219L337.691 251.866H335.26L334.732 254H333.72ZM335.458 251.03H337.482L336.866 248.555C336.749 248.086 336.657 247.693 336.591 247.378C336.525 247.063 336.485 246.857 336.47 246.762C336.455 246.857 336.415 247.063 336.349 247.378C336.283 247.693 336.191 248.082 336.074 248.544L335.458 251.03ZM344.276 254V252.24H340.646V250.689L343.825 245.97H344.903L341.636 250.898V251.338H344.276V249.38H345.266V254H344.276ZM346.911 254L349.056 250.887L347.043 247.95H348.209L349.408 249.82C349.46 249.901 349.507 249.989 349.551 250.084C349.603 250.179 349.643 250.256 349.672 250.315C349.694 250.256 349.727 250.179 349.771 250.084C349.823 249.989 349.874 249.901 349.925 249.82L351.135 247.95H352.29L350.277 250.898L352.411 254H351.245L349.947 252.02C349.896 251.939 349.845 251.848 349.793 251.745C349.749 251.635 349.709 251.547 349.672 251.481C349.643 251.547 349.599 251.635 349.54 251.745C349.489 251.848 349.434 251.939 349.375 252.02L348.066 254H346.911ZM353.969 254V252.988L356.422 250.381C356.84 249.934 357.144 249.538 357.335 249.193C357.526 248.841 357.621 248.504 357.621 248.181C357.621 247.734 357.496 247.382 357.247 247.125C357.005 246.868 356.671 246.74 356.246 246.74C355.777 246.74 355.406 246.872 355.135 247.136C354.871 247.4 354.739 247.763 354.739 248.225H353.749C353.764 247.741 353.874 247.323 354.079 246.971C354.292 246.612 354.581 246.337 354.948 246.146C355.322 245.955 355.755 245.86 356.246 245.86C356.73 245.86 357.148 245.955 357.5 246.146C357.859 246.329 358.134 246.593 358.325 246.938C358.516 247.283 358.611 247.693 358.611 248.17C358.611 248.625 358.49 249.076 358.248 249.523C358.006 249.97 357.61 250.48 357.06 251.052L355.08 253.098H358.743V254H353.969ZM362.853 254.11C362.361 254.11 361.932 254.015 361.566 253.824C361.206 253.626 360.928 253.351 360.73 252.999C360.532 252.64 360.433 252.222 360.433 251.745V248.225C360.433 247.741 360.532 247.323 360.73 246.971C360.928 246.619 361.206 246.348 361.566 246.157C361.932 245.959 362.361 245.86 362.853 245.86C363.351 245.86 363.78 245.959 364.14 246.157C364.499 246.348 364.778 246.619 364.976 246.971C365.174 247.323 365.273 247.741 365.273 248.225V251.745C365.273 252.222 365.174 252.64 364.976 252.999C364.778 253.351 364.495 253.626 364.129 253.824C363.769 254.015 363.344 254.11 362.853 254.11ZM362.853 253.263C363.293 253.263 363.645 253.124 363.909 252.845C364.18 252.559 364.316 252.192 364.316 251.745V248.225C364.316 247.778 364.18 247.415 363.909 247.136C363.645 246.85 363.293 246.707 362.853 246.707C362.413 246.707 362.057 246.85 361.786 247.136C361.522 247.415 361.39 247.778 361.39 248.225V251.745C361.39 252.192 361.522 252.559 361.786 252.845C362.057 253.124 362.413 253.263 362.853 253.263ZM362.853 250.634C362.655 250.634 362.493 250.572 362.369 250.447C362.251 250.322 362.193 250.157 362.193 249.952C362.193 249.754 362.251 249.596 362.369 249.479C362.493 249.354 362.655 249.292 362.853 249.292C363.051 249.292 363.208 249.354 363.326 249.479C363.45 249.596 363.513 249.754 363.513 249.952C363.513 250.157 363.45 250.322 363.326 250.447C363.208 250.572 363.051 250.634 362.853 250.634ZM376.022 254.11C375.369 254.11 374.834 253.941 374.416 253.604C373.998 253.267 373.752 252.812 373.679 252.24H374.669C374.706 252.555 374.841 252.801 375.076 252.977C375.311 253.146 375.63 253.23 376.033 253.23C376.495 253.23 376.84 253.105 377.067 252.856C377.302 252.607 377.419 252.255 377.419 251.8V251.019C377.419 250.564 377.302 250.212 377.067 249.963C376.84 249.714 376.499 249.589 376.044 249.589C375.758 249.589 375.509 249.666 375.296 249.82C375.083 249.967 374.929 250.165 374.834 250.414H373.844L373.899 245.97H378.123V246.872H374.856L374.823 249.545H375.131L374.823 249.831C374.823 249.486 374.959 249.215 375.23 249.017C375.509 248.819 375.879 248.72 376.341 248.72C376.994 248.713 377.5 248.914 377.859 249.325C378.226 249.728 378.409 250.293 378.409 251.019V251.8C378.409 252.511 378.2 253.076 377.782 253.494C377.364 253.905 376.777 254.11 376.022 254.11ZM381.958 254L379.89 245.97H380.913L382.277 251.426C382.372 251.807 382.453 252.163 382.519 252.493C382.585 252.816 382.633 253.061 382.662 253.23C382.691 253.061 382.735 252.816 382.794 252.493C382.86 252.163 382.941 251.807 383.036 251.426L384.389 245.97H385.39L383.311 254H381.958ZM393.543 254V245.97H396.128C396.627 245.97 397.06 246.069 397.426 246.267C397.793 246.458 398.075 246.729 398.273 247.081C398.479 247.433 398.581 247.851 398.581 248.335C398.581 248.812 398.479 249.23 398.273 249.589C398.075 249.941 397.793 250.216 397.426 250.414C397.06 250.605 396.627 250.7 396.128 250.7H394.533V254H393.543ZM394.533 249.809H396.128C396.561 249.809 396.906 249.677 397.162 249.413C397.426 249.142 397.558 248.782 397.558 248.335C397.558 247.88 397.426 247.521 397.162 247.257C396.906 246.993 396.561 246.861 396.128 246.861H394.533V249.809ZM400.326 254L399.402 245.97H400.348L400.953 251.91C400.968 252.071 400.982 252.24 400.997 252.416C401.012 252.585 401.023 252.746 401.03 252.9C401.045 253.054 401.052 253.182 401.052 253.285C401.067 253.182 401.078 253.054 401.085 252.9C401.1 252.746 401.114 252.585 401.129 252.416C401.151 252.24 401.173 252.071 401.195 251.91L401.943 245.97H402.966L403.648 251.91C403.67 252.071 403.688 252.24 403.703 252.416C403.725 252.585 403.743 252.746 403.758 252.9C403.78 253.054 403.795 253.182 403.802 253.285C403.809 253.182 403.817 253.054 403.824 252.9C403.839 252.746 403.853 252.585 403.868 252.416C403.89 252.24 403.908 252.071 403.923 251.91L404.55 245.97H405.452L404.506 254H403.263L402.581 247.95C402.566 247.781 402.548 247.616 402.526 247.455C402.511 247.294 402.497 247.143 402.482 247.004C402.467 246.865 402.456 246.751 402.449 246.663C402.442 246.751 402.427 246.865 402.405 247.004C402.39 247.143 402.376 247.294 402.361 247.455C402.346 247.616 402.328 247.781 402.306 247.95L401.569 254H400.326ZM406.559 254V245.97H407.857L408.693 248.566C408.773 248.801 408.847 249.035 408.913 249.27C408.979 249.497 409.026 249.673 409.056 249.798C409.092 249.673 409.14 249.497 409.199 249.27C409.257 249.035 409.323 248.797 409.397 248.555L410.189 245.97H411.487V254H410.519V251.085C410.519 250.762 410.53 250.396 410.552 249.985C410.574 249.574 410.603 249.156 410.64 248.731C410.676 248.298 410.713 247.888 410.75 247.499C410.794 247.103 410.83 246.758 410.86 246.465L409.562 250.48H408.517L407.208 246.465C407.244 246.751 407.281 247.085 407.318 247.466C407.354 247.84 407.387 248.24 407.417 248.665C407.446 249.083 407.472 249.501 407.494 249.919C407.516 250.337 407.527 250.726 407.527 251.085V254H406.559Z" fill="black"/>
<path d="M136.045 254V245.959H140.775V246.861H137.013V249.534H140.489V250.436H137.035V254H136.045ZM144.368 254.11C143.73 254.11 143.227 253.949 142.861 253.626C142.494 253.296 142.311 252.852 142.311 252.295C142.311 251.73 142.494 251.287 142.861 250.964C143.227 250.641 143.722 250.48 144.346 250.48H146.216V249.875C146.216 249.501 146.102 249.215 145.875 249.017C145.655 248.812 145.339 248.709 144.929 248.709C144.569 248.709 144.269 248.786 144.027 248.94C143.785 249.087 143.645 249.288 143.609 249.545H142.619C142.685 249.024 142.93 248.61 143.356 248.302C143.781 247.994 144.313 247.84 144.951 247.84C145.647 247.84 146.197 248.02 146.601 248.379C147.004 248.738 147.206 249.226 147.206 249.842V254H146.238V252.845H146.073L146.238 252.68C146.238 253.12 146.065 253.468 145.721 253.725C145.383 253.982 144.932 254.11 144.368 254.11ZM144.61 253.329C145.079 253.329 145.464 253.212 145.765 252.977C146.065 252.742 146.216 252.442 146.216 252.075V251.217H144.368C144.038 251.217 143.777 251.309 143.587 251.492C143.396 251.675 143.301 251.925 143.301 252.24C143.301 252.577 143.414 252.845 143.642 253.043C143.876 253.234 144.199 253.329 144.61 253.329ZM149.203 254V247.95H150.193V249.105H150.402L150.193 249.336C150.193 248.859 150.336 248.493 150.622 248.236C150.908 247.972 151.304 247.84 151.81 247.84C152.419 247.84 152.903 248.027 153.262 248.401C153.622 248.775 153.801 249.285 153.801 249.93V254H152.811V250.04C152.811 249.607 152.694 249.277 152.459 249.05C152.232 248.815 151.92 248.698 151.524 248.698C151.114 248.698 150.787 248.823 150.545 249.072C150.311 249.321 150.193 249.681 150.193 250.15V254H149.203ZM164.727 254.11C164.243 254.11 163.821 254.018 163.462 253.835C163.11 253.652 162.835 253.388 162.637 253.043C162.446 252.691 162.351 252.277 162.351 251.8V248.17C162.351 247.686 162.446 247.272 162.637 246.927C162.835 246.582 163.11 246.318 163.462 246.135C163.821 245.952 164.243 245.86 164.727 245.86C165.211 245.86 165.629 245.955 165.981 246.146C166.333 246.329 166.604 246.593 166.795 246.938C166.985 247.283 167.081 247.693 167.081 248.17H166.091C166.091 247.715 165.97 247.367 165.728 247.125C165.493 246.876 165.159 246.751 164.727 246.751C164.294 246.751 163.953 246.872 163.704 247.114C163.462 247.356 163.341 247.704 163.341 248.159V251.8C163.341 252.255 163.462 252.607 163.704 252.856C163.953 253.098 164.294 253.219 164.727 253.219C165.159 253.219 165.493 253.098 165.728 252.856C165.97 252.607 166.091 252.255 166.091 251.8H167.081C167.081 252.269 166.985 252.68 166.795 253.032C166.604 253.377 166.333 253.644 165.981 253.835C165.629 254.018 165.211 254.11 164.727 254.11ZM171.279 254.088C170.795 254.088 170.377 253.996 170.025 253.813C169.673 253.63 169.398 253.366 169.2 253.021C169.009 252.669 168.914 252.255 168.914 251.778V250.172C168.914 249.688 169.009 249.274 169.2 248.929C169.398 248.584 169.673 248.32 170.025 248.137C170.377 247.954 170.795 247.862 171.279 247.862C171.763 247.862 172.181 247.954 172.533 248.137C172.885 248.32 173.156 248.584 173.347 248.929C173.545 249.274 173.644 249.684 173.644 250.161V251.778C173.644 252.255 173.545 252.669 173.347 253.021C173.156 253.366 172.885 253.63 172.533 253.813C172.181 253.996 171.763 254.088 171.279 254.088ZM171.279 253.208C171.711 253.208 172.049 253.087 172.291 252.845C172.533 252.603 172.654 252.247 172.654 251.778V250.172C172.654 249.703 172.533 249.347 172.291 249.105C172.049 248.863 171.711 248.742 171.279 248.742C170.853 248.742 170.516 248.863 170.267 249.105C170.025 249.347 169.904 249.703 169.904 250.172V251.778C169.904 252.247 170.025 252.603 170.267 252.845C170.516 253.087 170.853 253.208 171.279 253.208ZM175.586 254V247.95H176.576V249.105H176.785L176.576 249.336C176.576 248.859 176.719 248.493 177.005 248.236C177.291 247.972 177.687 247.84 178.193 247.84C178.802 247.84 179.286 248.027 179.645 248.401C180.005 248.775 180.184 249.285 180.184 249.93V254H179.194V250.04C179.194 249.607 179.077 249.277 178.842 249.05C178.615 248.815 178.303 248.698 177.907 248.698C177.497 248.698 177.17 248.823 176.928 249.072C176.694 249.321 176.576 249.681 176.576 250.15V254H175.586ZM185.13 254C184.609 254 184.202 253.861 183.909 253.582C183.623 253.303 183.48 252.911 183.48 252.405V248.852H181.775V247.95H183.48V246.245H184.47V247.95H186.89V248.852H184.47V252.405C184.47 252.867 184.69 253.098 185.13 253.098H186.78V254H185.13ZM188.987 254V247.95H189.955V249.105H190.186L189.867 249.82C189.867 249.167 190.006 248.676 190.285 248.346C190.571 248.009 190.992 247.84 191.55 247.84C192.188 247.84 192.694 248.042 193.068 248.445C193.449 248.841 193.64 249.38 193.64 250.062V250.425H192.65V250.15C192.65 249.673 192.532 249.31 192.298 249.061C192.07 248.804 191.744 248.676 191.319 248.676C190.901 248.676 190.571 248.804 190.329 249.061C190.094 249.318 189.977 249.681 189.977 250.15V254H188.987ZM197.661 254.088C197.177 254.088 196.759 253.996 196.407 253.813C196.055 253.63 195.78 253.366 195.582 253.021C195.392 252.669 195.296 252.255 195.296 251.778V250.172C195.296 249.688 195.392 249.274 195.582 248.929C195.78 248.584 196.055 248.32 196.407 248.137C196.759 247.954 197.177 247.862 197.661 247.862C198.145 247.862 198.563 247.954 198.915 248.137C199.267 248.32 199.539 248.584 199.729 248.929C199.927 249.274 200.026 249.684 200.026 250.161V251.778C200.026 252.255 199.927 252.669 199.729 253.021C199.539 253.366 199.267 253.63 198.915 253.813C198.563 253.996 198.145 254.088 197.661 254.088ZM197.661 253.208C198.094 253.208 198.431 253.087 198.673 252.845C198.915 252.603 199.036 252.247 199.036 251.778V250.172C199.036 249.703 198.915 249.347 198.673 249.105C198.431 248.863 198.094 248.742 197.661 248.742C197.236 248.742 196.899 248.863 196.649 249.105C196.407 249.347 196.286 249.703 196.286 250.172V251.778C196.286 252.247 196.407 252.603 196.649 252.845C196.899 253.087 197.236 253.208 197.661 253.208ZM205.082 254C204.73 254 204.422 253.93 204.158 253.791C203.894 253.652 203.689 253.454 203.542 253.197C203.395 252.94 203.322 252.64 203.322 252.295V246.872H201.287V245.97H204.312V252.295C204.312 252.544 204.382 252.742 204.521 252.889C204.66 253.028 204.847 253.098 205.082 253.098H207.007V254H205.082Z" fill="black"/>
</g>
<defs>
<clipPath id="clip0_384_60251">
<rect width="488" height="308" fill="white" transform="translate(16 16)"/>
</clipPath>
</defs>
</svg>
