<svg width="520" height="340" viewBox="0 0 520 340" fill="none" xmlns="http://www.w3.org/2000/svg">
<rect width="520" height="340" fill="#F2F2F2"/>
<g clip-path="url(#clip0_384_58711)">
<mask id="path-1-inside-1_384_58711" fill="white">
<path d="M16 16H26V26H16V16Z"/>
</mask>
<path d="M17 26V16H15V26H17Z" fill="black" mask="url(#path-1-inside-1_384_58711)"/>
<mask id="path-3-inside-2_384_58711" fill="white">
<path d="M16 16H26V26H16V16Z"/>
</mask>
<path d="M16 17H26V15H16V17Z" fill="black" mask="url(#path-3-inside-2_384_58711)"/>
<mask id="path-5-inside-3_384_58711" fill="white">
<path d="M494 16H504V26H494V16Z"/>
</mask>
<path d="M503 16V26H505V16H503Z" fill="black" mask="url(#path-5-inside-3_384_58711)"/>
<mask id="path-7-inside-4_384_58711" fill="white">
<path d="M494 16H504V26H494V16Z"/>
</mask>
<path d="M494 17H504V15H494V17Z" fill="black" mask="url(#path-7-inside-4_384_58711)"/>
<mask id="path-9-inside-5_384_58711" fill="white">
<path d="M494 324H504V314H494V324Z"/>
</mask>
<path d="M503 324V314H505V324H503Z" fill="black" mask="url(#path-9-inside-5_384_58711)"/>
<mask id="path-11-inside-6_384_58711" fill="white">
<path d="M494 324H504V314H494V324Z"/>
</mask>
<path d="M494 323H504V325H494V323Z" fill="black" mask="url(#path-11-inside-6_384_58711)"/>
<mask id="path-13-inside-7_384_58711" fill="white">
<path d="M16 314H26V324H16V314Z"/>
</mask>
<path d="M17 324V314H15V324H17Z" fill="black" mask="url(#path-13-inside-7_384_58711)"/>
<mask id="path-15-inside-8_384_58711" fill="white">
<path d="M16 314H26V324H16V314Z"/>
</mask>
<path d="M26 323H16V325H26V323Z" fill="black" mask="url(#path-15-inside-8_384_58711)"/>
<rect width="218.209" height="27.9783" transform="translate(166.427 136.859)" fill="#050505"/>
<path d="M195.793 157.027C194.956 157.027 194.22 156.872 193.587 156.561C192.965 156.238 192.481 155.79 192.134 155.216C191.799 154.63 191.632 153.943 191.632 153.154V147.45C191.632 146.649 191.799 145.962 192.134 145.388C192.481 144.814 192.965 144.371 193.587 144.061C194.22 143.738 194.956 143.576 195.793 143.576C196.641 143.576 197.371 143.738 197.981 144.061C198.602 144.371 199.087 144.814 199.433 145.388C199.78 145.962 199.953 146.649 199.953 147.45H197.694C197.694 146.828 197.526 146.356 197.191 146.033C196.869 145.711 196.402 145.549 195.793 145.549C195.183 145.549 194.71 145.711 194.376 146.033C194.041 146.356 193.874 146.822 193.874 147.432V153.154C193.874 153.763 194.041 154.236 194.376 154.57C194.71 154.905 195.183 155.073 195.793 155.073C196.402 155.073 196.869 154.905 197.191 154.57C197.526 154.236 197.694 153.763 197.694 153.154V151.826H195.47V149.889H199.953V153.154C199.953 153.943 199.78 154.63 199.433 155.216C199.087 155.79 198.602 156.238 197.981 156.561C197.371 156.872 196.641 157.027 195.793 157.027ZM202.386 156.848V143.756H205.13L208.77 154.337C208.735 153.955 208.693 153.506 208.645 152.992C208.609 152.466 208.579 151.934 208.555 151.396C208.531 150.846 208.519 150.368 208.519 149.961V143.756H210.564V156.848H207.82L204.215 146.267C204.239 146.613 204.269 147.032 204.305 147.522C204.341 148.012 204.37 148.514 204.394 149.029C204.418 149.543 204.43 150.015 204.43 150.445V156.848H202.386ZM213.193 156.848V143.756H217.085C217.97 143.756 218.735 143.923 219.381 144.258C220.039 144.593 220.547 145.065 220.905 145.675C221.264 146.284 221.443 147.008 221.443 147.845V152.741C221.443 153.566 221.264 154.289 220.905 154.911C220.547 155.521 220.039 155.999 219.381 156.346C218.735 156.681 217.97 156.848 217.085 156.848H213.193ZM215.435 154.786H217.085C217.731 154.786 218.245 154.606 218.628 154.248C219.01 153.877 219.202 153.375 219.202 152.741V147.845C219.202 147.223 219.01 146.733 218.628 146.374C218.245 146.003 217.731 145.818 217.085 145.818H215.435V154.786Z" fill="white"/>
<rect width="218.209" height="27.9783" transform="translate(166.427 174.224)" fill="#6CD129"/>
<path d="M191.703 194.213V181.12H195.846C196.719 181.12 197.472 181.282 198.106 181.604C198.752 181.927 199.254 182.382 199.613 182.967C199.971 183.541 200.151 184.223 200.151 185.012C200.151 185.873 199.93 186.632 199.487 187.29C199.057 187.947 198.471 188.414 197.73 188.689L200.33 194.213H197.819L195.541 189.012H193.945V194.213H191.703ZM193.945 187.039H195.846C196.48 187.039 196.976 186.865 197.335 186.519C197.694 186.172 197.873 185.694 197.873 185.084C197.873 184.462 197.694 183.978 197.335 183.631C196.976 183.272 196.48 183.093 195.846 183.093H193.945V187.039ZM202.475 194.213V181.12H206.833C207.706 181.12 208.466 181.288 209.111 181.622C209.769 181.957 210.277 182.429 210.636 183.039C210.994 183.637 211.174 184.342 211.174 185.155C211.174 185.957 210.988 186.662 210.618 187.272C210.259 187.882 209.757 188.354 209.111 188.689C208.466 189.023 207.706 189.191 206.833 189.191H204.717V194.213H202.475ZM204.717 187.164H206.833C207.455 187.164 207.951 186.985 208.322 186.626C208.705 186.256 208.896 185.765 208.896 185.155C208.896 184.534 208.705 184.044 208.322 183.685C207.951 183.326 207.455 183.147 206.833 183.147H204.717V187.164ZM213.265 194.213V192.043L217.354 187.935C217.928 187.35 218.353 186.823 218.628 186.357C218.903 185.879 219.04 185.389 219.04 184.886C219.04 184.277 218.873 183.804 218.538 183.47C218.203 183.123 217.749 182.949 217.175 182.949C216.541 182.949 216.045 183.135 215.686 183.505C215.328 183.864 215.148 184.366 215.148 185.012H212.906C212.918 184.175 213.098 183.458 213.444 182.86C213.803 182.25 214.305 181.778 214.951 181.443C215.597 181.108 216.35 180.941 217.211 180.941C218.036 180.941 218.753 181.096 219.363 181.407C219.973 181.718 220.445 182.154 220.78 182.716C221.115 183.278 221.282 183.948 221.282 184.725C221.282 185.526 221.073 186.309 220.654 187.075C220.248 187.828 219.59 188.641 218.681 189.514L215.955 192.186H221.443V194.213H213.265ZM227.983 194.392C227.134 194.392 226.398 194.231 225.777 193.908C225.155 193.585 224.671 193.131 224.324 192.545C223.989 191.959 223.822 191.271 223.822 190.482V184.851C223.822 184.061 223.989 183.374 224.324 182.788C224.671 182.202 225.155 181.748 225.777 181.425C226.398 181.102 227.134 180.941 227.983 180.941C228.844 180.941 229.579 181.102 230.189 181.425C230.81 181.748 231.289 182.202 231.624 182.788C231.97 183.374 232.144 184.061 232.144 184.851V190.482C232.144 191.271 231.97 191.959 231.624 192.545C231.289 193.131 230.81 193.585 230.189 193.908C229.567 194.231 228.832 194.392 227.983 194.392ZM227.983 192.455C228.604 192.455 229.101 192.276 229.471 191.917C229.842 191.558 230.027 191.08 230.027 190.482V184.851C230.027 184.253 229.842 183.774 229.471 183.416C229.101 183.057 228.604 182.878 227.983 182.878C227.361 182.878 226.865 183.057 226.494 183.416C226.123 183.774 225.938 184.253 225.938 184.851V190.482C225.938 191.08 226.123 191.558 226.494 191.917C226.865 192.276 227.361 192.455 227.983 192.455ZM227.983 188.832C227.636 188.832 227.349 188.719 227.122 188.491C226.907 188.264 226.799 187.971 226.799 187.613C226.799 187.254 226.907 186.967 227.122 186.752C227.337 186.536 227.624 186.429 227.983 186.429C228.341 186.429 228.628 186.536 228.844 186.752C229.059 186.967 229.166 187.254 229.166 187.613C229.166 187.971 229.059 188.264 228.844 188.491C228.628 188.719 228.341 188.832 227.983 188.832ZM240.351 194.213V191.612H234.522V188.366L239.562 181.12H242.073L236.674 188.958V189.639H240.351V186.68H242.593V194.213H240.351ZM249.491 194.392C248.642 194.392 247.906 194.231 247.285 193.908C246.663 193.585 246.179 193.131 245.832 192.545C245.497 191.959 245.33 191.271 245.33 190.482V184.851C245.33 184.061 245.497 183.374 245.832 182.788C246.179 182.202 246.663 181.748 247.285 181.425C247.906 181.102 248.642 180.941 249.491 180.941C250.352 180.941 251.087 181.102 251.697 181.425C252.318 181.748 252.797 182.202 253.131 182.788C253.478 183.374 253.652 184.061 253.652 184.851V190.482C253.652 191.271 253.478 191.959 253.131 192.545C252.797 193.131 252.318 193.585 251.697 193.908C251.075 194.231 250.34 194.392 249.491 194.392ZM249.491 192.455C250.112 192.455 250.609 192.276 250.979 191.917C251.35 191.558 251.535 191.08 251.535 190.482V184.851C251.535 184.253 251.35 183.774 250.979 183.416C250.609 183.057 250.112 182.878 249.491 182.878C248.869 182.878 248.373 183.057 248.002 183.416C247.631 183.774 247.446 184.253 247.446 184.851V190.482C247.446 191.08 247.631 191.558 248.002 191.917C248.373 192.276 248.869 192.455 249.491 192.455ZM249.491 188.832C249.144 188.832 248.857 188.719 248.63 188.491C248.415 188.264 248.307 187.971 248.307 187.613C248.307 187.254 248.415 186.967 248.63 186.752C248.845 186.536 249.132 186.429 249.491 186.429C249.849 186.429 250.136 186.536 250.352 186.752C250.567 186.967 250.674 187.254 250.674 187.613C250.674 187.971 250.567 188.264 250.352 188.491C250.136 188.719 249.849 188.832 249.491 188.832ZM266.999 194.213V181.12H271.357C272.23 181.12 272.989 181.288 273.635 181.622C274.293 181.957 274.801 182.429 275.16 183.039C275.518 183.637 275.698 184.342 275.698 185.155C275.698 185.957 275.512 186.662 275.142 187.272C274.783 187.882 274.281 188.354 273.635 188.689C272.989 189.023 272.23 189.191 271.357 189.191H269.241V194.213H266.999ZM269.241 187.164H271.357C271.979 187.164 272.475 186.985 272.846 186.626C273.229 186.256 273.42 185.765 273.42 185.155C273.42 184.534 273.229 184.044 272.846 183.685C272.475 183.326 271.979 183.147 271.357 183.147H269.241V187.164ZM277.735 194.213V181.12H281.878C282.751 181.12 283.504 181.282 284.138 181.604C284.784 181.927 285.286 182.382 285.644 182.967C286.003 183.541 286.183 184.223 286.183 185.012C286.183 185.873 285.961 186.632 285.519 187.29C285.089 187.947 284.503 188.414 283.761 188.689L286.362 194.213H283.851L281.573 189.012H279.977V194.213H277.735ZM279.977 187.039H281.878C282.512 187.039 283.008 186.865 283.367 186.519C283.725 186.172 283.905 185.694 283.905 185.084C283.905 184.462 283.725 183.978 283.367 183.631C283.008 183.272 282.512 183.093 281.878 183.093H279.977V187.039ZM292.507 194.392C291.67 194.392 290.94 194.237 290.319 193.926C289.709 193.603 289.236 193.154 288.902 192.581C288.579 191.995 288.417 191.307 288.417 190.518V184.815C288.417 184.026 288.579 183.344 288.902 182.77C289.236 182.184 289.709 181.736 290.319 181.425C290.94 181.102 291.67 180.941 292.507 180.941C293.355 180.941 294.085 181.102 294.695 181.425C295.304 181.736 295.771 182.184 296.094 182.77C296.428 183.344 296.596 184.02 296.596 184.797V190.518C296.596 191.307 296.428 191.995 296.094 192.581C295.771 193.154 295.304 193.603 294.695 193.926C294.085 194.237 293.355 194.392 292.507 194.392ZM292.507 192.419C293.116 192.419 293.577 192.258 293.888 191.935C294.198 191.6 294.354 191.128 294.354 190.518V184.815C294.354 184.193 294.198 183.721 293.888 183.398C293.577 183.075 293.116 182.914 292.507 182.914C291.897 182.914 291.436 183.075 291.126 183.398C290.815 183.721 290.659 184.193 290.659 184.815V190.518C290.659 191.128 290.815 191.6 291.126 191.935C291.448 192.258 291.909 192.419 292.507 192.419ZM303.332 194.392C302.495 194.392 301.76 194.237 301.126 193.926C300.505 193.603 300.02 193.154 299.674 192.581C299.339 191.995 299.171 191.307 299.171 190.518V184.815C299.171 184.014 299.339 183.326 299.674 182.752C300.02 182.178 300.505 181.736 301.126 181.425C301.76 181.102 302.495 180.941 303.332 180.941C304.181 180.941 304.911 181.102 305.52 181.425C306.142 181.736 306.626 182.178 306.973 182.752C307.32 183.326 307.493 184.014 307.493 184.815H305.233C305.233 184.193 305.066 183.721 304.731 183.398C304.408 183.075 303.942 182.914 303.332 182.914C302.722 182.914 302.25 183.075 301.915 183.398C301.581 183.721 301.413 184.187 301.413 184.797V190.518C301.413 191.128 301.581 191.6 301.915 191.935C302.25 192.27 302.722 192.437 303.332 192.437C303.942 192.437 304.408 192.27 304.731 191.935C305.066 191.6 305.233 191.128 305.233 190.518V189.191H303.009V187.254H307.493V190.518C307.493 191.307 307.32 191.995 306.973 192.581C306.626 193.154 306.142 193.603 305.52 193.926C304.911 194.237 304.181 194.392 303.332 194.392ZM324.804 194.392C323.908 194.392 323.13 194.243 322.473 193.944C321.815 193.645 321.307 193.22 320.948 192.67C320.602 192.108 320.422 191.451 320.41 190.697H322.652C322.652 191.235 322.843 191.66 323.226 191.971C323.621 192.27 324.153 192.419 324.822 192.419C325.468 192.419 325.97 192.27 326.329 191.971C326.699 191.672 326.885 191.259 326.885 190.733C326.885 190.291 326.753 189.908 326.49 189.585C326.239 189.251 325.874 189.023 325.396 188.904L323.89 188.491C322.861 188.228 322.066 187.756 321.504 187.075C320.954 186.393 320.679 185.568 320.679 184.6C320.679 183.858 320.847 183.213 321.181 182.663C321.516 182.113 321.989 181.688 322.598 181.389C323.22 181.09 323.949 180.941 324.786 180.941C326.054 180.941 327.058 181.27 327.799 181.927C328.541 182.573 328.917 183.446 328.929 184.546H326.688C326.688 184.032 326.52 183.631 326.185 183.344C325.851 183.045 325.378 182.896 324.768 182.896C324.183 182.896 323.728 183.033 323.405 183.308C323.083 183.583 322.921 183.972 322.921 184.474C322.921 184.928 323.041 185.317 323.28 185.64C323.531 185.951 323.89 186.172 324.356 186.303L325.916 186.734C326.957 186.997 327.752 187.469 328.302 188.151C328.852 188.82 329.127 189.651 329.127 190.644C329.127 191.385 328.947 192.043 328.589 192.616C328.23 193.178 327.728 193.615 327.082 193.926C326.436 194.237 325.677 194.392 324.804 194.392ZM331.774 194.213L330.429 181.12H332.366L333.155 190.267C333.179 190.47 333.197 190.721 333.209 191.02C333.233 191.307 333.251 191.6 333.263 191.899C333.287 192.198 333.299 192.461 333.299 192.688C333.322 192.461 333.346 192.198 333.37 191.899C333.394 191.6 333.418 191.307 333.442 191.02C333.478 190.721 333.508 190.47 333.532 190.267L334.608 181.12H336.491L337.495 190.267C337.531 190.47 337.561 190.721 337.585 191.02C337.621 191.307 337.657 191.6 337.693 191.899C337.728 192.198 337.758 192.461 337.782 192.688C337.794 192.461 337.806 192.198 337.818 191.899C337.83 191.6 337.842 191.307 337.854 191.02C337.878 190.721 337.902 190.47 337.926 190.267L338.697 181.12H340.616L339.199 194.213H336.724L335.756 185.03C335.732 184.803 335.702 184.54 335.666 184.241C335.642 183.93 335.618 183.625 335.594 183.326C335.57 183.015 335.552 182.752 335.54 182.537C335.528 182.752 335.505 183.015 335.469 183.326C335.445 183.625 335.421 183.93 335.397 184.241C335.373 184.54 335.349 184.803 335.325 185.03L334.267 194.213H331.774ZM346.348 194.392C345.511 194.392 344.776 194.237 344.142 193.926C343.52 193.603 343.036 193.154 342.689 192.581C342.355 191.995 342.187 191.307 342.187 190.518V184.815C342.187 184.014 342.355 183.326 342.689 182.752C343.036 182.178 343.52 181.736 344.142 181.425C344.776 181.102 345.511 180.941 346.348 180.941C347.197 180.941 347.926 181.102 348.536 181.425C349.158 181.736 349.642 182.178 349.989 182.752C350.336 183.326 350.509 184.014 350.509 184.815H348.249C348.249 184.193 348.082 183.721 347.747 183.398C347.424 183.075 346.958 182.914 346.348 182.914C345.738 182.914 345.266 183.075 344.931 183.398C344.597 183.721 344.429 184.187 344.429 184.797V190.518C344.429 191.128 344.597 191.6 344.931 191.935C345.266 192.258 345.738 192.419 346.348 192.419C346.958 192.419 347.424 192.258 347.747 191.935C348.082 191.6 348.249 191.128 348.249 190.518H350.509C350.509 191.295 350.336 191.977 349.989 192.563C349.642 193.149 349.158 193.603 348.536 193.926C347.926 194.237 347.197 194.392 346.348 194.392ZM353.497 194.213V181.12H355.739V192.132H361.299V194.213H353.497ZM363.767 194.213V181.12H366.009V186.411H367.569L370.026 181.12H372.465L369.542 187.397L372.609 194.213H370.116L367.533 188.456H366.009V194.213H363.767Z" fill="white"/>
<rect width="218.209" height="27.9783" transform="translate(166.427 211.588)" fill="#58C5DE"/>
<path d="M191.703 231.577V218.485H195.846C196.719 218.485 197.472 218.646 198.106 218.969C198.752 219.292 199.254 219.746 199.613 220.332C199.971 220.906 200.151 221.587 200.151 222.377C200.151 223.237 199.93 223.997 199.487 224.654C199.057 225.312 198.471 225.778 197.73 226.053L200.33 231.577H197.819L195.541 226.376H193.945V231.577H191.703ZM193.945 224.403H195.846C196.48 224.403 196.976 224.23 197.335 223.883C197.694 223.536 197.873 223.058 197.873 222.448C197.873 221.827 197.694 221.342 197.335 220.996C196.976 220.637 196.48 220.457 195.846 220.457H193.945V224.403ZM202.475 231.577V218.485H206.833C207.706 218.485 208.466 218.652 209.111 218.987C209.769 219.322 210.277 219.794 210.636 220.404C210.994 221.001 211.174 221.707 211.174 222.52C211.174 223.321 210.988 224.027 210.618 224.636C210.259 225.246 209.757 225.718 209.111 226.053C208.466 226.388 207.706 226.555 206.833 226.555H204.717V231.577H202.475ZM204.717 224.529H206.833C207.455 224.529 207.951 224.349 208.322 223.991C208.705 223.62 208.896 223.13 208.896 222.52C208.896 221.898 208.705 221.408 208.322 221.049C207.951 220.691 207.455 220.511 206.833 220.511H204.717V224.529ZM213.265 231.577V229.407L217.354 225.3C217.928 224.714 218.353 224.188 218.628 223.722C218.903 223.243 219.04 222.753 219.04 222.251C219.04 221.641 218.873 221.169 218.538 220.834C218.203 220.487 217.749 220.314 217.175 220.314C216.541 220.314 216.045 220.499 215.686 220.87C215.328 221.229 215.148 221.731 215.148 222.377H212.906C212.918 221.54 213.098 220.822 213.444 220.224C213.803 219.615 214.305 219.142 214.951 218.807C215.597 218.473 216.35 218.305 217.211 218.305C218.036 218.305 218.753 218.461 219.363 218.772C219.973 219.082 220.445 219.519 220.78 220.081C221.115 220.643 221.282 221.312 221.282 222.09C221.282 222.891 221.073 223.674 220.654 224.439C220.248 225.192 219.59 226.005 218.681 226.878L215.955 229.55H221.443V231.577H213.265ZM227.983 231.756C227.134 231.756 226.398 231.595 225.777 231.272C225.155 230.949 224.671 230.495 224.324 229.909C223.989 229.323 223.822 228.636 223.822 227.847V222.215C223.822 221.426 223.989 220.738 224.324 220.153C224.671 219.567 225.155 219.112 225.777 218.79C226.398 218.467 227.134 218.305 227.983 218.305C228.844 218.305 229.579 218.467 230.189 218.79C230.81 219.112 231.289 219.567 231.624 220.153C231.97 220.738 232.144 221.426 232.144 222.215V227.847C232.144 228.636 231.97 229.323 231.624 229.909C231.289 230.495 230.81 230.949 230.189 231.272C229.567 231.595 228.832 231.756 227.983 231.756ZM227.983 229.82C228.604 229.82 229.101 229.64 229.471 229.281C229.842 228.923 230.027 228.445 230.027 227.847V222.215C230.027 221.617 229.842 221.139 229.471 220.78C229.101 220.422 228.604 220.242 227.983 220.242C227.361 220.242 226.865 220.422 226.494 220.78C226.123 221.139 225.938 221.617 225.938 222.215V227.847C225.938 228.445 226.123 228.923 226.494 229.281C226.865 229.64 227.361 229.82 227.983 229.82ZM227.983 226.197C227.636 226.197 227.349 226.083 227.122 225.856C226.907 225.629 226.799 225.336 226.799 224.977C226.799 224.618 226.907 224.331 227.122 224.116C227.337 223.901 227.624 223.793 227.983 223.793C228.341 223.793 228.628 223.901 228.844 224.116C229.059 224.331 229.166 224.618 229.166 224.977C229.166 225.336 229.059 225.629 228.844 225.856C228.628 226.083 228.341 226.197 227.983 226.197ZM240.351 231.577V228.977H234.522V225.73L239.562 218.485H242.073L236.674 226.322V227.004H240.351V224.044H242.593V231.577H240.351ZM249.491 231.756C248.642 231.756 247.906 231.595 247.285 231.272C246.663 230.949 246.179 230.495 245.832 229.909C245.497 229.323 245.33 228.636 245.33 227.847V222.215C245.33 221.426 245.497 220.738 245.832 220.153C246.179 219.567 246.663 219.112 247.285 218.79C247.906 218.467 248.642 218.305 249.491 218.305C250.352 218.305 251.087 218.467 251.697 218.79C252.318 219.112 252.797 219.567 253.131 220.153C253.478 220.738 253.652 221.426 253.652 222.215V227.847C253.652 228.636 253.478 229.323 253.131 229.909C252.797 230.495 252.318 230.949 251.697 231.272C251.075 231.595 250.34 231.756 249.491 231.756ZM249.491 229.82C250.112 229.82 250.609 229.64 250.979 229.281C251.35 228.923 251.535 228.445 251.535 227.847V222.215C251.535 221.617 251.35 221.139 250.979 220.78C250.609 220.422 250.112 220.242 249.491 220.242C248.869 220.242 248.373 220.422 248.002 220.78C247.631 221.139 247.446 221.617 247.446 222.215V227.847C247.446 228.445 247.631 228.923 248.002 229.281C248.373 229.64 248.869 229.82 249.491 229.82ZM249.491 226.197C249.144 226.197 248.857 226.083 248.63 225.856C248.415 225.629 248.307 225.336 248.307 224.977C248.307 224.618 248.415 224.331 248.63 224.116C248.845 223.901 249.132 223.793 249.491 223.793C249.849 223.793 250.136 223.901 250.352 224.116C250.567 224.331 250.674 224.618 250.674 224.977C250.674 225.336 250.567 225.629 250.352 225.856C250.136 226.083 249.849 226.197 249.491 226.197ZM266.999 231.577V218.485H271.357C272.23 218.485 272.989 218.652 273.635 218.987C274.293 219.322 274.801 219.794 275.16 220.404C275.518 221.001 275.698 221.707 275.698 222.52C275.698 223.321 275.512 224.027 275.142 224.636C274.783 225.246 274.281 225.718 273.635 226.053C272.989 226.388 272.23 226.555 271.357 226.555H269.241V231.577H266.999ZM269.241 224.529H271.357C271.979 224.529 272.475 224.349 272.846 223.991C273.229 223.62 273.42 223.13 273.42 222.52C273.42 221.898 273.229 221.408 272.846 221.049C272.475 220.691 271.979 220.511 271.357 220.511H269.241V224.529ZM277.735 231.577V218.485H281.878C282.751 218.485 283.504 218.646 284.138 218.969C284.784 219.292 285.286 219.746 285.644 220.332C286.003 220.906 286.183 221.587 286.183 222.377C286.183 223.237 285.961 223.997 285.519 224.654C285.089 225.312 284.503 225.778 283.761 226.053L286.362 231.577H283.851L281.573 226.376H279.977V231.577H277.735ZM279.977 224.403H281.878C282.512 224.403 283.008 224.23 283.367 223.883C283.725 223.536 283.905 223.058 283.905 222.448C283.905 221.827 283.725 221.342 283.367 220.996C283.008 220.637 282.512 220.457 281.878 220.457H279.977V224.403ZM292.507 231.756C291.67 231.756 290.94 231.601 290.319 231.29C289.709 230.967 289.236 230.519 288.902 229.945C288.579 229.359 288.417 228.672 288.417 227.883V222.179C288.417 221.39 288.579 220.709 288.902 220.135C289.236 219.549 289.709 219.1 290.319 218.79C290.94 218.467 291.67 218.305 292.507 218.305C293.355 218.305 294.085 218.467 294.695 218.79C295.304 219.1 295.771 219.549 296.094 220.135C296.428 220.709 296.596 221.384 296.596 222.161V227.883C296.596 228.672 296.428 229.359 296.094 229.945C295.771 230.519 295.304 230.967 294.695 231.29C294.085 231.601 293.355 231.756 292.507 231.756ZM292.507 229.784C293.116 229.784 293.577 229.622 293.888 229.299C294.198 228.965 294.354 228.492 294.354 227.883V222.179C294.354 221.557 294.198 221.085 293.888 220.762C293.577 220.44 293.116 220.278 292.507 220.278C291.897 220.278 291.436 220.44 291.126 220.762C290.815 221.085 290.659 221.557 290.659 222.179V227.883C290.659 228.492 290.815 228.965 291.126 229.299C291.448 229.622 291.909 229.784 292.507 229.784ZM303.332 231.756C302.495 231.756 301.76 231.601 301.126 231.29C300.505 230.967 300.02 230.519 299.674 229.945C299.339 229.359 299.171 228.672 299.171 227.883V222.179C299.171 221.378 299.339 220.691 299.674 220.117C300.02 219.543 300.505 219.1 301.126 218.79C301.76 218.467 302.495 218.305 303.332 218.305C304.181 218.305 304.911 218.467 305.52 218.79C306.142 219.1 306.626 219.543 306.973 220.117C307.32 220.691 307.493 221.378 307.493 222.179H305.233C305.233 221.557 305.066 221.085 304.731 220.762C304.408 220.44 303.942 220.278 303.332 220.278C302.722 220.278 302.25 220.44 301.915 220.762C301.581 221.085 301.413 221.552 301.413 222.161V227.883C301.413 228.492 301.581 228.965 301.915 229.299C302.25 229.634 302.722 229.802 303.332 229.802C303.942 229.802 304.408 229.634 304.731 229.299C305.066 228.965 305.233 228.492 305.233 227.883V226.555H303.009V224.618H307.493V227.883C307.493 228.672 307.32 229.359 306.973 229.945C306.626 230.519 306.142 230.967 305.52 231.29C304.911 231.601 304.181 231.756 303.332 231.756ZM324.804 231.756C323.908 231.756 323.13 231.607 322.473 231.308C321.815 231.009 321.307 230.585 320.948 230.035C320.602 229.473 320.422 228.815 320.41 228.062H322.652C322.652 228.6 322.843 229.024 323.226 229.335C323.621 229.634 324.153 229.784 324.822 229.784C325.468 229.784 325.97 229.634 326.329 229.335C326.699 229.036 326.885 228.624 326.885 228.098C326.885 227.655 326.753 227.273 326.49 226.95C326.239 226.615 325.874 226.388 325.396 226.268L323.89 225.856C322.861 225.593 322.066 225.121 321.504 224.439C320.954 223.758 320.679 222.932 320.679 221.964C320.679 221.223 320.847 220.577 321.181 220.027C321.516 219.477 321.989 219.053 322.598 218.754C323.22 218.455 323.949 218.305 324.786 218.305C326.054 218.305 327.058 218.634 327.799 219.292C328.541 219.937 328.917 220.81 328.929 221.91H326.688C326.688 221.396 326.52 220.996 326.185 220.709C325.851 220.41 325.378 220.26 324.768 220.26C324.183 220.26 323.728 220.398 323.405 220.673C323.083 220.948 322.921 221.336 322.921 221.838C322.921 222.293 323.041 222.681 323.28 223.004C323.531 223.315 323.89 223.536 324.356 223.668L325.916 224.098C326.957 224.361 327.752 224.834 328.302 225.515C328.852 226.185 329.127 227.016 329.127 228.008C329.127 228.749 328.947 229.407 328.589 229.981C328.23 230.543 327.728 230.979 327.082 231.29C326.436 231.601 325.677 231.756 324.804 231.756ZM331.774 231.577L330.429 218.485H332.366L333.155 227.631C333.179 227.835 333.197 228.086 333.209 228.385C333.233 228.672 333.251 228.965 333.263 229.264C333.287 229.562 333.299 229.826 333.299 230.053C333.322 229.826 333.346 229.562 333.37 229.264C333.394 228.965 333.418 228.672 333.442 228.385C333.478 228.086 333.508 227.835 333.532 227.631L334.608 218.485H336.491L337.495 227.631C337.531 227.835 337.561 228.086 337.585 228.385C337.621 228.672 337.657 228.965 337.693 229.264C337.728 229.562 337.758 229.826 337.782 230.053C337.794 229.826 337.806 229.562 337.818 229.264C337.83 228.965 337.842 228.672 337.854 228.385C337.878 228.086 337.902 227.835 337.926 227.631L338.697 218.485H340.616L339.199 231.577H336.724L335.756 222.394C335.732 222.167 335.702 221.904 335.666 221.605C335.642 221.294 335.618 220.99 335.594 220.691C335.57 220.38 335.552 220.117 335.54 219.901C335.528 220.117 335.505 220.38 335.469 220.691C335.445 220.99 335.421 221.294 335.397 221.605C335.373 221.904 335.349 222.167 335.325 222.394L334.267 231.577H331.774ZM342.241 231.577V218.485H346.133C347.018 218.485 347.783 218.652 348.429 218.987C349.086 219.322 349.594 219.794 349.953 220.404C350.312 221.013 350.491 221.737 350.491 222.574V227.47C350.491 228.295 350.312 229.018 349.953 229.64C349.594 230.25 349.086 230.728 348.429 231.075C347.783 231.41 347.018 231.577 346.133 231.577H342.241ZM344.483 229.515H346.133C346.779 229.515 347.293 229.335 347.675 228.977C348.058 228.606 348.249 228.104 348.249 227.47V222.574C348.249 221.952 348.058 221.462 347.675 221.103C347.293 220.732 346.779 220.547 346.133 220.547H344.483V229.515Z" fill="white"/>
<rect width="218.209" height="27.9783" transform="translate(166.427 98)" fill="#FFA41B"/>
<path d="M191.703 117.989V104.897H195.846C196.719 104.897 197.472 105.058 198.106 105.381C198.752 105.704 199.254 106.158 199.613 106.744C199.971 107.318 200.151 107.999 200.151 108.788C200.151 109.649 199.93 110.409 199.487 111.066C199.057 111.724 198.471 112.19 197.73 112.465L200.33 117.989H197.819L195.541 112.788H193.945V117.989H191.703ZM193.945 110.815H195.846C196.48 110.815 196.976 110.642 197.335 110.295C197.694 109.948 197.873 109.47 197.873 108.86C197.873 108.238 197.694 107.754 197.335 107.408C196.976 107.049 196.48 106.869 195.846 106.869H193.945V110.815ZM202.475 117.989V104.897H206.833C207.706 104.897 208.466 105.064 209.111 105.399C209.769 105.734 210.277 106.206 210.636 106.816C210.994 107.413 211.174 108.119 211.174 108.932C211.174 109.733 210.988 110.439 210.618 111.048C210.259 111.658 209.757 112.13 209.111 112.465C208.466 112.8 207.706 112.967 206.833 112.967H204.717V117.989H202.475ZM204.717 110.941H206.833C207.455 110.941 207.951 110.761 208.322 110.403C208.705 110.032 208.896 109.542 208.896 108.932C208.896 108.31 208.705 107.82 208.322 107.461C207.951 107.103 207.455 106.923 206.833 106.923H204.717V110.941ZM213.265 117.989V115.819L217.354 111.712C217.928 111.126 218.353 110.6 218.628 110.134C218.903 109.655 219.04 109.165 219.04 108.663C219.04 108.053 218.873 107.581 218.538 107.246C218.203 106.899 217.749 106.726 217.175 106.726C216.541 106.726 216.045 106.911 215.686 107.282C215.328 107.641 215.148 108.143 215.148 108.788H212.906C212.918 107.952 213.098 107.234 213.444 106.636C213.803 106.027 214.305 105.554 214.951 105.219C215.597 104.885 216.35 104.717 217.211 104.717C218.036 104.717 218.753 104.873 219.363 105.184C219.973 105.494 220.445 105.931 220.78 106.493C221.115 107.055 221.282 107.724 221.282 108.502C221.282 109.303 221.073 110.086 220.654 110.851C220.248 111.604 219.59 112.417 218.681 113.29L215.955 115.962H221.443V117.989H213.265ZM227.983 118.168C227.134 118.168 226.398 118.007 225.777 117.684C225.155 117.361 224.671 116.907 224.324 116.321C223.989 115.735 223.822 115.048 223.822 114.259V108.627C223.822 107.838 223.989 107.15 224.324 106.565C224.671 105.979 225.155 105.524 225.777 105.202C226.398 104.879 227.134 104.717 227.983 104.717C228.844 104.717 229.579 104.879 230.189 105.202C230.81 105.524 231.289 105.979 231.624 106.565C231.97 107.15 232.144 107.838 232.144 108.627V114.259C232.144 115.048 231.97 115.735 231.624 116.321C231.289 116.907 230.81 117.361 230.189 117.684C229.567 118.007 228.832 118.168 227.983 118.168ZM227.983 116.232C228.604 116.232 229.101 116.052 229.471 115.693C229.842 115.335 230.027 114.856 230.027 114.259V108.627C230.027 108.029 229.842 107.551 229.471 107.192C229.101 106.834 228.604 106.654 227.983 106.654C227.361 106.654 226.865 106.834 226.494 107.192C226.123 107.551 225.938 108.029 225.938 108.627V114.259C225.938 114.856 226.123 115.335 226.494 115.693C226.865 116.052 227.361 116.232 227.983 116.232ZM227.983 112.609C227.636 112.609 227.349 112.495 227.122 112.268C226.907 112.041 226.799 111.748 226.799 111.389C226.799 111.03 226.907 110.743 227.122 110.528C227.337 110.313 227.624 110.205 227.983 110.205C228.341 110.205 228.628 110.313 228.844 110.528C229.059 110.743 229.166 111.03 229.166 111.389C229.166 111.748 229.059 112.041 228.844 112.268C228.628 112.495 228.341 112.609 227.983 112.609ZM240.351 117.989V115.389H234.522V112.142L239.562 104.897H242.073L236.674 112.734V113.416H240.351V110.456H242.593V117.989H240.351ZM249.491 118.168C248.642 118.168 247.906 118.007 247.285 117.684C246.663 117.361 246.179 116.907 245.832 116.321C245.497 115.735 245.33 115.048 245.33 114.259V108.627C245.33 107.838 245.497 107.15 245.832 106.565C246.179 105.979 246.663 105.524 247.285 105.202C247.906 104.879 248.642 104.717 249.491 104.717C250.352 104.717 251.087 104.879 251.697 105.202C252.318 105.524 252.797 105.979 253.131 106.565C253.478 107.15 253.652 107.838 253.652 108.627V114.259C253.652 115.048 253.478 115.735 253.131 116.321C252.797 116.907 252.318 117.361 251.697 117.684C251.075 118.007 250.34 118.168 249.491 118.168ZM249.491 116.232C250.112 116.232 250.609 116.052 250.979 115.693C251.35 115.335 251.535 114.856 251.535 114.259V108.627C251.535 108.029 251.35 107.551 250.979 107.192C250.609 106.834 250.112 106.654 249.491 106.654C248.869 106.654 248.373 106.834 248.002 107.192C247.631 107.551 247.446 108.029 247.446 108.627V114.259C247.446 114.856 247.631 115.335 248.002 115.693C248.373 116.052 248.869 116.232 249.491 116.232ZM249.491 112.609C249.144 112.609 248.857 112.495 248.63 112.268C248.415 112.041 248.307 111.748 248.307 111.389C248.307 111.03 248.415 110.743 248.63 110.528C248.845 110.313 249.132 110.205 249.491 110.205C249.849 110.205 250.136 110.313 250.352 110.528C250.567 110.743 250.674 111.03 250.674 111.389C250.674 111.748 250.567 112.041 250.352 112.268C250.136 112.495 249.849 112.609 249.491 112.609ZM267.196 117.989V104.897H275.052V106.852H269.402V110.259H274.424V112.196H269.402V116.034H275.052V117.989H267.196ZM277.663 117.989V104.897H280.407L284.048 115.478C284.012 115.096 283.971 114.647 283.923 114.133C283.887 113.607 283.857 113.075 283.833 112.537C283.809 111.987 283.797 111.509 283.797 111.102V104.897H285.842V117.989H283.098L279.493 107.408C279.517 107.754 279.547 108.173 279.582 108.663C279.618 109.153 279.648 109.655 279.672 110.169C279.696 110.684 279.708 111.156 279.708 111.586V117.989H277.663Z" fill="white"/>
<path fill-rule="evenodd" clip-rule="evenodd" d="M136.579 78.9594L136.579 260.52L134.636 260.52L134.636 78.9594L136.579 78.9594Z" fill="black"/>
<circle cx="166.973" cy="111.458" r="14.9458" fill="#F2F2F2" stroke="black" stroke-width="1.94295"/>
<circle cx="166.972" cy="111.458" r="7.4729" fill="#F2F2F2" stroke="black" stroke-width="1.94295"/>
<circle cx="166.973" cy="149.194" r="14.9458" fill="#F2F2F2" stroke="black" stroke-width="1.94295"/>
<circle cx="166.972" cy="149.194" r="7.4729" fill="#F2F2F2" stroke="black" stroke-width="1.94295"/>
<circle cx="166.973" cy="186.93" r="14.9458" fill="#F2F2F2" stroke="black" stroke-width="1.94295"/>
<circle cx="166.972" cy="186.93" r="7.4729" fill="#F2F2F2" stroke="black" stroke-width="1.94295"/>
<rect x="152.027" y="209.72" width="29.8916" height="29.8916" rx="2.98916" fill="#F2F2F2" stroke="black" stroke-width="1.94295"/>
<circle cx="166.972" cy="224.666" r="7.4729" fill="#F2F2F2" stroke="black" stroke-width="1.94295"/>
<path d="M56.34 39H57.95V42.89C57.95 45.39 56.77 46.15 54.72 46.15C52.25 46.15 51.4 45.03 51.4 43.09V42.79H52.93V42.97C52.93 44.38 53.39 44.93 54.72 44.93C55.9 44.93 56.34 44.26 56.34 42.89V39ZM62.6365 41.35C63.9765 41.35 65.4665 41.76 65.4665 43.58C65.4665 45.36 64.0065 46.15 62.2065 46.15C60.3565 46.15 59.0365 45.29 58.9465 44.08H60.3865C60.5365 44.61 61.1165 45 62.2365 45C63.5365 45 64.0065 44.34 64.0065 43.59C64.0065 42.81 63.5065 42.32 62.2465 42.32C61.5165 42.32 60.8465 42.63 60.5365 42.93H59.2065L59.7765 39H65.0565V40.24H60.8465L60.6065 41.9C61.0465 41.62 61.6865 41.35 62.6365 41.35ZM72.4484 39C74.6284 39 76.6684 39.71 76.6684 42.5C76.6684 45.29 74.6284 46 72.4484 46H69.2684V39H72.4484ZM72.2884 44.76C73.9584 44.76 75.0184 44.31 75.0184 42.5C75.0184 40.7 73.9584 40.24 72.2884 40.24H70.8884V44.76H72.2884ZM83.3668 43.73H78.6368C78.7568 44.46 79.2668 45.1 80.3768 45.1C81.1868 45.1 81.7068 44.74 81.9168 44.29H83.2568C82.9068 45.62 81.6968 46.15 80.3768 46.15C78.8568 46.15 77.2668 45.31 77.2668 43.34C77.2668 41.37 78.8368 40.53 80.3668 40.53C81.9168 40.53 83.5268 41.48 83.3668 43.73ZM80.3668 41.57C79.4168 41.57 78.8868 42.09 78.6868 42.73H81.9768C81.8168 42.09 81.3668 41.57 80.3668 41.57ZM87.7055 40.53C89.2655 40.53 90.5255 41.53 90.5255 43.34C90.5255 45.15 89.2655 46.15 87.7055 46.15C86.8155 46.15 86.1955 45.84 85.8055 45.34V46H84.2855V39H85.8055V41.34C86.1955 40.84 86.8155 40.53 87.7055 40.53ZM87.3755 45.1C88.4755 45.1 89.1055 44.46 89.1055 43.34C89.1055 42.22 88.4755 41.57 87.3755 41.57C86.2755 41.57 85.6155 42.22 85.6155 43.34C85.6155 44.46 86.2755 45.1 87.3755 45.1ZM93.5942 46.15C92.2242 46.15 91.4242 45.4 91.4242 44.2V40.67H92.9442V43.82C92.9442 44.46 93.3142 45.01 94.2542 45.01C95.1942 45.01 95.6142 44.44 95.6142 43.82V40.67H97.1342V46H95.6142V45.25C95.3842 45.57 94.7342 46.15 93.5942 46.15ZM102.768 40.67H104.278V45.5C104.278 47.58 102.548 47.86 101.018 47.86C99.2383 47.86 98.2183 47.25 98.1183 46.23H99.5383C99.6483 46.56 100.178 46.81 101.018 46.81C102.228 46.81 102.768 46.46 102.768 45.5V45.01C102.368 45.44 101.758 45.67 100.858 45.67C99.2983 45.67 98.0383 44.96 98.0383 43.15C98.0383 41.34 99.2983 40.53 100.858 40.53C101.678 40.53 102.338 40.84 102.768 41.37V40.67ZM101.188 44.72C102.288 44.72 102.958 44.15 102.958 43.15C102.958 42.14 102.288 41.58 101.188 41.58C100.098 41.58 99.4683 42.15 99.4683 43.15C99.4683 44.15 100.098 44.72 101.188 44.72Z" fill="black"/>
</g>
<defs>
<clipPath id="clip0_384_58711">
<rect width="488" height="308" fill="white" transform="translate(16 16)"/>
</clipPath>
</defs>
</svg>
