<svg width="520" height="340" viewBox="0 0 520 340" fill="none" xmlns="http://www.w3.org/2000/svg">
<rect width="520" height="340" fill="#F2F2F2"/>
<g clip-path="url(#clip0_393_13819)">
<mask id="path-1-inside-1_393_13819" fill="white">
<path d="M16 16H26V26H16V16Z"/>
</mask>
<path d="M17 26V16H15V26H17Z" fill="black" mask="url(#path-1-inside-1_393_13819)"/>
<mask id="path-3-inside-2_393_13819" fill="white">
<path d="M16 16H26V26H16V16Z"/>
</mask>
<path d="M16 17H26V15H16V17Z" fill="black" mask="url(#path-3-inside-2_393_13819)"/>
<mask id="path-5-inside-3_393_13819" fill="white">
<path d="M494 16H504V26H494V16Z"/>
</mask>
<path d="M503 16V26H505V16H503Z" fill="black" mask="url(#path-5-inside-3_393_13819)"/>
<mask id="path-7-inside-4_393_13819" fill="white">
<path d="M494 16H504V26H494V16Z"/>
</mask>
<path d="M494 17H504V15H494V17Z" fill="black" mask="url(#path-7-inside-4_393_13819)"/>
<mask id="path-9-inside-5_393_13819" fill="white">
<path d="M494 324H504V314H494V324Z"/>
</mask>
<path d="M503 324V314H505V324H503Z" fill="black" mask="url(#path-9-inside-5_393_13819)"/>
<mask id="path-11-inside-6_393_13819" fill="white">
<path d="M494 324H504V314H494V324Z"/>
</mask>
<path d="M494 323H504V325H494V323Z" fill="black" mask="url(#path-11-inside-6_393_13819)"/>
<mask id="path-13-inside-7_393_13819" fill="white">
<path d="M16 314H26V324H16V314Z"/>
</mask>
<path d="M17 324V314H15V324H17Z" fill="black" mask="url(#path-13-inside-7_393_13819)"/>
<mask id="path-15-inside-8_393_13819" fill="white">
<path d="M16 314H26V324H16V314Z"/>
</mask>
<path d="M26 323H16V325H26V323Z" fill="black" mask="url(#path-15-inside-8_393_13819)"/>
<path d="M30.36 169.33C32.29 169.6 33.63 169.76 33.63 171.32C33.63 172.84 32.38 173.65 29.89 173.65C27.47 173.65 26.2 172.74 26.2 171.32H27.88C27.92 172.05 28.76 172.42 30.03 172.42C31.36 172.42 31.92 172.07 31.92 171.54C31.92 170.82 30.84 170.89 28.93 170.57C27.02 170.25 26.42 169.67 26.42 168.57C26.42 167.42 27.2 166.36 29.77 166.36C32.24 166.36 33.2 167.3 33.24 168.54H31.68C31.62 168.04 31.04 167.59 29.75 167.59C28.31 167.59 27.97 167.98 27.97 168.46C27.97 169.12 29.13 169.16 30.36 169.33ZM41.5897 168.03C42.9597 168.03 43.6697 168.77 43.6697 169.97V173.5H42.1497V170.35C42.1497 169.71 41.8697 169.16 41.0197 169.16C40.1697 169.16 39.8597 169.72 39.8597 170.35V173.5H38.3397V170.35C38.3397 169.71 38.0597 169.16 37.2097 169.16C36.3597 169.16 36.0397 169.73 36.0397 170.35V173.5H34.5297V168.17H36.0397V168.87C36.2297 168.54 36.6897 168.03 37.7797 168.03C38.7097 168.03 39.3297 168.37 39.6297 168.96C39.8197 168.67 40.4197 168.03 41.5897 168.03ZM47.5215 168.03C49.0515 168.03 50.3915 168.47 50.3915 170.04V173.5H48.8715V172.79C48.6415 173.14 47.8715 173.65 46.6815 173.65C45.4315 173.65 44.5715 173.13 44.5715 172.08C44.5715 170.96 45.1515 170.06 48.8715 170.29V170.04C48.8715 169.48 48.6215 169.07 47.5215 169.07C46.6015 169.07 46.3115 169.34 46.2315 169.71H44.8115C44.9815 168.53 46.0615 168.03 47.5215 168.03ZM48.8715 171.94V171.19C46.8515 171.08 46.1015 171.27 46.1015 172.03C46.1015 172.53 46.4715 172.73 47.1315 172.73C47.9515 172.73 48.5915 172.41 48.8715 171.94ZM55.1002 168.04C55.4502 168.04 55.7102 168.07 55.8902 168.12V169.52H55.8402C55.6502 169.44 55.2902 169.35 54.8302 169.35C53.5702 169.35 53.1102 170.14 53.1102 170.97V173.5H51.5902V168.17H53.1102V169.15C53.3302 168.77 53.9602 168.04 55.1002 168.04ZM60.3579 169.21H58.7979V171.45C58.7979 172.32 59.1179 172.49 60.3579 172.36V173.5C60.1579 173.53 59.9179 173.58 59.5679 173.58C57.6479 173.58 57.2779 172.75 57.2779 171.42V169.21H56.2879V168.17H57.2779V166.79H58.7979V168.17H60.3579V169.21ZM70.4086 167.74H65.8686V169.48H70.1186V170.71H65.8686V173.5H64.2586V166.5H70.4086V167.74ZM73.6543 168.03C75.1843 168.03 76.5243 168.47 76.5243 170.04V173.5H75.0043V172.79C74.7743 173.14 74.0043 173.65 72.8143 173.65C71.5643 173.65 70.7043 173.13 70.7043 172.08C70.7043 170.96 71.2843 170.06 75.0043 170.29V170.04C75.0043 169.48 74.7543 169.07 73.6543 169.07C72.7343 169.07 72.4443 169.34 72.3643 169.71H70.9443C71.1143 168.53 72.1943 168.03 73.6543 168.03ZM75.0043 171.94V171.19C72.9843 171.08 72.2343 171.27 72.2343 172.03C72.2343 172.53 72.6043 172.73 73.2643 172.73C74.0843 172.73 74.7243 172.41 75.0043 171.94ZM81.263 168.03C82.633 168.03 83.433 168.77 83.433 169.97V173.5H81.913V170.35C81.913 169.71 81.543 169.16 80.603 169.16C79.663 169.16 79.243 169.73 79.243 170.35V173.5H77.723V168.17H79.243V168.92C79.473 168.6 80.123 168.03 81.263 168.03ZM92.9498 166.5H94.5598V170.67C94.5598 173.12 92.9798 173.65 91.0498 173.65C89.1298 173.65 87.5398 173.12 87.5398 170.67V166.5H89.1498V170.57C89.1498 172 89.8498 172.43 91.0498 172.43C92.2498 172.43 92.9498 172 92.9498 170.57V166.5ZM99.3978 168.03C100.768 168.03 101.568 168.77 101.568 169.97V173.5H100.048V170.35C100.048 169.71 99.6778 169.16 98.7378 169.16C97.7978 169.16 97.3778 169.73 97.3778 170.35V173.5H95.8578V168.17H97.3778V168.92C97.6078 168.6 98.2578 168.03 99.3978 168.03ZM102.772 173.5V168.17H104.282V173.5H102.772ZM103.522 167.55C103.062 167.55 102.742 167.29 102.742 166.84C102.742 166.38 103.062 166.12 103.522 166.12C103.982 166.12 104.312 166.38 104.312 166.84C104.312 167.29 103.982 167.55 103.522 167.55ZM109.059 169.21H107.499V171.45C107.499 172.32 107.819 172.49 109.059 172.36V173.5C108.859 173.53 108.619 173.58 108.269 173.58C106.349 173.58 105.979 172.75 105.979 171.42V169.21H104.989V168.17H105.979V166.79H107.499V168.17H109.059V169.21Z" fill="black"/>
<path d="M68.012 212V203.97H70.597C71.0957 203.97 71.5283 204.069 71.895 204.267C72.2617 204.458 72.544 204.729 72.742 205.081C72.9473 205.433 73.05 205.851 73.05 206.335C73.05 206.812 72.9473 207.23 72.742 207.589C72.544 207.941 72.2617 208.216 71.895 208.414C71.5283 208.605 71.0957 208.7 70.597 208.7H69.002V212H68.012ZM69.002 207.809H70.597C71.0297 207.809 71.3743 207.677 71.631 207.413C71.895 207.142 72.027 206.782 72.027 206.335C72.027 205.88 71.895 205.521 71.631 205.257C71.3743 204.993 71.0297 204.861 70.597 204.861H69.002V207.809ZM76.8957 212.088C76.4117 212.088 75.9937 211.996 75.6417 211.813C75.2897 211.63 75.0147 211.366 74.8167 211.021C74.626 210.669 74.5307 210.255 74.5307 209.778V208.172C74.5307 207.688 74.626 207.274 74.8167 206.929C75.0147 206.584 75.2897 206.32 75.6417 206.137C75.9937 205.954 76.4117 205.862 76.8957 205.862C77.3797 205.862 77.7977 205.954 78.1497 206.137C78.5017 206.32 78.773 206.584 78.9637 206.929C79.1617 207.274 79.2607 207.684 79.2607 208.161V209.778C79.2607 210.255 79.1617 210.669 78.9637 211.021C78.773 211.366 78.5017 211.63 78.1497 211.813C77.7977 211.996 77.3797 212.088 76.8957 212.088ZM76.8957 211.208C77.3284 211.208 77.6657 211.087 77.9077 210.845C78.1497 210.603 78.2707 210.247 78.2707 209.778V208.172C78.2707 207.703 78.1497 207.347 77.9077 207.105C77.6657 206.863 77.3284 206.742 76.8957 206.742C76.4704 206.742 76.133 206.863 75.8837 207.105C75.6417 207.347 75.5207 207.703 75.5207 208.172V209.778C75.5207 210.247 75.6417 210.603 75.8837 210.845C76.133 211.087 76.4704 211.208 76.8957 211.208ZM81.4124 212V205.95H82.3804V207.105H82.6114L82.2924 207.82C82.2924 207.167 82.4317 206.676 82.7104 206.346C82.9964 206.009 83.4181 205.84 83.9754 205.84C84.6134 205.84 85.1194 206.042 85.4934 206.445C85.8747 206.841 86.0654 207.38 86.0654 208.062V208.425H85.0754V208.15C85.0754 207.673 84.9581 207.31 84.7234 207.061C84.4961 206.804 84.1697 206.676 83.7444 206.676C83.3264 206.676 82.9964 206.804 82.7544 207.061C82.5197 207.318 82.4024 207.681 82.4024 208.15V212H81.4124ZM90.7471 212C90.2264 212 89.8194 211.861 89.5261 211.582C89.2401 211.303 89.0971 210.911 89.0971 210.405V206.852H87.3921V205.95H89.0971V204.245H90.0871V205.95H92.5071V206.852H90.0871V210.405C90.0871 210.867 90.3071 211.098 90.7471 211.098H92.3971V212H90.7471ZM101.002 212V203.97H103.279C104.012 203.97 104.584 204.153 104.995 204.52C105.413 204.887 105.622 205.396 105.622 206.049C105.622 206.416 105.545 206.735 105.391 207.006C105.237 207.277 105.017 207.486 104.731 207.633C104.452 207.78 104.115 207.849 103.719 207.842V207.677C104.144 207.67 104.511 207.75 104.819 207.919C105.134 208.088 105.376 208.33 105.545 208.645C105.721 208.96 105.809 209.334 105.809 209.767C105.809 210.222 105.713 210.618 105.523 210.955C105.332 211.292 105.061 211.553 104.709 211.736C104.357 211.912 103.935 212 103.444 212H101.002ZM101.97 211.109H103.334C103.796 211.109 104.159 210.988 104.423 210.746C104.694 210.497 104.83 210.159 104.83 209.734C104.83 209.294 104.694 208.938 104.423 208.667C104.159 208.388 103.796 208.249 103.334 208.249H101.97V211.109ZM101.97 207.391H103.268C103.693 207.391 104.027 207.277 104.269 207.05C104.518 206.823 104.643 206.515 104.643 206.126C104.643 205.737 104.522 205.429 104.28 205.202C104.038 204.975 103.704 204.861 103.279 204.861H101.97V207.391Z" fill="black"/>
<g clip-path="url(#clip1_393_13819)">
<mask id="path-19-inside-9_393_13819" fill="white">
<path d="M16 16H26V26H16V16Z"/>
</mask>
<path d="M17 26V16H15V26H17Z" fill="black" mask="url(#path-19-inside-9_393_13819)"/>
<mask id="path-21-inside-10_393_13819" fill="white">
<path d="M16 16H26V26H16V16Z"/>
</mask>
<path d="M16 17H26V15H16V17Z" fill="black" mask="url(#path-21-inside-10_393_13819)"/>
<mask id="path-23-inside-11_393_13819" fill="white">
<path d="M494 16H504V26H494V16Z"/>
</mask>
<path d="M503 16V26H505V16H503Z" fill="black" mask="url(#path-23-inside-11_393_13819)"/>
<mask id="path-25-inside-12_393_13819" fill="white">
<path d="M494 16H504V26H494V16Z"/>
</mask>
<path d="M494 17H504V15H494V17Z" fill="black" mask="url(#path-25-inside-12_393_13819)"/>
<mask id="path-27-inside-13_393_13819" fill="white">
<path d="M494 324H504V314H494V324Z"/>
</mask>
<path d="M503 324V314H505V324H503Z" fill="black" mask="url(#path-27-inside-13_393_13819)"/>
<mask id="path-29-inside-14_393_13819" fill="white">
<path d="M494 324H504V314H494V324Z"/>
</mask>
<path d="M494 323H504V325H494V323Z" fill="black" mask="url(#path-29-inside-14_393_13819)"/>
<mask id="path-31-inside-15_393_13819" fill="white">
<path d="M16 314H26V324H16V314Z"/>
</mask>
<path d="M17 324V314H15V324H17Z" fill="black" mask="url(#path-31-inside-15_393_13819)"/>
<mask id="path-33-inside-16_393_13819" fill="white">
<path d="M16 314H26V324H16V314Z"/>
</mask>
<path d="M26 323H16V325H26V323Z" fill="black" mask="url(#path-33-inside-16_393_13819)"/>
<circle cx="243.483" cy="146.351" r="1.20677" fill="#9B9B9B"/>
<circle cx="250.156" cy="146.351" r="1.20677" fill="#9B9B9B"/>
<path d="M241.496 146.351V141.098" stroke="#9B9B9B" stroke-width="1.41973" stroke-linecap="round" stroke-linejoin="round"/>
<path d="M241.496 146.351H243.483V141.098H241.496" stroke="#9B9B9B" stroke-width="1.41973" stroke-linecap="round" stroke-linejoin="round"/>
<path d="M252.285 146.351V141.098H250.156V146.351H252.285Z" stroke="#9B9B9B" stroke-width="1.41973" stroke-linecap="round" stroke-linejoin="round"/>
<path d="M243.483 146.351H250.156" stroke="#9B9B9B" stroke-width="1.41973" stroke-linecap="round" stroke-linejoin="round"/>
<path d="M250.156 146.351V146.209V141.24V141.098H243.483L243.625 141.24H250.156" stroke="#9B9B9B" stroke-width="1.41973" stroke-linecap="round" stroke-linejoin="round"/>
<path d="M243.625 141.24V146.209L243.483 146.351" stroke="#9B9B9B" stroke-width="1.41973" stroke-linecap="round" stroke-linejoin="round"/>
<path d="M243.625 146.209H250.156" stroke="#9B9B9B" stroke-width="1.41973" stroke-linecap="round" stroke-linejoin="round"/>
<circle cx="326.68" cy="86.0119" r="1.20677" fill="#9B9B9B"/>
<circle cx="320.007" cy="86.0119" r="1.20677" fill="#9B9B9B"/>
<path d="M328.667 86.0119V91.4069" stroke="#9B9B9B" stroke-width="1.41973" stroke-linecap="round" stroke-linejoin="round"/>
<path d="M328.667 86.0119H326.68V91.2649V91.4069H328.667" stroke="#9B9B9B" stroke-width="1.41973" stroke-linecap="round" stroke-linejoin="round"/>
<path d="M320.007 91.2649V91.4069" stroke="#9B9B9B" stroke-width="1.41973" stroke-linecap="round" stroke-linejoin="round"/>
<path d="M318.019 86.0119V91.4069H320.007" stroke="#9B9B9B" stroke-width="1.41973" stroke-linecap="round" stroke-linejoin="round"/>
<path d="M318.019 86.0119H320.007V91.2649" stroke="#9B9B9B" stroke-width="1.41973" stroke-linecap="round" stroke-linejoin="round"/>
<path d="M326.68 86.0119H320.007" stroke="#9B9B9B" stroke-width="1.41973" stroke-linecap="round" stroke-linejoin="round"/>
<path d="M320.007 86.0119V86.1539V91.2649H326.68H320.007" stroke="#9B9B9B" stroke-width="1.41973" stroke-linecap="round" stroke-linejoin="round"/>
<path d="M326.68 91.2649V86.1539V86.0119" stroke="#9B9B9B" stroke-width="1.41973" stroke-linecap="round" stroke-linejoin="round"/>
<path d="M326.68 86.1539H320.007" stroke="#9B9B9B" stroke-width="1.41973" stroke-linecap="round" stroke-linejoin="round"/>
<path d="M250.156 197V197.142" stroke="#9B9B9B" stroke-width="1.41973" stroke-linecap="round" stroke-linejoin="round"/>
<path d="M243.483 197V197.142" stroke="#9B9B9B" stroke-width="1.41973" stroke-linecap="round" stroke-linejoin="round"/>
<path d="M252.285 197V202.395" stroke="#9B9B9B" stroke-width="1.41973" stroke-linecap="round" stroke-linejoin="round"/>
<path d="M250.156 197.142V202.395H252.285" stroke="#9B9B9B" stroke-width="1.41973" stroke-linecap="round" stroke-linejoin="round"/>
<path d="M252.285 197H250.156" stroke="#9B9B9B" stroke-width="1.41973" stroke-linecap="round" stroke-linejoin="round"/>
<circle cx="243.483" cy="202.395" r="1.20677" fill="#9B9B9B"/>
<path d="M243.483 197H241.496V202.395H243.483V197.142H250.156" stroke="#9B9B9B" stroke-width="1.41973" stroke-linecap="round" stroke-linejoin="round"/>
<path d="M243.483 197.142L243.625 197.284V202.253L243.483 202.395H250.156V202.253H243.625" stroke="#9B9B9B" stroke-width="1.41973" stroke-linecap="round" stroke-linejoin="round"/>
<path d="M250.156 202.253V197.284V197.142" stroke="#9B9B9B" stroke-width="1.41973" stroke-linecap="round" stroke-linejoin="round"/>
<path d="M250.156 197.284H243.625" stroke="#9B9B9B" stroke-width="1.41973" stroke-linecap="round" stroke-linejoin="round"/>
<circle cx="250.156" cy="159.838" r="1.20677" fill="#9B9B9B"/>
<circle cx="243.483" cy="159.838" r="1.20677" fill="#9B9B9B"/>
<path d="M252.285 159.838V165.233" stroke="#9B9B9B" stroke-width="1.41973" stroke-linecap="round" stroke-linejoin="round"/>
<path d="M252.285 159.838H250.156V165.091V165.233H252.285" stroke="#9B9B9B" stroke-width="1.41973" stroke-linecap="round" stroke-linejoin="round"/>
<path d="M243.483 165.091V165.233" stroke="#9B9B9B" stroke-width="1.41973" stroke-linecap="round" stroke-linejoin="round"/>
<path d="M241.496 159.838V165.233H243.483" stroke="#9B9B9B" stroke-width="1.41973" stroke-linecap="round" stroke-linejoin="round"/>
<path d="M241.496 159.838H243.483V165.091" stroke="#9B9B9B" stroke-width="1.41973" stroke-linecap="round" stroke-linejoin="round"/>
<path d="M250.156 159.838H243.483" stroke="#9B9B9B" stroke-width="1.41973" stroke-linecap="round" stroke-linejoin="round"/>
<path d="M243.483 159.838L243.625 159.98V165.091H243.483H250.156H243.625" stroke="#9B9B9B" stroke-width="1.41973" stroke-linecap="round" stroke-linejoin="round"/>
<path d="M250.156 165.091V159.98V159.838" stroke="#9B9B9B" stroke-width="1.41973" stroke-linecap="round" stroke-linejoin="round"/>
<path d="M250.156 159.98H243.625" stroke="#9B9B9B" stroke-width="1.41973" stroke-linecap="round" stroke-linejoin="round"/>
<path d="M318.019 76.6417H319.013H319.439H319.581H319.865H320.291H321H322.278V79.9071H321" stroke="#9B9B9B" stroke-width="1.41973" stroke-linecap="round" stroke-linejoin="round"/>
<path d="M319.581 76.6416V79.907H319.865H320.291H321.001" stroke="#9B9B9B" stroke-width="1.41973" stroke-linecap="round" stroke-linejoin="round"/>
<path d="M319.581 79.907H319.439H319.013" stroke="#9B9B9B" stroke-width="1.41973" stroke-linecap="round" stroke-linejoin="round"/>
<path d="M318.019 76.6417V79.9071H319.013" stroke="#9B9B9B" stroke-width="1.41973" stroke-linecap="round" stroke-linejoin="round"/>
<path d="M318.019 70.2529H319.013H319.439H319.581H319.865H320.291H321H322.278V73.6602H321" stroke="#9B9B9B" stroke-width="1.41973" stroke-linecap="round" stroke-linejoin="round"/>
<path d="M319.581 70.2529V73.6602H319.865H320.291H321.001" stroke="#9B9B9B" stroke-width="1.41973" stroke-linecap="round" stroke-linejoin="round"/>
<path d="M319.581 73.6602H319.439H319.013" stroke="#9B9B9B" stroke-width="1.41973" stroke-linecap="round" stroke-linejoin="round"/>
<path d="M318.019 70.2529V73.6602H319.013" stroke="#9B9B9B" stroke-width="1.41973" stroke-linecap="round" stroke-linejoin="round"/>
<path d="M318.019 63.8641H319.013H319.439H319.581H319.865H320.291H321H322.278V67.2714H321" stroke="#9B9B9B" stroke-width="1.41973" stroke-linecap="round" stroke-linejoin="round"/>
<path d="M319.581 63.864V67.2714H319.865H320.291H321.001" stroke="#9B9B9B" stroke-width="1.41973" stroke-linecap="round" stroke-linejoin="round"/>
<path d="M319.581 67.2714H319.439H319.013" stroke="#9B9B9B" stroke-width="1.41973" stroke-linecap="round" stroke-linejoin="round"/>
<path d="M318.019 63.8641V67.2714H319.013" stroke="#9B9B9B" stroke-width="1.41973" stroke-linecap="round" stroke-linejoin="round"/>
<path d="M338.038 79.907H337.044H336.618H336.476H336.192H335.766H335.056H333.778V76.6416H335.056" stroke="#9B9B9B" stroke-width="1.41973" stroke-linecap="round" stroke-linejoin="round"/>
<path d="M336.475 79.9071V76.6417H336.191H335.766H335.056" stroke="#9B9B9B" stroke-width="1.41973" stroke-linecap="round" stroke-linejoin="round"/>
<path d="M336.476 76.6417H336.618H337.043" stroke="#9B9B9B" stroke-width="1.41973" stroke-linecap="round" stroke-linejoin="round"/>
<path d="M338.037 79.9071V76.6417H337.043" stroke="#9B9B9B" stroke-width="1.41973" stroke-linecap="round" stroke-linejoin="round"/>
<path d="M338.038 67.2714H337.044H336.618H336.476H336.192H335.766H335.056H333.778V63.864H335.056" stroke="#9B9B9B" stroke-width="1.41973" stroke-linecap="round" stroke-linejoin="round"/>
<path d="M336.475 67.2714V63.8641H336.191H335.766H335.056" stroke="#9B9B9B" stroke-width="1.41973" stroke-linecap="round" stroke-linejoin="round"/>
<path d="M336.476 63.8641H336.618H337.043" stroke="#9B9B9B" stroke-width="1.41973" stroke-linecap="round" stroke-linejoin="round"/>
<path d="M338.037 67.2714V63.8641H337.043" stroke="#9B9B9B" stroke-width="1.41973" stroke-linecap="round" stroke-linejoin="round"/>
<path d="M215 304H453" stroke="#9B9B9B" stroke-width="1.41973" stroke-linecap="round" stroke-linejoin="round"/>
<path d="M478.219 36H215" stroke="#9B9B9B" stroke-width="1.41973" stroke-linecap="round" stroke-linejoin="round"/>
<path d="M195 56V284" stroke="#9B9B9B" stroke-width="1.41973" stroke-linecap="round" stroke-linejoin="round"/>
<path d="M195 284C195 295.098 203.992 304.066 215.089 304.089" stroke="#9B9B9B" stroke-width="1.41973" stroke-linecap="round" stroke-linejoin="round"/>
<path d="M215.089 36C203.992 36 195.024 44.9916 195 56.0892" stroke="#9B9B9B" stroke-width="1.41973" stroke-linecap="round" stroke-linejoin="round"/>
<path d="M255.125 292.654C255.125 290.643 253.492 289.034 251.505 289.034C249.517 289.034 247.884 290.643 247.884 292.654C247.884 294.665 249.493 296.275 251.505 296.275C253.516 296.275 255.125 294.665 255.125 292.654Z" stroke="#9B9B9B" stroke-width="1.41973" stroke-linecap="round" stroke-linejoin="round"/>
<path d="M306.235 292.654C306.235 290.643 304.626 289.034 302.615 289.034C300.604 289.034 298.995 290.643 298.995 292.654C298.995 294.665 300.627 296.275 302.615 296.275C304.603 296.275 306.235 294.665 306.235 292.654Z" stroke="#9B9B9B" stroke-width="1.41973" stroke-linecap="round" stroke-linejoin="round"/>
<path d="M272.162 292.654C272.162 290.643 270.553 289.034 268.541 289.034C266.53 289.034 264.921 290.643 264.921 292.654C264.921 294.665 266.53 296.275 268.541 296.275C270.553 296.275 272.162 294.665 272.162 292.654Z" stroke="#9B9B9B" stroke-width="1.41973" stroke-linecap="round" stroke-linejoin="round"/>
<path d="M289.199 292.654C289.199 290.643 287.59 289.034 285.579 289.034C283.568 289.034 281.958 290.643 281.958 292.654C281.958 294.666 283.591 296.275 285.579 296.275C287.566 296.275 289.199 294.666 289.199 292.654Z" stroke="#9B9B9B" stroke-width="1.41973" stroke-linecap="round" stroke-linejoin="round"/>
<path d="M322.278 81.3268V79.907" stroke="#9B9B9B" stroke-width="1.41973" stroke-linecap="round" stroke-linejoin="round"/>
<path d="M322.278 76.6417V73.6602" stroke="#9B9B9B" stroke-width="1.41973" stroke-linecap="round" stroke-linejoin="round"/>
<path d="M322.278 70.2529V67.2714" stroke="#9B9B9B" stroke-width="1.41973" stroke-linecap="round" stroke-linejoin="round"/>
<path d="M322.278 63.8641V62.5863" stroke="#9B9B9B" stroke-width="1.41973" stroke-linecap="round" stroke-linejoin="round"/>
<path d="M322.988 82.0367H333.068" stroke="#9B9B9B" stroke-width="1.41973" stroke-linecap="round" stroke-linejoin="round"/>
<path d="M322.988 61.8765H333.068" stroke="#9B9B9B" stroke-width="1.41973" stroke-linecap="round" stroke-linejoin="round"/>
<path d="M333.778 81.3267V79.907" stroke="#9B9B9B" stroke-width="1.41973" stroke-linecap="round" stroke-linejoin="round"/>
<path d="M333.778 76.6416V67.2714" stroke="#9B9B9B" stroke-width="1.41973" stroke-linecap="round" stroke-linejoin="round"/>
<path d="M333.778 63.8641V62.5863" stroke="#9B9B9B" stroke-width="1.41973" stroke-linecap="round" stroke-linejoin="round"/>
<path d="M322.988 82.0367H322.846L322.704 81.8947L322.562 81.7527L322.42 81.6107V81.4688L322.278 81.3268" stroke="#9B9B9B" stroke-width="1.41973" stroke-linecap="round" stroke-linejoin="round"/>
<path d="M322.278 62.5863L322.42 62.4444V62.3024V62.1604L322.562 62.0184H322.704V61.8765H322.846H322.988" stroke="#9B9B9B" stroke-width="1.41973" stroke-linecap="round" stroke-linejoin="round"/>
<path d="M333.068 82.0367H333.21L333.352 81.8947H333.494V81.7527L333.636 81.6107L333.778 81.4688V81.3268" stroke="#9B9B9B" stroke-width="1.41973" stroke-linecap="round" stroke-linejoin="round"/>
<path d="M333.778 62.5863V62.4444L333.636 62.3024V62.1604L333.494 62.0184L333.352 61.8765H333.21H333.068" stroke="#9B9B9B" stroke-width="1.41973" stroke-linecap="round" stroke-linejoin="round"/>
<path d="M322.988 82.0367H322.846L322.704 81.8947H322.562V81.7527H322.42V81.6107L322.278 81.4688V81.3268" stroke="#9B9B9B" stroke-width="1.41973" stroke-linecap="round" stroke-linejoin="round"/>
<path d="M322.278 62.5863V62.4444L322.42 62.3024V62.1604L322.562 62.0184L322.704 61.8765H322.846H322.988" stroke="#9B9B9B" stroke-width="1.41973" stroke-linecap="round" stroke-linejoin="round"/>
<path d="M333.778 81.3268V81.4688L333.636 81.6107V81.7527H333.494V81.8947H333.352L333.21 82.0367H333.068" stroke="#9B9B9B" stroke-width="1.41973" stroke-linecap="round" stroke-linejoin="round"/>
<path d="M333.068 61.8765H333.21H333.352L333.494 62.0184L333.636 62.1604V62.3024L333.778 62.4444V62.5863" stroke="#9B9B9B" stroke-width="1.41973" stroke-linecap="round" stroke-linejoin="round"/>
<path d="M255.267 217.621V220.603" stroke="#9B9B9B" stroke-width="1.41973" stroke-linecap="round" stroke-linejoin="round"/>
<path d="M261.229 220.603V217.621" stroke="#9B9B9B" stroke-width="1.41973" stroke-linecap="round" stroke-linejoin="round"/>
<path d="M253.066 220.461C253.066 220.461 252.853 220.555 252.853 220.674" stroke="#9B9B9B" stroke-width="1.41973" stroke-linecap="round" stroke-linejoin="round"/>
<path d="M255.267 220.603H252.995" stroke="#9B9B9B" stroke-width="1.41973" stroke-linecap="round" stroke-linejoin="round"/>
<path d="M263.643 220.603H261.229" stroke="#9B9B9B" stroke-width="1.41973" stroke-linecap="round" stroke-linejoin="round"/>
<path d="M263.927 220.674C263.927 220.674 263.833 220.461 263.714 220.461" stroke="#9B9B9B" stroke-width="1.41973" stroke-linecap="round" stroke-linejoin="round"/>
<path d="M255.267 220.603H261.229" stroke="#9B9B9B" stroke-width="1.41973" stroke-linecap="round" stroke-linejoin="round"/>
<path d="M261.229 217.479H255.267" stroke="#9B9B9B" stroke-width="1.41973" stroke-linecap="round" stroke-linejoin="round"/>
<path d="M253.421 222.874V224.294" stroke="#9B9B9B" stroke-width="1.41973" stroke-linecap="round" stroke-linejoin="round"/>
<path d="M253.421 224.294H263.217V222.874H253.421" stroke="#9B9B9B" stroke-width="1.41973" stroke-linecap="round" stroke-linejoin="round"/>
<path d="M255.267 71.9565V74.938" stroke="#9B9B9B" stroke-width="1.41973" stroke-linecap="round" stroke-linejoin="round"/>
<path d="M261.229 74.938V71.9565" stroke="#9B9B9B" stroke-width="1.41973" stroke-linecap="round" stroke-linejoin="round"/>
<path d="M253.066 74.796C253.066 74.796 252.853 74.8906 252.853 75.0089" stroke="#9B9B9B" stroke-width="1.41973" stroke-linecap="round" stroke-linejoin="round"/>
<path d="M255.267 74.938H252.995" stroke="#9B9B9B" stroke-width="1.41973" stroke-linecap="round" stroke-linejoin="round"/>
<path d="M263.643 74.938H261.229" stroke="#9B9B9B" stroke-width="1.41973" stroke-linecap="round" stroke-linejoin="round"/>
<path d="M263.927 75.0089C263.927 75.0089 263.833 74.796 263.714 74.796" stroke="#9B9B9B" stroke-width="1.41973" stroke-linecap="round" stroke-linejoin="round"/>
<path d="M255.267 74.938H261.229" stroke="#9B9B9B" stroke-width="1.41973" stroke-linecap="round" stroke-linejoin="round"/>
<path d="M261.229 71.9565H255.267" stroke="#9B9B9B" stroke-width="1.41973" stroke-linecap="round" stroke-linejoin="round"/>
<path d="M261.229 93.1106V96.092" stroke="#9B9B9B" stroke-width="1.41973" stroke-linecap="round" stroke-linejoin="round"/>
<path d="M252.711 92.8266V75.08" stroke="#9B9B9B" stroke-width="1.41973" stroke-linecap="round" stroke-linejoin="round"/>
<path d="M263.785 75.08V92.8266H252.776" stroke="#9B9B9B" stroke-width="1.41973" stroke-linecap="round" stroke-linejoin="round"/>
<path d="M261.229 96.092H255.267V93" stroke="#9B9B9B" stroke-width="1.41973" stroke-linecap="round" stroke-linejoin="round"/>
<path d="M253.421 77.3515V78.6293" stroke="#9B9B9B" stroke-width="1.41973" stroke-linecap="round" stroke-linejoin="round"/>
<path d="M253.421 78.6293H263.217V77.3515H253.421" stroke="#9B9B9B" stroke-width="1.41973" stroke-linecap="round" stroke-linejoin="round"/>
<path d="M346.13 75.9318V73.9442H351.525V75.9318H346.13Z" stroke="#9B9B9B" stroke-width="1.41973" stroke-linecap="round" stroke-linejoin="round"/>
<path d="M346.13 65.1418V67.2714H351.525V65.1418H346.13Z" stroke="#9B9B9B" stroke-width="1.41973" stroke-linecap="round" stroke-linejoin="round"/>
<path d="M304.532 75.9318V73.9442H309.927V75.9318H304.532Z" stroke="#9B9B9B" stroke-width="1.41973" stroke-linecap="round" stroke-linejoin="round"/>
<path d="M304.532 65.1418V67.2714H309.927V65.1418H304.532Z" stroke="#9B9B9B" stroke-width="1.41973" stroke-linecap="round" stroke-linejoin="round"/>
<path d="M270.884 75.9318V73.9442H276.279V75.9318H270.884Z" stroke="#9B9B9B" stroke-width="1.41973" stroke-linecap="round" stroke-linejoin="round"/>
<path d="M270.884 65.1418V67.2714H276.279V65.1418H270.884Z" stroke="#9B9B9B" stroke-width="1.41973" stroke-linecap="round" stroke-linejoin="round"/>
<path d="M280.964 75.9318V73.9442H286.217V75.9318H280.964Z" stroke="#9B9B9B" stroke-width="1.41973" stroke-linecap="round" stroke-linejoin="round"/>
<path d="M280.964 65.1418V67.2714H286.217V65.1418H280.964Z" stroke="#9B9B9B" stroke-width="1.41973" stroke-linecap="round" stroke-linejoin="round"/>
<path d="M346.13 67.2714V73.9441" stroke="#9B9B9B" stroke-width="1.41973" stroke-linecap="round" stroke-linejoin="round"/>
<path d="M351.525 67.2714V73.9441" stroke="#9B9B9B" stroke-width="1.41973" stroke-linecap="round" stroke-linejoin="round"/>
<path d="M304.532 67.2714V73.9442" stroke="#9B9B9B" stroke-width="1.41973" stroke-linecap="round" stroke-linejoin="round"/>
<path d="M309.927 67.2714V73.9442" stroke="#9B9B9B" stroke-width="1.41973" stroke-linecap="round" stroke-linejoin="round"/>
<path d="M270.884 67.2714V73.9442" stroke="#9B9B9B" stroke-width="1.41973" stroke-linecap="round" stroke-linejoin="round"/>
<path d="M276.137 67.2714V73.9442" stroke="#9B9B9B" stroke-width="1.41973" stroke-linecap="round" stroke-linejoin="round"/>
<path d="M280.964 67.2714V73.9442" stroke="#9B9B9B" stroke-width="1.41973" stroke-linecap="round" stroke-linejoin="round"/>
<path d="M286.217 67.2714V73.9442" stroke="#9B9B9B" stroke-width="1.41973" stroke-linecap="round" stroke-linejoin="round"/>
<path d="M652.735 36L733.119 36.0001C734.425 36.0001 735.485 37.0595 735.485 38.3664V78.3231C735.485 88.7778 727.01 97.2529 716.555 97.2529H648.89M511.323 36.0001H455.366C454.059 36.0001 453 37.0595 453 38.3664V78.3231C453 88.7778 461.475 97.2529 471.93 97.2529H515.053" stroke="#9B9B9B" stroke-width="1.41973"/>
<path d="M496.39 36.0001L505.808 36L511.18 36.0001V97.2529H492.65V36.0001H496.39Z" stroke="#9B9B9B" stroke-width="1.41973"/>
<path d="M652.885 304.793L733.269 304.793C734.576 304.793 735.635 303.734 735.635 302.427V262.47C735.635 252.016 727.16 243.541 716.705 243.541H649.04M511.473 304.793H455.517C454.21 304.793 453.15 303.734 453.15 302.427V262.47C453.15 252.016 461.626 243.541 472.08 243.541H515.203" stroke="#9B9B9B" stroke-width="1.41973"/>
<path d="M496.54 304.793L505.959 304.793L511.331 304.793V243.54H492.801V304.793H496.54Z" stroke="#9B9B9B" stroke-width="1.41973"/>
<circle cx="222.5" cy="73.5" r="3.5" fill="#9B9B9B"/>
<circle cx="222.5" cy="49.5" r="3.5" fill="#9B9B9B"/>
<circle cx="210.5" cy="73.5" r="3.5" fill="#9B9B9B"/>
<circle cx="210.5" cy="49.5" r="3.5" fill="#9B9B9B"/>
<circle cx="222.5" cy="221.5" r="3.5" fill="#9B9B9B"/>
<circle cx="222.5" cy="197.5" r="3.5" fill="#9B9B9B"/>
<circle cx="210.5" cy="221.5" r="3.5" fill="#9B9B9B"/>
<circle cx="210.5" cy="197.5" r="3.5" fill="#9B9B9B"/>
<path d="M261.518 239.031V242.012" stroke="#9B9B9B" stroke-width="1.41973" stroke-linecap="round" stroke-linejoin="round"/>
<path d="M253 238.747V221" stroke="#9B9B9B" stroke-width="1.41973" stroke-linecap="round" stroke-linejoin="round"/>
<path d="M264.074 221V238.747H253.065" stroke="#9B9B9B" stroke-width="1.41973" stroke-linecap="round" stroke-linejoin="round"/>
<path d="M261.518 242.012H255.555V238.92" stroke="#9B9B9B" stroke-width="1.41973" stroke-linecap="round" stroke-linejoin="round"/>
</g>
<rect width="80" height="18" transform="translate(132 212)" fill="#FF443A"/>
<path d="M139.588 225.12C138.78 225.12 138.132 224.92 137.644 224.52C137.156 224.112 136.888 223.56 136.84 222.864H138.34C138.372 223.168 138.492 223.404 138.7 223.572C138.916 223.732 139.212 223.812 139.588 223.812C140.004 223.812 140.32 223.704 140.536 223.488C140.752 223.264 140.86 222.956 140.86 222.564V221.712C140.86 221.312 140.752 221.008 140.536 220.8C140.32 220.584 140.004 220.476 139.588 220.476C139.332 220.476 139.112 220.528 138.928 220.632C138.744 220.736 138.604 220.88 138.508 221.064H137.044L137.104 216.24H142.036V217.596H138.52L138.496 220.14H138.844L138.484 220.44C138.484 220.072 138.628 219.784 138.916 219.576C139.212 219.36 139.608 219.252 140.104 219.252C140.816 219.244 141.368 219.46 141.76 219.9C142.16 220.332 142.36 220.936 142.36 221.712V222.564C142.36 223.356 142.112 223.98 141.616 224.436C141.128 224.892 140.452 225.12 139.588 225.12ZM145.823 225L143.615 216.24H145.175L146.495 221.952C146.567 222.232 146.635 222.532 146.699 222.852C146.763 223.172 146.811 223.432 146.843 223.632C146.875 223.432 146.919 223.172 146.975 222.852C147.031 222.532 147.091 222.228 147.155 221.94L148.463 216.24H149.975L147.767 225H145.823ZM158.51 225V216.24H161.426C162.01 216.24 162.518 216.352 162.95 216.576C163.39 216.8 163.73 217.116 163.97 217.524C164.21 217.924 164.33 218.396 164.33 218.94C164.33 219.476 164.206 219.948 163.958 220.356C163.718 220.764 163.382 221.08 162.95 221.304C162.518 221.528 162.01 221.64 161.426 221.64H160.01V225H158.51ZM160.01 220.284H161.426C161.842 220.284 162.174 220.164 162.422 219.924C162.678 219.676 162.806 219.348 162.806 218.94C162.806 218.524 162.678 218.196 162.422 217.956C162.174 217.716 161.842 217.596 161.426 217.596H160.01V220.284ZM165.873 225L164.973 216.24H166.269L166.797 222.36C166.813 222.496 166.825 222.664 166.833 222.864C166.849 223.056 166.861 223.252 166.869 223.452C166.885 223.652 166.893 223.828 166.893 223.98C166.909 223.828 166.925 223.652 166.941 223.452C166.957 223.252 166.973 223.056 166.989 222.864C167.013 222.664 167.033 222.496 167.049 222.36L167.769 216.24H169.029L169.701 222.36C169.725 222.496 169.745 222.664 169.761 222.864C169.785 223.056 169.809 223.252 169.833 223.452C169.857 223.652 169.877 223.828 169.893 223.98C169.901 223.828 169.909 223.652 169.917 223.452C169.925 223.252 169.933 223.056 169.941 222.864C169.957 222.664 169.973 222.496 169.989 222.36L170.505 216.24H171.789L170.841 225H169.185L168.537 218.856C168.521 218.704 168.501 218.528 168.477 218.328C168.461 218.12 168.445 217.916 168.429 217.716C168.413 217.508 168.401 217.332 168.393 217.188C168.385 217.332 168.369 217.508 168.345 217.716C168.329 217.916 168.313 218.12 168.297 218.328C168.281 218.528 168.265 218.704 168.249 218.856L167.541 225H165.873ZM172.889 225V216.24H175.661C176.245 216.24 176.749 216.348 177.173 216.564C177.605 216.78 177.941 217.084 178.181 217.476C178.421 217.86 178.541 218.316 178.541 218.844C178.541 219.42 178.393 219.928 178.097 220.368C177.809 220.808 177.417 221.12 176.921 221.304L178.661 225H176.981L175.457 221.52H174.389V225H172.889ZM174.389 220.2H175.661C176.085 220.2 176.417 220.084 176.657 219.852C176.897 219.62 177.017 219.3 177.017 218.892C177.017 218.476 176.897 218.152 176.657 217.92C176.417 217.68 176.085 217.56 175.661 217.56H174.389V220.2Z" fill="white"/>
<rect width="67" height="18" transform="translate(238 212)" fill="#050505"/>
<path d="M245.648 225.12C245.088 225.12 244.596 225.016 244.172 224.808C243.756 224.592 243.432 224.292 243.2 223.908C242.976 223.516 242.864 223.056 242.864 222.528V218.712C242.864 218.176 242.976 217.716 243.2 217.332C243.432 216.948 243.756 216.652 244.172 216.444C244.596 216.228 245.088 216.12 245.648 216.12C246.216 216.12 246.704 216.228 247.112 216.444C247.528 216.652 247.852 216.948 248.084 217.332C248.316 217.716 248.432 218.176 248.432 218.712H246.92C246.92 218.296 246.808 217.98 246.584 217.764C246.368 217.548 246.056 217.44 245.648 217.44C245.24 217.44 244.924 217.548 244.7 217.764C244.476 217.98 244.364 218.292 244.364 218.7V222.528C244.364 222.936 244.476 223.252 244.7 223.476C244.924 223.7 245.24 223.812 245.648 223.812C246.056 223.812 246.368 223.7 246.584 223.476C246.808 223.252 246.92 222.936 246.92 222.528V221.64H245.432V220.344H248.432V222.528C248.432 223.056 248.316 223.516 248.084 223.908C247.852 224.292 247.528 224.592 247.112 224.808C246.704 225.016 246.216 225.12 245.648 225.12ZM250.059 225V216.24H251.895L254.331 223.32C254.307 223.064 254.279 222.764 254.247 222.42C254.223 222.068 254.203 221.712 254.187 221.352C254.171 220.984 254.163 220.664 254.163 220.392V216.24H255.531V225H253.695L251.283 217.92C251.299 218.152 251.319 218.432 251.343 218.76C251.367 219.088 251.387 219.424 251.403 219.768C251.419 220.112 251.427 220.428 251.427 220.716V225H250.059ZM257.291 225V216.24H259.895C260.487 216.24 260.999 216.352 261.431 216.576C261.871 216.8 262.211 217.116 262.451 217.524C262.691 217.932 262.811 218.416 262.811 218.976V222.252C262.811 222.804 262.691 223.288 262.451 223.704C262.211 224.112 261.871 224.432 261.431 224.664C260.999 224.888 260.487 225 259.895 225H257.291ZM258.791 223.62H259.895C260.327 223.62 260.671 223.5 260.927 223.26C261.183 223.012 261.311 222.676 261.311 222.252V218.976C261.311 218.56 261.183 218.232 260.927 217.992C260.671 217.744 260.327 217.62 259.895 217.62H258.791V223.62Z" fill="white"/>
<rect width="20" height="18" transform="translate(221 188)" fill="#7723FF"/>
<rect width="19" height="18" transform="translate(221 212)" fill="#050505"/>
<rect x="223" y="215" width="12" height="12" fill="#E6E6E6" stroke="black" stroke-width="2"/>
<rect width="67" height="18" transform="translate(238 188)" fill="#7723FF"/>
<path d="M242.96 201V192.24H248.408V193.632H244.436V195.972H248.096V197.364H244.46V201H242.96ZM249.615 201L251.823 192.24H253.755L255.975 201H254.439L253.959 198.876H251.631L251.151 201H249.615ZM251.907 197.652H253.683L253.155 195.3C253.067 194.908 252.991 194.556 252.927 194.244C252.863 193.924 252.819 193.692 252.795 193.548C252.771 193.692 252.727 193.924 252.663 194.244C252.607 194.556 252.531 194.904 252.435 195.288L251.907 197.652ZM257.255 201V192.24H259.091L261.527 199.32C261.503 199.064 261.475 198.764 261.443 198.42C261.419 198.068 261.399 197.712 261.383 197.352C261.367 196.984 261.359 196.664 261.359 196.392V192.24H262.727V201H260.891L258.479 193.92C258.495 194.152 258.515 194.432 258.539 194.76C258.563 195.088 258.583 195.424 258.599 195.768C258.615 196.112 258.623 196.428 258.623 196.716V201H257.255ZM273.625 201V193.632H271.333V192.24H277.429V193.632H275.137V201H273.625ZM278.397 201L280.605 192.24H282.537L284.757 201H283.221L282.741 198.876H280.413L279.933 201H278.397ZM280.689 197.652H282.465L281.937 195.3C281.849 194.908 281.773 194.556 281.709 194.244C281.645 193.924 281.601 193.692 281.577 193.548C281.553 193.692 281.509 193.924 281.445 194.244C281.389 194.556 281.313 194.904 281.217 195.288L280.689 197.652ZM288.82 201.12C288.26 201.12 287.768 201.016 287.344 200.808C286.928 200.592 286.604 200.292 286.372 199.908C286.148 199.516 286.036 199.056 286.036 198.528V194.712C286.036 194.176 286.148 193.716 286.372 193.332C286.604 192.948 286.928 192.652 287.344 192.444C287.768 192.228 288.26 192.12 288.82 192.12C289.388 192.12 289.876 192.228 290.284 192.444C290.7 192.652 291.024 192.948 291.256 193.332C291.488 193.716 291.604 194.176 291.604 194.712H290.092C290.092 194.296 289.98 193.98 289.756 193.764C289.54 193.548 289.228 193.44 288.82 193.44C288.412 193.44 288.096 193.548 287.872 193.764C287.648 193.98 287.536 194.292 287.536 194.7V198.528C287.536 198.936 287.648 199.252 287.872 199.476C288.096 199.692 288.412 199.8 288.82 199.8C289.228 199.8 289.54 199.692 289.756 199.476C289.98 199.252 290.092 198.936 290.092 198.528H291.604C291.604 199.048 291.488 199.504 291.256 199.896C291.024 200.288 290.7 200.592 290.284 200.808C289.876 201.016 289.388 201.12 288.82 201.12ZM293.291 201V192.24H294.791V195.756H297.143V192.24H298.643V201H297.143V197.148H294.791V201H293.291Z" fill="white"/>
<rect width="67" height="18" transform="translate(305 188)" fill="#6CD129"/>
<path d="M312.6 201.12C311.744 201.12 311.072 200.888 310.584 200.424C310.104 199.952 309.864 199.312 309.864 198.504V192.24H311.376V198.492C311.376 198.908 311.48 199.232 311.688 199.464C311.896 199.696 312.2 199.812 312.6 199.812C312.992 199.812 313.292 199.696 313.5 199.464C313.716 199.232 313.824 198.908 313.824 198.492V192.24H315.336V198.504C315.336 199.312 315.096 199.952 314.616 200.424C314.136 200.888 313.464 201.12 312.6 201.12ZM316.615 201L318.823 192.24H320.755L322.975 201H321.439L320.959 198.876H318.631L318.151 201H316.615ZM318.907 197.652H320.683L320.155 195.3C320.067 194.908 319.991 194.556 319.927 194.244C319.863 193.924 319.819 193.692 319.795 193.548C319.771 193.692 319.727 193.924 319.663 194.244C319.607 194.556 319.531 194.904 319.435 195.288L318.907 197.652ZM324.303 201V192.24H327.075C327.659 192.24 328.163 192.348 328.587 192.564C329.019 192.78 329.355 193.084 329.595 193.476C329.835 193.86 329.955 194.316 329.955 194.844C329.955 195.42 329.807 195.928 329.511 196.368C329.223 196.808 328.831 197.12 328.335 197.304L330.075 201H328.395L326.871 197.52H325.803V201H324.303ZM325.803 196.2H327.075C327.499 196.2 327.831 196.084 328.071 195.852C328.311 195.62 328.431 195.3 328.431 194.892C328.431 194.476 328.311 194.152 328.071 193.92C327.831 193.68 327.499 193.56 327.075 193.56H325.803V196.2ZM333.43 201V193.632H331.138V192.24H337.234V193.632H334.942V201H333.43ZM338.789 201V199.68H341.069V193.572L338.777 195.276V193.692L340.793 192.24H342.569V199.68H344.405V201H338.789ZM355.016 201V193.632H352.724V192.24H358.82V193.632H356.528V201H355.016ZM359.703 201L362.127 196.512L359.847 192.24H361.527L362.631 194.436C362.711 194.596 362.783 194.752 362.847 194.904C362.911 195.048 362.959 195.16 362.991 195.24C363.015 195.16 363.059 195.048 363.123 194.904C363.187 194.752 363.259 194.596 363.339 194.436L364.455 192.24H366.087L363.807 196.476L366.231 201H364.551L363.315 198.576C363.235 198.416 363.159 198.26 363.087 198.108C363.023 197.956 362.975 197.836 362.943 197.748C362.911 197.836 362.863 197.956 362.799 198.108C362.735 198.26 362.663 198.416 362.583 198.576L361.335 201H359.703Z" fill="white"/>
<rect width="80" height="18" transform="translate(132 188)" fill="#6CD129"/>
<path d="M139.6 201.12C138.744 201.12 138.072 200.888 137.584 200.424C137.104 199.952 136.864 199.312 136.864 198.504V192.24H138.376V198.492C138.376 198.908 138.48 199.232 138.688 199.464C138.896 199.696 139.2 199.812 139.6 199.812C139.992 199.812 140.292 199.696 140.5 199.464C140.716 199.232 140.824 198.908 140.824 198.492V192.24H142.336V198.504C142.336 199.312 142.096 199.952 141.616 200.424C141.136 200.888 140.464 201.12 139.6 201.12ZM143.615 201L145.823 192.24H147.755L149.975 201H148.439L147.959 198.876H145.631L145.151 201H143.615ZM145.907 197.652H147.683L147.155 195.3C147.067 194.908 146.991 194.556 146.927 194.244C146.863 193.924 146.819 193.692 146.795 193.548C146.771 193.692 146.727 193.924 146.663 194.244C146.607 194.556 146.531 194.904 146.435 195.288L145.907 197.652ZM151.303 201V192.24H154.075C154.659 192.24 155.163 192.348 155.587 192.564C156.019 192.78 156.355 193.084 156.595 193.476C156.835 193.86 156.955 194.316 156.955 194.844C156.955 195.42 156.807 195.928 156.511 196.368C156.223 196.808 155.831 197.12 155.335 197.304L157.075 201H155.395L153.871 197.52H152.803V201H151.303ZM152.803 196.2H154.075C154.499 196.2 154.831 196.084 155.071 195.852C155.311 195.62 155.431 195.3 155.431 194.892C155.431 194.476 155.311 194.152 155.071 193.92C154.831 193.68 154.499 193.56 154.075 193.56H152.803V196.2ZM160.43 201V193.632H158.138V192.24H164.234V193.632H161.942V201H160.43ZM165.789 201V199.68H168.069V193.572L165.777 195.276V193.692L167.793 192.24H169.569V199.68H171.405V201H165.789ZM180.084 201V192.24H182.856C183.44 192.24 183.944 192.348 184.368 192.564C184.8 192.78 185.136 193.084 185.376 193.476C185.616 193.86 185.736 194.316 185.736 194.844C185.736 195.42 185.588 195.928 185.292 196.368C185.004 196.808 184.612 197.12 184.116 197.304L185.856 201H184.176L182.652 197.52H181.584V201H180.084ZM181.584 196.2H182.856C183.28 196.2 183.612 196.084 183.852 195.852C184.092 195.62 184.212 195.3 184.212 194.892C184.212 194.476 184.092 194.152 183.852 193.92C183.612 193.68 183.28 193.56 182.856 193.56H181.584V196.2ZM186.703 201L189.127 196.512L186.847 192.24H188.527L189.631 194.436C189.711 194.596 189.783 194.752 189.847 194.904C189.911 195.048 189.959 195.16 189.991 195.24C190.015 195.16 190.059 195.048 190.123 194.904C190.187 194.752 190.259 194.596 190.339 194.436L191.455 192.24H193.087L190.807 196.476L193.231 201H191.551L190.315 198.576C190.235 198.416 190.159 198.26 190.087 198.108C190.023 197.956 189.975 197.836 189.943 197.748C189.911 197.836 189.863 197.956 189.799 198.108C189.735 198.26 189.663 198.416 189.583 198.576L188.335 201H186.703Z" fill="white"/>
<mask id="path-184-inside-17_393_13819" fill="white">
<path d="M235 197C235 200.314 232.314 203 229 203C225.686 203 223 200.314 223 197C223 193.686 225.686 191 229 191C232.314 191 235 193.686 235 197Z"/>
</mask>
<path d="M235 197C235 200.314 232.314 203 229 203C225.686 203 223 200.314 223 197C223 193.686 225.686 191 229 191C232.314 191 235 193.686 235 197Z" fill="#E6E6E6"/>
<path d="M233.5 197C233.5 199.485 231.485 201.5 229 201.5V204.5C233.142 204.5 236.5 201.142 236.5 197H233.5ZM229 201.5C226.515 201.5 224.5 199.485 224.5 197H221.5C221.5 201.142 224.858 204.5 229 204.5V201.5ZM224.5 197C224.5 194.515 226.515 192.5 229 192.5V189.5C224.858 189.5 221.5 192.858 221.5 197H224.5ZM229 192.5C231.485 192.5 233.5 194.515 233.5 197H236.5C236.5 192.858 233.142 189.5 229 189.5V192.5Z" fill="black" mask="url(#path-184-inside-17_393_13819)"/>
<mask id="path-186-inside-18_393_13819" fill="white">
<path d="M209 197C209 200.314 206.314 203 203 203C199.686 203 197 200.314 197 197C197 193.686 199.686 191 203 191C206.314 191 209 193.686 209 197Z"/>
</mask>
<path d="M209 197C209 200.314 206.314 203 203 203C199.686 203 197 200.314 197 197C197 193.686 199.686 191 203 191C206.314 191 209 193.686 209 197Z" fill="#E6E6E6"/>
<path d="M207.5 197C207.5 199.485 205.485 201.5 203 201.5V204.5C207.142 204.5 210.5 201.142 210.5 197H207.5ZM203 201.5C200.515 201.5 198.5 199.485 198.5 197H195.5C195.5 201.142 198.858 204.5 203 204.5V201.5ZM198.5 197C198.5 194.515 200.515 192.5 203 192.5V189.5C198.858 189.5 195.5 192.858 195.5 197H198.5ZM203 192.5C205.485 192.5 207.5 194.515 207.5 197H210.5C210.5 192.858 207.142 189.5 203 189.5V192.5Z" fill="black" mask="url(#path-186-inside-18_393_13819)"/>
<mask id="path-188-inside-19_393_13819" fill="white">
<path d="M209 221C209 224.314 206.314 227 203 227C199.686 227 197 224.314 197 221C197 217.686 199.686 215 203 215C206.314 215 209 217.686 209 221Z"/>
</mask>
<path d="M209 221C209 224.314 206.314 227 203 227C199.686 227 197 224.314 197 221C197 217.686 199.686 215 203 215C206.314 215 209 217.686 209 221Z" fill="#E6E6E6"/>
<path d="M207.5 221C207.5 223.485 205.485 225.5 203 225.5V228.5C207.142 228.5 210.5 225.142 210.5 221H207.5ZM203 225.5C200.515 225.5 198.5 223.485 198.5 221H195.5C195.5 225.142 198.858 228.5 203 228.5V225.5ZM198.5 221C198.5 218.515 200.515 216.5 203 216.5V213.5C198.858 213.5 195.5 216.858 195.5 221H198.5ZM203 216.5C205.485 216.5 207.5 218.515 207.5 221H210.5C210.5 216.858 207.142 213.5 203 213.5V216.5Z" fill="black" mask="url(#path-188-inside-19_393_13819)"/>
<rect width="74" height="18" transform="translate(138 41)" fill="#7723FF"/>
<path d="M142.96 54V45.24H148.408V46.632H144.436V48.972H148.096V50.364H144.46V54H142.96ZM149.615 54L151.823 45.24H153.755L155.975 54H154.439L153.959 51.876H151.631L151.151 54H149.615ZM151.907 50.652H153.683L153.155 48.3C153.067 47.908 152.991 47.556 152.927 47.244C152.863 46.924 152.819 46.692 152.795 46.548C152.771 46.692 152.727 46.924 152.663 47.244C152.607 47.556 152.531 47.904 152.435 48.288L151.907 50.652ZM157.255 54V45.24H159.091L161.527 52.32C161.503 52.064 161.475 51.764 161.443 51.42C161.419 51.068 161.399 50.712 161.383 50.352C161.367 49.984 161.359 49.664 161.359 49.392V45.24H162.727V54H160.891L158.479 46.92C158.495 47.152 158.515 47.432 158.539 47.76C158.563 48.088 158.583 48.424 158.599 48.768C158.615 49.112 158.623 49.428 158.623 49.716V54H157.255ZM171.705 54V45.24H174.621C175.205 45.24 175.713 45.352 176.145 45.576C176.585 45.8 176.925 46.116 177.165 46.524C177.405 46.924 177.525 47.396 177.525 47.94C177.525 48.476 177.401 48.948 177.153 49.356C176.913 49.764 176.577 50.08 176.145 50.304C175.713 50.528 175.205 50.64 174.621 50.64H173.205V54H171.705ZM173.205 49.284H174.621C175.037 49.284 175.369 49.164 175.617 48.924C175.873 48.676 176.001 48.348 176.001 47.94C176.001 47.524 175.873 47.196 175.617 46.956C175.369 46.716 175.037 46.596 174.621 46.596H173.205V49.284ZM179.069 54L178.169 45.24H179.465L179.993 51.36C180.009 51.496 180.021 51.664 180.029 51.864C180.045 52.056 180.057 52.252 180.065 52.452C180.081 52.652 180.089 52.828 180.089 52.98C180.105 52.828 180.121 52.652 180.137 52.452C180.153 52.252 180.169 52.056 180.185 51.864C180.209 51.664 180.229 51.496 180.245 51.36L180.965 45.24H182.225L182.897 51.36C182.921 51.496 182.941 51.664 182.957 51.864C182.981 52.056 183.005 52.252 183.029 52.452C183.053 52.652 183.073 52.828 183.089 52.98C183.097 52.828 183.105 52.652 183.113 52.452C183.121 52.252 183.129 52.056 183.137 51.864C183.153 51.664 183.169 51.496 183.185 51.36L183.701 45.24H184.985L184.037 54H182.381L181.733 47.856C181.717 47.704 181.697 47.528 181.673 47.328C181.657 47.12 181.641 46.916 181.625 46.716C181.609 46.508 181.597 46.332 181.589 46.188C181.581 46.332 181.565 46.508 181.541 46.716C181.525 46.916 181.509 47.12 181.493 47.328C181.477 47.528 181.461 47.704 181.445 47.856L180.737 54H179.069ZM185.844 54V45.24H187.62L188.472 48.024C188.56 48.304 188.632 48.56 188.688 48.792C188.744 49.024 188.78 49.192 188.796 49.296C188.812 49.192 188.848 49.024 188.904 48.792C188.96 48.56 189.028 48.304 189.108 48.024L189.924 45.24H191.7V54H190.296V51.276C190.296 50.876 190.308 50.44 190.332 49.968C190.356 49.496 190.384 49.024 190.416 48.552C190.448 48.08 190.484 47.632 190.524 47.208C190.572 46.784 190.612 46.412 190.644 46.092L189.468 50.232H188.1L186.888 46.092C186.928 46.396 186.968 46.756 187.008 47.172C187.048 47.58 187.084 48.02 187.116 48.492C187.156 48.956 187.188 49.428 187.212 49.908C187.236 50.388 187.248 50.844 187.248 51.276V54H185.844Z" fill="white"/>
<rect width="74" height="18" transform="translate(138 65)" fill="#FF443A"/>
<path d="M145.588 78.12C144.78 78.12 144.132 77.92 143.644 77.52C143.156 77.112 142.888 76.56 142.84 75.864H144.34C144.372 76.168 144.492 76.404 144.7 76.572C144.916 76.732 145.212 76.812 145.588 76.812C146.004 76.812 146.32 76.704 146.536 76.488C146.752 76.264 146.86 75.956 146.86 75.564V74.712C146.86 74.312 146.752 74.008 146.536 73.8C146.32 73.584 146.004 73.476 145.588 73.476C145.332 73.476 145.112 73.528 144.928 73.632C144.744 73.736 144.604 73.88 144.508 74.064H143.044L143.104 69.24H148.036V70.596H144.52L144.496 73.14H144.844L144.484 73.44C144.484 73.072 144.628 72.784 144.916 72.576C145.212 72.36 145.608 72.252 146.104 72.252C146.816 72.244 147.368 72.46 147.76 72.9C148.16 73.332 148.36 73.936 148.36 74.712V75.564C148.36 76.356 148.112 76.98 147.616 77.436C147.128 77.892 146.452 78.12 145.588 78.12ZM151.823 78L149.615 69.24H151.175L152.495 74.952C152.567 75.232 152.635 75.532 152.699 75.852C152.763 76.172 152.811 76.432 152.843 76.632C152.875 76.432 152.919 76.172 152.975 75.852C153.031 75.532 153.091 75.228 153.155 74.94L154.463 69.24H155.975L153.767 78H151.823ZM164.51 78V69.24H167.426C168.01 69.24 168.518 69.352 168.95 69.576C169.39 69.8 169.73 70.116 169.97 70.524C170.21 70.924 170.33 71.396 170.33 71.94C170.33 72.476 170.206 72.948 169.958 73.356C169.718 73.764 169.382 74.08 168.95 74.304C168.518 74.528 168.01 74.64 167.426 74.64H166.01V78H164.51ZM166.01 73.284H167.426C167.842 73.284 168.174 73.164 168.422 72.924C168.678 72.676 168.806 72.348 168.806 71.94C168.806 71.524 168.678 71.196 168.422 70.956C168.174 70.716 167.842 70.596 167.426 70.596H166.01V73.284ZM171.873 78L170.973 69.24H172.269L172.797 75.36C172.813 75.496 172.825 75.664 172.833 75.864C172.849 76.056 172.861 76.252 172.869 76.452C172.885 76.652 172.893 76.828 172.893 76.98C172.909 76.828 172.925 76.652 172.941 76.452C172.957 76.252 172.973 76.056 172.989 75.864C173.013 75.664 173.033 75.496 173.049 75.36L173.769 69.24H175.029L175.701 75.36C175.725 75.496 175.745 75.664 175.761 75.864C175.785 76.056 175.809 76.252 175.833 76.452C175.857 76.652 175.877 76.828 175.893 76.98C175.901 76.828 175.909 76.652 175.917 76.452C175.925 76.252 175.933 76.056 175.941 75.864C175.957 75.664 175.973 75.496 175.989 75.36L176.505 69.24H177.789L176.841 78H175.185L174.537 71.856C174.521 71.704 174.501 71.528 174.477 71.328C174.461 71.12 174.445 70.916 174.429 70.716C174.413 70.508 174.401 70.332 174.393 70.188C174.385 70.332 174.369 70.508 174.345 70.716C174.329 70.916 174.313 71.12 174.297 71.328C174.281 71.528 174.265 71.704 174.249 71.856L173.541 78H171.873ZM178.889 78V69.24H181.661C182.245 69.24 182.749 69.348 183.173 69.564C183.605 69.78 183.941 70.084 184.181 70.476C184.421 70.86 184.541 71.316 184.541 71.844C184.541 72.42 184.393 72.928 184.097 73.368C183.809 73.808 183.417 74.12 182.921 74.304L184.661 78H182.981L181.457 74.52H180.389V78H178.889ZM180.389 73.2H181.661C182.085 73.2 182.417 73.084 182.657 72.852C182.897 72.62 183.017 72.3 183.017 71.892C183.017 71.476 182.897 71.152 182.657 70.92C182.417 70.68 182.085 70.56 181.661 70.56H180.389V73.2Z" fill="white"/>
<rect width="67" height="18" transform="translate(240 65.0002)" fill="#050505"/>
<path d="M247.648 78.1202C247.088 78.1202 246.596 78.0162 246.172 77.8082C245.756 77.5922 245.432 77.2922 245.2 76.9082C244.976 76.5162 244.864 76.0562 244.864 75.5282V71.7122C244.864 71.1762 244.976 70.7162 245.2 70.3322C245.432 69.9482 245.756 69.6522 246.172 69.4442C246.596 69.2282 247.088 69.1202 247.648 69.1202C248.216 69.1202 248.704 69.2282 249.112 69.4442C249.528 69.6522 249.852 69.9482 250.084 70.3322C250.316 70.7162 250.432 71.1762 250.432 71.7122H248.92C248.92 71.2962 248.808 70.9802 248.584 70.7642C248.368 70.5482 248.056 70.4402 247.648 70.4402C247.24 70.4402 246.924 70.5482 246.7 70.7642C246.476 70.9802 246.364 71.2922 246.364 71.7002V75.5282C246.364 75.9362 246.476 76.2522 246.7 76.4762C246.924 76.7002 247.24 76.8122 247.648 76.8122C248.056 76.8122 248.368 76.7002 248.584 76.4762C248.808 76.2522 248.92 75.9362 248.92 75.5282V74.6402H247.432V73.3442H250.432V75.5282C250.432 76.0562 250.316 76.5162 250.084 76.9082C249.852 77.2922 249.528 77.5922 249.112 77.8082C248.704 78.0162 248.216 78.1202 247.648 78.1202ZM252.059 78.0002V69.2402H253.895L256.331 76.3202C256.307 76.0642 256.279 75.7642 256.247 75.4202C256.223 75.0682 256.203 74.7122 256.187 74.3522C256.171 73.9842 256.163 73.6642 256.163 73.3922V69.2402H257.531V78.0002H255.695L253.283 70.9202C253.299 71.1522 253.319 71.4322 253.343 71.7602C253.367 72.0882 253.387 72.4242 253.403 72.7682C253.419 73.1122 253.427 73.4282 253.427 73.7162V78.0002H252.059ZM259.291 78.0002V69.2402H261.895C262.487 69.2402 262.999 69.3522 263.431 69.5762C263.871 69.8002 264.211 70.1162 264.451 70.5242C264.691 70.9322 264.811 71.4162 264.811 71.9762V75.2522C264.811 75.8042 264.691 76.2882 264.451 76.7042C264.211 77.1122 263.871 77.4322 263.431 77.6642C262.999 77.8882 262.487 78.0002 261.895 78.0002H259.291ZM260.791 76.6202H261.895C262.327 76.6202 262.671 76.5002 262.927 76.2602C263.183 76.0122 263.311 75.6762 263.311 75.2522V71.9762C263.311 71.5602 263.183 71.2322 262.927 70.9922C262.671 70.7442 262.327 70.6202 261.895 70.6202H260.791V76.6202Z" fill="white"/>
<rect width="19" height="18" transform="translate(221 41)" fill="#7723FF"/>
<rect width="19" height="18" transform="translate(221 65)" fill="#050505"/>
<rect x="224" y="68" width="12" height="12" fill="#E6E6E6" stroke="black" stroke-width="2"/>
<rect width="67" height="18" transform="translate(240 41)" fill="#7723FF"/>
<path d="M244.96 54V45.24H250.408V46.632H246.436V48.972H250.096V50.364H246.46V54H244.96ZM251.615 54L253.823 45.24H255.755L257.975 54H256.439L255.959 51.876H253.631L253.151 54H251.615ZM253.907 50.652H255.683L255.155 48.3C255.067 47.908 254.991 47.556 254.927 47.244C254.863 46.924 254.819 46.692 254.795 46.548C254.771 46.692 254.727 46.924 254.663 47.244C254.607 47.556 254.531 47.904 254.435 48.288L253.907 50.652ZM259.255 54V45.24H261.091L263.527 52.32C263.503 52.064 263.475 51.764 263.443 51.42C263.419 51.068 263.399 50.712 263.383 50.352C263.367 49.984 263.359 49.664 263.359 49.392V45.24H264.727V54H262.891L260.479 46.92C260.495 47.152 260.515 47.432 260.539 47.76C260.563 48.088 260.583 48.424 260.599 48.768C260.615 49.112 260.623 49.428 260.623 49.716V54H259.255ZM275.625 54V46.632H273.333V45.24H279.429V46.632H277.137V54H275.625ZM280.397 54L282.605 45.24H284.537L286.757 54H285.221L284.741 51.876H282.413L281.933 54H280.397ZM282.689 50.652H284.465L283.937 48.3C283.849 47.908 283.773 47.556 283.709 47.244C283.645 46.924 283.601 46.692 283.577 46.548C283.553 46.692 283.509 46.924 283.445 47.244C283.389 47.556 283.313 47.904 283.217 48.288L282.689 50.652ZM290.82 54.12C290.26 54.12 289.768 54.016 289.344 53.808C288.928 53.592 288.604 53.292 288.372 52.908C288.148 52.516 288.036 52.056 288.036 51.528V47.712C288.036 47.176 288.148 46.716 288.372 46.332C288.604 45.948 288.928 45.652 289.344 45.444C289.768 45.228 290.26 45.12 290.82 45.12C291.388 45.12 291.876 45.228 292.284 45.444C292.7 45.652 293.024 45.948 293.256 46.332C293.488 46.716 293.604 47.176 293.604 47.712H292.092C292.092 47.296 291.98 46.98 291.756 46.764C291.54 46.548 291.228 46.44 290.82 46.44C290.412 46.44 290.096 46.548 289.872 46.764C289.648 46.98 289.536 47.292 289.536 47.7V51.528C289.536 51.936 289.648 52.252 289.872 52.476C290.096 52.692 290.412 52.8 290.82 52.8C291.228 52.8 291.54 52.692 291.756 52.476C291.98 52.252 292.092 51.936 292.092 51.528H293.604C293.604 52.048 293.488 52.504 293.256 52.896C293.024 53.288 292.7 53.592 292.284 53.808C291.876 54.016 291.388 54.12 290.82 54.12ZM295.291 54V45.24H296.791V48.756H299.143V45.24H300.643V54H299.143V50.148H296.791V54H295.291Z" fill="white"/>
<rect width="67" height="18" transform="translate(307 41.0005)" fill="#6CD129"/>
<path d="M314.6 54.1205C313.744 54.1205 313.072 53.8885 312.584 53.4245C312.104 52.9525 311.864 52.3125 311.864 51.5045V45.2405H313.376V51.4925C313.376 51.9085 313.48 52.2325 313.688 52.4645C313.896 52.6965 314.2 52.8125 314.6 52.8125C314.992 52.8125 315.292 52.6965 315.5 52.4645C315.716 52.2325 315.824 51.9085 315.824 51.4925V45.2405H317.336V51.5045C317.336 52.3125 317.096 52.9525 316.616 53.4245C316.136 53.8885 315.464 54.1205 314.6 54.1205ZM318.615 54.0005L320.823 45.2405H322.755L324.975 54.0005H323.439L322.959 51.8765H320.631L320.151 54.0005H318.615ZM320.907 50.6525H322.683L322.155 48.3005C322.067 47.9085 321.991 47.5565 321.927 47.2445C321.863 46.9245 321.819 46.6925 321.795 46.5485C321.771 46.6925 321.727 46.9245 321.663 47.2445C321.607 47.5565 321.531 47.9045 321.435 48.2885L320.907 50.6525ZM326.303 54.0005V45.2405H329.075C329.659 45.2405 330.163 45.3485 330.587 45.5645C331.019 45.7805 331.355 46.0845 331.595 46.4765C331.835 46.8605 331.955 47.3165 331.955 47.8445C331.955 48.4205 331.807 48.9285 331.511 49.3685C331.223 49.8085 330.831 50.1205 330.335 50.3045L332.075 54.0005H330.395L328.871 50.5205H327.803V54.0005H326.303ZM327.803 49.2005H329.075C329.499 49.2005 329.831 49.0845 330.071 48.8525C330.311 48.6205 330.431 48.3005 330.431 47.8925C330.431 47.4765 330.311 47.1525 330.071 46.9205C329.831 46.6805 329.499 46.5605 329.075 46.5605H327.803V49.2005ZM335.43 54.0005V46.6325H333.138V45.2405H339.234V46.6325H336.942V54.0005H335.43ZM343.381 54.1205C342.813 54.1205 342.321 54.0125 341.905 53.7965C341.489 53.5805 341.165 53.2765 340.933 52.8845C340.709 52.4925 340.597 52.0325 340.597 51.5045V47.7365C340.597 47.2085 340.709 46.7485 340.933 46.3565C341.165 45.9645 341.489 45.6605 341.905 45.4445C342.321 45.2285 342.813 45.1205 343.381 45.1205C343.957 45.1205 344.449 45.2285 344.857 45.4445C345.273 45.6605 345.593 45.9645 345.817 46.3565C346.049 46.7485 346.165 47.2085 346.165 47.7365V51.5045C346.165 52.0325 346.049 52.4925 345.817 52.8845C345.593 53.2765 345.273 53.5805 344.857 53.7965C344.441 54.0125 343.949 54.1205 343.381 54.1205ZM343.381 52.8245C343.797 52.8245 344.129 52.7045 344.377 52.4645C344.625 52.2245 344.749 51.9045 344.749 51.5045V47.7365C344.749 47.3365 344.625 47.0165 344.377 46.7765C344.129 46.5365 343.797 46.4165 343.381 46.4165C342.965 46.4165 342.633 46.5365 342.385 46.7765C342.137 47.0165 342.013 47.3365 342.013 47.7365V51.5045C342.013 51.9045 342.137 52.2245 342.385 52.4645C342.633 52.7045 342.965 52.8245 343.381 52.8245ZM343.381 50.4005C343.149 50.4005 342.957 50.3245 342.805 50.1725C342.661 50.0205 342.589 49.8245 342.589 49.5845C342.589 49.3445 342.661 49.1525 342.805 49.0085C342.949 48.8645 343.141 48.7925 343.381 48.7925C343.621 48.7925 343.813 48.8645 343.957 49.0085C344.101 49.1525 344.173 49.3445 344.173 49.5845C344.173 49.8245 344.101 50.0205 343.957 50.1725C343.813 50.3245 343.621 50.4005 343.381 50.4005ZM357.016 54.0005V46.6325H354.724V45.2405H360.82V46.6325H358.528V54.0005H357.016ZM361.703 54.0005L364.127 49.5125L361.847 45.2405H363.527L364.631 47.4365C364.711 47.5965 364.783 47.7525 364.847 47.9045C364.911 48.0485 364.959 48.1605 364.991 48.2405C365.015 48.1605 365.059 48.0485 365.123 47.9045C365.187 47.7525 365.259 47.5965 365.339 47.4365L366.455 45.2405H368.087L365.807 49.4765L368.231 54.0005H366.551L365.315 51.5765C365.235 51.4165 365.159 51.2605 365.087 51.1085C365.023 50.9565 364.975 50.8365 364.943 50.7485C364.911 50.8365 364.863 50.9565 364.799 51.1085C364.735 51.2605 364.663 51.4165 364.583 51.5765L363.335 54.0005H361.703Z" fill="white"/>
<rect width="67" height="18" transform="translate(72 41)" fill="#6CD129"/>
<path d="M79.6 54.12C78.744 54.12 78.072 53.888 77.584 53.424C77.104 52.952 76.864 52.312 76.864 51.504V45.24H78.376V51.492C78.376 51.908 78.48 52.232 78.688 52.464C78.896 52.696 79.2 52.812 79.6 52.812C79.992 52.812 80.292 52.696 80.5 52.464C80.716 52.232 80.824 51.908 80.824 51.492V45.24H82.336V51.504C82.336 52.312 82.096 52.952 81.616 53.424C81.136 53.888 80.464 54.12 79.6 54.12ZM83.6153 54L85.8233 45.24H87.7553L89.9753 54H88.4393L87.9593 51.876H85.6313L85.1513 54H83.6153ZM85.9073 50.652H87.6833L87.1553 48.3C87.0673 47.908 86.9913 47.556 86.9273 47.244C86.8633 46.924 86.8193 46.692 86.7953 46.548C86.7713 46.692 86.7273 46.924 86.6633 47.244C86.6073 47.556 86.5313 47.904 86.4353 48.288L85.9073 50.652ZM91.3026 54V45.24H94.0746C94.6586 45.24 95.1626 45.348 95.5866 45.564C96.0186 45.78 96.3546 46.084 96.5946 46.476C96.8346 46.86 96.9546 47.316 96.9546 47.844C96.9546 48.42 96.8066 48.928 96.5106 49.368C96.2226 49.808 95.8306 50.12 95.3346 50.304L97.0746 54H95.3946L93.8706 50.52H92.8026V54H91.3026ZM92.8026 49.2H94.0746C94.4986 49.2 94.8306 49.084 95.0706 48.852C95.3106 48.62 95.4306 48.3 95.4306 47.892C95.4306 47.476 95.3106 47.152 95.0706 46.92C94.8306 46.68 94.4986 46.56 94.0746 46.56H92.8026V49.2ZM100.43 54V46.632H98.1379V45.24H104.234V46.632H101.942V54H100.43ZM108.381 54.12C107.813 54.12 107.321 54.012 106.905 53.796C106.489 53.58 106.165 53.276 105.933 52.884C105.709 52.492 105.597 52.032 105.597 51.504V47.736C105.597 47.208 105.709 46.748 105.933 46.356C106.165 45.964 106.489 45.66 106.905 45.444C107.321 45.228 107.813 45.12 108.381 45.12C108.957 45.12 109.449 45.228 109.857 45.444C110.273 45.66 110.593 45.964 110.817 46.356C111.049 46.748 111.165 47.208 111.165 47.736V51.504C111.165 52.032 111.049 52.492 110.817 52.884C110.593 53.276 110.273 53.58 109.857 53.796C109.441 54.012 108.949 54.12 108.381 54.12ZM108.381 52.824C108.797 52.824 109.129 52.704 109.377 52.464C109.625 52.224 109.749 51.904 109.749 51.504V47.736C109.749 47.336 109.625 47.016 109.377 46.776C109.129 46.536 108.797 46.416 108.381 46.416C107.965 46.416 107.633 46.536 107.385 46.776C107.137 47.016 107.013 47.336 107.013 47.736V51.504C107.013 51.904 107.137 52.224 107.385 52.464C107.633 52.704 107.965 52.824 108.381 52.824ZM108.381 50.4C108.149 50.4 107.957 50.324 107.805 50.172C107.661 50.02 107.589 49.824 107.589 49.584C107.589 49.344 107.661 49.152 107.805 49.008C107.949 48.864 108.141 48.792 108.381 48.792C108.621 48.792 108.813 48.864 108.957 49.008C109.101 49.152 109.173 49.344 109.173 49.584C109.173 49.824 109.101 50.02 108.957 50.172C108.813 50.324 108.621 50.4 108.381 50.4ZM120.084 54V45.24H122.856C123.44 45.24 123.944 45.348 124.368 45.564C124.8 45.78 125.136 46.084 125.376 46.476C125.616 46.86 125.736 47.316 125.736 47.844C125.736 48.42 125.588 48.928 125.292 49.368C125.004 49.808 124.612 50.12 124.116 50.304L125.856 54H124.176L122.652 50.52H121.584V54H120.084ZM121.584 49.2H122.856C123.28 49.2 123.612 49.084 123.852 48.852C124.092 48.62 124.212 48.3 124.212 47.892C124.212 47.476 124.092 47.152 123.852 46.92C123.612 46.68 123.28 46.56 122.856 46.56H121.584V49.2ZM126.703 54L129.127 49.512L126.847 45.24H128.527L129.631 47.436C129.711 47.596 129.783 47.752 129.847 47.904C129.911 48.048 129.959 48.16 129.991 48.24C130.015 48.16 130.059 48.048 130.123 47.904C130.187 47.752 130.259 47.596 130.339 47.436L131.455 45.24H133.087L130.807 49.476L133.231 54H131.551L130.315 51.576C130.235 51.416 130.159 51.26 130.087 51.108C130.023 50.956 129.975 50.836 129.943 50.748C129.911 50.836 129.863 50.956 129.799 51.108C129.735 51.26 129.663 51.416 129.583 51.576L128.335 54H126.703Z" fill="white"/>
<mask id="path-197-inside-20_393_13819" fill="white">
<path d="M236 50C236 53.3137 233.314 56 230 56C226.686 56 224 53.3137 224 50C224 46.6863 226.686 44 230 44C233.314 44 236 46.6863 236 50Z"/>
</mask>
<path d="M236 50C236 53.3137 233.314 56 230 56C226.686 56 224 53.3137 224 50C224 46.6863 226.686 44 230 44C233.314 44 236 46.6863 236 50Z" fill="#E6E6E6"/>
<path d="M234.5 50C234.5 52.4853 232.485 54.5 230 54.5V57.5C234.142 57.5 237.5 54.1421 237.5 50H234.5ZM230 54.5C227.515 54.5 225.5 52.4853 225.5 50H222.5C222.5 54.1421 225.858 57.5 230 57.5V54.5ZM225.5 50C225.5 47.5147 227.515 45.5 230 45.5V42.5C225.858 42.5 222.5 45.8579 222.5 50H225.5ZM230 45.5C232.485 45.5 234.5 47.5147 234.5 50H237.5C237.5 45.8579 234.142 42.5 230 42.5V45.5Z" fill="black" mask="url(#path-197-inside-20_393_13819)"/>
<mask id="path-199-inside-21_393_13819" fill="white">
<path d="M210 50C210 53.3137 207.314 56 204 56C200.686 56 198 53.3137 198 50C198 46.6863 200.686 44 204 44C207.314 44 210 46.6863 210 50Z"/>
</mask>
<path d="M210 50C210 53.3137 207.314 56 204 56C200.686 56 198 53.3137 198 50C198 46.6863 200.686 44 204 44C207.314 44 210 46.6863 210 50Z" fill="#E6E6E6"/>
<path d="M208.5 50C208.5 52.4853 206.485 54.5 204 54.5V57.5C208.142 57.5 211.5 54.1421 211.5 50H208.5ZM204 54.5C201.515 54.5 199.5 52.4853 199.5 50H196.5C196.5 54.1421 199.858 57.5 204 57.5V54.5ZM199.5 50C199.5 47.5147 201.515 45.5 204 45.5V42.5C199.858 42.5 196.5 45.8579 196.5 50H199.5ZM204 45.5C206.485 45.5 208.5 47.5147 208.5 50H211.5C211.5 45.8579 208.142 42.5 204 42.5V45.5Z" fill="black" mask="url(#path-199-inside-21_393_13819)"/>
<mask id="path-201-inside-22_393_13819" fill="white">
<path d="M210 74C210 77.3137 207.314 80 204 80C200.686 80 198 77.3137 198 74C198 70.6863 200.686 68 204 68C207.314 68 210 70.6863 210 74Z"/>
</mask>
<path d="M210 74C210 77.3137 207.314 80 204 80C200.686 80 198 77.3137 198 74C198 70.6863 200.686 68 204 68C207.314 68 210 70.6863 210 74Z" fill="#E6E6E6"/>
<path d="M208.5 74C208.5 76.4853 206.485 78.5 204 78.5V81.5C208.142 81.5 211.5 78.1421 211.5 74H208.5ZM204 78.5C201.515 78.5 199.5 76.4853 199.5 74H196.5C196.5 78.1421 199.858 81.5 204 81.5V78.5ZM199.5 74C199.5 71.5147 201.515 69.5 204 69.5V66.5C199.858 66.5 196.5 69.8579 196.5 74H199.5ZM204 69.5C206.485 69.5 208.5 71.5147 208.5 74H211.5C211.5 69.8579 208.142 66.5 204 66.5V69.5Z" fill="black" mask="url(#path-201-inside-22_393_13819)"/>
<path d="M68.012 78V69.97H70.597C71.0957 69.97 71.5283 70.069 71.895 70.267C72.2617 70.4577 72.544 70.729 72.742 71.081C72.9473 71.433 73.05 71.851 73.05 72.335C73.05 72.8117 72.9473 73.2297 72.742 73.589C72.544 73.941 72.2617 74.216 71.895 74.414C71.5283 74.6047 71.0957 74.7 70.597 74.7H69.002V78H68.012ZM69.002 73.809H70.597C71.0297 73.809 71.3743 73.677 71.631 73.413C71.895 73.1417 72.027 72.7823 72.027 72.335C72.027 71.8803 71.895 71.521 71.631 71.257C71.3743 70.993 71.0297 70.861 70.597 70.861H69.002V73.809ZM76.8957 78.088C76.4117 78.088 75.9937 77.9963 75.6417 77.813C75.2897 77.6297 75.0147 77.3657 74.8167 77.021C74.626 76.669 74.5307 76.2547 74.5307 75.778V74.172C74.5307 73.688 74.626 73.2737 74.8167 72.929C75.0147 72.5843 75.2897 72.3203 75.6417 72.137C75.9937 71.9537 76.4117 71.862 76.8957 71.862C77.3797 71.862 77.7977 71.9537 78.1497 72.137C78.5017 72.3203 78.773 72.5843 78.9637 72.929C79.1617 73.2737 79.2607 73.6843 79.2607 74.161V75.778C79.2607 76.2547 79.1617 76.669 78.9637 77.021C78.773 77.3657 78.5017 77.6297 78.1497 77.813C77.7977 77.9963 77.3797 78.088 76.8957 78.088ZM76.8957 77.208C77.3284 77.208 77.6657 77.087 77.9077 76.845C78.1497 76.603 78.2707 76.2473 78.2707 75.778V74.172C78.2707 73.7027 78.1497 73.347 77.9077 73.105C77.6657 72.863 77.3284 72.742 76.8957 72.742C76.4704 72.742 76.133 72.863 75.8837 73.105C75.6417 73.347 75.5207 73.7027 75.5207 74.172V75.778C75.5207 76.2473 75.6417 76.603 75.8837 76.845C76.133 77.087 76.4704 77.208 76.8957 77.208ZM81.4124 78V71.95H82.3804V73.105H82.6114L82.2924 73.82C82.2924 73.1673 82.4317 72.676 82.7104 72.346C82.9964 72.0087 83.4181 71.84 83.9754 71.84C84.6134 71.84 85.1194 72.0417 85.4934 72.445C85.8747 72.841 86.0654 73.38 86.0654 74.062V74.425H85.0754V74.15C85.0754 73.6733 84.9581 73.3103 84.7234 73.061C84.4961 72.8043 84.1697 72.676 83.7444 72.676C83.3264 72.676 82.9964 72.8043 82.7544 73.061C82.5197 73.3177 82.4024 73.6807 82.4024 74.15V78H81.4124ZM90.7471 78C90.2264 78 89.8194 77.8607 89.5261 77.582C89.2401 77.3033 89.0971 76.911 89.0971 76.405V72.852H87.3921V71.95H89.0971V70.245H90.0871V71.95H92.5071V72.852H90.0871V76.405C90.0871 76.867 90.3071 77.098 90.7471 77.098H92.3971V78H90.7471ZM100.529 78L102.619 69.97H103.95L106.029 78H105.028L104.5 75.866H102.069L101.541 78H100.529ZM102.267 75.03H104.291L103.675 72.555C103.557 72.0857 103.466 71.6933 103.4 71.378C103.334 71.0627 103.293 70.8573 103.279 70.762C103.264 70.8573 103.224 71.0627 103.158 71.378C103.092 71.6933 103 72.082 102.883 72.544L102.267 75.03Z" fill="black"/>
</g>
<defs>
<clipPath id="clip0_393_13819">
<rect width="488" height="308" fill="white" transform="translate(16 16)"/>
</clipPath>
<clipPath id="clip1_393_13819">
<rect width="488" height="308" fill="white" transform="translate(16 16)"/>
</clipPath>
</defs>
</svg>
