<svg width="520" height="340" viewBox="0 0 520 340" fill="none" xmlns="http://www.w3.org/2000/svg">
<rect width="520" height="340" fill="#F2F2F2"/>
<g clip-path="url(#clip0_393_14840)">
<mask id="path-1-inside-1_393_14840" fill="white">
<path d="M16 16H26V26H16V16Z"/>
</mask>
<path d="M17 26V16H15V26H17Z" fill="black" mask="url(#path-1-inside-1_393_14840)"/>
<mask id="path-3-inside-2_393_14840" fill="white">
<path d="M16 16H26V26H16V16Z"/>
</mask>
<path d="M16 17H26V15H16V17Z" fill="black" mask="url(#path-3-inside-2_393_14840)"/>
<mask id="path-5-inside-3_393_14840" fill="white">
<path d="M494 16H504V26H494V16Z"/>
</mask>
<path d="M503 16V26H505V16H503Z" fill="black" mask="url(#path-5-inside-3_393_14840)"/>
<mask id="path-7-inside-4_393_14840" fill="white">
<path d="M494 16H504V26H494V16Z"/>
</mask>
<path d="M494 17H504V15H494V17Z" fill="black" mask="url(#path-7-inside-4_393_14840)"/>
<mask id="path-9-inside-5_393_14840" fill="white">
<path d="M494 324H504V314H494V324Z"/>
</mask>
<path d="M503 324V314H505V324H503Z" fill="black" mask="url(#path-9-inside-5_393_14840)"/>
<mask id="path-11-inside-6_393_14840" fill="white">
<path d="M494 324H504V314H494V324Z"/>
</mask>
<path d="M494 323H504V325H494V323Z" fill="black" mask="url(#path-11-inside-6_393_14840)"/>
<mask id="path-13-inside-7_393_14840" fill="white">
<path d="M16 314H26V324H16V314Z"/>
</mask>
<path d="M17 324V314H15V324H17Z" fill="black" mask="url(#path-13-inside-7_393_14840)"/>
<mask id="path-15-inside-8_393_14840" fill="white">
<path d="M16 314H26V324H16V314Z"/>
</mask>
<path d="M26 323H16V325H26V323Z" fill="black" mask="url(#path-15-inside-8_393_14840)"/>
<g clip-path="url(#clip1_393_14840)">
<mask id="path-17-inside-9_393_14840" fill="white">
<path d="M16 16H26V26H16V16Z"/>
</mask>
<path d="M17 26V16H15V26H17Z" fill="black" mask="url(#path-17-inside-9_393_14840)"/>
<mask id="path-19-inside-10_393_14840" fill="white">
<path d="M16 16H26V26H16V16Z"/>
</mask>
<path d="M16 17H26V15H16V17Z" fill="black" mask="url(#path-19-inside-10_393_14840)"/>
<mask id="path-21-inside-11_393_14840" fill="white">
<path d="M494 16H504V26H494V16Z"/>
</mask>
<path d="M503 16V26H505V16H503Z" fill="black" mask="url(#path-21-inside-11_393_14840)"/>
<mask id="path-23-inside-12_393_14840" fill="white">
<path d="M494 16H504V26H494V16Z"/>
</mask>
<path d="M494 17H504V15H494V17Z" fill="black" mask="url(#path-23-inside-12_393_14840)"/>
<mask id="path-25-inside-13_393_14840" fill="white">
<path d="M494 324H504V314H494V324Z"/>
</mask>
<path d="M503 324V314H505V324H503Z" fill="black" mask="url(#path-25-inside-13_393_14840)"/>
<mask id="path-27-inside-14_393_14840" fill="white">
<path d="M494 324H504V314H494V324Z"/>
</mask>
<path d="M494 323H504V325H494V323Z" fill="black" mask="url(#path-27-inside-14_393_14840)"/>
<mask id="path-29-inside-15_393_14840" fill="white">
<path d="M16 314H26V324H16V314Z"/>
</mask>
<path d="M17 324V314H15V324H17Z" fill="black" mask="url(#path-29-inside-15_393_14840)"/>
<mask id="path-31-inside-16_393_14840" fill="white">
<path d="M16 314H26V324H16V314Z"/>
</mask>
<path d="M26 323H16V325H26V323Z" fill="black" mask="url(#path-31-inside-16_393_14840)"/>
<circle cx="243.483" cy="146.351" r="1.20677" fill="#9B9B9B"/>
<circle cx="250.156" cy="146.351" r="1.20677" fill="#9B9B9B"/>
<path d="M241.496 146.351V141.098" stroke="#9B9B9B" stroke-width="1.41973" stroke-linecap="round" stroke-linejoin="round"/>
<path d="M241.496 146.351H243.483V141.098H241.496" stroke="#9B9B9B" stroke-width="1.41973" stroke-linecap="round" stroke-linejoin="round"/>
<path d="M252.285 146.351V141.098H250.156V146.351H252.285Z" stroke="#9B9B9B" stroke-width="1.41973" stroke-linecap="round" stroke-linejoin="round"/>
<path d="M243.483 146.351H250.156" stroke="#9B9B9B" stroke-width="1.41973" stroke-linecap="round" stroke-linejoin="round"/>
<path d="M250.156 146.351V146.209V141.24V141.098H243.483L243.625 141.24H250.156" stroke="#9B9B9B" stroke-width="1.41973" stroke-linecap="round" stroke-linejoin="round"/>
<path d="M243.625 141.24V146.209L243.483 146.351" stroke="#9B9B9B" stroke-width="1.41973" stroke-linecap="round" stroke-linejoin="round"/>
<path d="M243.625 146.209H250.156" stroke="#9B9B9B" stroke-width="1.41973" stroke-linecap="round" stroke-linejoin="round"/>
<circle cx="326.68" cy="86.0119" r="1.20677" fill="#9B9B9B"/>
<circle cx="320.007" cy="86.0119" r="1.20677" fill="#9B9B9B"/>
<path d="M328.667 86.0119V91.4069" stroke="#9B9B9B" stroke-width="1.41973" stroke-linecap="round" stroke-linejoin="round"/>
<path d="M328.667 86.0119H326.68V91.2649V91.4069H328.667" stroke="#9B9B9B" stroke-width="1.41973" stroke-linecap="round" stroke-linejoin="round"/>
<path d="M320.007 91.2649V91.4069" stroke="#9B9B9B" stroke-width="1.41973" stroke-linecap="round" stroke-linejoin="round"/>
<path d="M318.019 86.0119V91.4069H320.007" stroke="#9B9B9B" stroke-width="1.41973" stroke-linecap="round" stroke-linejoin="round"/>
<path d="M318.019 86.0119H320.007V91.2649" stroke="#9B9B9B" stroke-width="1.41973" stroke-linecap="round" stroke-linejoin="round"/>
<path d="M326.68 86.0119H320.007" stroke="#9B9B9B" stroke-width="1.41973" stroke-linecap="round" stroke-linejoin="round"/>
<path d="M320.007 86.0119V86.1539V91.2649H326.68H320.007" stroke="#9B9B9B" stroke-width="1.41973" stroke-linecap="round" stroke-linejoin="round"/>
<path d="M326.68 91.2649V86.1539V86.0119" stroke="#9B9B9B" stroke-width="1.41973" stroke-linecap="round" stroke-linejoin="round"/>
<path d="M326.68 86.1539H320.007" stroke="#9B9B9B" stroke-width="1.41973" stroke-linecap="round" stroke-linejoin="round"/>
<path d="M250.156 197V197.142" stroke="#9B9B9B" stroke-width="1.41973" stroke-linecap="round" stroke-linejoin="round"/>
<path d="M243.483 197V197.142" stroke="#9B9B9B" stroke-width="1.41973" stroke-linecap="round" stroke-linejoin="round"/>
<path d="M252.285 197V202.395" stroke="#9B9B9B" stroke-width="1.41973" stroke-linecap="round" stroke-linejoin="round"/>
<path d="M250.156 197.142V202.395H252.285" stroke="#9B9B9B" stroke-width="1.41973" stroke-linecap="round" stroke-linejoin="round"/>
<path d="M252.285 197H250.156" stroke="#9B9B9B" stroke-width="1.41973" stroke-linecap="round" stroke-linejoin="round"/>
<circle cx="243.483" cy="202.395" r="1.20677" fill="#9B9B9B"/>
<path d="M243.483 197H241.496V202.395H243.483V197.142H250.156" stroke="#9B9B9B" stroke-width="1.41973" stroke-linecap="round" stroke-linejoin="round"/>
<path d="M243.483 197.142L243.625 197.284V202.253L243.483 202.395H250.156V202.253H243.625" stroke="#9B9B9B" stroke-width="1.41973" stroke-linecap="round" stroke-linejoin="round"/>
<path d="M250.156 202.253V197.284V197.142" stroke="#9B9B9B" stroke-width="1.41973" stroke-linecap="round" stroke-linejoin="round"/>
<path d="M250.156 197.284H243.625" stroke="#9B9B9B" stroke-width="1.41973" stroke-linecap="round" stroke-linejoin="round"/>
<circle cx="250.156" cy="159.838" r="1.20677" fill="#9B9B9B"/>
<circle cx="243.483" cy="159.838" r="1.20677" fill="#9B9B9B"/>
<path d="M252.285 159.838V165.233" stroke="#9B9B9B" stroke-width="1.41973" stroke-linecap="round" stroke-linejoin="round"/>
<path d="M252.285 159.838H250.156V165.091V165.233H252.285" stroke="#9B9B9B" stroke-width="1.41973" stroke-linecap="round" stroke-linejoin="round"/>
<path d="M243.483 165.091V165.233" stroke="#9B9B9B" stroke-width="1.41973" stroke-linecap="round" stroke-linejoin="round"/>
<path d="M241.496 159.838V165.233H243.483" stroke="#9B9B9B" stroke-width="1.41973" stroke-linecap="round" stroke-linejoin="round"/>
<path d="M241.496 159.838H243.483V165.091" stroke="#9B9B9B" stroke-width="1.41973" stroke-linecap="round" stroke-linejoin="round"/>
<path d="M250.156 159.838H243.483" stroke="#9B9B9B" stroke-width="1.41973" stroke-linecap="round" stroke-linejoin="round"/>
<path d="M243.483 159.838L243.625 159.98V165.091H243.483H250.156H243.625" stroke="#9B9B9B" stroke-width="1.41973" stroke-linecap="round" stroke-linejoin="round"/>
<path d="M250.156 165.091V159.98V159.838" stroke="#9B9B9B" stroke-width="1.41973" stroke-linecap="round" stroke-linejoin="round"/>
<path d="M250.156 159.98H243.625" stroke="#9B9B9B" stroke-width="1.41973" stroke-linecap="round" stroke-linejoin="round"/>
<path d="M318.019 76.6417H319.013H319.439H319.581H319.865H320.291H321H322.278V79.9071H321" stroke="#9B9B9B" stroke-width="1.41973" stroke-linecap="round" stroke-linejoin="round"/>
<path d="M319.581 76.6416V79.907H319.865H320.291H321.001" stroke="#9B9B9B" stroke-width="1.41973" stroke-linecap="round" stroke-linejoin="round"/>
<path d="M319.581 79.907H319.439H319.013" stroke="#9B9B9B" stroke-width="1.41973" stroke-linecap="round" stroke-linejoin="round"/>
<path d="M318.019 76.6417V79.9071H319.013" stroke="#9B9B9B" stroke-width="1.41973" stroke-linecap="round" stroke-linejoin="round"/>
<path d="M318.019 70.2529H319.013H319.439H319.581H319.865H320.291H321H322.278V73.6602H321" stroke="#9B9B9B" stroke-width="1.41973" stroke-linecap="round" stroke-linejoin="round"/>
<path d="M319.581 70.2529V73.6602H319.865H320.291H321.001" stroke="#9B9B9B" stroke-width="1.41973" stroke-linecap="round" stroke-linejoin="round"/>
<path d="M319.581 73.6602H319.439H319.013" stroke="#9B9B9B" stroke-width="1.41973" stroke-linecap="round" stroke-linejoin="round"/>
<path d="M318.019 70.2529V73.6602H319.013" stroke="#9B9B9B" stroke-width="1.41973" stroke-linecap="round" stroke-linejoin="round"/>
<path d="M318.019 63.8641H319.013H319.439H319.581H319.865H320.291H321H322.278V67.2714H321" stroke="#9B9B9B" stroke-width="1.41973" stroke-linecap="round" stroke-linejoin="round"/>
<path d="M319.581 63.864V67.2714H319.865H320.291H321.001" stroke="#9B9B9B" stroke-width="1.41973" stroke-linecap="round" stroke-linejoin="round"/>
<path d="M319.581 67.2714H319.439H319.013" stroke="#9B9B9B" stroke-width="1.41973" stroke-linecap="round" stroke-linejoin="round"/>
<path d="M318.019 63.8641V67.2714H319.013" stroke="#9B9B9B" stroke-width="1.41973" stroke-linecap="round" stroke-linejoin="round"/>
<path d="M338.038 79.907H337.044H336.618H336.476H336.192H335.766H335.056H333.778V76.6416H335.056" stroke="#9B9B9B" stroke-width="1.41973" stroke-linecap="round" stroke-linejoin="round"/>
<path d="M336.475 79.9071V76.6417H336.191H335.766H335.056" stroke="#9B9B9B" stroke-width="1.41973" stroke-linecap="round" stroke-linejoin="round"/>
<path d="M336.476 76.6417H336.618H337.043" stroke="#9B9B9B" stroke-width="1.41973" stroke-linecap="round" stroke-linejoin="round"/>
<path d="M338.037 79.9071V76.6417H337.043" stroke="#9B9B9B" stroke-width="1.41973" stroke-linecap="round" stroke-linejoin="round"/>
<path d="M338.038 67.2714H337.044H336.618H336.476H336.192H335.766H335.056H333.778V63.864H335.056" stroke="#9B9B9B" stroke-width="1.41973" stroke-linecap="round" stroke-linejoin="round"/>
<path d="M336.475 67.2714V63.8641H336.191H335.766H335.056" stroke="#9B9B9B" stroke-width="1.41973" stroke-linecap="round" stroke-linejoin="round"/>
<path d="M336.476 63.8641H336.618H337.043" stroke="#9B9B9B" stroke-width="1.41973" stroke-linecap="round" stroke-linejoin="round"/>
<path d="M338.037 67.2714V63.8641H337.043" stroke="#9B9B9B" stroke-width="1.41973" stroke-linecap="round" stroke-linejoin="round"/>
<path d="M215 304H453" stroke="#9B9B9B" stroke-width="1.41973" stroke-linecap="round" stroke-linejoin="round"/>
<path d="M478.219 36H215" stroke="#9B9B9B" stroke-width="1.41973" stroke-linecap="round" stroke-linejoin="round"/>
<path d="M195 56V284" stroke="#9B9B9B" stroke-width="1.41973" stroke-linecap="round" stroke-linejoin="round"/>
<path d="M195 284C195 295.098 203.992 304.066 215.089 304.089" stroke="#9B9B9B" stroke-width="1.41973" stroke-linecap="round" stroke-linejoin="round"/>
<path d="M215.089 36C203.992 36 195.024 44.9916 195 56.0892" stroke="#9B9B9B" stroke-width="1.41973" stroke-linecap="round" stroke-linejoin="round"/>
<path d="M255.125 292.654C255.125 290.643 253.492 289.034 251.505 289.034C249.517 289.034 247.884 290.643 247.884 292.654C247.884 294.666 249.493 296.275 251.505 296.275C253.516 296.275 255.125 294.666 255.125 292.654Z" stroke="#9B9B9B" stroke-width="1.41973" stroke-linecap="round" stroke-linejoin="round"/>
<path d="M306.235 292.654C306.235 290.643 304.626 289.034 302.615 289.034C300.604 289.034 298.995 290.643 298.995 292.654C298.995 294.666 300.627 296.275 302.615 296.275C304.603 296.275 306.235 294.666 306.235 292.654Z" stroke="#9B9B9B" stroke-width="1.41973" stroke-linecap="round" stroke-linejoin="round"/>
<path d="M272.162 292.654C272.162 290.643 270.553 289.034 268.541 289.034C266.53 289.034 264.921 290.643 264.921 292.654C264.921 294.666 266.53 296.275 268.541 296.275C270.553 296.275 272.162 294.666 272.162 292.654Z" stroke="#9B9B9B" stroke-width="1.41973" stroke-linecap="round" stroke-linejoin="round"/>
<path d="M289.199 292.654C289.199 290.643 287.59 289.034 285.579 289.034C283.568 289.034 281.958 290.643 281.958 292.654C281.958 294.666 283.591 296.275 285.579 296.275C287.566 296.275 289.199 294.666 289.199 292.654Z" stroke="#9B9B9B" stroke-width="1.41973" stroke-linecap="round" stroke-linejoin="round"/>
<path d="M322.278 81.3268V79.907" stroke="#9B9B9B" stroke-width="1.41973" stroke-linecap="round" stroke-linejoin="round"/>
<path d="M322.278 76.6417V73.6602" stroke="#9B9B9B" stroke-width="1.41973" stroke-linecap="round" stroke-linejoin="round"/>
<path d="M322.278 70.2529V67.2714" stroke="#9B9B9B" stroke-width="1.41973" stroke-linecap="round" stroke-linejoin="round"/>
<path d="M322.278 63.8641V62.5863" stroke="#9B9B9B" stroke-width="1.41973" stroke-linecap="round" stroke-linejoin="round"/>
<path d="M322.988 82.0367H333.068" stroke="#9B9B9B" stroke-width="1.41973" stroke-linecap="round" stroke-linejoin="round"/>
<path d="M322.988 61.8765H333.068" stroke="#9B9B9B" stroke-width="1.41973" stroke-linecap="round" stroke-linejoin="round"/>
<path d="M333.778 81.3267V79.907" stroke="#9B9B9B" stroke-width="1.41973" stroke-linecap="round" stroke-linejoin="round"/>
<path d="M333.778 76.6416V67.2714" stroke="#9B9B9B" stroke-width="1.41973" stroke-linecap="round" stroke-linejoin="round"/>
<path d="M333.778 63.8641V62.5863" stroke="#9B9B9B" stroke-width="1.41973" stroke-linecap="round" stroke-linejoin="round"/>
<path d="M322.988 82.0367H322.846L322.704 81.8947L322.562 81.7527L322.42 81.6107V81.4688L322.278 81.3268" stroke="#9B9B9B" stroke-width="1.41973" stroke-linecap="round" stroke-linejoin="round"/>
<path d="M322.278 62.5863L322.42 62.4444V62.3024V62.1604L322.562 62.0184H322.704V61.8765H322.846H322.988" stroke="#9B9B9B" stroke-width="1.41973" stroke-linecap="round" stroke-linejoin="round"/>
<path d="M333.068 82.0367H333.21L333.352 81.8947H333.494V81.7527L333.636 81.6107L333.778 81.4688V81.3268" stroke="#9B9B9B" stroke-width="1.41973" stroke-linecap="round" stroke-linejoin="round"/>
<path d="M333.778 62.5863V62.4444L333.636 62.3024V62.1604L333.494 62.0184L333.352 61.8765H333.21H333.068" stroke="#9B9B9B" stroke-width="1.41973" stroke-linecap="round" stroke-linejoin="round"/>
<path d="M322.988 82.0367H322.846L322.704 81.8947H322.562V81.7527H322.42V81.6107L322.278 81.4688V81.3268" stroke="#9B9B9B" stroke-width="1.41973" stroke-linecap="round" stroke-linejoin="round"/>
<path d="M322.278 62.5863V62.4444L322.42 62.3024V62.1604L322.562 62.0184L322.704 61.8765H322.846H322.988" stroke="#9B9B9B" stroke-width="1.41973" stroke-linecap="round" stroke-linejoin="round"/>
<path d="M333.778 81.3268V81.4688L333.636 81.6107V81.7527H333.494V81.8947H333.352L333.21 82.0367H333.068" stroke="#9B9B9B" stroke-width="1.41973" stroke-linecap="round" stroke-linejoin="round"/>
<path d="M333.068 61.8765H333.21H333.352L333.494 62.0184L333.636 62.1604V62.3024L333.778 62.4444V62.5863" stroke="#9B9B9B" stroke-width="1.41973" stroke-linecap="round" stroke-linejoin="round"/>
<path d="M255.267 217.621V220.603" stroke="#9B9B9B" stroke-width="1.41973" stroke-linecap="round" stroke-linejoin="round"/>
<path d="M261.229 220.603V217.621" stroke="#9B9B9B" stroke-width="1.41973" stroke-linecap="round" stroke-linejoin="round"/>
<path d="M253.066 220.461C253.066 220.461 252.853 220.555 252.853 220.674" stroke="#9B9B9B" stroke-width="1.41973" stroke-linecap="round" stroke-linejoin="round"/>
<path d="M255.267 220.603H252.995" stroke="#9B9B9B" stroke-width="1.41973" stroke-linecap="round" stroke-linejoin="round"/>
<path d="M263.643 220.603H261.229" stroke="#9B9B9B" stroke-width="1.41973" stroke-linecap="round" stroke-linejoin="round"/>
<path d="M263.927 220.674C263.927 220.674 263.833 220.461 263.714 220.461" stroke="#9B9B9B" stroke-width="1.41973" stroke-linecap="round" stroke-linejoin="round"/>
<path d="M255.267 220.603H261.229" stroke="#9B9B9B" stroke-width="1.41973" stroke-linecap="round" stroke-linejoin="round"/>
<path d="M261.229 217.479H255.267" stroke="#9B9B9B" stroke-width="1.41973" stroke-linecap="round" stroke-linejoin="round"/>
<path d="M253.421 222.874V224.294" stroke="#9B9B9B" stroke-width="1.41973" stroke-linecap="round" stroke-linejoin="round"/>
<path d="M253.421 224.294H263.217V222.874H253.421" stroke="#9B9B9B" stroke-width="1.41973" stroke-linecap="round" stroke-linejoin="round"/>
<path d="M255.267 71.9565V74.938" stroke="#9B9B9B" stroke-width="1.41973" stroke-linecap="round" stroke-linejoin="round"/>
<path d="M261.229 74.938V71.9565" stroke="#9B9B9B" stroke-width="1.41973" stroke-linecap="round" stroke-linejoin="round"/>
<path d="M253.066 74.796C253.066 74.796 252.853 74.8906 252.853 75.0089" stroke="#9B9B9B" stroke-width="1.41973" stroke-linecap="round" stroke-linejoin="round"/>
<path d="M255.267 74.938H252.995" stroke="#9B9B9B" stroke-width="1.41973" stroke-linecap="round" stroke-linejoin="round"/>
<path d="M263.643 74.938H261.229" stroke="#9B9B9B" stroke-width="1.41973" stroke-linecap="round" stroke-linejoin="round"/>
<path d="M263.927 75.0089C263.927 75.0089 263.833 74.796 263.714 74.796" stroke="#9B9B9B" stroke-width="1.41973" stroke-linecap="round" stroke-linejoin="round"/>
<path d="M255.267 74.938H261.229" stroke="#9B9B9B" stroke-width="1.41973" stroke-linecap="round" stroke-linejoin="round"/>
<path d="M261.229 71.9565H255.267" stroke="#9B9B9B" stroke-width="1.41973" stroke-linecap="round" stroke-linejoin="round"/>
<path d="M261.229 93.1106V96.092" stroke="#9B9B9B" stroke-width="1.41973" stroke-linecap="round" stroke-linejoin="round"/>
<path d="M252.711 92.8266V75.08" stroke="#9B9B9B" stroke-width="1.41973" stroke-linecap="round" stroke-linejoin="round"/>
<path d="M263.785 75.08V92.8266H252.776" stroke="#9B9B9B" stroke-width="1.41973" stroke-linecap="round" stroke-linejoin="round"/>
<path d="M261.229 96.092H255.267V93" stroke="#9B9B9B" stroke-width="1.41973" stroke-linecap="round" stroke-linejoin="round"/>
<path d="M253.421 77.3515V78.6293" stroke="#9B9B9B" stroke-width="1.41973" stroke-linecap="round" stroke-linejoin="round"/>
<path d="M253.421 78.6293H263.217V77.3515H253.421" stroke="#9B9B9B" stroke-width="1.41973" stroke-linecap="round" stroke-linejoin="round"/>
<path d="M346.13 75.9318V73.9442H351.525V75.9318H346.13Z" stroke="#9B9B9B" stroke-width="1.41973" stroke-linecap="round" stroke-linejoin="round"/>
<path d="M346.13 65.1418V67.2714H351.525V65.1418H346.13Z" stroke="#9B9B9B" stroke-width="1.41973" stroke-linecap="round" stroke-linejoin="round"/>
<path d="M304.532 75.9318V73.9442H309.927V75.9318H304.532Z" stroke="#9B9B9B" stroke-width="1.41973" stroke-linecap="round" stroke-linejoin="round"/>
<path d="M304.532 65.1418V67.2714H309.927V65.1418H304.532Z" stroke="#9B9B9B" stroke-width="1.41973" stroke-linecap="round" stroke-linejoin="round"/>
<path d="M270.884 75.9318V73.9442H276.279V75.9318H270.884Z" stroke="#9B9B9B" stroke-width="1.41973" stroke-linecap="round" stroke-linejoin="round"/>
<path d="M270.884 65.1418V67.2714H276.279V65.1418H270.884Z" stroke="#9B9B9B" stroke-width="1.41973" stroke-linecap="round" stroke-linejoin="round"/>
<path d="M280.964 75.9318V73.9442H286.217V75.9318H280.964Z" stroke="#9B9B9B" stroke-width="1.41973" stroke-linecap="round" stroke-linejoin="round"/>
<path d="M280.964 65.1418V67.2714H286.217V65.1418H280.964Z" stroke="#9B9B9B" stroke-width="1.41973" stroke-linecap="round" stroke-linejoin="round"/>
<path d="M346.13 67.2714V73.9441" stroke="#9B9B9B" stroke-width="1.41973" stroke-linecap="round" stroke-linejoin="round"/>
<path d="M351.525 67.2714V73.9441" stroke="#9B9B9B" stroke-width="1.41973" stroke-linecap="round" stroke-linejoin="round"/>
<path d="M304.532 67.2714V73.9442" stroke="#9B9B9B" stroke-width="1.41973" stroke-linecap="round" stroke-linejoin="round"/>
<path d="M309.927 67.2714V73.9442" stroke="#9B9B9B" stroke-width="1.41973" stroke-linecap="round" stroke-linejoin="round"/>
<path d="M270.884 67.2714V73.9442" stroke="#9B9B9B" stroke-width="1.41973" stroke-linecap="round" stroke-linejoin="round"/>
<path d="M276.137 67.2714V73.9442" stroke="#9B9B9B" stroke-width="1.41973" stroke-linecap="round" stroke-linejoin="round"/>
<path d="M280.964 67.2714V73.9442" stroke="#9B9B9B" stroke-width="1.41973" stroke-linecap="round" stroke-linejoin="round"/>
<path d="M286.217 67.2714V73.9442" stroke="#9B9B9B" stroke-width="1.41973" stroke-linecap="round" stroke-linejoin="round"/>
<path d="M652.735 36L733.119 36.0001C734.425 36.0001 735.485 37.0595 735.485 38.3664V78.3231C735.485 88.7778 727.01 97.2529 716.555 97.2529H648.89M511.323 36.0001H455.366C454.059 36.0001 453 37.0595 453 38.3664V78.3231C453 88.7778 461.475 97.2529 471.93 97.2529H515.053" stroke="#9B9B9B" stroke-width="1.41973"/>
<path d="M496.39 36.0001L505.808 36L511.18 36.0001V97.2529H492.65V36.0001H496.39Z" stroke="#9B9B9B" stroke-width="1.41973"/>
<path d="M652.885 304.793L733.269 304.793C734.576 304.793 735.635 303.734 735.635 302.427V262.47C735.635 252.016 727.16 243.541 716.705 243.541H649.04M511.473 304.793H455.517C454.21 304.793 453.15 303.734 453.15 302.427V262.47C453.15 252.016 461.626 243.541 472.08 243.541H515.203" stroke="#9B9B9B" stroke-width="1.41973"/>
<path d="M496.54 304.793L505.959 304.793L511.331 304.793V243.54H492.801V304.793H496.54Z" stroke="#9B9B9B" stroke-width="1.41973"/>
<circle cx="222.5" cy="73.5" r="3.5" fill="#9B9B9B"/>
<circle cx="222.5" cy="49.5" r="3.5" fill="#9B9B9B"/>
<circle cx="210.5" cy="73.5" r="3.5" fill="#9B9B9B"/>
<circle cx="210.5" cy="49.5" r="3.5" fill="#9B9B9B"/>
<circle cx="222.5" cy="221.5" r="3.5" fill="#9B9B9B"/>
<circle cx="222.5" cy="197.5" r="3.5" fill="#9B9B9B"/>
<circle cx="210.5" cy="221.5" r="3.5" fill="#9B9B9B"/>
<circle cx="210.5" cy="197.5" r="3.5" fill="#9B9B9B"/>
<path d="M261.518 239.031V242.012" stroke="#9B9B9B" stroke-width="1.41973" stroke-linecap="round" stroke-linejoin="round"/>
<path d="M253 238.747V221" stroke="#9B9B9B" stroke-width="1.41973" stroke-linecap="round" stroke-linejoin="round"/>
<path d="M264.074 221V238.747H253.065" stroke="#9B9B9B" stroke-width="1.41973" stroke-linecap="round" stroke-linejoin="round"/>
<path d="M261.518 242.012H255.555V238.92" stroke="#9B9B9B" stroke-width="1.41973" stroke-linecap="round" stroke-linejoin="round"/>
</g>
<path d="M40.36 298.33C42.29 298.6 43.63 298.76 43.63 300.32C43.63 301.84 42.38 302.65 39.89 302.65C37.47 302.65 36.2 301.74 36.2 300.32H37.88C37.92 301.05 38.76 301.42 40.03 301.42C41.36 301.42 41.92 301.07 41.92 300.54C41.92 299.82 40.84 299.89 38.93 299.57C37.02 299.25 36.42 298.67 36.42 297.57C36.42 296.42 37.2 295.36 39.77 295.36C42.24 295.36 43.2 296.3 43.24 297.54H41.68C41.62 297.04 41.04 296.59 39.75 296.59C38.31 296.59 37.97 296.98 37.97 297.46C37.97 298.12 39.13 298.16 40.36 298.33ZM50.837 295.5V296.74H48.187V302.5H46.577V296.74H43.927V295.5H50.837ZM56.5779 302.5L55.9879 301.13H52.1479L51.5479 302.5H49.8379L53.0779 295.5H55.0579L58.2879 302.5H56.5779ZM52.6879 299.9H55.4479L54.0679 296.72L52.6879 299.9ZM67.9379 296.74H63.3979V298.48H67.6479V299.71H63.3979V302.5H61.7879V295.5H67.9379V296.74ZM71.1836 297.03C72.7136 297.03 74.0536 297.47 74.0536 299.04V302.5H72.5336V301.79C72.3036 302.14 71.5336 302.65 70.3436 302.65C69.0936 302.65 68.2336 302.13 68.2336 301.08C68.2336 299.96 68.8136 299.06 72.5336 299.29V299.04C72.5336 298.48 72.2836 298.07 71.1836 298.07C70.2636 298.07 69.9736 298.34 69.8936 298.71H68.4736C68.6436 297.53 69.7236 297.03 71.1836 297.03ZM72.5336 300.94V300.19C70.5136 300.08 69.7636 300.27 69.7636 301.03C69.7636 301.53 70.1336 301.73 70.7936 301.73C71.6136 301.73 72.2536 301.41 72.5336 300.94ZM78.7923 297.03C80.1623 297.03 80.9623 297.77 80.9623 298.97V302.5H79.4423V299.35C79.4423 298.71 79.0723 298.16 78.1323 298.16C77.1923 298.16 76.7723 298.73 76.7723 299.35V302.5H75.2523V297.17H76.7723V297.92C77.0023 297.6 77.6523 297.03 78.7923 297.03ZM90.4791 295.5H92.0891V299.67C92.0891 302.12 90.5091 302.65 88.5791 302.65C86.6591 302.65 85.0691 302.12 85.0691 299.67V295.5H86.6791V299.57C86.6791 301 87.3791 301.43 88.5791 301.43C89.7791 301.43 90.4791 301 90.4791 299.57V295.5ZM96.9271 297.03C98.2971 297.03 99.0971 297.77 99.0971 298.97V302.5H97.5771V299.35C97.5771 298.71 97.2071 298.16 96.2671 298.16C95.3271 298.16 94.9071 298.73 94.9071 299.35V302.5H93.3871V297.17H94.9071V297.92C95.1371 297.6 95.7871 297.03 96.9271 297.03ZM100.301 302.5V297.17H101.811V302.5H100.301ZM101.051 296.55C100.591 296.55 100.271 296.29 100.271 295.84C100.271 295.38 100.591 295.12 101.051 295.12C101.511 295.12 101.841 295.38 101.841 295.84C101.841 296.29 101.511 296.55 101.051 296.55ZM106.588 298.21H105.028V300.45C105.028 301.32 105.348 301.49 106.588 301.36V302.5C106.388 302.53 106.148 302.58 105.798 302.58C103.878 302.58 103.508 301.75 103.508 300.42V298.21H102.518V297.17H103.508V295.79H105.028V297.17H106.588V298.21Z" fill="black"/>
<path d="M67.012 212V203.97H69.597C70.0957 203.97 70.5283 204.069 70.895 204.267C71.2617 204.458 71.544 204.729 71.742 205.081C71.9473 205.433 72.05 205.851 72.05 206.335C72.05 206.812 71.9473 207.23 71.742 207.589C71.544 207.941 71.2617 208.216 70.895 208.414C70.5283 208.605 70.0957 208.7 69.597 208.7H68.002V212H67.012ZM68.002 207.809H69.597C70.0297 207.809 70.3743 207.677 70.631 207.413C70.895 207.142 71.027 206.782 71.027 206.335C71.027 205.88 70.895 205.521 70.631 205.257C70.3743 204.993 70.0297 204.861 69.597 204.861H68.002V207.809ZM75.8957 212.088C75.4117 212.088 74.9937 211.996 74.6417 211.813C74.2897 211.63 74.0147 211.366 73.8167 211.021C73.626 210.669 73.5307 210.255 73.5307 209.778V208.172C73.5307 207.688 73.626 207.274 73.8167 206.929C74.0147 206.584 74.2897 206.32 74.6417 206.137C74.9937 205.954 75.4117 205.862 75.8957 205.862C76.3797 205.862 76.7977 205.954 77.1497 206.137C77.5017 206.32 77.773 206.584 77.9637 206.929C78.1617 207.274 78.2607 207.684 78.2607 208.161V209.778C78.2607 210.255 78.1617 210.669 77.9637 211.021C77.773 211.366 77.5017 211.63 77.1497 211.813C76.7977 211.996 76.3797 212.088 75.8957 212.088ZM75.8957 211.208C76.3284 211.208 76.6657 211.087 76.9077 210.845C77.1497 210.603 77.2707 210.247 77.2707 209.778V208.172C77.2707 207.703 77.1497 207.347 76.9077 207.105C76.6657 206.863 76.3284 206.742 75.8957 206.742C75.4704 206.742 75.133 206.863 74.8837 207.105C74.6417 207.347 74.5207 207.703 74.5207 208.172V209.778C74.5207 210.247 74.6417 210.603 74.8837 210.845C75.133 211.087 75.4704 211.208 75.8957 211.208ZM80.4124 212V205.95H81.3804V207.105H81.6114L81.2924 207.82C81.2924 207.167 81.4317 206.676 81.7104 206.346C81.9964 206.009 82.4181 205.84 82.9754 205.84C83.6134 205.84 84.1194 206.042 84.4934 206.445C84.8747 206.841 85.0654 207.38 85.0654 208.062V208.425H84.0754V208.15C84.0754 207.673 83.9581 207.31 83.7234 207.061C83.4961 206.804 83.1697 206.676 82.7444 206.676C82.3264 206.676 81.9964 206.804 81.7544 207.061C81.5197 207.318 81.4024 207.681 81.4024 208.15V212H80.4124ZM89.7471 212C89.2264 212 88.8194 211.861 88.5261 211.582C88.2401 211.303 88.0971 210.911 88.0971 210.405V206.852H86.3921V205.95H88.0971V204.245H89.0871V205.95H91.5071V206.852H89.0871V210.405C89.0871 210.867 89.3071 211.098 89.7471 211.098H91.3971V212H89.7471ZM100.002 212V203.97H102.279C103.012 203.97 103.584 204.153 103.995 204.52C104.413 204.887 104.622 205.396 104.622 206.049C104.622 206.416 104.545 206.735 104.391 207.006C104.237 207.277 104.017 207.486 103.731 207.633C103.452 207.78 103.115 207.849 102.719 207.842V207.677C103.144 207.67 103.511 207.75 103.819 207.919C104.134 208.088 104.376 208.33 104.545 208.645C104.721 208.96 104.809 209.334 104.809 209.767C104.809 210.222 104.713 210.618 104.523 210.955C104.332 211.292 104.061 211.553 103.709 211.736C103.357 211.912 102.935 212 102.444 212H100.002ZM100.97 211.109H102.334C102.796 211.109 103.159 210.988 103.423 210.746C103.694 210.497 103.83 210.159 103.83 209.734C103.83 209.294 103.694 208.938 103.423 208.667C103.159 208.388 102.796 208.249 102.334 208.249H100.97V211.109ZM100.97 207.391H102.268C102.693 207.391 103.027 207.277 103.269 207.05C103.518 206.823 103.643 206.515 103.643 206.126C103.643 205.737 103.522 205.429 103.28 205.202C103.038 204.975 102.704 204.861 102.279 204.861H100.97V207.391Z" fill="black"/>
<circle cx="223.5" cy="75.5" r="3.5" fill="#9B9B9B"/>
<circle cx="223.5" cy="51.5" r="3.5" fill="#9B9B9B"/>
<circle cx="211.5" cy="75.5" r="3.5" fill="#9B9B9B"/>
<circle cx="211.5" cy="51.5" r="3.5" fill="#9B9B9B"/>
<circle cx="223.5" cy="222.5" r="3.5" fill="#9B9B9B"/>
<circle cx="223.5" cy="198.5" r="3.5" fill="#9B9B9B"/>
<circle cx="211.5" cy="222.5" r="3.5" fill="#9B9B9B"/>
<circle cx="211.5" cy="198.5" r="3.5" fill="#9B9B9B"/>
<path d="M215.089 36C203.992 36 195.024 44.9916 195 56.0892" stroke="#9B9B9B" stroke-width="1.41973" stroke-linecap="round" stroke-linejoin="round"/>
<rect width="80" height="18" transform="translate(133 213)" fill="#FF443A"/>
<path d="M140.588 226.12C139.78 226.12 139.132 225.92 138.644 225.52C138.156 225.112 137.888 224.56 137.84 223.864H139.34C139.372 224.168 139.492 224.404 139.7 224.572C139.916 224.732 140.212 224.812 140.588 224.812C141.004 224.812 141.32 224.704 141.536 224.488C141.752 224.264 141.86 223.956 141.86 223.564V222.712C141.86 222.312 141.752 222.008 141.536 221.8C141.32 221.584 141.004 221.476 140.588 221.476C140.332 221.476 140.112 221.528 139.928 221.632C139.744 221.736 139.604 221.88 139.508 222.064H138.044L138.104 217.24H143.036V218.596H139.52L139.496 221.14H139.844L139.484 221.44C139.484 221.072 139.628 220.784 139.916 220.576C140.212 220.36 140.608 220.252 141.104 220.252C141.816 220.244 142.368 220.46 142.76 220.9C143.16 221.332 143.36 221.936 143.36 222.712V223.564C143.36 224.356 143.112 224.98 142.616 225.436C142.128 225.892 141.452 226.12 140.588 226.12ZM146.823 226L144.615 217.24H146.175L147.495 222.952C147.567 223.232 147.635 223.532 147.699 223.852C147.763 224.172 147.811 224.432 147.843 224.632C147.875 224.432 147.919 224.172 147.975 223.852C148.031 223.532 148.091 223.228 148.155 222.94L149.463 217.24H150.975L148.767 226H146.823ZM159.51 226V217.24H162.426C163.01 217.24 163.518 217.352 163.95 217.576C164.39 217.8 164.73 218.116 164.97 218.524C165.21 218.924 165.33 219.396 165.33 219.94C165.33 220.476 165.206 220.948 164.958 221.356C164.718 221.764 164.382 222.08 163.95 222.304C163.518 222.528 163.01 222.64 162.426 222.64H161.01V226H159.51ZM161.01 221.284H162.426C162.842 221.284 163.174 221.164 163.422 220.924C163.678 220.676 163.806 220.348 163.806 219.94C163.806 219.524 163.678 219.196 163.422 218.956C163.174 218.716 162.842 218.596 162.426 218.596H161.01V221.284ZM166.873 226L165.973 217.24H167.269L167.797 223.36C167.813 223.496 167.825 223.664 167.833 223.864C167.849 224.056 167.861 224.252 167.869 224.452C167.885 224.652 167.893 224.828 167.893 224.98C167.909 224.828 167.925 224.652 167.941 224.452C167.957 224.252 167.973 224.056 167.989 223.864C168.013 223.664 168.033 223.496 168.049 223.36L168.769 217.24H170.029L170.701 223.36C170.725 223.496 170.745 223.664 170.761 223.864C170.785 224.056 170.809 224.252 170.833 224.452C170.857 224.652 170.877 224.828 170.893 224.98C170.901 224.828 170.909 224.652 170.917 224.452C170.925 224.252 170.933 224.056 170.941 223.864C170.957 223.664 170.973 223.496 170.989 223.36L171.505 217.24H172.789L171.841 226H170.185L169.537 219.856C169.521 219.704 169.501 219.528 169.477 219.328C169.461 219.12 169.445 218.916 169.429 218.716C169.413 218.508 169.401 218.332 169.393 218.188C169.385 218.332 169.369 218.508 169.345 218.716C169.329 218.916 169.313 219.12 169.297 219.328C169.281 219.528 169.265 219.704 169.249 219.856L168.541 226H166.873ZM173.889 226V217.24H176.661C177.245 217.24 177.749 217.348 178.173 217.564C178.605 217.78 178.941 218.084 179.181 218.476C179.421 218.86 179.541 219.316 179.541 219.844C179.541 220.42 179.393 220.928 179.097 221.368C178.809 221.808 178.417 222.12 177.921 222.304L179.661 226H177.981L176.457 222.52H175.389V226H173.889ZM175.389 221.2H176.661C177.085 221.2 177.417 221.084 177.657 220.852C177.897 220.62 178.017 220.3 178.017 219.892C178.017 219.476 177.897 219.152 177.657 218.92C177.417 218.68 177.085 218.56 176.661 218.56H175.389V221.2Z" fill="white"/>
<rect width="67" height="18" transform="translate(239 213)" fill="#050505"/>
<path d="M246.648 226.12C246.088 226.12 245.596 226.016 245.172 225.808C244.756 225.592 244.432 225.292 244.2 224.908C243.976 224.516 243.864 224.056 243.864 223.528V219.712C243.864 219.176 243.976 218.716 244.2 218.332C244.432 217.948 244.756 217.652 245.172 217.444C245.596 217.228 246.088 217.12 246.648 217.12C247.216 217.12 247.704 217.228 248.112 217.444C248.528 217.652 248.852 217.948 249.084 218.332C249.316 218.716 249.432 219.176 249.432 219.712H247.92C247.92 219.296 247.808 218.98 247.584 218.764C247.368 218.548 247.056 218.44 246.648 218.44C246.24 218.44 245.924 218.548 245.7 218.764C245.476 218.98 245.364 219.292 245.364 219.7V223.528C245.364 223.936 245.476 224.252 245.7 224.476C245.924 224.7 246.24 224.812 246.648 224.812C247.056 224.812 247.368 224.7 247.584 224.476C247.808 224.252 247.92 223.936 247.92 223.528V222.64H246.432V221.344H249.432V223.528C249.432 224.056 249.316 224.516 249.084 224.908C248.852 225.292 248.528 225.592 248.112 225.808C247.704 226.016 247.216 226.12 246.648 226.12ZM251.059 226V217.24H252.895L255.331 224.32C255.307 224.064 255.279 223.764 255.247 223.42C255.223 223.068 255.203 222.712 255.187 222.352C255.171 221.984 255.163 221.664 255.163 221.392V217.24H256.531V226H254.695L252.283 218.92C252.299 219.152 252.319 219.432 252.343 219.76C252.367 220.088 252.387 220.424 252.403 220.768C252.419 221.112 252.427 221.428 252.427 221.716V226H251.059ZM258.291 226V217.24H260.895C261.487 217.24 261.999 217.352 262.431 217.576C262.871 217.8 263.211 218.116 263.451 218.524C263.691 218.932 263.811 219.416 263.811 219.976V223.252C263.811 223.804 263.691 224.288 263.451 224.704C263.211 225.112 262.871 225.432 262.431 225.664C261.999 225.888 261.487 226 260.895 226H258.291ZM259.791 224.62H260.895C261.327 224.62 261.671 224.5 261.927 224.26C262.183 224.012 262.311 223.676 262.311 223.252V219.976C262.311 219.56 262.183 219.232 261.927 218.992C261.671 218.744 261.327 218.62 260.895 218.62H259.791V224.62Z" fill="white"/>
<rect width="20" height="18" transform="translate(222 189)" fill="#7723FF"/>
<rect width="19" height="18" transform="translate(222 213)" fill="#050505"/>
<rect width="67" height="18" transform="translate(239 189)" fill="#7723FF"/>
<path d="M243.96 202V193.24H249.408V194.632H245.436V196.972H249.096V198.364H245.46V202H243.96ZM250.615 202L252.823 193.24H254.755L256.975 202H255.439L254.959 199.876H252.631L252.151 202H250.615ZM252.907 198.652H254.683L254.155 196.3C254.067 195.908 253.991 195.556 253.927 195.244C253.863 194.924 253.819 194.692 253.795 194.548C253.771 194.692 253.727 194.924 253.663 195.244C253.607 195.556 253.531 195.904 253.435 196.288L252.907 198.652ZM258.255 202V193.24H260.091L262.527 200.32C262.503 200.064 262.475 199.764 262.443 199.42C262.419 199.068 262.399 198.712 262.383 198.352C262.367 197.984 262.359 197.664 262.359 197.392V193.24H263.727V202H261.891L259.479 194.92C259.495 195.152 259.515 195.432 259.539 195.76C259.563 196.088 259.583 196.424 259.599 196.768C259.615 197.112 259.623 197.428 259.623 197.716V202H258.255ZM274.625 202V194.632H272.333V193.24H278.429V194.632H276.137V202H274.625ZM279.397 202L281.605 193.24H283.537L285.757 202H284.221L283.741 199.876H281.413L280.933 202H279.397ZM281.689 198.652H283.465L282.937 196.3C282.849 195.908 282.773 195.556 282.709 195.244C282.645 194.924 282.601 194.692 282.577 194.548C282.553 194.692 282.509 194.924 282.445 195.244C282.389 195.556 282.313 195.904 282.217 196.288L281.689 198.652ZM289.82 202.12C289.26 202.12 288.768 202.016 288.344 201.808C287.928 201.592 287.604 201.292 287.372 200.908C287.148 200.516 287.036 200.056 287.036 199.528V195.712C287.036 195.176 287.148 194.716 287.372 194.332C287.604 193.948 287.928 193.652 288.344 193.444C288.768 193.228 289.26 193.12 289.82 193.12C290.388 193.12 290.876 193.228 291.284 193.444C291.7 193.652 292.024 193.948 292.256 194.332C292.488 194.716 292.604 195.176 292.604 195.712H291.092C291.092 195.296 290.98 194.98 290.756 194.764C290.54 194.548 290.228 194.44 289.82 194.44C289.412 194.44 289.096 194.548 288.872 194.764C288.648 194.98 288.536 195.292 288.536 195.7V199.528C288.536 199.936 288.648 200.252 288.872 200.476C289.096 200.692 289.412 200.8 289.82 200.8C290.228 200.8 290.54 200.692 290.756 200.476C290.98 200.252 291.092 199.936 291.092 199.528H292.604C292.604 200.048 292.488 200.504 292.256 200.896C292.024 201.288 291.7 201.592 291.284 201.808C290.876 202.016 290.388 202.12 289.82 202.12ZM294.291 202V193.24H295.791V196.756H298.143V193.24H299.643V202H298.143V198.148H295.791V202H294.291Z" fill="white"/>
<mask id="path-190-inside-17_393_14840" fill="white">
<path d="M236 198C236 201.314 233.314 204 230 204C226.686 204 224 201.314 224 198C224 194.686 226.686 192 230 192C233.314 192 236 194.686 236 198Z"/>
</mask>
<path d="M236 198C236 201.314 233.314 204 230 204C226.686 204 224 201.314 224 198C224 194.686 226.686 192 230 192C233.314 192 236 194.686 236 198Z" fill="#E6E6E6"/>
<path d="M234.5 198C234.5 200.485 232.485 202.5 230 202.5V205.5C234.142 205.5 237.5 202.142 237.5 198H234.5ZM230 202.5C227.515 202.5 225.5 200.485 225.5 198H222.5C222.5 202.142 225.858 205.5 230 205.5V202.5ZM225.5 198C225.5 195.515 227.515 193.5 230 193.5V190.5C225.858 190.5 222.5 193.858 222.5 198H225.5ZM230 193.5C232.485 193.5 234.5 195.515 234.5 198H237.5C237.5 193.858 234.142 190.5 230 190.5V193.5Z" fill="black" mask="url(#path-190-inside-17_393_14840)"/>
<mask id="path-192-inside-18_393_14840" fill="white">
<path d="M224 216H236V228H224V216Z"/>
</mask>
<path d="M224 216H236V228H224V216Z" fill="#E6E6E6"/>
<path d="M224 216V214.5H222.5V216H224ZM236 216H237.5V214.5H236V216ZM236 228V229.5H237.5V228H236ZM224 228H222.5V229.5H224V228ZM224 217.5H236V214.5H224V217.5ZM234.5 216V228H237.5V216H234.5ZM236 226.5H224V229.5H236V226.5ZM225.5 228V216H222.5V228H225.5Z" fill="black" mask="url(#path-192-inside-18_393_14840)"/>
<mask id="path-194-inside-19_393_14840" fill="white">
<path d="M210 222C210 225.314 207.314 228 204 228C200.686 228 198 225.314 198 222C198 218.686 200.686 216 204 216C207.314 216 210 218.686 210 222Z"/>
</mask>
<path d="M210 222C210 225.314 207.314 228 204 228C200.686 228 198 225.314 198 222C198 218.686 200.686 216 204 216C207.314 216 210 218.686 210 222Z" fill="#E6E6E6"/>
<path d="M208.5 222C208.5 224.485 206.485 226.5 204 226.5V229.5C208.142 229.5 211.5 226.142 211.5 222H208.5ZM204 226.5C201.515 226.5 199.5 224.485 199.5 222H196.5C196.5 226.142 199.858 229.5 204 229.5V226.5ZM199.5 222C199.5 219.515 201.515 217.5 204 217.5V214.5C199.858 214.5 196.5 217.858 196.5 222H199.5ZM204 217.5C206.485 217.5 208.5 219.515 208.5 222H211.5C211.5 217.858 208.142 214.5 204 214.5V217.5Z" fill="black" mask="url(#path-194-inside-19_393_14840)"/>
<rect width="74" height="18" transform="translate(139 42)" fill="#7723FF"/>
<path d="M143.96 55V46.24H149.408V47.632H145.436V49.972H149.096V51.364H145.46V55H143.96ZM150.615 55L152.823 46.24H154.755L156.975 55H155.439L154.959 52.876H152.631L152.151 55H150.615ZM152.907 51.652H154.683L154.155 49.3C154.067 48.908 153.991 48.556 153.927 48.244C153.863 47.924 153.819 47.692 153.795 47.548C153.771 47.692 153.727 47.924 153.663 48.244C153.607 48.556 153.531 48.904 153.435 49.288L152.907 51.652ZM158.255 55V46.24H160.091L162.527 53.32C162.503 53.064 162.475 52.764 162.443 52.42C162.419 52.068 162.399 51.712 162.383 51.352C162.367 50.984 162.359 50.664 162.359 50.392V46.24H163.727V55H161.891L159.479 47.92C159.495 48.152 159.515 48.432 159.539 48.76C159.563 49.088 159.583 49.424 159.599 49.768C159.615 50.112 159.623 50.428 159.623 50.716V55H158.255ZM172.705 55V46.24H175.621C176.205 46.24 176.713 46.352 177.145 46.576C177.585 46.8 177.925 47.116 178.165 47.524C178.405 47.924 178.525 48.396 178.525 48.94C178.525 49.476 178.401 49.948 178.153 50.356C177.913 50.764 177.577 51.08 177.145 51.304C176.713 51.528 176.205 51.64 175.621 51.64H174.205V55H172.705ZM174.205 50.284H175.621C176.037 50.284 176.369 50.164 176.617 49.924C176.873 49.676 177.001 49.348 177.001 48.94C177.001 48.524 176.873 48.196 176.617 47.956C176.369 47.716 176.037 47.596 175.621 47.596H174.205V50.284ZM180.069 55L179.169 46.24H180.465L180.993 52.36C181.009 52.496 181.021 52.664 181.029 52.864C181.045 53.056 181.057 53.252 181.065 53.452C181.081 53.652 181.089 53.828 181.089 53.98C181.105 53.828 181.121 53.652 181.137 53.452C181.153 53.252 181.169 53.056 181.185 52.864C181.209 52.664 181.229 52.496 181.245 52.36L181.965 46.24H183.225L183.897 52.36C183.921 52.496 183.941 52.664 183.957 52.864C183.981 53.056 184.005 53.252 184.029 53.452C184.053 53.652 184.073 53.828 184.089 53.98C184.097 53.828 184.105 53.652 184.113 53.452C184.121 53.252 184.129 53.056 184.137 52.864C184.153 52.664 184.169 52.496 184.185 52.36L184.701 46.24H185.985L185.037 55H183.381L182.733 48.856C182.717 48.704 182.697 48.528 182.673 48.328C182.657 48.12 182.641 47.916 182.625 47.716C182.609 47.508 182.597 47.332 182.589 47.188C182.581 47.332 182.565 47.508 182.541 47.716C182.525 47.916 182.509 48.12 182.493 48.328C182.477 48.528 182.461 48.704 182.445 48.856L181.737 55H180.069ZM186.844 55V46.24H188.62L189.472 49.024C189.56 49.304 189.632 49.56 189.688 49.792C189.744 50.024 189.78 50.192 189.796 50.296C189.812 50.192 189.848 50.024 189.904 49.792C189.96 49.56 190.028 49.304 190.108 49.024L190.924 46.24H192.7V55H191.296V52.276C191.296 51.876 191.308 51.44 191.332 50.968C191.356 50.496 191.384 50.024 191.416 49.552C191.448 49.08 191.484 48.632 191.524 48.208C191.572 47.784 191.612 47.412 191.644 47.092L190.468 51.232H189.1L187.888 47.092C187.928 47.396 187.968 47.756 188.008 48.172C188.048 48.58 188.084 49.02 188.116 49.492C188.156 49.956 188.188 50.428 188.212 50.908C188.236 51.388 188.248 51.844 188.248 52.276V55H186.844Z" fill="white"/>
<rect width="74" height="18" transform="translate(139 66)" fill="#FF443A"/>
<path d="M146.588 79.12C145.78 79.12 145.132 78.92 144.644 78.52C144.156 78.112 143.888 77.56 143.84 76.864H145.34C145.372 77.168 145.492 77.404 145.7 77.572C145.916 77.732 146.212 77.812 146.588 77.812C147.004 77.812 147.32 77.704 147.536 77.488C147.752 77.264 147.86 76.956 147.86 76.564V75.712C147.86 75.312 147.752 75.008 147.536 74.8C147.32 74.584 147.004 74.476 146.588 74.476C146.332 74.476 146.112 74.528 145.928 74.632C145.744 74.736 145.604 74.88 145.508 75.064H144.044L144.104 70.24H149.036V71.596H145.52L145.496 74.14H145.844L145.484 74.44C145.484 74.072 145.628 73.784 145.916 73.576C146.212 73.36 146.608 73.252 147.104 73.252C147.816 73.244 148.368 73.46 148.76 73.9C149.16 74.332 149.36 74.936 149.36 75.712V76.564C149.36 77.356 149.112 77.98 148.616 78.436C148.128 78.892 147.452 79.12 146.588 79.12ZM152.823 79L150.615 70.24H152.175L153.495 75.952C153.567 76.232 153.635 76.532 153.699 76.852C153.763 77.172 153.811 77.432 153.843 77.632C153.875 77.432 153.919 77.172 153.975 76.852C154.031 76.532 154.091 76.228 154.155 75.94L155.463 70.24H156.975L154.767 79H152.823ZM165.51 79V70.24H168.426C169.01 70.24 169.518 70.352 169.95 70.576C170.39 70.8 170.73 71.116 170.97 71.524C171.21 71.924 171.33 72.396 171.33 72.94C171.33 73.476 171.206 73.948 170.958 74.356C170.718 74.764 170.382 75.08 169.95 75.304C169.518 75.528 169.01 75.64 168.426 75.64H167.01V79H165.51ZM167.01 74.284H168.426C168.842 74.284 169.174 74.164 169.422 73.924C169.678 73.676 169.806 73.348 169.806 72.94C169.806 72.524 169.678 72.196 169.422 71.956C169.174 71.716 168.842 71.596 168.426 71.596H167.01V74.284ZM172.873 79L171.973 70.24H173.269L173.797 76.36C173.813 76.496 173.825 76.664 173.833 76.864C173.849 77.056 173.861 77.252 173.869 77.452C173.885 77.652 173.893 77.828 173.893 77.98C173.909 77.828 173.925 77.652 173.941 77.452C173.957 77.252 173.973 77.056 173.989 76.864C174.013 76.664 174.033 76.496 174.049 76.36L174.769 70.24H176.029L176.701 76.36C176.725 76.496 176.745 76.664 176.761 76.864C176.785 77.056 176.809 77.252 176.833 77.452C176.857 77.652 176.877 77.828 176.893 77.98C176.901 77.828 176.909 77.652 176.917 77.452C176.925 77.252 176.933 77.056 176.941 76.864C176.957 76.664 176.973 76.496 176.989 76.36L177.505 70.24H178.789L177.841 79H176.185L175.537 72.856C175.521 72.704 175.501 72.528 175.477 72.328C175.461 72.12 175.445 71.916 175.429 71.716C175.413 71.508 175.401 71.332 175.393 71.188C175.385 71.332 175.369 71.508 175.345 71.716C175.329 71.916 175.313 72.12 175.297 72.328C175.281 72.528 175.265 72.704 175.249 72.856L174.541 79H172.873ZM179.889 79V70.24H182.661C183.245 70.24 183.749 70.348 184.173 70.564C184.605 70.78 184.941 71.084 185.181 71.476C185.421 71.86 185.541 72.316 185.541 72.844C185.541 73.42 185.393 73.928 185.097 74.368C184.809 74.808 184.417 75.12 183.921 75.304L185.661 79H183.981L182.457 75.52H181.389V79H179.889ZM181.389 74.2H182.661C183.085 74.2 183.417 74.084 183.657 73.852C183.897 73.62 184.017 73.3 184.017 72.892C184.017 72.476 183.897 72.152 183.657 71.92C183.417 71.68 183.085 71.56 182.661 71.56H181.389V74.2Z" fill="white"/>
<rect width="67" height="18" transform="translate(241 66.0002)" fill="#050505"/>
<path d="M248.648 79.1202C248.088 79.1202 247.596 79.0162 247.172 78.8082C246.756 78.5922 246.432 78.2922 246.2 77.9082C245.976 77.5162 245.864 77.0562 245.864 76.5282V72.7122C245.864 72.1762 245.976 71.7162 246.2 71.3322C246.432 70.9482 246.756 70.6522 247.172 70.4442C247.596 70.2282 248.088 70.1202 248.648 70.1202C249.216 70.1202 249.704 70.2282 250.112 70.4442C250.528 70.6522 250.852 70.9482 251.084 71.3322C251.316 71.7162 251.432 72.1762 251.432 72.7122H249.92C249.92 72.2962 249.808 71.9802 249.584 71.7642C249.368 71.5482 249.056 71.4402 248.648 71.4402C248.24 71.4402 247.924 71.5482 247.7 71.7642C247.476 71.9802 247.364 72.2922 247.364 72.7002V76.5282C247.364 76.9362 247.476 77.2522 247.7 77.4762C247.924 77.7002 248.24 77.8122 248.648 77.8122C249.056 77.8122 249.368 77.7002 249.584 77.4762C249.808 77.2522 249.92 76.9362 249.92 76.5282V75.6402H248.432V74.3442H251.432V76.5282C251.432 77.0562 251.316 77.5162 251.084 77.9082C250.852 78.2922 250.528 78.5922 250.112 78.8082C249.704 79.0162 249.216 79.1202 248.648 79.1202ZM253.059 79.0002V70.2402H254.895L257.331 77.3202C257.307 77.0642 257.279 76.7642 257.247 76.4202C257.223 76.0682 257.203 75.7122 257.187 75.3522C257.171 74.9842 257.163 74.6642 257.163 74.3922V70.2402H258.531V79.0002H256.695L254.283 71.9202C254.299 72.1522 254.319 72.4322 254.343 72.7602C254.367 73.0882 254.387 73.4242 254.403 73.7682C254.419 74.1122 254.427 74.4282 254.427 74.7162V79.0002H253.059ZM260.291 79.0002V70.2402H262.895C263.487 70.2402 263.999 70.3522 264.431 70.5762C264.871 70.8002 265.211 71.1162 265.451 71.5242C265.691 71.9322 265.811 72.4162 265.811 72.9762V76.2522C265.811 76.8042 265.691 77.2882 265.451 77.7042C265.211 78.1122 264.871 78.4322 264.431 78.6642C263.999 78.8882 263.487 79.0002 262.895 79.0002H260.291ZM261.791 77.6202H262.895C263.327 77.6202 263.671 77.5002 263.927 77.2602C264.183 77.0122 264.311 76.6762 264.311 76.2522V72.9762C264.311 72.5602 264.183 72.2322 263.927 71.9922C263.671 71.7442 263.327 71.6202 262.895 71.6202H261.791V77.6202Z" fill="white"/>
<rect width="19" height="18" transform="translate(222 42)" fill="#7723FF"/>
<rect width="19" height="18" transform="translate(222 66)" fill="#050505"/>
<rect x="225" y="69" width="12" height="12" fill="#E6E6E6" stroke="black" stroke-width="2"/>
<rect width="67" height="18" transform="translate(241 42)" fill="#7723FF"/>
<path d="M245.96 55V46.24H251.408V47.632H247.436V49.972H251.096V51.364H247.46V55H245.96ZM252.615 55L254.823 46.24H256.755L258.975 55H257.439L256.959 52.876H254.631L254.151 55H252.615ZM254.907 51.652H256.683L256.155 49.3C256.067 48.908 255.991 48.556 255.927 48.244C255.863 47.924 255.819 47.692 255.795 47.548C255.771 47.692 255.727 47.924 255.663 48.244C255.607 48.556 255.531 48.904 255.435 49.288L254.907 51.652ZM260.255 55V46.24H262.091L264.527 53.32C264.503 53.064 264.475 52.764 264.443 52.42C264.419 52.068 264.399 51.712 264.383 51.352C264.367 50.984 264.359 50.664 264.359 50.392V46.24H265.727V55H263.891L261.479 47.92C261.495 48.152 261.515 48.432 261.539 48.76C261.563 49.088 261.583 49.424 261.599 49.768C261.615 50.112 261.623 50.428 261.623 50.716V55H260.255ZM276.625 55V47.632H274.333V46.24H280.429V47.632H278.137V55H276.625ZM281.397 55L283.605 46.24H285.537L287.757 55H286.221L285.741 52.876H283.413L282.933 55H281.397ZM283.689 51.652H285.465L284.937 49.3C284.849 48.908 284.773 48.556 284.709 48.244C284.645 47.924 284.601 47.692 284.577 47.548C284.553 47.692 284.509 47.924 284.445 48.244C284.389 48.556 284.313 48.904 284.217 49.288L283.689 51.652ZM291.82 55.12C291.26 55.12 290.768 55.016 290.344 54.808C289.928 54.592 289.604 54.292 289.372 53.908C289.148 53.516 289.036 53.056 289.036 52.528V48.712C289.036 48.176 289.148 47.716 289.372 47.332C289.604 46.948 289.928 46.652 290.344 46.444C290.768 46.228 291.26 46.12 291.82 46.12C292.388 46.12 292.876 46.228 293.284 46.444C293.7 46.652 294.024 46.948 294.256 47.332C294.488 47.716 294.604 48.176 294.604 48.712H293.092C293.092 48.296 292.98 47.98 292.756 47.764C292.54 47.548 292.228 47.44 291.82 47.44C291.412 47.44 291.096 47.548 290.872 47.764C290.648 47.98 290.536 48.292 290.536 48.7V52.528C290.536 52.936 290.648 53.252 290.872 53.476C291.096 53.692 291.412 53.8 291.82 53.8C292.228 53.8 292.54 53.692 292.756 53.476C292.98 53.252 293.092 52.936 293.092 52.528H294.604C294.604 53.048 294.488 53.504 294.256 53.896C294.024 54.288 293.7 54.592 293.284 54.808C292.876 55.016 292.388 55.12 291.82 55.12ZM296.291 55V46.24H297.791V49.756H300.143V46.24H301.643V55H300.143V51.148H297.791V55H296.291Z" fill="white"/>
<mask id="path-201-inside-20_393_14840" fill="white">
<path d="M237 51C237 54.3137 234.314 57 231 57C227.686 57 225 54.3137 225 51C225 47.6863 227.686 45 231 45C234.314 45 237 47.6863 237 51Z"/>
</mask>
<path d="M237 51C237 54.3137 234.314 57 231 57C227.686 57 225 54.3137 225 51C225 47.6863 227.686 45 231 45C234.314 45 237 47.6863 237 51Z" fill="#E6E6E6"/>
<path d="M235.5 51C235.5 53.4853 233.485 55.5 231 55.5V58.5C235.142 58.5 238.5 55.1421 238.5 51H235.5ZM231 55.5C228.515 55.5 226.5 53.4853 226.5 51H223.5C223.5 55.1421 226.858 58.5 231 58.5V55.5ZM226.5 51C226.5 48.5147 228.515 46.5 231 46.5V43.5C226.858 43.5 223.5 46.8579 223.5 51H226.5ZM231 46.5C233.485 46.5 235.5 48.5147 235.5 51H238.5C238.5 46.8579 235.142 43.5 231 43.5V46.5Z" fill="black" mask="url(#path-201-inside-20_393_14840)"/>
<mask id="path-203-inside-21_393_14840" fill="white">
<path d="M210 51C210 54.3137 207.314 57 204 57C200.686 57 198 54.3137 198 51C198 47.6863 200.686 45 204 45C207.314 45 210 47.6863 210 51Z"/>
</mask>
<path d="M210 51C210 54.3137 207.314 57 204 57C200.686 57 198 54.3137 198 51C198 47.6863 200.686 45 204 45C207.314 45 210 47.6863 210 51Z" fill="#E6E6E6"/>
<path d="M208.5 51C208.5 53.4853 206.485 55.5 204 55.5V58.5C208.142 58.5 211.5 55.1421 211.5 51H208.5ZM204 55.5C201.515 55.5 199.5 53.4853 199.5 51H196.5C196.5 55.1421 199.858 58.5 204 58.5V55.5ZM199.5 51C199.5 48.5147 201.515 46.5 204 46.5V43.5C199.858 43.5 196.5 46.8579 196.5 51H199.5ZM204 46.5C206.485 46.5 208.5 48.5147 208.5 51H211.5C211.5 46.8579 208.142 43.5 204 43.5V46.5Z" fill="black" mask="url(#path-203-inside-21_393_14840)"/>
<mask id="path-205-inside-22_393_14840" fill="white">
<path d="M210 75C210 78.3137 207.314 81 204 81C200.686 81 198 78.3137 198 75C198 71.6863 200.686 69 204 69C207.314 69 210 71.6863 210 75Z"/>
</mask>
<path d="M210 75C210 78.3137 207.314 81 204 81C200.686 81 198 78.3137 198 75C198 71.6863 200.686 69 204 69C207.314 69 210 71.6863 210 75Z" fill="#E6E6E6"/>
<path d="M208.5 75C208.5 77.4853 206.485 79.5 204 79.5V82.5C208.142 82.5 211.5 79.1421 211.5 75H208.5ZM204 79.5C201.515 79.5 199.5 77.4853 199.5 75H196.5C196.5 79.1421 199.858 82.5 204 82.5V79.5ZM199.5 75C199.5 72.5147 201.515 70.5 204 70.5V67.5C199.858 67.5 196.5 70.8579 196.5 75H199.5ZM204 70.5C206.485 70.5 208.5 72.5147 208.5 75H211.5C211.5 70.8579 208.142 67.5 204 67.5V70.5Z" fill="black" mask="url(#path-205-inside-22_393_14840)"/>
<path d="M67.012 82V73.97H69.597C70.0957 73.97 70.5283 74.069 70.895 74.267C71.2617 74.4577 71.544 74.729 71.742 75.081C71.9473 75.433 72.05 75.851 72.05 76.335C72.05 76.8117 71.9473 77.2297 71.742 77.589C71.544 77.941 71.2617 78.216 70.895 78.414C70.5283 78.6047 70.0957 78.7 69.597 78.7H68.002V82H67.012ZM68.002 77.809H69.597C70.0297 77.809 70.3743 77.677 70.631 77.413C70.895 77.1417 71.027 76.7823 71.027 76.335C71.027 75.8803 70.895 75.521 70.631 75.257C70.3743 74.993 70.0297 74.861 69.597 74.861H68.002V77.809ZM75.8957 82.088C75.4117 82.088 74.9937 81.9963 74.6417 81.813C74.2897 81.6297 74.0147 81.3657 73.8167 81.021C73.626 80.669 73.5307 80.2547 73.5307 79.778V78.172C73.5307 77.688 73.626 77.2737 73.8167 76.929C74.0147 76.5843 74.2897 76.3203 74.6417 76.137C74.9937 75.9537 75.4117 75.862 75.8957 75.862C76.3797 75.862 76.7977 75.9537 77.1497 76.137C77.5017 76.3203 77.773 76.5843 77.9637 76.929C78.1617 77.2737 78.2607 77.6843 78.2607 78.161V79.778C78.2607 80.2547 78.1617 80.669 77.9637 81.021C77.773 81.3657 77.5017 81.6297 77.1497 81.813C76.7977 81.9963 76.3797 82.088 75.8957 82.088ZM75.8957 81.208C76.3284 81.208 76.6657 81.087 76.9077 80.845C77.1497 80.603 77.2707 80.2473 77.2707 79.778V78.172C77.2707 77.7027 77.1497 77.347 76.9077 77.105C76.6657 76.863 76.3284 76.742 75.8957 76.742C75.4704 76.742 75.133 76.863 74.8837 77.105C74.6417 77.347 74.5207 77.7027 74.5207 78.172V79.778C74.5207 80.2473 74.6417 80.603 74.8837 80.845C75.133 81.087 75.4704 81.208 75.8957 81.208ZM80.4124 82V75.95H81.3804V77.105H81.6114L81.2924 77.82C81.2924 77.1673 81.4317 76.676 81.7104 76.346C81.9964 76.0087 82.4181 75.84 82.9754 75.84C83.6134 75.84 84.1194 76.0417 84.4934 76.445C84.8747 76.841 85.0654 77.38 85.0654 78.062V78.425H84.0754V78.15C84.0754 77.6733 83.9581 77.3103 83.7234 77.061C83.4961 76.8043 83.1697 76.676 82.7444 76.676C82.3264 76.676 81.9964 76.8043 81.7544 77.061C81.5197 77.3177 81.4024 77.6807 81.4024 78.15V82H80.4124ZM89.7471 82C89.2264 82 88.8194 81.8607 88.5261 81.582C88.2401 81.3033 88.0971 80.911 88.0971 80.405V76.852H86.3921V75.95H88.0971V74.245H89.0871V75.95H91.5071V76.852H89.0871V80.405C89.0871 80.867 89.3071 81.098 89.7471 81.098H91.3971V82H89.7471ZM99.5285 82L101.619 73.97H102.95L105.029 82H104.028L103.5 79.866H101.069L100.541 82H99.5285ZM101.267 79.03H103.291L102.675 76.555C102.557 76.0857 102.466 75.6933 102.4 75.378C102.334 75.0627 102.293 74.8573 102.279 74.762C102.264 74.8573 102.224 75.0627 102.158 75.378C102.092 75.6933 102 76.082 101.883 76.544L101.267 79.03Z" fill="black"/>
</g>
<defs>
<clipPath id="clip0_393_14840">
<rect width="488" height="308" fill="white" transform="translate(16 16)"/>
</clipPath>
<clipPath id="clip1_393_14840">
<rect width="488" height="308" fill="white" transform="translate(16 16)"/>
</clipPath>
</defs>
</svg>
