<svg width="486" height="269" viewBox="0 0 486 269" fill="none" xmlns="http://www.w3.org/2000/svg">
<rect width="486" height="269" fill="#F2F2F2"/>
<mask id="path-1-inside-1_348_17924" fill="white">
<path d="M43 51L228 51V71C228 90.33 212.33 106 193 106H43V51Z"/>
</mask>
<path d="M43 51L228 51V71C228 90.33 212.33 106 193 106H43V51Z" fill="#DCDCDC"/>
<path d="M43 48L228 48V54L43 54V48ZM228 106H43H228ZM43 106V51V106ZM228 51V106V51Z" fill="#95CA00" mask="url(#path-1-inside-1_348_17924)"/>
<rect width="157" height="13" transform="translate(71 54)" fill="#95CA00"/>
<path d="M75.9129 62V56.16H77.8569C78.2462 56.16 78.5849 56.2347 78.8729 56.384C79.1662 56.5333 79.3929 56.744 79.5529 57.016C79.7129 57.2827 79.7929 57.5973 79.7929 57.96C79.7929 58.3173 79.7102 58.632 79.5449 58.904C79.3849 59.176 79.1609 59.3867 78.8729 59.536C78.5849 59.6853 78.2462 59.76 77.8569 59.76H76.9129V62H75.9129ZM76.9129 58.856H77.8569C78.1342 58.856 78.3555 58.776 78.5209 58.616C78.6915 58.4507 78.7769 58.232 78.7769 57.96C78.7769 57.6827 78.6915 57.464 78.5209 57.304C78.3555 57.144 78.1342 57.064 77.8569 57.064H76.9129V58.856ZM80.8218 62L80.2218 56.16H81.0858L81.4378 60.24C81.4484 60.3307 81.4564 60.4427 81.4618 60.576C81.4724 60.704 81.4804 60.8347 81.4858 60.968C81.4964 61.1013 81.5018 61.2187 81.5018 61.32C81.5124 61.2187 81.5231 61.1013 81.5338 60.968C81.5444 60.8347 81.5551 60.704 81.5658 60.576C81.5818 60.4427 81.5951 60.3307 81.6058 60.24L82.0858 56.16H82.9258L83.3738 60.24C83.3898 60.3307 83.4031 60.4427 83.4138 60.576C83.4298 60.704 83.4458 60.8347 83.4618 60.968C83.4778 61.1013 83.4911 61.2187 83.5018 61.32C83.5071 61.2187 83.5124 61.1013 83.5178 60.968C83.5231 60.8347 83.5284 60.704 83.5338 60.576C83.5444 60.4427 83.5551 60.3307 83.5658 60.24L83.9098 56.16H84.7658L84.1337 62H83.0298L82.5978 57.904C82.5871 57.8027 82.5738 57.6853 82.5578 57.552C82.5471 57.4133 82.5364 57.2773 82.5258 57.144C82.5151 57.0053 82.5071 56.888 82.5018 56.792C82.4964 56.888 82.4858 57.0053 82.4698 57.144C82.4591 57.2773 82.4484 57.4133 82.4378 57.552C82.4271 57.6853 82.4164 57.8027 82.4058 57.904L81.9338 62H80.8218ZM85.3386 62V56.16H86.5226L87.0906 58.016C87.1493 58.2027 87.1973 58.3733 87.2346 58.528C87.272 58.6827 87.296 58.7947 87.3066 58.864C87.3173 58.7947 87.3413 58.6827 87.3786 58.528C87.416 58.3733 87.4613 58.2027 87.5146 58.016L88.0586 56.16H89.2426V62H88.3066V60.184C88.3066 59.9173 88.3146 59.6267 88.3306 59.312C88.3466 58.9973 88.3653 58.6827 88.3866 58.368C88.408 58.0533 88.432 57.7547 88.4586 57.472C88.4906 57.1893 88.5173 56.9413 88.5386 56.728L87.7546 59.488H86.8426L86.0346 56.728C86.0613 56.9307 86.088 57.1707 86.1146 57.448C86.1413 57.72 86.1653 58.0133 86.1866 58.328C86.2133 58.6373 86.2346 58.952 86.2506 59.272C86.2666 59.592 86.2746 59.896 86.2746 60.184V62H85.3386ZM96.9004 62.08C96.5004 62.08 96.1537 62.0133 95.8604 61.88C95.567 61.7467 95.3404 61.5573 95.1804 61.312C95.0257 61.0613 94.9457 60.768 94.9404 60.432H95.9404C95.9404 60.672 96.0257 60.8613 96.1964 61C96.3724 61.1333 96.6097 61.2 96.9084 61.2C97.1964 61.2 97.4204 61.1333 97.5804 61C97.7457 60.8667 97.8284 60.6827 97.8284 60.448C97.8284 60.2507 97.7697 60.08 97.6524 59.936C97.5404 59.7867 97.3777 59.6853 97.1644 59.632L96.4924 59.448C96.0337 59.3307 95.679 59.12 95.4284 58.816C95.183 58.512 95.0604 58.144 95.0604 57.712C95.0604 57.3813 95.135 57.0933 95.2844 56.848C95.4337 56.6027 95.6444 56.4133 95.9164 56.28C96.1937 56.1467 96.519 56.08 96.8924 56.08C97.4577 56.08 97.9057 56.2267 98.2364 56.52C98.567 56.808 98.735 57.1973 98.7404 57.688H97.7404C97.7404 57.4587 97.6657 57.28 97.5164 57.152C97.367 57.0187 97.1564 56.952 96.8844 56.952C96.623 56.952 96.4204 57.0133 96.2764 57.136C96.1324 57.2587 96.0604 57.432 96.0604 57.656C96.0604 57.8587 96.1137 58.032 96.2204 58.176C96.3324 58.3147 96.4924 58.4133 96.7004 58.472L97.3964 58.664C97.8604 58.7813 98.215 58.992 98.4604 59.296C98.7057 59.5947 98.8284 59.9653 98.8284 60.408C98.8284 60.7387 98.7484 61.032 98.5884 61.288C98.4284 61.5387 98.2044 61.7333 97.9164 61.872C97.6284 62.0107 97.2897 62.08 96.9004 62.08ZM99.8893 62V61.088H101.425V58.504H100.089V57.6H102.385V61.088H103.745V62H99.8893ZM101.825 56.864C101.623 56.864 101.463 56.8133 101.345 56.712C101.228 56.6053 101.169 56.464 101.169 56.288C101.169 56.112 101.228 55.9733 101.345 55.872C101.463 55.7653 101.623 55.712 101.825 55.712C102.028 55.712 102.188 55.7653 102.305 55.872C102.423 55.9733 102.481 56.112 102.481 56.288C102.481 56.464 102.423 56.6053 102.305 56.712C102.188 56.8133 102.028 56.864 101.825 56.864ZM105.294 63.44V62.608H106.598C106.822 62.608 106.99 62.552 107.102 62.44C107.214 62.3333 107.27 62.1787 107.27 61.976V61.648L107.286 60.824H107.07L107.286 60.608C107.286 60.9653 107.179 61.2453 106.966 61.448C106.758 61.6453 106.475 61.744 106.118 61.744C105.67 61.744 105.313 61.592 105.046 61.288C104.785 60.984 104.654 60.5733 104.654 60.056V59.2C104.654 58.688 104.785 58.28 105.046 57.976C105.313 57.672 105.67 57.52 106.118 57.52C106.475 57.52 106.758 57.6213 106.966 57.824C107.179 58.0213 107.286 58.2987 107.286 58.656L107.07 58.44H107.286L107.262 57.6H108.262V62C108.262 62.4427 108.115 62.792 107.822 63.048C107.529 63.3093 107.126 63.44 106.614 63.44H105.294ZM106.454 60.88C106.71 60.88 106.907 60.8053 107.046 60.656C107.19 60.5013 107.262 60.288 107.262 60.016V59.248C107.262 58.976 107.19 58.7653 107.046 58.616C106.907 58.4613 106.71 58.384 106.454 58.384C106.198 58.384 106.001 58.4587 105.862 58.608C105.723 58.7573 105.654 58.9707 105.654 59.248V60.016C105.654 60.2933 105.723 60.5067 105.862 60.656C106.001 60.8053 106.198 60.88 106.454 60.88ZM109.491 62V57.6H110.467V58.44H110.739L110.467 58.672C110.467 58.3093 110.571 58.0267 110.779 57.824C110.992 57.6213 111.283 57.52 111.651 57.52C112.083 57.52 112.427 57.664 112.683 57.952C112.944 58.24 113.075 58.6267 113.075 59.112V62H112.075V59.216C112.075 58.9493 112.006 58.744 111.867 58.6C111.728 58.456 111.534 58.384 111.283 58.384C111.038 58.384 110.843 58.4587 110.699 58.608C110.56 58.7573 110.491 58.9707 110.491 59.248V62H109.491ZM115.584 62.08C115.131 62.08 114.773 61.96 114.512 61.72C114.251 61.48 114.12 61.1573 114.12 60.752C114.12 60.32 114.264 59.9867 114.552 59.752C114.84 59.5173 115.248 59.4 115.776 59.4H116.872V59.024C116.872 58.8107 116.803 58.6453 116.664 58.528C116.525 58.4053 116.336 58.344 116.096 58.344C115.877 58.344 115.696 58.392 115.552 58.488C115.408 58.584 115.323 58.7147 115.296 58.88H114.32C114.368 58.464 114.555 58.1333 114.88 57.888C115.205 57.6427 115.621 57.52 116.128 57.52C116.667 57.52 117.091 57.656 117.4 57.928C117.715 58.1947 117.872 58.5573 117.872 59.016V62H116.904V61.232H116.744L116.904 61.016C116.904 61.3413 116.784 61.6 116.544 61.792C116.304 61.984 115.984 62.08 115.584 62.08ZM115.912 61.328C116.195 61.328 116.424 61.256 116.6 61.112C116.781 60.968 116.872 60.7813 116.872 60.552V60.016H115.792C115.589 60.016 115.427 60.0747 115.304 60.192C115.181 60.3093 115.12 60.464 115.12 60.656C115.12 60.864 115.189 61.0293 115.328 61.152C115.472 61.2693 115.667 61.328 115.912 61.328ZM121.541 62C121.253 62 120.999 61.9413 120.781 61.824C120.567 61.7067 120.399 61.5413 120.277 61.328C120.154 61.1093 120.093 60.8587 120.093 60.576V57.064H118.685V56.16H121.093V60.576C121.093 60.736 121.138 60.864 121.229 60.96C121.325 61.0507 121.453 61.096 121.613 61.096H122.941V62H121.541ZM130.943 62C130.521 62 130.191 61.8827 129.951 61.648C129.716 61.4133 129.599 61.0907 129.599 60.68V58.504H128.407V57.6H129.599V56.36H130.607V57.6H132.295V58.504H130.607V60.68C130.607 60.9573 130.743 61.096 131.015 61.096H132.215V62H130.943ZM135.259 62.072C134.886 62.072 134.561 62.0027 134.283 61.864C134.011 61.72 133.798 61.52 133.643 61.264C133.494 61.0027 133.419 60.696 133.419 60.344V59.256C133.419 58.904 133.494 58.6 133.643 58.344C133.798 58.0827 134.011 57.8827 134.283 57.744C134.561 57.6 134.886 57.528 135.259 57.528C135.638 57.528 135.963 57.6 136.235 57.744C136.507 57.8827 136.718 58.0827 136.867 58.344C137.022 58.6 137.099 58.9013 137.099 59.248V60.344C137.099 60.696 137.022 61.0027 136.867 61.264C136.718 61.52 136.507 61.72 136.235 61.864C135.963 62.0027 135.638 62.072 135.259 62.072ZM135.259 61.2C135.526 61.2 135.731 61.128 135.875 60.984C136.025 60.8347 136.099 60.6213 136.099 60.344V59.256C136.099 58.9733 136.025 58.76 135.875 58.616C135.731 58.472 135.526 58.4 135.259 58.4C134.998 58.4 134.793 58.472 134.643 58.616C134.494 58.76 134.419 58.9733 134.419 59.256V60.344C134.419 60.6213 134.494 60.8347 134.643 60.984C134.793 61.128 134.998 61.2 135.259 61.2ZM144.877 62.08C144.504 62.08 144.176 62.0107 143.893 61.872C143.616 61.728 143.4 61.528 143.245 61.272C143.09 61.0107 143.013 60.704 143.013 60.352V59.248C143.013 58.8907 143.09 58.584 143.245 58.328C143.4 58.072 143.616 57.8747 143.893 57.736C144.176 57.592 144.504 57.52 144.877 57.52C145.432 57.52 145.874 57.664 146.205 57.952C146.536 58.2347 146.709 58.6213 146.725 59.112H145.725C145.709 58.8827 145.626 58.7067 145.477 58.584C145.333 58.456 145.133 58.392 144.877 58.392C144.61 58.392 144.4 58.4667 144.245 58.616C144.09 58.76 144.013 58.968 144.013 59.24V60.352C144.013 60.624 144.09 60.8347 144.245 60.984C144.4 61.1333 144.61 61.208 144.877 61.208C145.133 61.208 145.333 61.1467 145.477 61.024C145.626 60.896 145.709 60.7173 145.725 60.488H146.725C146.709 60.9787 146.536 61.368 146.205 61.656C145.874 61.9387 145.432 62.08 144.877 62.08ZM149.65 62.072C149.277 62.072 148.951 62.0027 148.674 61.864C148.402 61.72 148.189 61.52 148.034 61.264C147.885 61.0027 147.81 60.696 147.81 60.344V59.256C147.81 58.904 147.885 58.6 148.034 58.344C148.189 58.0827 148.402 57.8827 148.674 57.744C148.951 57.6 149.277 57.528 149.65 57.528C150.029 57.528 150.354 57.6 150.626 57.744C150.898 57.8827 151.109 58.0827 151.258 58.344C151.413 58.6 151.49 58.9013 151.49 59.248V60.344C151.49 60.696 151.413 61.0027 151.258 61.264C151.109 61.52 150.898 61.72 150.626 61.864C150.354 62.0027 150.029 62.072 149.65 62.072ZM149.65 61.2C149.917 61.2 150.122 61.128 150.266 60.984C150.415 60.8347 150.49 60.6213 150.49 60.344V59.256C150.49 58.9733 150.415 58.76 150.266 58.616C150.122 58.472 149.917 58.4 149.65 58.4C149.389 58.4 149.183 58.472 149.034 58.616C148.885 58.76 148.81 58.9733 148.81 59.256V60.344C148.81 60.6213 148.885 60.8347 149.034 60.984C149.183 61.128 149.389 61.2 149.65 61.2ZM152.663 62V57.6H153.639V58.44H153.911L153.639 58.672C153.639 58.3093 153.743 58.0267 153.951 57.824C154.164 57.6213 154.455 57.52 154.823 57.52C155.255 57.52 155.599 57.664 155.855 57.952C156.116 58.24 156.247 58.6267 156.247 59.112V62H155.247V59.216C155.247 58.9493 155.178 58.744 155.039 58.6C154.9 58.456 154.706 58.384 154.455 58.384C154.21 58.384 154.015 58.4587 153.871 58.608C153.732 58.7573 153.663 58.9707 153.663 59.248V62H152.663ZM159.724 62C159.302 62 158.972 61.8827 158.732 61.648C158.497 61.4133 158.38 61.0907 158.38 60.68V58.504H157.188V57.6H158.38V56.36H159.388V57.6H161.076V58.504H159.388V60.68C159.388 60.9573 159.524 61.096 159.796 61.096H160.996V62H159.724ZM162.393 62V57.6H163.337V58.44H163.585L163.289 58.952C163.289 58.4773 163.395 58.12 163.609 57.88C163.822 57.64 164.137 57.52 164.553 57.52C165.027 57.52 165.401 57.6667 165.673 57.96C165.945 58.2533 166.081 58.6587 166.081 59.176V59.496H165.033V59.248C165.033 58.9653 164.958 58.7467 164.809 58.592C164.665 58.4373 164.465 58.36 164.209 58.36C163.947 58.36 163.745 58.4373 163.601 58.592C163.462 58.7467 163.393 58.9653 163.393 59.248V62H162.393ZM168.838 62.072C168.464 62.072 168.139 62.0027 167.862 61.864C167.59 61.72 167.376 61.52 167.222 61.264C167.072 61.0027 166.998 60.696 166.998 60.344V59.256C166.998 58.904 167.072 58.6 167.222 58.344C167.376 58.0827 167.59 57.8827 167.862 57.744C168.139 57.6 168.464 57.528 168.838 57.528C169.216 57.528 169.542 57.6 169.814 57.744C170.086 57.8827 170.296 58.0827 170.446 58.344C170.6 58.6 170.678 58.9013 170.678 59.248V60.344C170.678 60.696 170.6 61.0027 170.446 61.264C170.296 61.52 170.086 61.72 169.814 61.864C169.542 62.0027 169.216 62.072 168.838 62.072ZM168.838 61.2C169.104 61.2 169.31 61.128 169.454 60.984C169.603 60.8347 169.678 60.6213 169.678 60.344V59.256C169.678 58.9733 169.603 58.76 169.454 58.616C169.31 58.472 169.104 58.4 168.838 58.4C168.576 58.4 168.371 58.472 168.222 58.616C168.072 58.76 167.998 58.9733 167.998 59.256V60.344C167.998 60.6213 168.072 60.8347 168.222 60.984C168.371 61.128 168.576 61.2 168.838 61.2ZM174.306 62C174.018 62 173.765 61.9413 173.546 61.824C173.333 61.7067 173.165 61.5413 173.042 61.328C172.92 61.1093 172.858 60.8587 172.858 60.576V57.064H171.45V56.16H173.858V60.576C173.858 60.736 173.904 60.864 173.994 60.96C174.09 61.0507 174.218 61.096 174.378 61.096H175.706V62H174.306ZM183.708 62C183.287 62 182.956 61.8827 182.716 61.648C182.481 61.4133 182.364 61.0907 182.364 60.68V58.504H181.172V57.6H182.364V56.36H183.372V57.6H185.06V58.504H183.372V60.68C183.372 60.9573 183.508 61.096 183.78 61.096H184.98V62H183.708ZM186.241 62V56.16H187.241V57.6L187.217 58.44H187.489L187.217 58.672C187.217 58.3093 187.321 58.0267 187.529 57.824C187.742 57.6213 188.033 57.52 188.401 57.52C188.833 57.52 189.177 57.664 189.433 57.952C189.694 58.24 189.825 58.6267 189.825 59.112V62H188.825V59.216C188.825 58.9493 188.756 58.744 188.617 58.6C188.478 58.456 188.284 58.384 188.033 58.384C187.788 58.384 187.593 58.4587 187.449 58.608C187.31 58.7573 187.241 58.9707 187.241 59.248V62H186.241ZM192.83 62.08C192.457 62.08 192.131 62.008 191.854 61.864C191.577 61.72 191.361 61.52 191.206 61.264C191.057 61.0027 190.982 60.6987 190.982 60.352V59.248C190.982 58.9013 191.057 58.6 191.206 58.344C191.361 58.0827 191.577 57.88 191.854 57.736C192.131 57.592 192.457 57.52 192.83 57.52C193.198 57.52 193.518 57.592 193.79 57.736C194.067 57.88 194.281 58.0827 194.43 58.344C194.585 58.6 194.662 58.9013 194.662 59.248V60.04H191.95V60.352C191.95 60.6613 192.025 60.896 192.174 61.056C192.323 61.2107 192.545 61.288 192.838 61.288C193.062 61.288 193.243 61.2507 193.382 61.176C193.521 61.096 193.609 60.9813 193.646 60.832H194.63C194.555 61.2107 194.353 61.5147 194.022 61.744C193.697 61.968 193.299 62.08 192.83 62.08ZM193.694 59.48V59.24C193.694 58.936 193.622 58.704 193.478 58.544C193.334 58.3787 193.118 58.296 192.83 58.296C192.542 58.296 192.323 58.3787 192.174 58.544C192.025 58.7093 191.95 58.944 191.95 59.248V59.416L193.766 59.4L193.694 59.48ZM202.248 62.072C201.912 62.072 201.618 62.0187 201.368 61.912C201.117 61.8053 200.92 61.6587 200.776 61.472C200.637 61.28 200.562 61.056 200.552 60.8H201.552C201.562 60.9387 201.629 61.0507 201.752 61.136C201.88 61.2213 202.045 61.264 202.248 61.264H202.6C202.845 61.264 203.029 61.216 203.152 61.12C203.274 61.024 203.336 60.8933 203.336 60.728C203.336 60.5733 203.28 60.4533 203.168 60.368C203.061 60.2773 202.893 60.2187 202.664 60.192L202.12 60.112C201.618 60.0427 201.25 59.9093 201.016 59.712C200.781 59.5147 200.664 59.2187 200.664 58.824C200.664 58.4133 200.802 58.096 201.08 57.872C201.357 57.6427 201.765 57.528 202.304 57.528H202.608C203.098 57.528 203.49 57.6373 203.784 57.856C204.077 58.0747 204.234 58.368 204.256 58.736H203.256C203.24 58.6187 203.173 58.5227 203.056 58.448C202.944 58.3733 202.794 58.336 202.608 58.336H202.304C202.074 58.336 201.906 58.3787 201.8 58.464C201.698 58.544 201.648 58.664 201.648 58.824C201.648 58.9733 201.693 59.0853 201.784 59.16C201.874 59.2293 202.021 59.28 202.224 59.312L202.792 59.392C203.314 59.4667 203.698 59.608 203.944 59.816C204.194 60.0187 204.32 60.32 204.32 60.72C204.32 61.1467 204.173 61.48 203.88 61.72C203.592 61.9547 203.165 62.072 202.6 62.072H202.248ZM205.429 63.44V57.6H206.405V58.44H206.629L206.405 58.672C206.405 58.3147 206.511 58.0347 206.725 57.832C206.938 57.624 207.226 57.52 207.589 57.52C208.031 57.52 208.386 57.672 208.653 57.976C208.919 58.28 209.053 58.688 209.053 59.2V60.392C209.053 60.7333 208.991 61.032 208.869 61.288C208.751 61.5387 208.583 61.7333 208.365 61.872C208.146 62.0107 207.887 62.08 207.589 62.08C207.226 62.08 206.938 61.9787 206.725 61.776C206.511 61.568 206.405 61.2853 206.405 60.928L206.629 61.16H206.397L206.429 62.208V63.44H205.429ZM207.237 61.216C207.493 61.216 207.693 61.1413 207.837 60.992C207.981 60.8427 208.053 60.6293 208.053 60.352V59.248C208.053 58.9707 207.981 58.7573 207.837 58.608C207.693 58.4587 207.493 58.384 207.237 58.384C206.986 58.384 206.789 58.4613 206.645 58.616C206.501 58.7653 206.429 58.976 206.429 59.248V60.352C206.429 60.624 206.501 60.8373 206.645 60.992C206.789 61.1413 206.986 61.216 207.237 61.216ZM212.017 62.08C211.644 62.08 211.319 62.008 211.041 61.864C210.764 61.72 210.548 61.52 210.393 61.264C210.244 61.0027 210.169 60.6987 210.169 60.352V59.248C210.169 58.9013 210.244 58.6 210.393 58.344C210.548 58.0827 210.764 57.88 211.041 57.736C211.319 57.592 211.644 57.52 212.017 57.52C212.385 57.52 212.705 57.592 212.977 57.736C213.255 57.88 213.468 58.0827 213.617 58.344C213.772 58.6 213.849 58.9013 213.849 59.248V60.04H211.137V60.352C211.137 60.6613 211.212 60.896 211.361 61.056C211.511 61.2107 211.732 61.288 212.025 61.288C212.249 61.288 212.431 61.2507 212.569 61.176C212.708 61.096 212.796 60.9813 212.833 60.832H213.817C213.743 61.2107 213.54 61.5147 213.209 61.744C212.884 61.968 212.487 62.08 212.017 62.08ZM212.881 59.48V59.24C212.881 58.936 212.809 58.704 212.665 58.544C212.521 58.3787 212.305 58.296 212.017 58.296C211.729 58.296 211.511 58.3787 211.361 58.544C211.212 58.7093 211.137 58.944 211.137 59.248V59.416L212.953 59.4L212.881 59.48ZM216.814 62.08C216.441 62.08 216.116 62.008 215.838 61.864C215.561 61.72 215.345 61.52 215.19 61.264C215.041 61.0027 214.966 60.6987 214.966 60.352V59.248C214.966 58.9013 215.041 58.6 215.19 58.344C215.345 58.0827 215.561 57.88 215.838 57.736C216.116 57.592 216.441 57.52 216.814 57.52C217.182 57.52 217.502 57.592 217.774 57.736C218.052 57.88 218.265 58.0827 218.414 58.344C218.569 58.6 218.646 58.9013 218.646 59.248V60.04H215.934V60.352C215.934 60.6613 216.009 60.896 216.158 61.056C216.308 61.2107 216.529 61.288 216.822 61.288C217.046 61.288 217.228 61.2507 217.366 61.176C217.505 61.096 217.593 60.9813 217.63 60.832H218.614C218.54 61.2107 218.337 61.5147 218.006 61.744C217.681 61.968 217.284 62.08 216.814 62.08ZM217.678 59.48V59.24C217.678 58.936 217.606 58.704 217.462 58.544C217.318 58.3787 217.102 58.296 216.814 58.296C216.526 58.296 216.308 58.3787 216.158 58.544C216.009 58.7093 215.934 58.944 215.934 59.248V59.416L217.75 59.4L217.678 59.48ZM221.227 62.08C220.79 62.08 220.435 61.928 220.163 61.624C219.896 61.32 219.763 60.912 219.763 60.4V59.208C219.763 58.6907 219.896 58.28 220.163 57.976C220.43 57.672 220.784 57.52 221.227 57.52C221.59 57.52 221.878 57.624 222.091 57.832C222.304 58.0347 222.411 58.3147 222.411 58.672L222.187 58.44H222.419L222.387 57.392V56.16H223.387V62H222.411V61.16H222.187L222.411 60.928C222.411 61.2853 222.304 61.568 222.091 61.776C221.878 61.9787 221.59 62.08 221.227 62.08ZM221.579 61.216C221.835 61.216 222.032 61.1413 222.171 60.992C222.315 60.8373 222.387 60.624 222.387 60.352V59.248C222.387 58.976 222.315 58.7653 222.171 58.616C222.032 58.4613 221.835 58.384 221.579 58.384C221.323 58.384 221.123 58.4587 220.979 58.608C220.835 58.7573 220.763 58.9707 220.763 59.248V60.352C220.763 60.6293 220.835 60.8427 220.979 60.992C221.123 61.1413 221.323 61.216 221.579 61.216Z" fill="#2E7202"/>
<path d="M48.2404 85V76.24H50.9284C51.7764 76.24 52.4484 76.444 52.9444 76.852C53.4404 77.252 53.6884 77.8 53.6884 78.496C53.6884 78.888 53.6004 79.228 53.4244 79.516C53.2484 79.804 53.0084 80.028 52.7044 80.188C52.4084 80.348 52.0644 80.428 51.6724 80.428V80.38C52.0964 80.372 52.4724 80.452 52.8004 80.62C53.1364 80.78 53.4004 81.02 53.5924 81.34C53.7924 81.66 53.8924 82.048 53.8924 82.504C53.8924 83.008 53.7764 83.448 53.5444 83.824C53.3124 84.2 52.9844 84.492 52.5604 84.7C52.1444 84.9 51.6444 85 51.0604 85H48.2404ZM49.7044 83.752H50.9644C51.4044 83.752 51.7484 83.636 51.9964 83.404C52.2524 83.164 52.3804 82.84 52.3804 82.432C52.3804 82.024 52.2524 81.696 51.9964 81.448C51.7484 81.192 51.4044 81.064 50.9644 81.064H49.7044V83.752ZM49.7044 79.852H50.9044C51.3044 79.852 51.6164 79.748 51.8404 79.54C52.0724 79.324 52.1884 79.032 52.1884 78.664C52.1884 78.296 52.0724 78.008 51.8404 77.8C51.6164 77.592 51.3044 77.488 50.9044 77.488H49.7044V79.852ZM59.1197 85C58.6877 85 58.3077 84.912 57.9797 84.736C57.6597 84.56 57.4077 84.312 57.2237 83.992C57.0397 83.664 56.9477 83.288 56.9477 82.864V77.596H54.8357V76.24H58.4477V82.864C58.4477 83.104 58.5157 83.296 58.6517 83.44C58.7957 83.576 58.9877 83.644 59.2277 83.644H61.2197V85H59.1197ZM64.575 85.12C63.895 85.12 63.359 84.94 62.967 84.58C62.575 84.22 62.379 83.736 62.379 83.128C62.379 82.48 62.595 81.98 63.027 81.628C63.459 81.276 64.071 81.1 64.863 81.1H66.507V80.536C66.507 80.216 66.403 79.968 66.195 79.792C65.987 79.608 65.703 79.516 65.343 79.516C65.015 79.516 64.743 79.588 64.527 79.732C64.311 79.876 64.183 80.072 64.143 80.32H62.679C62.751 79.696 63.031 79.2 63.519 78.832C64.007 78.464 64.631 78.28 65.391 78.28C66.199 78.28 66.835 78.484 67.299 78.892C67.771 79.292 68.007 79.836 68.007 80.524V85H66.555V83.848H66.315L66.555 83.524C66.555 84.012 66.375 84.4 66.015 84.688C65.655 84.976 65.175 85.12 64.575 85.12ZM65.067 83.992C65.491 83.992 65.835 83.884 66.099 83.668C66.371 83.452 66.507 83.172 66.507 82.828V82.024H64.887C64.583 82.024 64.339 82.112 64.155 82.288C63.971 82.464 63.879 82.696 63.879 82.984C63.879 83.296 63.983 83.544 64.191 83.728C64.407 83.904 64.699 83.992 65.067 83.992ZM71.9383 85.12C71.2823 85.12 70.7503 84.892 70.3423 84.436C69.9423 83.98 69.7423 83.368 69.7423 82.6V80.812C69.7423 80.036 69.9423 79.42 70.3423 78.964C70.7423 78.508 71.2743 78.28 71.9383 78.28C72.4823 78.28 72.9143 78.436 73.2343 78.748C73.5543 79.052 73.7143 79.472 73.7143 80.008L73.3783 79.66H73.7263L73.6783 78.088V76.24H75.1783V85H73.7143V83.74H73.3783L73.7143 83.392C73.7143 83.928 73.5543 84.352 73.2343 84.664C72.9143 84.968 72.4823 85.12 71.9383 85.12ZM72.4663 83.824C72.8503 83.824 73.1463 83.712 73.3543 83.488C73.5703 83.256 73.6783 82.936 73.6783 82.528V80.872C73.6783 80.464 73.5703 80.148 73.3543 79.924C73.1463 79.692 72.8503 79.576 72.4663 79.576C72.0823 79.576 71.7823 79.688 71.5663 79.912C71.3503 80.136 71.2423 80.456 71.2423 80.872V82.528C71.2423 82.944 71.3503 83.264 71.5663 83.488C71.7823 83.712 72.0823 83.824 72.4663 83.824ZM79.7097 85.12C79.1497 85.12 78.6617 85.012 78.2457 84.796C77.8297 84.58 77.5057 84.28 77.2737 83.896C77.0497 83.504 76.9377 83.048 76.9377 82.528V80.872C76.9377 80.352 77.0497 79.9 77.2737 79.516C77.5057 79.124 77.8297 78.82 78.2457 78.604C78.6617 78.388 79.1497 78.28 79.7097 78.28C80.2617 78.28 80.7417 78.388 81.1497 78.604C81.5657 78.82 81.8857 79.124 82.1097 79.516C82.3417 79.9 82.4577 80.352 82.4577 80.872V82.06H78.3897V82.528C78.3897 82.992 78.5017 83.344 78.7257 83.584C78.9497 83.816 79.2817 83.932 79.7217 83.932C80.0577 83.932 80.3297 83.876 80.5377 83.764C80.7457 83.644 80.8777 83.472 80.9337 83.248H82.4097C82.2977 83.816 81.9937 84.272 81.4977 84.616C81.0097 84.952 80.4137 85.12 79.7097 85.12ZM81.0057 81.22V80.86C81.0057 80.404 80.8977 80.056 80.6817 79.816C80.4657 79.568 80.1417 79.444 79.7097 79.444C79.2777 79.444 78.9497 79.568 78.7257 79.816C78.5017 80.064 78.3897 80.416 78.3897 80.872V81.124L81.1137 81.1L81.0057 81.22ZM90.9083 85L93.1163 76.24H95.0483L97.2683 85H95.7323L95.2523 82.876H92.9243L92.4443 85H90.9083ZM93.2003 81.652H94.9763L94.4483 79.3C94.3603 78.908 94.2843 78.556 94.2203 78.244C94.1563 77.924 94.1123 77.692 94.0883 77.548C94.0643 77.692 94.0203 77.924 93.9563 78.244C93.9003 78.556 93.8243 78.904 93.7283 79.288L93.2003 81.652Z" fill="#010100"/>
<path opacity="0.5" d="M49.392 98.08C48.8533 98.08 48.4213 97.9467 48.096 97.68C47.7707 97.408 47.592 97.04 47.56 96.576H48.56C48.5813 96.7787 48.6613 96.936 48.8 97.048C48.944 97.1547 49.1413 97.208 49.392 97.208C49.6693 97.208 49.88 97.136 50.024 96.992C50.168 96.8427 50.24 96.6373 50.24 96.376V95.808C50.24 95.5413 50.168 95.3387 50.024 95.2C49.88 95.056 49.6693 94.984 49.392 94.984C49.2213 94.984 49.0747 95.0187 48.952 95.088C48.8293 95.1573 48.736 95.2533 48.672 95.376H47.696L47.736 92.16H51.024V93.064H48.68L48.664 94.76H48.896L48.656 94.96C48.656 94.7147 48.752 94.5227 48.944 94.384C49.1413 94.24 49.4053 94.168 49.736 94.168C50.2107 94.1627 50.5787 94.3067 50.84 94.6C51.1067 94.888 51.24 95.2907 51.24 95.808V96.376C51.24 96.904 51.0747 97.32 50.744 97.624C50.4187 97.928 49.968 98.08 49.392 98.08ZM53.5489 98L52.0769 92.16H53.1169L53.9969 95.968C54.0449 96.1547 54.0902 96.3547 54.1329 96.568C54.1755 96.7813 54.2075 96.9547 54.2289 97.088C54.2502 96.9547 54.2795 96.7813 54.3169 96.568C54.3542 96.3547 54.3942 96.152 54.4369 95.96L55.3089 92.16H56.3169L54.8449 98H53.5489ZM61.9986 98V97.088H63.5346V94.504H62.1986V93.6H64.4946V97.088H65.8546V98H61.9986ZM63.9346 92.864C63.732 92.864 63.572 92.8133 63.4546 92.712C63.3373 92.6053 63.2786 92.464 63.2786 92.288C63.2786 92.112 63.3373 91.9733 63.4546 91.872C63.572 91.7653 63.732 91.712 63.9346 91.712C64.1373 91.712 64.2973 91.7653 64.4146 91.872C64.532 91.9733 64.5906 92.112 64.5906 92.288C64.5906 92.464 64.532 92.6053 64.4146 92.712C64.2973 92.8133 64.1373 92.864 63.9346 92.864ZM66.8035 98V93.6H67.7795V94.44H68.0515L67.7795 94.672C67.7795 94.3093 67.8835 94.0267 68.0915 93.824C68.3048 93.6213 68.5955 93.52 68.9635 93.52C69.3955 93.52 69.7395 93.664 69.9955 93.952C70.2568 94.24 70.3875 94.6267 70.3875 95.112V98H69.3875V95.216C69.3875 94.9493 69.3182 94.744 69.1795 94.6C69.0408 94.456 68.8462 94.384 68.5955 94.384C68.3502 94.384 68.1555 94.4587 68.0115 94.608C67.8728 94.7573 67.8035 94.9707 67.8035 95.248V98H66.8035ZM71.6004 99.44V93.6H72.5764V94.44H72.8004L72.5764 94.672C72.5764 94.3147 72.683 94.0347 72.8964 93.832C73.1097 93.624 73.3977 93.52 73.7604 93.52C74.203 93.52 74.5577 93.672 74.8244 93.976C75.091 94.28 75.2244 94.688 75.2244 95.2V96.392C75.2244 96.7333 75.163 97.032 75.0404 97.288C74.923 97.5387 74.755 97.7333 74.5364 97.872C74.3177 98.0107 74.059 98.08 73.7604 98.08C73.3977 98.08 73.1097 97.9787 72.8964 97.776C72.683 97.568 72.5764 97.2853 72.5764 96.928L72.8004 97.16H72.5684L72.6004 98.208V99.44H71.6004ZM73.4084 97.216C73.6644 97.216 73.8644 97.1413 74.0084 96.992C74.1524 96.8427 74.2244 96.6293 74.2244 96.352V95.248C74.2244 94.9707 74.1524 94.7573 74.0084 94.608C73.8644 94.4587 73.6644 94.384 73.4084 94.384C73.1577 94.384 72.9604 94.4613 72.8164 94.616C72.6724 94.7653 72.6004 94.976 72.6004 95.248V96.352C72.6004 96.624 72.6724 96.8373 72.8164 96.992C72.9604 97.1413 73.1577 97.216 73.4084 97.216ZM78.1813 98.08C77.6213 98.08 77.1813 97.9253 76.8613 97.616C76.5413 97.3013 76.3813 96.8747 76.3813 96.336V93.6H77.3813V96.328C77.3813 96.6107 77.4506 96.8293 77.5893 96.984C77.7279 97.1333 77.9253 97.208 78.1813 97.208C78.4319 97.208 78.6266 97.1333 78.7653 96.984C78.9093 96.8293 78.9813 96.6107 78.9813 96.328V93.6H79.9813V96.336C79.9813 96.8747 79.8186 97.3013 79.4933 97.616C79.1679 97.9253 78.7306 98.08 78.1813 98.08ZM83.4581 98C83.0368 98 82.7061 97.8827 82.4661 97.648C82.2315 97.4133 82.1141 97.0907 82.1141 96.68V94.504H80.9221V93.6H82.1141V92.36H83.1221V93.6H84.8101V94.504H83.1221V96.68C83.1221 96.9573 83.2581 97.096 83.5301 97.096H84.7301V98H83.4581Z" fill="black"/>
<path d="M147 106C147 101.582 150.582 98 155 98H156C160.418 98 164 101.582 164 106H147Z" fill="#F2F2F2"/>
<mask id="path-7-inside-2_348_17924" fill="white">
<path d="M43 176H228V196C228 215.33 212.33 231 193 231H43V176Z"/>
</mask>
<path d="M43 176H228V196C228 215.33 212.33 231 193 231H43V176Z" fill="#DCDCDC"/>
<path d="M43 173H228V179H43V173ZM228 231H43H228ZM43 231V176V231ZM228 176V231V176Z" fill="#95CA00" mask="url(#path-7-inside-2_348_17924)"/>
<rect width="85" height="13" transform="translate(143 179)" fill="#95CA00"/>
<path d="M147.858 187V181.16H149.706C150.095 181.16 150.431 181.232 150.714 181.376C151.002 181.52 151.226 181.723 151.386 181.984C151.546 182.24 151.626 182.544 151.626 182.896C151.626 183.28 151.527 183.619 151.33 183.912C151.138 184.205 150.877 184.413 150.546 184.536L151.706 187H150.586L149.57 184.68H148.858V187H147.858ZM148.858 183.8H149.706C149.989 183.8 150.21 183.723 150.37 183.568C150.53 183.413 150.61 183.2 150.61 182.928C150.61 182.651 150.53 182.435 150.37 182.28C150.21 182.12 149.989 182.04 149.706 182.04H148.858V183.8ZM152.663 187V181.16H154.607C154.996 181.16 155.335 181.235 155.623 181.384C155.916 181.533 156.143 181.744 156.303 182.016C156.463 182.283 156.543 182.597 156.543 182.96C156.543 183.317 156.46 183.632 156.295 183.904C156.135 184.176 155.911 184.387 155.623 184.536C155.335 184.685 154.996 184.76 154.607 184.76H153.663V187H152.663ZM153.663 183.856H154.607C154.884 183.856 155.106 183.776 155.271 183.616C155.442 183.451 155.527 183.232 155.527 182.96C155.527 182.683 155.442 182.464 155.271 182.304C155.106 182.144 154.884 182.064 154.607 182.064H153.663V183.856ZM157.292 187V181.16H158.476L159.044 183.016C159.102 183.203 159.15 183.373 159.188 183.528C159.225 183.683 159.249 183.795 159.26 183.864C159.27 183.795 159.294 183.683 159.332 183.528C159.369 183.373 159.414 183.203 159.468 183.016L160.012 181.16H161.196V187H160.26V185.184C160.26 184.917 160.268 184.627 160.284 184.312C160.3 183.997 160.318 183.683 160.34 183.368C160.361 183.053 160.385 182.755 160.412 182.472C160.444 182.189 160.47 181.941 160.492 181.728L159.708 184.488H158.796L157.988 181.728C158.014 181.931 158.041 182.171 158.068 182.448C158.094 182.72 158.118 183.013 158.14 183.328C158.166 183.637 158.188 183.952 158.204 184.272C158.22 184.592 158.228 184.896 158.228 185.184V187H157.292ZM168.854 187.08C168.454 187.08 168.107 187.013 167.814 186.88C167.52 186.747 167.294 186.557 167.134 186.312C166.979 186.061 166.899 185.768 166.894 185.432H167.894C167.894 185.672 167.979 185.861 168.15 186C168.326 186.133 168.563 186.2 168.862 186.2C169.15 186.2 169.374 186.133 169.534 186C169.699 185.867 169.782 185.683 169.782 185.448C169.782 185.251 169.723 185.08 169.606 184.936C169.494 184.787 169.331 184.685 169.118 184.632L168.446 184.448C167.987 184.331 167.632 184.12 167.382 183.816C167.136 183.512 167.014 183.144 167.014 182.712C167.014 182.381 167.088 182.093 167.238 181.848C167.387 181.603 167.598 181.413 167.87 181.28C168.147 181.147 168.472 181.08 168.846 181.08C169.411 181.08 169.859 181.227 170.19 181.52C170.52 181.808 170.688 182.197 170.694 182.688H169.694C169.694 182.459 169.619 182.28 169.47 182.152C169.32 182.019 169.11 181.952 168.838 181.952C168.576 181.952 168.374 182.013 168.23 182.136C168.086 182.259 168.014 182.432 168.014 182.656C168.014 182.859 168.067 183.032 168.174 183.176C168.286 183.315 168.446 183.413 168.654 183.472L169.35 183.664C169.814 183.781 170.168 183.992 170.414 184.296C170.659 184.595 170.782 184.965 170.782 185.408C170.782 185.739 170.702 186.032 170.542 186.288C170.382 186.539 170.158 186.733 169.87 186.872C169.582 187.011 169.243 187.08 168.854 187.08ZM171.85 188.44V182.6H172.826V183.44H173.05L172.826 183.672C172.826 183.315 172.933 183.035 173.146 182.832C173.36 182.624 173.648 182.52 174.01 182.52C174.453 182.52 174.808 182.672 175.074 182.976C175.341 183.28 175.474 183.688 175.474 184.2V185.392C175.474 185.733 175.413 186.032 175.29 186.288C175.173 186.539 175.005 186.733 174.786 186.872C174.568 187.011 174.309 187.08 174.01 187.08C173.648 187.08 173.36 186.979 173.146 186.776C172.933 186.568 172.826 186.285 172.826 185.928L173.05 186.16H172.818L172.85 187.208V188.44H171.85ZM173.658 186.216C173.914 186.216 174.114 186.141 174.258 185.992C174.402 185.843 174.474 185.629 174.474 185.352V184.248C174.474 183.971 174.402 183.757 174.258 183.608C174.114 183.459 173.914 183.384 173.658 183.384C173.408 183.384 173.21 183.461 173.066 183.616C172.922 183.765 172.85 183.976 172.85 184.248V185.352C172.85 185.624 172.922 185.837 173.066 185.992C173.21 186.141 173.408 186.216 173.658 186.216ZM178.439 187.08C178.066 187.08 177.741 187.008 177.463 186.864C177.186 186.72 176.97 186.52 176.815 186.264C176.666 186.003 176.591 185.699 176.591 185.352V184.248C176.591 183.901 176.666 183.6 176.815 183.344C176.97 183.083 177.186 182.88 177.463 182.736C177.741 182.592 178.066 182.52 178.439 182.52C178.807 182.52 179.127 182.592 179.399 182.736C179.677 182.88 179.89 183.083 180.039 183.344C180.194 183.6 180.271 183.901 180.271 184.248V185.04H177.559V185.352C177.559 185.661 177.634 185.896 177.783 186.056C177.933 186.211 178.154 186.288 178.447 186.288C178.671 186.288 178.853 186.251 178.991 186.176C179.13 186.096 179.218 185.981 179.255 185.832H180.239C180.165 186.211 179.962 186.515 179.631 186.744C179.306 186.968 178.909 187.08 178.439 187.08ZM179.303 184.48V184.24C179.303 183.936 179.231 183.704 179.087 183.544C178.943 183.379 178.727 183.296 178.439 183.296C178.151 183.296 177.933 183.379 177.783 183.544C177.634 183.709 177.559 183.944 177.559 184.248V184.416L179.375 184.4L179.303 184.48ZM183.236 187.08C182.863 187.08 182.537 187.008 182.26 186.864C181.983 186.72 181.767 186.52 181.612 186.264C181.463 186.003 181.388 185.699 181.388 185.352V184.248C181.388 183.901 181.463 183.6 181.612 183.344C181.767 183.083 181.983 182.88 182.26 182.736C182.537 182.592 182.863 182.52 183.236 182.52C183.604 182.52 183.924 182.592 184.196 182.736C184.473 182.88 184.687 183.083 184.836 183.344C184.991 183.6 185.068 183.901 185.068 184.248V185.04H182.356V185.352C182.356 185.661 182.431 185.896 182.58 186.056C182.729 186.211 182.951 186.288 183.244 186.288C183.468 186.288 183.649 186.251 183.788 186.176C183.927 186.096 184.015 185.981 184.052 185.832H185.036C184.961 186.211 184.759 186.515 184.428 186.744C184.103 186.968 183.705 187.08 183.236 187.08ZM184.1 184.48V184.24C184.1 183.936 184.028 183.704 183.884 183.544C183.74 183.379 183.524 183.296 183.236 183.296C182.948 183.296 182.729 183.379 182.58 183.544C182.431 183.709 182.356 183.944 182.356 184.248V184.416L184.172 184.4L184.1 184.48ZM187.649 187.08C187.212 187.08 186.857 186.928 186.585 186.624C186.318 186.32 186.185 185.912 186.185 185.4V184.208C186.185 183.691 186.318 183.28 186.585 182.976C186.852 182.672 187.206 182.52 187.649 182.52C188.012 182.52 188.3 182.624 188.513 182.832C188.726 183.035 188.833 183.315 188.833 183.672L188.609 183.44H188.841L188.809 182.392V181.16H189.809V187H188.833V186.16H188.609L188.833 185.928C188.833 186.285 188.726 186.568 188.513 186.776C188.3 186.979 188.012 187.08 187.649 187.08ZM188.001 186.216C188.257 186.216 188.454 186.141 188.593 185.992C188.737 185.837 188.809 185.624 188.809 185.352V184.248C188.809 183.976 188.737 183.765 188.593 183.616C188.454 183.461 188.257 183.384 188.001 183.384C187.745 183.384 187.545 183.459 187.401 183.608C187.257 183.757 187.185 183.971 187.185 184.248V185.352C187.185 185.629 187.257 185.843 187.401 185.992C187.545 186.141 187.745 186.216 188.001 186.216ZM197.635 187.08C197.235 187.08 196.888 187.013 196.595 186.88C196.301 186.747 196.075 186.557 195.915 186.312C195.76 186.061 195.68 185.768 195.675 185.432H196.675C196.675 185.672 196.76 185.861 196.931 186C197.107 186.133 197.344 186.2 197.643 186.2C197.931 186.2 198.155 186.133 198.315 186C198.48 185.867 198.563 185.683 198.563 185.448C198.563 185.251 198.504 185.08 198.387 184.936C198.275 184.787 198.112 184.685 197.899 184.632L197.227 184.448C196.768 184.331 196.413 184.12 196.163 183.816C195.917 183.512 195.795 183.144 195.795 182.712C195.795 182.381 195.869 182.093 196.019 181.848C196.168 181.603 196.379 181.413 196.651 181.28C196.928 181.147 197.253 181.08 197.627 181.08C198.192 181.08 198.64 181.227 198.971 181.52C199.301 181.808 199.469 182.197 199.475 182.688H198.475C198.475 182.459 198.4 182.28 198.251 182.152C198.101 182.019 197.891 181.952 197.619 181.952C197.357 181.952 197.155 182.013 197.011 182.136C196.867 182.259 196.795 182.432 196.795 182.656C196.795 182.859 196.848 183.032 196.955 183.176C197.067 183.315 197.227 183.413 197.435 183.472L198.131 183.664C198.595 183.781 198.949 183.992 199.195 184.296C199.44 184.595 199.563 184.965 199.563 185.408C199.563 185.739 199.483 186.032 199.323 186.288C199.163 186.539 198.939 186.733 198.651 186.872C198.363 187.011 198.024 187.08 197.635 187.08ZM200.624 187V186.088H202.16V183.504H200.824V182.6H203.12V186.088H204.48V187H200.624ZM202.56 181.864C202.357 181.864 202.197 181.813 202.08 181.712C201.962 181.605 201.904 181.464 201.904 181.288C201.904 181.112 201.962 180.973 202.08 180.872C202.197 180.765 202.357 180.712 202.56 180.712C202.762 180.712 202.922 180.765 203.04 180.872C203.157 180.973 203.216 181.112 203.216 181.288C203.216 181.464 203.157 181.605 203.04 181.712C202.922 181.813 202.762 181.864 202.56 181.864ZM206.029 188.44V187.608H207.333C207.557 187.608 207.725 187.552 207.837 187.44C207.949 187.333 208.005 187.179 208.005 186.976V186.648L208.021 185.824H207.805L208.021 185.608C208.021 185.965 207.914 186.245 207.701 186.448C207.493 186.645 207.21 186.744 206.853 186.744C206.405 186.744 206.047 186.592 205.781 186.288C205.519 185.984 205.389 185.573 205.389 185.056V184.2C205.389 183.688 205.519 183.28 205.781 182.976C206.047 182.672 206.405 182.52 206.853 182.52C207.21 182.52 207.493 182.621 207.701 182.824C207.914 183.021 208.021 183.299 208.021 183.656L207.805 183.44H208.021L207.997 182.6H208.997V187C208.997 187.443 208.85 187.792 208.557 188.048C208.263 188.309 207.861 188.44 207.349 188.44H206.029ZM207.189 185.88C207.445 185.88 207.642 185.805 207.781 185.656C207.925 185.501 207.997 185.288 207.997 185.016V184.248C207.997 183.976 207.925 183.765 207.781 183.616C207.642 183.461 207.445 183.384 207.189 183.384C206.933 183.384 206.735 183.459 206.597 183.608C206.458 183.757 206.389 183.971 206.389 184.248V185.016C206.389 185.293 206.458 185.507 206.597 185.656C206.735 185.805 206.933 185.88 207.189 185.88ZM210.225 187V182.6H211.201V183.44H211.473L211.201 183.672C211.201 183.309 211.305 183.027 211.513 182.824C211.727 182.621 212.017 182.52 212.385 182.52C212.817 182.52 213.161 182.664 213.417 182.952C213.679 183.24 213.809 183.627 213.809 184.112V187H212.809V184.216C212.809 183.949 212.74 183.744 212.601 183.6C212.463 183.456 212.268 183.384 212.017 183.384C211.772 183.384 211.577 183.459 211.433 183.608C211.295 183.757 211.225 183.971 211.225 184.248V187H210.225ZM216.318 187.08C215.865 187.08 215.508 186.96 215.246 186.72C214.985 186.48 214.854 186.157 214.854 185.752C214.854 185.32 214.998 184.987 215.286 184.752C215.574 184.517 215.982 184.4 216.51 184.4H217.606V184.024C217.606 183.811 217.537 183.645 217.398 183.528C217.26 183.405 217.07 183.344 216.83 183.344C216.612 183.344 216.43 183.392 216.286 183.488C216.142 183.584 216.057 183.715 216.03 183.88H215.054C215.102 183.464 215.289 183.133 215.614 182.888C215.94 182.643 216.356 182.52 216.862 182.52C217.401 182.52 217.825 182.656 218.134 182.928C218.449 183.195 218.606 183.557 218.606 184.016V187H217.638V186.232H217.478L217.638 186.016C217.638 186.341 217.518 186.6 217.278 186.792C217.038 186.984 216.718 187.08 216.318 187.08ZM216.646 186.328C216.929 186.328 217.158 186.256 217.334 186.112C217.516 185.968 217.606 185.781 217.606 185.552V185.016H216.526C216.324 185.016 216.161 185.075 216.038 185.192C215.916 185.309 215.854 185.464 215.854 185.656C215.854 185.864 215.924 186.029 216.062 186.152C216.206 186.269 216.401 186.328 216.646 186.328ZM222.275 187C221.987 187 221.734 186.941 221.515 186.824C221.302 186.707 221.134 186.541 221.011 186.328C220.888 186.109 220.827 185.859 220.827 185.576V182.064H219.419V181.16H221.827V185.576C221.827 185.736 221.872 185.864 221.963 185.96C222.059 186.051 222.187 186.096 222.347 186.096H223.675V187H222.275Z" fill="#2E7202"/>
<path d="M48.2404 210V201.24H50.9284C51.7764 201.24 52.4484 201.444 52.9444 201.852C53.4404 202.252 53.6884 202.8 53.6884 203.496C53.6884 203.888 53.6004 204.228 53.4244 204.516C53.2484 204.804 53.0084 205.028 52.7044 205.188C52.4084 205.348 52.0644 205.428 51.6724 205.428V205.38C52.0964 205.372 52.4724 205.452 52.8004 205.62C53.1364 205.78 53.4004 206.02 53.5924 206.34C53.7924 206.66 53.8924 207.048 53.8924 207.504C53.8924 208.008 53.7764 208.448 53.5444 208.824C53.3124 209.2 52.9844 209.492 52.5604 209.7C52.1444 209.9 51.6444 210 51.0604 210H48.2404ZM49.7044 208.752H50.9644C51.4044 208.752 51.7484 208.636 51.9964 208.404C52.2524 208.164 52.3804 207.84 52.3804 207.432C52.3804 207.024 52.2524 206.696 51.9964 206.448C51.7484 206.192 51.4044 206.064 50.9644 206.064H49.7044V208.752ZM49.7044 204.852H50.9044C51.3044 204.852 51.6164 204.748 51.8404 204.54C52.0724 204.324 52.1884 204.032 52.1884 203.664C52.1884 203.296 52.0724 203.008 51.8404 202.8C51.6164 202.592 51.3044 202.488 50.9044 202.488H49.7044V204.852ZM59.1197 210C58.6877 210 58.3077 209.912 57.9797 209.736C57.6597 209.56 57.4077 209.312 57.2237 208.992C57.0397 208.664 56.9477 208.288 56.9477 207.864V202.596H54.8357V201.24H58.4477V207.864C58.4477 208.104 58.5157 208.296 58.6517 208.44C58.7957 208.576 58.9877 208.644 59.2277 208.644H61.2197V210H59.1197ZM64.575 210.12C63.895 210.12 63.359 209.94 62.967 209.58C62.575 209.22 62.379 208.736 62.379 208.128C62.379 207.48 62.595 206.98 63.027 206.628C63.459 206.276 64.071 206.1 64.863 206.1H66.507V205.536C66.507 205.216 66.403 204.968 66.195 204.792C65.987 204.608 65.703 204.516 65.343 204.516C65.015 204.516 64.743 204.588 64.527 204.732C64.311 204.876 64.183 205.072 64.143 205.32H62.679C62.751 204.696 63.031 204.2 63.519 203.832C64.007 203.464 64.631 203.28 65.391 203.28C66.199 203.28 66.835 203.484 67.299 203.892C67.771 204.292 68.007 204.836 68.007 205.524V210H66.555V208.848H66.315L66.555 208.524C66.555 209.012 66.375 209.4 66.015 209.688C65.655 209.976 65.175 210.12 64.575 210.12ZM65.067 208.992C65.491 208.992 65.835 208.884 66.099 208.668C66.371 208.452 66.507 208.172 66.507 207.828V207.024H64.887C64.583 207.024 64.339 207.112 64.155 207.288C63.971 207.464 63.879 207.696 63.879 207.984C63.879 208.296 63.983 208.544 64.191 208.728C64.407 208.904 64.699 208.992 65.067 208.992ZM71.9383 210.12C71.2823 210.12 70.7503 209.892 70.3423 209.436C69.9423 208.98 69.7423 208.368 69.7423 207.6V205.812C69.7423 205.036 69.9423 204.42 70.3423 203.964C70.7423 203.508 71.2743 203.28 71.9383 203.28C72.4823 203.28 72.9143 203.436 73.2343 203.748C73.5543 204.052 73.7143 204.472 73.7143 205.008L73.3783 204.66H73.7263L73.6783 203.088V201.24H75.1783V210H73.7143V208.74H73.3783L73.7143 208.392C73.7143 208.928 73.5543 209.352 73.2343 209.664C72.9143 209.968 72.4823 210.12 71.9383 210.12ZM72.4663 208.824C72.8503 208.824 73.1463 208.712 73.3543 208.488C73.5703 208.256 73.6783 207.936 73.6783 207.528V205.872C73.6783 205.464 73.5703 205.148 73.3543 204.924C73.1463 204.692 72.8503 204.576 72.4663 204.576C72.0823 204.576 71.7823 204.688 71.5663 204.912C71.3503 205.136 71.2423 205.456 71.2423 205.872V207.528C71.2423 207.944 71.3503 208.264 71.5663 208.488C71.7823 208.712 72.0823 208.824 72.4663 208.824ZM79.7097 210.12C79.1497 210.12 78.6617 210.012 78.2457 209.796C77.8297 209.58 77.5057 209.28 77.2737 208.896C77.0497 208.504 76.9377 208.048 76.9377 207.528V205.872C76.9377 205.352 77.0497 204.9 77.2737 204.516C77.5057 204.124 77.8297 203.82 78.2457 203.604C78.6617 203.388 79.1497 203.28 79.7097 203.28C80.2617 203.28 80.7417 203.388 81.1497 203.604C81.5657 203.82 81.8857 204.124 82.1097 204.516C82.3417 204.9 82.4577 205.352 82.4577 205.872V207.06H78.3897V207.528C78.3897 207.992 78.5017 208.344 78.7257 208.584C78.9497 208.816 79.2817 208.932 79.7217 208.932C80.0577 208.932 80.3297 208.876 80.5377 208.764C80.7457 208.644 80.8777 208.472 80.9337 208.248H82.4097C82.2977 208.816 81.9937 209.272 81.4977 209.616C81.0097 209.952 80.4137 210.12 79.7097 210.12ZM81.0057 206.22V205.86C81.0057 205.404 80.8977 205.056 80.6817 204.816C80.4657 204.568 80.1417 204.444 79.7097 204.444C79.2777 204.444 78.9497 204.568 78.7257 204.816C78.5017 205.064 78.3897 205.416 78.3897 205.872V206.124L81.1137 206.1L81.0057 206.22ZM91.4123 210V201.24H94.1003C94.9483 201.24 95.6203 201.444 96.1163 201.852C96.6123 202.252 96.8603 202.8 96.8603 203.496C96.8603 203.888 96.7723 204.228 96.5963 204.516C96.4203 204.804 96.1803 205.028 95.8763 205.188C95.5803 205.348 95.2363 205.428 94.8443 205.428V205.38C95.2683 205.372 95.6443 205.452 95.9723 205.62C96.3083 205.78 96.5723 206.02 96.7643 206.34C96.9643 206.66 97.0643 207.048 97.0643 207.504C97.0643 208.008 96.9483 208.448 96.7163 208.824C96.4843 209.2 96.1563 209.492 95.7323 209.7C95.3163 209.9 94.8163 210 94.2323 210H91.4123ZM92.8763 208.752H94.1363C94.5763 208.752 94.9203 208.636 95.1683 208.404C95.4243 208.164 95.5523 207.84 95.5523 207.432C95.5523 207.024 95.4243 206.696 95.1683 206.448C94.9203 206.192 94.5763 206.064 94.1363 206.064H92.8763V208.752ZM92.8763 204.852H94.0763C94.4763 204.852 94.7883 204.748 95.0123 204.54C95.2443 204.324 95.3603 204.032 95.3603 203.664C95.3603 203.296 95.2443 203.008 95.0123 202.8C94.7883 202.592 94.4763 202.488 94.0763 202.488H92.8763V204.852Z" fill="#010100"/>
<path opacity="0.5" d="M49.392 223.08C48.8533 223.08 48.4213 222.947 48.096 222.68C47.7707 222.408 47.592 222.04 47.56 221.576H48.56C48.5813 221.779 48.6613 221.936 48.8 222.048C48.944 222.155 49.1413 222.208 49.392 222.208C49.6693 222.208 49.88 222.136 50.024 221.992C50.168 221.843 50.24 221.637 50.24 221.376V220.808C50.24 220.541 50.168 220.339 50.024 220.2C49.88 220.056 49.6693 219.984 49.392 219.984C49.2213 219.984 49.0747 220.019 48.952 220.088C48.8293 220.157 48.736 220.253 48.672 220.376H47.696L47.736 217.16H51.024V218.064H48.68L48.664 219.76H48.896L48.656 219.96C48.656 219.715 48.752 219.523 48.944 219.384C49.1413 219.24 49.4053 219.168 49.736 219.168C50.2107 219.163 50.5787 219.307 50.84 219.6C51.1067 219.888 51.24 220.291 51.24 220.808V221.376C51.24 221.904 51.0747 222.32 50.744 222.624C50.4187 222.928 49.968 223.08 49.392 223.08ZM53.5489 223L52.0769 217.16H53.1169L53.9969 220.968C54.0449 221.155 54.0902 221.355 54.1329 221.568C54.1755 221.781 54.2075 221.955 54.2289 222.088C54.2502 221.955 54.2795 221.781 54.3169 221.568C54.3542 221.355 54.3942 221.152 54.4369 220.96L55.3089 217.16H56.3169L54.8449 223H53.5489ZM61.9986 223V222.088H63.5346V219.504H62.1986V218.6H64.4946V222.088H65.8546V223H61.9986ZM63.9346 217.864C63.732 217.864 63.572 217.813 63.4546 217.712C63.3373 217.605 63.2786 217.464 63.2786 217.288C63.2786 217.112 63.3373 216.973 63.4546 216.872C63.572 216.765 63.732 216.712 63.9346 216.712C64.1373 216.712 64.2973 216.765 64.4146 216.872C64.532 216.973 64.5906 217.112 64.5906 217.288C64.5906 217.464 64.532 217.605 64.4146 217.712C64.2973 217.813 64.1373 217.864 63.9346 217.864ZM66.8035 223V218.6H67.7795V219.44H68.0515L67.7795 219.672C67.7795 219.309 67.8835 219.027 68.0915 218.824C68.3048 218.621 68.5955 218.52 68.9635 218.52C69.3955 218.52 69.7395 218.664 69.9955 218.952C70.2568 219.24 70.3875 219.627 70.3875 220.112V223H69.3875V220.216C69.3875 219.949 69.3182 219.744 69.1795 219.6C69.0408 219.456 68.8462 219.384 68.5955 219.384C68.3502 219.384 68.1555 219.459 68.0115 219.608C67.8728 219.757 67.8035 219.971 67.8035 220.248V223H66.8035ZM71.6004 224.44V218.6H72.5764V219.44H72.8004L72.5764 219.672C72.5764 219.315 72.683 219.035 72.8964 218.832C73.1097 218.624 73.3977 218.52 73.7604 218.52C74.203 218.52 74.5577 218.672 74.8244 218.976C75.091 219.28 75.2244 219.688 75.2244 220.2V221.392C75.2244 221.733 75.163 222.032 75.0404 222.288C74.923 222.539 74.755 222.733 74.5364 222.872C74.3177 223.011 74.059 223.08 73.7604 223.08C73.3977 223.08 73.1097 222.979 72.8964 222.776C72.683 222.568 72.5764 222.285 72.5764 221.928L72.8004 222.16H72.5684L72.6004 223.208V224.44H71.6004ZM73.4084 222.216C73.6644 222.216 73.8644 222.141 74.0084 221.992C74.1524 221.843 74.2244 221.629 74.2244 221.352V220.248C74.2244 219.971 74.1524 219.757 74.0084 219.608C73.8644 219.459 73.6644 219.384 73.4084 219.384C73.1577 219.384 72.9604 219.461 72.8164 219.616C72.6724 219.765 72.6004 219.976 72.6004 220.248V221.352C72.6004 221.624 72.6724 221.837 72.8164 221.992C72.9604 222.141 73.1577 222.216 73.4084 222.216ZM78.1813 223.08C77.6213 223.08 77.1813 222.925 76.8613 222.616C76.5413 222.301 76.3813 221.875 76.3813 221.336V218.6H77.3813V221.328C77.3813 221.611 77.4506 221.829 77.5893 221.984C77.7279 222.133 77.9253 222.208 78.1813 222.208C78.4319 222.208 78.6266 222.133 78.7653 221.984C78.9093 221.829 78.9813 221.611 78.9813 221.328V218.6H79.9813V221.336C79.9813 221.875 79.8186 222.301 79.4933 222.616C79.1679 222.925 78.7306 223.08 78.1813 223.08ZM83.4581 223C83.0368 223 82.7061 222.883 82.4661 222.648C82.2315 222.413 82.1141 222.091 82.1141 221.68V219.504H80.9221V218.6H82.1141V217.36H83.1221V218.6H84.8101V219.504H83.1221V221.68C83.1221 221.957 83.2581 222.096 83.5301 222.096H84.7301V223H83.4581Z" fill="black"/>
<path d="M147 231C147 226.582 150.582 223 155 223H156C160.418 223 164 226.582 164 231H147Z" fill="#F2F2F2"/>
<rect x="443" y="165" width="133" height="84" transform="rotate(-180 443 165)" fill="#DCDCDC"/>
<path d="M310 165V159L316 165H310Z" fill="#F2F2F2"/>
<path d="M443 165L437 165L443 159L443 165Z" fill="#F2F2F2"/>
<rect x="382.544" y="126" width="36" height="36" rx="18" transform="rotate(-45 382.544 126)" fill="#F2F2F2"/>
<rect x="382.544" y="126" width="36" height="36" rx="18" transform="rotate(-45 382.544 126)" fill="#F2F2F2"/>
<rect x="394" y="126.142" width="20" height="20" rx="10" transform="rotate(-45 394 126.142)" fill="#DCDCDC"/>
<path d="M356.827 171L392.23 130.447L393 116L344 171H356.827Z" fill="#F2F2F2"/>
<path d="M453 165L401.5 143L418 141L453 156L453 165Z" fill="#F2F2F2"/>
<path d="M410.5 81.0001L425.5 122L416.578 120.71L401.5 81.0003L410.5 81.0001Z" fill="#F2F2F2"/>
<path d="M321.167 130V121.24H326.615V122.632H322.643V124.972H326.303V126.364H322.667V130H321.167ZM330.27 130.12C329.59 130.12 329.054 129.94 328.662 129.58C328.27 129.22 328.074 128.736 328.074 128.128C328.074 127.48 328.29 126.98 328.722 126.628C329.154 126.276 329.766 126.1 330.558 126.1H332.202V125.536C332.202 125.216 332.098 124.968 331.89 124.792C331.682 124.608 331.398 124.516 331.038 124.516C330.71 124.516 330.438 124.588 330.222 124.732C330.006 124.876 329.878 125.072 329.838 125.32H328.374C328.446 124.696 328.726 124.2 329.214 123.832C329.702 123.464 330.326 123.28 331.086 123.28C331.894 123.28 332.53 123.484 332.994 123.892C333.466 124.292 333.702 124.836 333.702 125.524V130H332.25V128.848H332.01L332.25 128.524C332.25 129.012 332.07 129.4 331.71 129.688C331.35 129.976 330.87 130.12 330.27 130.12ZM330.762 128.992C331.186 128.992 331.53 128.884 331.794 128.668C332.066 128.452 332.202 128.172 332.202 127.828V127.024H330.582C330.278 127.024 330.034 127.112 329.85 127.288C329.666 127.464 329.574 127.696 329.574 127.984C329.574 128.296 329.678 128.544 329.886 128.728C330.102 128.904 330.394 128.992 330.762 128.992ZM335.522 130V123.4H336.986V124.66H337.394L336.986 125.008C336.986 124.464 337.142 124.04 337.454 123.736C337.774 123.432 338.21 123.28 338.762 123.28C339.41 123.28 339.926 123.496 340.31 123.928C340.702 124.36 340.898 124.94 340.898 125.668V130H339.398V125.824C339.398 125.424 339.294 125.116 339.086 124.9C338.878 124.684 338.586 124.576 338.21 124.576C337.842 124.576 337.55 124.688 337.334 124.912C337.126 125.136 337.022 125.456 337.022 125.872V130H335.522Z" fill="#010100"/>
<mask id="path-23-inside-3_348_17924" fill="white">
<path d="M310 78L443 78C443 90.1503 433.15 100 421 100H310V78Z"/>
</mask>
<path d="M310 75L443 75V78C443 79.0034 442.931 80.0056 442.795 80.9996L332 81H310V75ZM443 100H310H443ZM310 100V78V100ZM443 78V100V78Z" fill="#7723FF" mask="url(#path-23-inside-3_348_17924)"/>
<rect width="85" height="13" transform="translate(310 81)" fill="#7723FF"/>
<path d="M314.858 89V83.16H316.706C317.095 83.16 317.431 83.232 317.714 83.376C318.002 83.52 318.226 83.7227 318.386 83.984C318.546 84.24 318.626 84.544 318.626 84.896C318.626 85.28 318.527 85.6187 318.33 85.912C318.138 86.2053 317.877 86.4133 317.546 86.536L318.706 89H317.586L316.57 86.68H315.858V89H314.858ZM315.858 85.8H316.706C316.989 85.8 317.21 85.7227 317.37 85.568C317.53 85.4133 317.61 85.2 317.61 84.928C317.61 84.6507 317.53 84.4347 317.37 84.28C317.21 84.12 316.989 84.04 316.706 84.04H315.858V85.8ZM319.663 89V83.16H321.607C321.996 83.16 322.335 83.2347 322.623 83.384C322.916 83.5333 323.143 83.744 323.303 84.016C323.463 84.2827 323.543 84.5973 323.543 84.96C323.543 85.3173 323.46 85.632 323.295 85.904C323.135 86.176 322.911 86.3867 322.623 86.536C322.335 86.6853 321.996 86.76 321.607 86.76H320.663V89H319.663ZM320.663 85.856H321.607C321.884 85.856 322.106 85.776 322.271 85.616C322.442 85.4507 322.527 85.232 322.527 84.96C322.527 84.6827 322.442 84.464 322.271 84.304C322.106 84.144 321.884 84.064 321.607 84.064H320.663V85.856ZM324.292 89V83.16H325.476L326.044 85.016C326.102 85.2027 326.15 85.3733 326.188 85.528C326.225 85.6827 326.249 85.7947 326.26 85.864C326.27 85.7947 326.294 85.6827 326.332 85.528C326.369 85.3733 326.414 85.2027 326.468 85.016L327.012 83.16H328.196V89H327.26V87.184C327.26 86.9173 327.268 86.6267 327.284 86.312C327.3 85.9973 327.318 85.6827 327.34 85.368C327.361 85.0533 327.385 84.7547 327.412 84.472C327.444 84.1893 327.47 83.9413 327.492 83.728L326.708 86.488H325.796L324.988 83.728C325.014 83.9307 325.041 84.1707 325.068 84.448C325.094 84.72 325.118 85.0133 325.14 85.328C325.166 85.6373 325.188 85.952 325.204 86.272C325.22 86.592 325.228 86.896 325.228 87.184V89H324.292ZM335.854 89.08C335.454 89.08 335.107 89.0133 334.814 88.88C334.52 88.7467 334.294 88.5573 334.134 88.312C333.979 88.0613 333.899 87.768 333.894 87.432H334.894C334.894 87.672 334.979 87.8613 335.15 88C335.326 88.1333 335.563 88.2 335.862 88.2C336.15 88.2 336.374 88.1333 336.534 88C336.699 87.8667 336.782 87.6827 336.782 87.448C336.782 87.2507 336.723 87.08 336.606 86.936C336.494 86.7867 336.331 86.6853 336.118 86.632L335.446 86.448C334.987 86.3307 334.632 86.12 334.382 85.816C334.136 85.512 334.014 85.144 334.014 84.712C334.014 84.3813 334.088 84.0933 334.238 83.848C334.387 83.6027 334.598 83.4133 334.87 83.28C335.147 83.1467 335.472 83.08 335.846 83.08C336.411 83.08 336.859 83.2267 337.19 83.52C337.52 83.808 337.688 84.1973 337.694 84.688H336.694C336.694 84.4587 336.619 84.28 336.47 84.152C336.32 84.0187 336.11 83.952 335.838 83.952C335.576 83.952 335.374 84.0133 335.23 84.136C335.086 84.2587 335.014 84.432 335.014 84.656C335.014 84.8587 335.067 85.032 335.174 85.176C335.286 85.3147 335.446 85.4133 335.654 85.472L336.35 85.664C336.814 85.7813 337.168 85.992 337.414 86.296C337.659 86.5947 337.782 86.9653 337.782 87.408C337.782 87.7387 337.702 88.032 337.542 88.288C337.382 88.5387 337.158 88.7333 336.87 88.872C336.582 89.0107 336.243 89.08 335.854 89.08ZM338.85 90.44V84.6H339.826V85.44H340.05L339.826 85.672C339.826 85.3147 339.933 85.0347 340.146 84.832C340.36 84.624 340.648 84.52 341.01 84.52C341.453 84.52 341.808 84.672 342.074 84.976C342.341 85.28 342.474 85.688 342.474 86.2V87.392C342.474 87.7333 342.413 88.032 342.29 88.288C342.173 88.5387 342.005 88.7333 341.786 88.872C341.568 89.0107 341.309 89.08 341.01 89.08C340.648 89.08 340.36 88.9787 340.146 88.776C339.933 88.568 339.826 88.2853 339.826 87.928L340.05 88.16H339.818L339.85 89.208V90.44H338.85ZM340.658 88.216C340.914 88.216 341.114 88.1413 341.258 87.992C341.402 87.8427 341.474 87.6293 341.474 87.352V86.248C341.474 85.9707 341.402 85.7573 341.258 85.608C341.114 85.4587 340.914 85.384 340.658 85.384C340.408 85.384 340.21 85.4613 340.066 85.616C339.922 85.7653 339.85 85.976 339.85 86.248V87.352C339.85 87.624 339.922 87.8373 340.066 87.992C340.21 88.1413 340.408 88.216 340.658 88.216ZM345.439 89.08C345.066 89.08 344.741 89.008 344.463 88.864C344.186 88.72 343.97 88.52 343.815 88.264C343.666 88.0027 343.591 87.6987 343.591 87.352V86.248C343.591 85.9013 343.666 85.6 343.815 85.344C343.97 85.0827 344.186 84.88 344.463 84.736C344.741 84.592 345.066 84.52 345.439 84.52C345.807 84.52 346.127 84.592 346.399 84.736C346.677 84.88 346.89 85.0827 347.039 85.344C347.194 85.6 347.271 85.9013 347.271 86.248V87.04H344.559V87.352C344.559 87.6613 344.634 87.896 344.783 88.056C344.933 88.2107 345.154 88.288 345.447 88.288C345.671 88.288 345.853 88.2507 345.991 88.176C346.13 88.096 346.218 87.9813 346.255 87.832H347.239C347.165 88.2107 346.962 88.5147 346.631 88.744C346.306 88.968 345.909 89.08 345.439 89.08ZM346.303 86.48V86.24C346.303 85.936 346.231 85.704 346.087 85.544C345.943 85.3787 345.727 85.296 345.439 85.296C345.151 85.296 344.933 85.3787 344.783 85.544C344.634 85.7093 344.559 85.944 344.559 86.248V86.416L346.375 86.4L346.303 86.48ZM350.236 89.08C349.863 89.08 349.537 89.008 349.26 88.864C348.983 88.72 348.767 88.52 348.612 88.264C348.463 88.0027 348.388 87.6987 348.388 87.352V86.248C348.388 85.9013 348.463 85.6 348.612 85.344C348.767 85.0827 348.983 84.88 349.26 84.736C349.537 84.592 349.863 84.52 350.236 84.52C350.604 84.52 350.924 84.592 351.196 84.736C351.473 84.88 351.687 85.0827 351.836 85.344C351.991 85.6 352.068 85.9013 352.068 86.248V87.04H349.356V87.352C349.356 87.6613 349.431 87.896 349.58 88.056C349.729 88.2107 349.951 88.288 350.244 88.288C350.468 88.288 350.649 88.2507 350.788 88.176C350.927 88.096 351.015 87.9813 351.052 87.832H352.036C351.961 88.2107 351.759 88.5147 351.428 88.744C351.103 88.968 350.705 89.08 350.236 89.08ZM351.1 86.48V86.24C351.1 85.936 351.028 85.704 350.884 85.544C350.74 85.3787 350.524 85.296 350.236 85.296C349.948 85.296 349.729 85.3787 349.58 85.544C349.431 85.7093 349.356 85.944 349.356 86.248V86.416L351.172 86.4L351.1 86.48ZM354.649 89.08C354.212 89.08 353.857 88.928 353.585 88.624C353.318 88.32 353.185 87.912 353.185 87.4V86.208C353.185 85.6907 353.318 85.28 353.585 84.976C353.852 84.672 354.206 84.52 354.649 84.52C355.012 84.52 355.3 84.624 355.513 84.832C355.726 85.0347 355.833 85.3147 355.833 85.672L355.609 85.44H355.841L355.809 84.392V83.16H356.809V89H355.833V88.16H355.609L355.833 87.928C355.833 88.2853 355.726 88.568 355.513 88.776C355.3 88.9787 355.012 89.08 354.649 89.08ZM355.001 88.216C355.257 88.216 355.454 88.1413 355.593 87.992C355.737 87.8373 355.809 87.624 355.809 87.352V86.248C355.809 85.976 355.737 85.7653 355.593 85.616C355.454 85.4613 355.257 85.384 355.001 85.384C354.745 85.384 354.545 85.4587 354.401 85.608C354.257 85.7573 354.185 85.9707 354.185 86.248V87.352C354.185 87.6293 354.257 87.8427 354.401 87.992C354.545 88.1413 354.745 88.216 355.001 88.216ZM364.635 89.08C364.235 89.08 363.888 89.0133 363.595 88.88C363.301 88.7467 363.075 88.5573 362.915 88.312C362.76 88.0613 362.68 87.768 362.675 87.432H363.675C363.675 87.672 363.76 87.8613 363.931 88C364.107 88.1333 364.344 88.2 364.643 88.2C364.931 88.2 365.155 88.1333 365.315 88C365.48 87.8667 365.563 87.6827 365.563 87.448C365.563 87.2507 365.504 87.08 365.387 86.936C365.275 86.7867 365.112 86.6853 364.899 86.632L364.227 86.448C363.768 86.3307 363.413 86.12 363.163 85.816C362.917 85.512 362.795 85.144 362.795 84.712C362.795 84.3813 362.869 84.0933 363.019 83.848C363.168 83.6027 363.379 83.4133 363.651 83.28C363.928 83.1467 364.253 83.08 364.627 83.08C365.192 83.08 365.64 83.2267 365.971 83.52C366.301 83.808 366.469 84.1973 366.475 84.688H365.475C365.475 84.4587 365.4 84.28 365.251 84.152C365.101 84.0187 364.891 83.952 364.619 83.952C364.357 83.952 364.155 84.0133 364.011 84.136C363.867 84.2587 363.795 84.432 363.795 84.656C363.795 84.8587 363.848 85.032 363.955 85.176C364.067 85.3147 364.227 85.4133 364.435 85.472L365.131 85.664C365.595 85.7813 365.949 85.992 366.195 86.296C366.44 86.5947 366.563 86.9653 366.563 87.408C366.563 87.7387 366.483 88.032 366.323 88.288C366.163 88.5387 365.939 88.7333 365.651 88.872C365.363 89.0107 365.024 89.08 364.635 89.08ZM367.624 89V88.088H369.16V85.504H367.824V84.6H370.12V88.088H371.48V89H367.624ZM369.56 83.864C369.357 83.864 369.197 83.8133 369.08 83.712C368.962 83.6053 368.904 83.464 368.904 83.288C368.904 83.112 368.962 82.9733 369.08 82.872C369.197 82.7653 369.357 82.712 369.56 82.712C369.762 82.712 369.922 82.7653 370.04 82.872C370.157 82.9733 370.216 83.112 370.216 83.288C370.216 83.464 370.157 83.6053 370.04 83.712C369.922 83.8133 369.762 83.864 369.56 83.864ZM373.029 90.44V89.608H374.333C374.557 89.608 374.725 89.552 374.837 89.44C374.949 89.3333 375.005 89.1787 375.005 88.976V88.648L375.021 87.824H374.805L375.021 87.608C375.021 87.9653 374.914 88.2453 374.701 88.448C374.493 88.6453 374.21 88.744 373.853 88.744C373.405 88.744 373.047 88.592 372.781 88.288C372.519 87.984 372.389 87.5733 372.389 87.056V86.2C372.389 85.688 372.519 85.28 372.781 84.976C373.047 84.672 373.405 84.52 373.853 84.52C374.21 84.52 374.493 84.6213 374.701 84.824C374.914 85.0213 375.021 85.2987 375.021 85.656L374.805 85.44H375.021L374.997 84.6H375.997V89C375.997 89.4427 375.85 89.792 375.557 90.048C375.263 90.3093 374.861 90.44 374.349 90.44H373.029ZM374.189 87.88C374.445 87.88 374.642 87.8053 374.781 87.656C374.925 87.5013 374.997 87.288 374.997 87.016V86.248C374.997 85.976 374.925 85.7653 374.781 85.616C374.642 85.4613 374.445 85.384 374.189 85.384C373.933 85.384 373.735 85.4587 373.597 85.608C373.458 85.7573 373.389 85.9707 373.389 86.248V87.016C373.389 87.2933 373.458 87.5067 373.597 87.656C373.735 87.8053 373.933 87.88 374.189 87.88ZM377.225 89V84.6H378.201V85.44H378.473L378.201 85.672C378.201 85.3093 378.305 85.0267 378.513 84.824C378.727 84.6213 379.017 84.52 379.385 84.52C379.817 84.52 380.161 84.664 380.417 84.952C380.679 85.24 380.809 85.6267 380.809 86.112V89H379.809V86.216C379.809 85.9493 379.74 85.744 379.601 85.6C379.463 85.456 379.268 85.384 379.017 85.384C378.772 85.384 378.577 85.4587 378.433 85.608C378.295 85.7573 378.225 85.9707 378.225 86.248V89H377.225ZM383.318 89.08C382.865 89.08 382.508 88.96 382.246 88.72C381.985 88.48 381.854 88.1573 381.854 87.752C381.854 87.32 381.998 86.9867 382.286 86.752C382.574 86.5173 382.982 86.4 383.51 86.4H384.606V86.024C384.606 85.8107 384.537 85.6453 384.398 85.528C384.26 85.4053 384.07 85.344 383.83 85.344C383.612 85.344 383.43 85.392 383.286 85.488C383.142 85.584 383.057 85.7147 383.03 85.88H382.054C382.102 85.464 382.289 85.1333 382.614 84.888C382.94 84.6427 383.356 84.52 383.862 84.52C384.401 84.52 384.825 84.656 385.134 84.928C385.449 85.1947 385.606 85.5573 385.606 86.016V89H384.638V88.232H384.478L384.638 88.016C384.638 88.3413 384.518 88.6 384.278 88.792C384.038 88.984 383.718 89.08 383.318 89.08ZM383.646 88.328C383.929 88.328 384.158 88.256 384.334 88.112C384.516 87.968 384.606 87.7813 384.606 87.552V87.016H383.526C383.324 87.016 383.161 87.0747 383.038 87.192C382.916 87.3093 382.854 87.464 382.854 87.656C382.854 87.864 382.924 88.0293 383.062 88.152C383.206 88.2693 383.401 88.328 383.646 88.328ZM389.275 89C388.987 89 388.734 88.9413 388.515 88.824C388.302 88.7067 388.134 88.5413 388.011 88.328C387.888 88.1093 387.827 87.8587 387.827 87.576V84.064H386.419V83.16H388.827V87.576C388.827 87.736 388.872 87.864 388.963 87.96C389.059 88.0507 389.187 88.096 389.347 88.096H390.675V89H389.275Z" fill="white"/>
<path d="M229 58.5C228.724 58.5 228.5 58.7239 228.5 59C228.5 59.2761 228.724 59.5 229 59.5V58.5ZM322 59L322.354 58.6464L322.207 58.5H322V59ZM327 64H327.5V63.7929L327.354 63.6464L327 64ZM326.647 77.3536C326.842 77.5488 327.159 77.5488 327.354 77.3536L330.536 74.1716C330.731 73.9763 330.731 73.6597 330.536 73.4645C330.34 73.2692 330.024 73.2692 329.829 73.4645L327 76.2929L324.172 73.4645C323.977 73.2692 323.66 73.2692 323.465 73.4645C323.269 73.6597 323.269 73.9763 323.465 74.1716L326.647 77.3536ZM229 59.5H322V58.5H229V59.5ZM321.647 59.3536L326.647 64.3536L327.354 63.6464L322.354 58.6464L321.647 59.3536ZM326.5 64V77H327.5V64H326.5Z" fill="#2E7202"/>
<path d="M228 184.5C227.724 184.5 227.5 184.276 227.5 184C227.5 183.724 227.724 183.5 228 183.5V184.5ZM321 184L321.354 184.354L321.207 184.5H321V184ZM326 179H326.5V179.207L326.354 179.354L326 179ZM325.647 165.646C325.842 165.451 326.159 165.451 326.354 165.646L329.536 168.828C329.731 169.024 329.731 169.34 329.536 169.536C329.34 169.731 329.024 169.731 328.829 169.536L326 166.707L323.172 169.536C322.977 169.731 322.66 169.731 322.465 169.536C322.269 169.34 322.269 169.024 322.465 168.828L325.647 165.646ZM228 183.5H321V184.5H228V183.5ZM320.647 183.646L325.647 178.646L326.354 179.354L321.354 184.354L320.647 183.646ZM325.5 179V166H326.5V179H325.5Z" fill="#2E7202"/>
</svg>
