<svg xmlns="http://www.w3.org/2000/svg" width="49" height="48" viewBox="0 0 49 48" fill="none"><rect x="2.5" y="46" width="44" height="2" fill="#CCFF3D"></rect><rect x="24.5" y="38" width="2" height="8" fill="#CCFF3D"></rect><rect x="6.5" y="38" width="36" height="2" fill="#B182FF"></rect><rect x="6.5" y="26" width="36" height="2" fill="#B182FF"></rect><rect x="2.5" y="30" width="2" height="6" fill="#B182FF"></rect><rect x="44.5" y="30" width="2" height="6" fill="#B182FF"></rect><rect x="42.5" y="28" width="2" height="2" fill="#B182FF"></rect><rect x="42.5" y="36" width="2" height="2" fill="#B182FF"></rect><rect x="4.5" y="36" width="2" height="2" fill="#B182FF"></rect><rect x="4.5" y="28" width="2" height="2" fill="#B182FF"></rect><rect x="8.5" y="32" width="2" height="2" fill="#CCFF3D"></rect><rect x="20.5" y="32" width="8" height="2" fill="#B182FF"></rect><rect x="32.5" y="32" width="8" height="2" fill="#B182FF"></rect><rect x="6.5" y="26" width="36" height="2" fill="#B182FF"></rect><rect x="6.5" y="14" width="36" height="2" fill="#B182FF"></rect><rect x="2.5" y="18" width="2" height="6" fill="#B182FF"></rect><rect x="44.5" y="18" width="2" height="6" fill="#B182FF"></rect><rect x="42.5" y="16" width="2" height="2" fill="#B182FF"></rect><rect x="42.5" y="24" width="2" height="2" fill="#B182FF"></rect><rect x="4.5" y="24" width="2" height="2" fill="#B182FF"></rect><rect x="4.5" y="16" width="2" height="2" fill="#B182FF"></rect><rect x="8.5" y="20" width="2" height="2" fill="#CCFF3D"></rect><rect x="20.5" y="20" width="8" height="2" fill="#B182FF"></rect><rect x="32.5" y="20" width="8" height="2" fill="#B182FF"></rect><rect x="6.5" y="14" width="36" height="2" fill="#B182FF"></rect><rect x="6.5" y="2" width="36" height="2" fill="#B182FF"></rect><rect x="2.5" y="6" width="2" height="6" fill="#B182FF"></rect><rect x="44.5" y="6" width="2" height="6" fill="#B182FF"></rect><rect x="42.5" y="4" width="2" height="2" fill="#B182FF"></rect><rect x="42.5" y="12" width="2" height="2" fill="#B182FF"></rect><rect x="4.5" y="12" width="2" height="2" fill="#B182FF"></rect><rect x="4.5" y="4" width="2" height="2" fill="#B182FF"></rect><rect x="8.5" y="8" width="2" height="2" fill="#CCFF3D"></rect><rect x="20.5" y="8" width="8" height="2" fill="#B182FF"></rect><rect x="32.5" y="8" width="8" height="2" fill="#B182FF"></rect></svg>