<svg xmlns="http://www.w3.org/2000/svg" width="49" height="48" viewBox="0 0 49 48" fill="none"><rect x="6.5" y="4" width="2" height="40" fill="#B182FF"></rect><rect x="8.5" y="2" width="22" height="2" fill="#B182FF"></rect><rect x="8.5" y="44" width="32" height="2" fill="#B182FF"></rect><rect x="40.5" y="14" width="2" height="30" fill="#B182FF"></rect><rect x="34.5" y="8" width="2" height="2" fill="#B182FF"></rect><rect x="32.5" y="6" width="2" height="2" fill="#B182FF"></rect><rect x="30.5" y="4" width="2" height="2" fill="#B182FF"></rect><rect x="36.5" y="10" width="2" height="2" fill="#B182FF"></rect><rect x="38.5" y="12" width="2" height="2" fill="#B182FF"></rect><rect x="16.5" y="10" width="2" height="2" fill="#CCFF3D"></rect><rect x="30.5" y="18" width="2" height="10" fill="#CCFF3D"></rect><rect x="12.5" y="32" width="2" height="2" fill="#CCFF3D"></rect><rect x="16.5" y="18" width="2" height="2" fill="#CCFF3D"></rect><rect x="14.5" y="34" width="2" height="2" fill="#CCFF3D"></rect><rect x="16.5" y="36" width="2" height="2" fill="#CCFF3D"></rect><rect x="18.5" y="34" width="2" height="2" fill="#CCFF3D"></rect><rect x="12.5" y="14" width="10" height="2" fill="#CCFF3D"></rect><rect x="26.5" y="22" width="10" height="2" fill="#CCFF3D"></rect><rect x="20.5" y="32" width="8" height="2" fill="#CCFF3D"></rect></svg>