<svg width="450" height="142" viewBox="0 0 450 142" fill="none" xmlns="http://www.w3.org/2000/svg">
<g clip-path="url(#clip0_407_7742)">
<path d="M358.666 65.0471L434.834 65.0678L450 43.0342L352.331 43.0755L334.584 68.8674L334.563 131.148L389.314 131.127L404.459 109.135L358.687 109.135" fill="black"/>
<path d="M427.345 75.3515L412.158 97.3851L358.666 97.3851L373.812 75.4341L427.345 75.3515Z" fill="black"/>
<path d="M344.569 43.0347L258.878 43.0347L231.104 84.2522L231.104 131.128L255.207 131.148L255.207 131.128L255.186 131.128L255.207 131.107L255.186 65.0477L300.392 65.0477L255.207 131.107L255.207 131.128L283.883 131.107L344.569 43.0347Z" fill="black"/>
<path d="M95.068 80.2875L74.3636 80.2875L100.061 43.0142L6.94335 43.0142C6.94335 43.0142 6.96435 101.536 6.96435 131.107C12.754 131.107 21.6903 131.107 31.025 131.128L31.025 89.58L31.025 65.0271L57.603 65.0478L43.5903 85.3674L62.5536 85.3674L31.025 131.128C49.2751 131.128 60.0363 131.128 60.0363 131.128L95.068 80.2875Z" fill="black"/>
<path d="M128.107 43.0348L128.107 109.094L206.414 109.094L191.227 131.128L104.004 131.128L104.004 43.0348L128.107 43.0348Z" fill="black"/>
<path d="M221.812 43.035L216.945 50.0353C212.036 45.6162 205.492 42.9317 198.317 42.9317L161.02 42.9317C145.749 42.9317 133.372 55.1152 133.372 70.1485C133.372 85.1817 145.749 97.3652 161.02 97.3652L198.317 97.3652C206.708 97.3652 214.197 93.6895 219.274 87.8869L219.357 87.8869L219.651 87.4532C220.679 86.2349 221.581 84.9133 222.378 83.5297L250.592 43.035L221.812 43.035ZM193.241 78.3259L166.076 78.3259C161.482 78.3259 157.748 74.6502 157.748 70.1278C157.748 65.6055 161.482 61.9298 166.076 61.9298L193.241 61.9297C197.835 61.9297 201.569 65.6055 201.569 70.1278C201.569 74.6708 197.835 78.3259 193.241 78.3259Z" fill="black"/>
<path d="M13.1527 22.0332C11.9361 21.3311 10.9921 20.3606 10.2999 19.1216C9.60762 17.8826 9.27197 16.499 9.27197 14.9709C9.27197 13.4428 9.62859 12.0593 10.2999 10.8203C10.9921 9.58127 11.9361 8.61073 13.1527 7.90863C14.3694 7.20652 15.7119 6.85547 17.2223 6.85547C18.5019 6.85547 19.6766 7.12391 20.7674 7.64016C21.8582 8.15642 22.7393 8.87918 23.4105 9.74648C24.0818 10.6344 24.4804 11.5843 24.5852 12.6168L21.8372 12.6168C21.7114 12.0386 21.4177 11.5224 20.9772 11.0061C20.5367 10.5105 19.9913 10.0975 19.32 9.80843C18.6697 9.49867 17.9565 9.35412 17.2223 9.35412C16.2574 9.35412 15.3763 9.60193 14.6002 10.0769C13.824 10.5518 13.2157 11.2126 12.7961 12.0593C12.3556 12.9059 12.1459 13.8765 12.1459 14.9503C12.1459 16.0241 12.3556 16.9946 12.7961 17.8413C13.2367 18.6879 13.845 19.3487 14.6002 19.8237C15.3763 20.2986 16.2364 20.5465 17.2223 20.5465C17.9565 20.5465 18.6697 20.4019 19.32 20.0921C19.9913 19.803 20.5367 19.39 20.9772 18.8944C21.4177 18.3988 21.7114 17.8619 21.8372 17.3044L24.5852 17.3044C24.4804 18.3162 24.0818 19.2661 23.4105 20.1334C22.7393 21.0008 21.8582 21.7029 20.7674 22.2398C19.6766 22.7767 18.5019 23.0245 17.2223 23.0245C15.712 23.0864 14.3484 22.7354 13.1527 22.0332Z" fill="black"/>
<path d="M44.2408 22.0332C43.0241 21.3311 42.0591 20.3606 41.3669 19.1216C40.6746 17.8826 40.318 16.499 40.318 14.9916C40.318 13.4635 40.6746 12.1006 41.3669 10.8616C42.0591 9.62257 43.0241 8.65202 44.2408 7.94992C45.4574 7.24781 46.8209 6.89676 48.3313 6.89676C49.8207 6.89676 51.1842 7.24781 52.4008 7.94992C53.6175 8.65202 54.5824 9.62257 55.2747 10.8616C55.9669 12.1006 56.3235 13.4841 56.3235 14.9916C56.3235 16.5197 55.9669 17.9032 55.2747 19.1216C54.5824 20.3606 53.6175 21.3311 52.4008 22.0332C51.1842 22.7353 49.8207 23.0864 48.3313 23.0864C46.8209 23.0864 45.4574 22.7353 44.2408 22.0332ZM50.9534 19.865C51.7296 19.39 52.3589 18.7292 52.7994 17.8826C53.2399 17.0359 53.4707 16.0654 53.4707 14.9916C53.4707 13.9178 53.2609 12.9472 52.8204 12.1006C52.3799 11.2539 51.7715 10.5931 50.9953 10.1182C50.2192 9.64323 49.3382 9.39542 48.3522 9.39542C47.3663 9.39542 46.4853 9.64323 45.7092 10.1182C44.933 10.5931 44.3037 11.2539 43.8632 12.1006C43.4226 12.9472 43.1919 13.9178 43.1919 14.9916C43.1919 16.0654 43.4226 17.0359 43.8632 17.8826C44.3037 18.7292 44.912 19.39 45.7092 19.865C46.4853 20.3399 47.3663 20.5877 48.3522 20.5877C49.2962 20.5671 50.1773 20.3399 50.9534 19.865Z" fill="black"/>
<path d="M73.0423 22.8179V7.14456L76.6503 7.14456L81.538 18.4608L81.8107 19.3281L82.0834 18.4608L86.8661 7.14456L90.5162 7.14456V22.8179H87.7262V11.6669L87.7682 11.0681L82.8176 22.8179H80.7408L75.8112 11.1507L75.8322 11.6669L75.8322 22.8179H73.0423Z" fill="black"/>
<path d="M108.179 22.8179V7.14456L114.912 7.14456C116.003 7.14456 116.968 7.35106 117.786 7.74341C118.604 8.13576 119.255 8.69332 119.695 9.41607C120.136 10.1388 120.367 10.9648 120.367 11.9147C120.367 12.8646 120.136 13.7113 119.674 14.4547C119.213 15.1774 118.563 15.7556 117.723 16.148C116.884 16.5403 115.919 16.7468 114.787 16.7468H110.927V22.8179H108.179ZM114.766 14.3927C115.584 14.3927 116.255 14.1656 116.737 13.7319C117.22 13.2983 117.472 12.6994 117.472 11.9354C117.472 11.192 117.22 10.5931 116.737 10.1595C116.255 9.72581 115.584 9.49866 114.766 9.49866L110.969 9.49866V14.3927H114.766Z" fill="black"/>
<path d="M139.414 22.3017C138.428 21.7648 137.652 21.042 137.106 20.0921C136.561 19.1422 136.288 18.0684 136.288 16.8501V7.14456L139.078 7.14456V16.8088C139.078 17.5728 139.225 18.2336 139.54 18.8118C139.833 19.39 140.274 19.8443 140.861 20.1541C141.428 20.4845 142.099 20.629 142.833 20.629C143.546 20.629 144.196 20.4638 144.742 20.1541C145.308 19.8237 145.728 19.39 146.021 18.8118C146.315 18.2336 146.483 17.5728 146.483 16.8088V7.14456L149.273 7.14456V16.8501C149.273 18.0684 149 19.1629 148.455 20.0921C147.909 21.042 147.154 21.7648 146.168 22.3017C145.182 22.8386 144.071 23.0864 142.812 23.0864C141.553 23.0864 140.421 22.8179 139.414 22.3017Z" fill="black"/>
<path d="M170.313 9.70516L165.383 9.70516V7.14455L178.032 7.14455V9.70516L173.103 9.70516V22.8592H170.313V9.70516Z" fill="black"/>
<path d="M194.311 7.14455L205.701 7.14455V9.58126L197.059 9.58126V13.7319L204.946 13.7319V16.148L197.059 16.148V20.3606H205.932V22.7973L194.311 22.7973V7.14455Z" fill="black"/>
</g>
<defs>
<clipPath id="clip0_407_7742">
<rect width="450" height="141.081" fill="white" transform="translate(450 141.081) rotate(180)"/>
</clipPath>
</defs>
</svg>
