<svg width="450" height="142" viewBox="0 0 450 142" fill="none" xmlns="http://www.w3.org/2000/svg">
<g clip-path="url(#clip0_407_7756)">
<path d="M358.666 65.2092L434.834 65.2299L450 43.1963L352.331 43.2376L334.584 69.0295L334.563 131.31L389.314 131.289L404.459 109.297L358.687 109.297" fill="#CCFF3D"/>
<path d="M427.345 75.5136L412.158 97.5472L358.666 97.5472L373.812 75.5962L427.345 75.5136Z" fill="#CCFF3D"/>
<path d="M344.569 43.1968L258.878 43.1968L231.104 84.4143L231.104 131.29L255.207 131.311L255.207 131.29L255.186 131.29L255.207 131.269L255.186 65.2098L300.392 65.2098L255.207 131.269L255.207 131.29L283.883 131.269L344.569 43.1968Z" fill="#CCFF3D"/>
<path d="M95.068 80.4496L74.3636 80.4496L100.061 43.1763L6.94335 43.1763C6.94335 43.1763 6.96435 101.699 6.96435 131.269C12.754 131.269 21.6903 131.269 31.025 131.29L31.025 89.7422L31.025 65.1892L57.603 65.2099L43.5903 85.5295L62.5536 85.5295L31.025 131.29C49.2751 131.29 60.0363 131.29 60.0363 131.29L95.068 80.4496Z" fill="#CCFF3D"/>
<path d="M128.107 43.1969L128.107 109.256L206.414 109.256L191.227 131.29L104.004 131.29L104.004 43.1969L128.107 43.1969Z" fill="#CCFF3D"/>
<path d="M221.812 43.1971L216.945 50.1974C212.036 45.7783 205.492 43.0938 198.317 43.0938L161.02 43.0938C145.749 43.0938 133.372 55.2774 133.372 70.3106C133.372 85.3438 145.749 97.5274 161.02 97.5274L198.317 97.5273C206.708 97.5273 214.197 93.8516 219.274 88.049L219.357 88.049L219.651 87.6153C220.679 86.397 221.581 85.0754 222.378 83.6918L250.592 43.1971L221.812 43.1971ZM193.241 78.488L166.076 78.488C161.482 78.488 157.748 74.8123 157.748 70.2899C157.748 65.7676 161.482 62.0919 166.076 62.0919L193.241 62.0919C197.835 62.0919 201.569 65.7676 201.569 70.2899C201.569 74.8329 197.835 78.488 193.241 78.488Z" fill="#CCFF3D"/>
<path d="M13.1527 22.1954C11.9361 21.4933 10.9921 20.5227 10.2999 19.2837C9.60762 18.0447 9.27197 16.6612 9.27197 15.133C9.27197 13.6049 9.62859 12.2214 10.2999 10.9824C10.9921 9.74338 11.9361 8.77284 13.1527 8.07074C14.3694 7.36863 15.7119 7.01758 17.2223 7.01758C18.5019 7.01758 19.6766 7.28602 20.7674 7.80227C21.8582 8.31852 22.7393 9.04129 23.4105 9.90859C24.0818 10.7965 24.4804 11.7464 24.5852 12.7789L21.8372 12.7789C21.7114 12.2007 21.4177 11.6845 20.9772 11.1682C20.5367 10.6726 19.9913 10.2596 19.32 9.97053C18.6697 9.66078 17.9565 9.51623 17.2223 9.51623C16.2574 9.51623 15.3763 9.76404 14.6002 10.239C13.824 10.7139 13.2157 11.3747 12.7961 12.2214C12.3556 13.068 12.1459 14.0386 12.1459 15.1124C12.1459 16.1862 12.3556 17.1567 12.7961 18.0034C13.2367 18.8501 13.845 19.5109 14.6002 19.9858C15.3763 20.4608 16.2364 20.7086 17.2223 20.7086C17.9565 20.7086 18.6697 20.564 19.32 20.2543C19.9913 19.9652 20.5367 19.5522 20.9772 19.0566C21.4177 18.561 21.7114 18.0241 21.8372 17.4665L24.5852 17.4665C24.4804 18.4784 24.0818 19.4283 23.4105 20.2956C22.7393 21.1629 21.8582 21.865 20.7674 22.4019C19.6766 22.9388 18.5019 23.1866 17.2223 23.1866C15.712 23.2485 14.3484 22.8975 13.1527 22.1954Z" fill="#CCFF3D"/>
<path d="M44.2408 22.1954C43.0241 21.4933 42.0591 20.5227 41.3669 19.2837C40.6746 18.0447 40.318 16.6611 40.318 15.1537C40.318 13.6256 40.6746 12.2627 41.3669 11.0237C42.0591 9.78468 43.0241 8.81413 44.2408 8.11203C45.4574 7.40992 46.8209 7.05887 48.3313 7.05887C49.8207 7.05887 51.1842 7.40992 52.4008 8.11202C53.6175 8.81413 54.5824 9.78468 55.2747 11.0237C55.9669 12.2627 56.3235 13.6462 56.3235 15.1537C56.3235 16.6818 55.9669 18.0653 55.2747 19.2837C54.5824 20.5227 53.6175 21.4933 52.4008 22.1954C51.1842 22.8975 49.8207 23.2485 48.3313 23.2485C46.8209 23.2485 45.4574 22.8975 44.2408 22.1954ZM50.9534 20.0271C51.7296 19.5522 52.3589 18.8914 52.7994 18.0447C53.2399 17.198 53.4707 16.2275 53.4707 15.1537C53.4707 14.0799 53.2609 13.1093 52.8204 12.2627C52.3799 11.416 51.7715 10.7552 50.9953 10.2803C50.2192 9.80534 49.3382 9.55753 48.3522 9.55753C47.3663 9.55753 46.4853 9.80534 45.7092 10.2803C44.933 10.7552 44.3037 11.416 43.8632 12.2627C43.4226 13.1093 43.1919 14.0799 43.1919 15.1537C43.1919 16.2275 43.4226 17.198 43.8632 18.0447C44.3037 18.8914 44.912 19.5522 45.7092 20.0271C46.4853 20.5021 47.3663 20.7499 48.3522 20.7499C49.2962 20.7292 50.1773 20.5021 50.9534 20.0271Z" fill="#CCFF3D"/>
<path d="M73.0423 22.9801V7.30667L76.6503 7.30667L81.538 18.6229L81.8107 19.4902L82.0834 18.6229L86.8661 7.30667L90.5162 7.30667V22.9801H87.7262V11.829L87.7682 11.2302L82.8176 22.9801H80.7408L75.8112 11.3128L75.8322 11.829L75.8322 22.9801H73.0423Z" fill="#CCFF3D"/>
<path d="M108.179 22.9801V7.30667L114.912 7.30667C116.003 7.30667 116.968 7.51317 117.786 7.90552C118.604 8.29787 119.255 8.85543 119.695 9.57818C120.136 10.3009 120.367 11.1269 120.367 12.0768C120.367 13.0267 120.136 13.8734 119.674 14.6168C119.213 15.3395 118.563 15.9177 117.723 16.3101C116.884 16.7024 115.919 16.9089 114.787 16.9089H110.927V22.9801H108.179ZM114.766 14.5548C115.584 14.5548 116.255 14.3277 116.737 13.894C117.22 13.4604 117.472 12.8615 117.472 12.0975C117.472 11.3541 117.22 10.7552 116.737 10.3216C116.255 9.88792 115.584 9.66077 114.766 9.66077L110.969 9.66077V14.5548H114.766Z" fill="#CCFF3D"/>
<path d="M139.414 22.4638C138.428 21.9269 137.652 21.2041 137.106 20.2542C136.561 19.3043 136.288 18.2305 136.288 17.0122V7.30667L139.078 7.30667V16.9709C139.078 17.7349 139.225 18.3957 139.54 18.9739C139.833 19.5521 140.274 20.0064 140.861 20.3162C141.428 20.6466 142.099 20.7911 142.833 20.7911C143.546 20.7911 144.196 20.6259 144.742 20.3162C145.308 19.9858 145.728 19.5521 146.021 18.9739C146.315 18.3957 146.483 17.7349 146.483 16.9709V7.30667L149.273 7.30667V17.0122C149.273 18.2305 149 19.325 148.455 20.2542C147.909 21.2041 147.154 21.9269 146.168 22.4638C145.182 23.0007 144.071 23.2485 142.812 23.2485C141.553 23.2485 140.421 22.9801 139.414 22.4638Z" fill="#CCFF3D"/>
<path d="M170.313 9.86727L165.383 9.86727V7.30666L178.032 7.30666V9.86727L173.103 9.86727V23.0214H170.313V9.86727Z" fill="#CCFF3D"/>
<path d="M194.311 7.30666L205.701 7.30666V9.74337L197.059 9.74337V13.894L204.946 13.894V16.3101L197.059 16.3101V20.5227H205.932V22.9594L194.311 22.9594V7.30666Z" fill="#CCFF3D"/>
</g>
<defs>
<clipPath id="clip0_407_7756">
<rect width="450" height="141.081" fill="white" transform="translate(450 141.243) rotate(180)"/>
</clipPath>
</defs>
</svg>
