<svg width="450" height="112" viewBox="0 0 450 112" fill="none" xmlns="http://www.w3.org/2000/svg">
<g clip-path="url(#clip0_407_7673)">
<path d="M82.9358 50.7488L102.981 28.3691H82.9358V50.7488Z" fill="white"/>
<path d="M0 3.10156V108.021H150.838V3.10156H0ZM121.021 26.4438L82.9358 69.0374V78.4224V89.2513C82.9358 92.6203 80.1797 95.2673 76.6718 95.2673H37.3337C34.828 95.2673 32.8235 93.8235 31.8213 91.8984C30.8191 89.7326 31.0696 87.3262 32.8235 85.6417L63.8932 50.9893C63.8932 50.9893 63.8932 68.7968 63.8932 69.0374L50.864 83.4759H70.6583V78.4224V22.5935C70.6583 19.2246 73.4145 16.5775 76.9224 16.5775H116.511C119.017 16.5775 121.021 18.0214 122.023 19.9465C123.026 22.1123 122.525 24.5187 121.021 26.4438Z" fill="white"/>
<path d="M176.883 74.8216C176.43 73.955 175.978 73.0885 175.978 72.222C175.978 71.3554 176.43 70.4889 176.883 69.6224C177.335 69.1891 178.241 68.7559 179.599 68.7559C180.956 68.7559 181.409 69.1891 182.314 69.6224C183.22 70.0557 183.22 70.9222 183.22 72.222C183.22 73.5218 182.767 73.955 182.314 74.8216C181.862 75.6881 180.504 75.6881 179.599 75.6881C178.693 75.6881 177.788 75.2548 176.883 74.8216ZM176.43 80.8873H182.314V108.183H176.43V80.8873Z" fill="white"/>
<path d="M190.914 80.8861H196.798V84.7855C198.156 83.0524 199.967 81.7526 201.777 81.3193C203.588 80.4528 205.851 80.0195 208.114 80.0195C211.735 80.0195 214.904 80.8861 216.714 83.0524C218.525 84.7854 219.43 87.3851 219.43 90.8512V108.182H213.093V91.2844C213.093 86.9518 210.83 84.7855 206.304 84.7855C204.493 84.7855 202.683 85.2187 200.872 86.0852C199.062 86.9518 197.704 88.2516 196.798 89.9846V108.182H190.914V80.8861Z" fill="white"/>
<path d="M232.555 107.316C230.292 106.016 228.481 104.283 227.124 102.117C225.766 99.9503 225.313 97.3507 225.313 94.7511C225.313 92.1515 225.766 89.5519 227.124 87.3856C228.481 85.2193 230.292 83.4862 232.555 82.1864C234.818 80.8866 237.534 80.4534 240.25 80.4534C245.229 80.4534 249.302 81.7531 252.018 84.786V66.5889H257.902V108.616H252.018V104.716C250.66 106.449 248.85 107.749 247.039 108.182C245.229 109.049 242.06 109.771 240.25 109.482C237.534 109.049 234.818 108.616 232.555 107.316ZM247.944 102.55C249.755 101.25 251.113 99.517 252.018 97.784V91.7182C251.565 89.5519 250.208 87.8189 248.397 86.9523C246.587 85.6525 244.323 85.2193 242.06 85.2193C240.25 85.2193 238.439 85.6525 236.629 86.5191C235.271 87.3856 233.913 88.6854 233.008 89.9852C232.102 91.285 231.65 93.018 231.65 95.1844C231.65 97.3507 232.102 98.6505 233.008 100.384C233.913 101.683 235.271 102.983 236.629 103.85C237.987 104.716 239.797 105.149 242.06 105.149C243.871 104.716 246.134 103.85 247.944 102.55Z" fill="white"/>
<path d="M268.313 106.016C266.503 103.85 265.598 101.25 265.598 98.2173V80.8867H271.029V98.2173C271.029 102.55 273.292 104.716 277.819 104.716C281.892 104.716 285.061 102.983 287.324 99.5171V80.8867H293.661V108.182H287.776V104.283C286.419 106.016 285.061 106.883 282.798 107.749C280.987 108.616 279.177 109.049 276.913 109.049C272.84 109.049 270.124 108.182 268.313 106.016Z" fill="white"/>
<path d="M305.429 108.182C303.166 107.749 301.355 106.883 300.45 106.449V101.683C301.808 102.55 303.619 103.417 305.882 103.85C307.692 104.283 309.955 104.716 311.766 104.716C314.029 104.716 315.387 104.283 316.292 103.85C317.197 103.417 317.65 102.55 317.65 101.25C317.65 100.384 317.197 99.9504 316.745 99.0838C316.292 98.6506 315.387 98.2173 314.482 97.784C313.576 97.3508 311.766 96.9175 309.503 96.4842C307.24 95.6177 305.429 95.1844 304.071 94.3179C302.713 93.4514 301.808 93.0181 300.903 91.7183C300.45 90.8518 299.998 89.552 299.998 87.8189C299.998 85.2193 300.903 83.053 303.166 81.7532C305.429 80.4534 308.145 79.5869 311.766 79.5869C313.576 79.5869 315.387 79.5869 317.197 80.0202C319.008 80.4534 320.366 80.8867 321.724 81.32V86.0859C320.366 85.6526 319.008 84.7861 317.65 84.7861C316.292 84.7861 314.482 84.3528 312.671 84.3528C310.408 84.3528 309.05 84.7861 307.692 85.2194C306.787 85.6526 305.882 86.5191 305.882 87.8189C305.882 88.6855 306.334 89.1187 306.787 89.552C307.24 89.9853 308.145 90.4186 309.05 90.8518C309.955 91.2851 311.766 91.7183 314.029 92.1516C317.65 93.0181 319.913 94.3179 321.724 95.6177C323.082 96.9175 323.987 98.6506 323.987 100.817C323.987 102.983 323.082 105.15 320.818 106.449C318.555 107.749 315.84 108.616 311.766 108.616C309.803 108.616 307.252 108.531 305.429 108.182Z" fill="white"/>
<path d="M333.492 106.884C332.134 105.151 331.229 102.985 331.229 99.952V85.2209H326.703V80.8883H331.229V72.6562H337.113V80.8883H344.355V85.2209H337.113V99.5187C337.113 101.252 337.566 102.552 338.018 103.418C338.924 104.285 340.282 104.718 342.092 104.718C343.45 104.718 344.355 104.285 345.713 103.851V108.184C344.355 108.617 342.545 109.051 340.281 109.051C337.113 109.051 335.303 108.184 333.492 106.884Z" fill="white"/>
<path d="M351.596 80.8883H357.48V85.6542C358.838 83.9212 360.196 82.6214 362.459 81.7549C364.722 80.8883 366.985 80.4551 370.154 80.4551V84.7877C366.985 84.7877 364.269 85.221 362.459 86.0875C360.196 86.954 358.838 88.6871 357.933 90.4202V107.317H352.048V80.8883H351.596Z" fill="white"/>
<path d="M376.039 74.8216C375.586 73.955 375.133 73.0885 375.133 72.222C375.133 71.3554 375.586 70.4889 376.039 69.6224C376.491 69.1891 377.396 68.7559 378.754 68.7559C380.112 68.7559 380.565 69.1891 381.47 69.6224C382.375 70.0557 382.375 70.9222 382.375 72.222C382.375 73.5218 381.923 73.955 381.47 74.8216C380.565 75.2548 380.112 75.6881 378.754 75.6881C377.849 75.6881 376.944 75.2548 376.039 74.8216ZM375.586 80.8873H381.47V108.183H375.586V80.8873Z" fill="white"/>
<path d="M393.24 105.15C390.071 102.55 388.713 99.0838 388.713 94.3179C388.713 89.9853 390.071 86.5191 392.787 83.4863C395.503 80.8867 399.124 79.5869 404.103 79.5869C407.271 79.5869 409.987 80.0202 412.25 81.32C414.513 82.6198 416.324 84.3528 417.229 86.0859C418.587 88.2522 419.04 90.4185 419.04 93.4514V96.4842H394.145C394.145 99.0838 395.503 100.817 397.313 102.117C399.576 103.416 402.292 103.85 405.913 103.85C407.724 103.85 409.534 103.85 411.345 103.416C413.155 102.983 414.966 102.55 416.324 102.117V106.883C414.966 107.316 413.608 107.749 411.345 108.182C409.082 108.616 407.271 108.616 405.008 108.616C400.482 109.049 396.408 107.749 393.24 105.15ZM413.608 93.0181C413.608 90.4185 412.703 88.2522 410.892 86.9524C409.082 85.6526 406.819 84.7861 403.65 84.7861C400.482 84.7861 398.219 85.6526 396.408 86.9524C394.598 88.2522 393.692 90.4185 393.692 93.0181H413.608Z" fill="white"/>
<path d="M430.355 108.182C428.092 107.749 426.281 106.882 425.376 106.449V101.683C426.734 102.549 428.545 103.416 430.808 103.849C432.618 104.282 434.881 104.716 436.692 104.716C438.955 104.716 440.313 104.282 441.218 103.849C442.123 103.416 442.576 102.549 442.576 101.25C442.576 100.383 442.123 99.9497 441.671 99.0832C441.218 98.6499 440.313 98.2167 439.408 97.7834C438.502 97.3501 436.692 96.9169 434.429 96.4836C432.166 95.6171 430.355 95.1838 428.997 94.3173C427.639 93.4507 426.734 93.0175 425.829 91.7177C425.376 90.8512 424.924 89.5514 424.924 88.2516C424.924 85.652 425.829 83.4857 428.092 82.1859C430.355 80.8861 433.071 80.0195 436.692 80.0195C438.502 80.0195 440.313 80.0195 442.123 80.4528C443.934 80.8861 445.292 81.3193 446.65 81.7526V86.5185C445.292 86.0853 443.934 85.2187 442.576 85.2187C440.766 84.7854 439.408 84.7855 437.597 84.7855C435.334 84.7855 433.976 85.2187 432.618 85.652C431.713 86.0852 430.808 86.9518 430.808 88.2516C430.808 89.1181 431.26 89.5514 431.713 89.9846C432.166 90.4179 433.071 90.8512 433.976 91.2844C434.881 91.7177 436.692 92.1509 438.955 92.5842C442.576 93.4507 444.839 94.7505 446.65 96.0503C448.008 97.3501 448.913 99.0832 448.913 101.25C448.913 103.416 448.008 105.582 445.744 106.882C443.934 108.182 440.766 109.048 436.692 109.048C434.429 109.048 432.618 109.048 430.355 108.182Z" fill="white"/>
<path d="M180.051 54.4574C177.335 51.8578 175.978 47.9584 175.978 43.1925V20.2295H190.462V41.8927C190.462 46.2254 192.725 48.3917 196.798 48.3917C198.609 48.3917 200.419 47.9585 201.777 47.0919C203.135 46.2254 204.493 44.9256 205.398 43.1925V20.2295H219.883V57.9235H205.851V54.0242C204.041 55.7572 202.23 57.057 199.514 57.9235C197.251 58.7901 194.535 59.2233 191.82 59.2233C186.841 58.7901 182.767 57.4903 180.051 54.4574Z" fill="white"/>
<path d="M227.126 20.2308H241.157V24.1302C244.778 20.6641 249.305 19.3643 255.189 19.3643C259.263 19.3643 262.884 20.2308 266.052 21.9639C269.22 23.6969 271.484 25.8632 273.294 28.8961C275.105 31.9289 276.01 35.3951 276.01 39.2945C276.01 43.1938 275.105 46.66 273.294 49.6928C271.484 52.7257 269.22 55.3253 266.052 56.6251C262.884 57.9249 259.263 59.2246 255.189 59.2246C252.473 59.2246 250.21 58.7914 247.494 57.9248C245.231 57.0583 242.968 56.1918 241.61 54.892V75.2554H227.126C227.126 74.8222 227.126 20.2308 227.126 20.2308ZM258.357 45.7934C260.168 44.0604 261.073 41.894 261.073 38.8612C261.073 35.8283 260.168 33.662 258.357 31.9289C256.547 30.1959 254.284 29.3293 251.115 29.3293C248.852 29.3293 247.042 29.7626 245.231 31.0624C243.421 32.3622 242.063 33.662 241.61 35.3951V41.894C242.515 43.6271 243.421 45.3602 245.231 46.2267C247.042 47.5265 248.852 47.9598 251.115 47.9598C254.284 47.9598 256.547 47.5265 258.357 45.7934Z" fill="white"/>
<path d="M285.059 54.8919C282.796 52.2923 281.438 48.8262 281.438 44.0603V29.3293H275.554V20.2307H280.986V8.96582H295.47V20.2307H304.522V29.7625H295.47V42.7605C295.47 44.9268 295.922 46.2266 296.828 47.0931C297.733 47.9597 299.091 48.3929 300.901 48.3929C302.712 48.3929 304.522 47.9597 306.333 47.0931V57.4915C304.975 57.9247 303.617 58.7913 301.807 58.7913C299.996 59.2246 298.186 59.2246 295.922 59.2246C290.944 58.7913 287.323 57.4915 285.059 54.8919Z" fill="white"/>
<path d="M312.673 12.8645C311.315 11.5647 310.41 9.83162 310.41 7.6653C310.41 5.49897 311.315 3.76592 312.673 2.46613C314.031 1.16633 315.842 0.299805 318.105 0.299805C320.368 0.299805 322.178 1.16633 323.536 2.46613C324.894 3.76592 325.799 5.49897 325.799 7.6653C325.799 9.83162 324.894 11.5647 323.536 12.8645C322.178 14.1643 320.368 15.0308 318.105 15.0308C316.294 15.0308 314.484 14.1643 312.673 12.8645ZM311.315 20.23H325.347V57.924H310.863V20.23H311.315Z" fill="white"/>
<path d="M333.492 20.2305H347.071V24.1298C348.881 22.3968 350.692 21.097 352.955 20.2305C355.218 19.3639 357.481 18.9307 359.744 18.9307C362.46 18.9307 365.176 19.3639 366.986 20.2305C368.797 21.097 370.155 22.3968 371.513 24.1298C373.323 22.3968 375.134 21.5303 377.397 20.2305C379.66 19.3639 381.923 18.9307 384.639 18.9307C389.618 18.9307 393.691 20.2304 395.954 22.83C398.218 25.4296 399.123 28.8957 399.123 33.6617V57.9245H384.186V35.828C384.186 33.6617 383.733 32.3619 382.828 31.0621C381.923 30.1955 380.565 29.7623 378.755 29.7623C376.491 29.7623 374.228 30.6288 372.87 32.3619C372.87 33.2284 372.87 34.5282 372.87 36.2613V57.9245H359.292V35.3947C359.292 33.6617 358.839 31.9286 358.386 31.0621C357.481 30.1955 356.576 29.7623 354.765 29.7623C352.049 29.7623 349.786 31.0621 347.523 34.0949V57.9245H333.492V20.2305Z" fill="white"/>
<path d="M409.988 53.5906C405.462 50.1244 403.199 45.3585 403.199 38.8595C403.199 32.7938 405.009 27.5947 409.083 24.1286C413.157 20.6624 418.588 18.4961 425.83 18.4961C430.357 18.4961 434.43 19.3626 438.051 21.0957C441.22 22.8288 443.936 24.9951 445.746 28.0279C447.557 31.0608 448.462 34.5269 448.462 37.993V43.1922H417.23C417.683 45.3585 419.041 46.6583 421.304 47.9581C423.567 49.2579 426.283 49.2579 430.357 49.2579C433.072 49.2579 435.788 48.8246 438.504 48.8246C441.22 48.3914 443.483 47.9581 445.293 47.0916V56.1901C443.483 57.0567 440.767 57.4899 437.599 57.9232C434.43 58.3565 431.262 58.7897 428.094 58.7897C420.399 58.7897 414.515 57.0567 409.988 53.5906ZM434.883 34.9602C434.43 32.7938 433.978 31.494 432.167 30.1942C430.809 28.8945 428.546 28.4612 425.83 28.4612C423.115 28.4612 421.304 28.8945 419.494 30.1942C417.683 31.494 417.23 32.7938 416.778 34.9602C417.23 34.9602 434.883 34.9602 434.883 34.9602Z" fill="white"/>
</g>
<defs>
<clipPath id="clip0_407_7673">
<rect width="450" height="110.695" fill="white" transform="translate(0 0.695312)"/>
</clipPath>
</defs>
</svg>
