<svg width="450" height="112" viewBox="0 0 450 112" fill="none" xmlns="http://www.w3.org/2000/svg">
<g clip-path="url(#clip0_407_7675)">
<path d="M82.9358 50.4441L102.981 28.0645H82.9358V50.4441Z" fill="#CCFF3D"/>
<path d="M0 2.79688V107.717H150.838V2.79688H0ZM121.021 26.1391L82.9358 68.7327V78.1177V88.9466C82.9358 92.3156 80.1797 94.9627 76.6718 94.9627H37.3337C34.828 94.9627 32.8235 93.5188 31.8213 91.5937C30.8191 89.4279 31.0696 87.0215 32.8235 85.337L63.8932 50.6846C63.8932 50.6846 63.8932 68.4921 63.8932 68.7327L50.864 83.1712H70.6583V78.1177V22.2889C70.6583 18.9199 73.4145 16.2728 76.9224 16.2728H116.511C119.017 16.2728 121.021 17.7167 122.023 19.6418C123.026 21.8076 122.525 24.214 121.021 26.1391Z" fill="#CCFF3D"/>
<path d="M176.883 74.5169C176.43 73.6503 175.978 72.7838 175.978 71.9173C175.978 71.0508 176.43 70.1842 176.883 69.3177C177.335 68.8844 178.241 68.4512 179.599 68.4512C180.956 68.4512 181.409 68.8844 182.314 69.3177C183.22 69.751 183.22 70.6175 183.22 71.9173C183.22 73.2171 182.767 73.6503 182.314 74.5169C181.862 75.3834 180.504 75.3834 179.599 75.3834C178.693 75.3834 177.788 74.9501 176.883 74.5169ZM176.43 80.5826H182.314V107.878H176.43V80.5826Z" fill="#CCFF3D"/>
<path d="M190.914 80.5814H196.798V84.4808C198.156 82.7477 199.967 81.4479 201.777 81.0146C203.588 80.1481 205.851 79.7148 208.114 79.7148C211.735 79.7148 214.904 80.5814 216.714 82.7477C218.525 84.4808 219.43 87.0804 219.43 90.5465V107.877H213.093V90.9797C213.093 86.6471 210.83 84.4808 206.304 84.4808C204.493 84.4808 202.683 84.914 200.872 85.7805C199.062 86.6471 197.704 87.9469 196.798 89.6799V107.877H190.914V80.5814Z" fill="#CCFF3D"/>
<path d="M232.555 107.011C230.292 105.711 228.481 103.978 227.124 101.812C225.766 99.6456 225.313 97.046 225.313 94.4464C225.313 91.8468 225.766 89.2472 227.124 87.0809C228.481 84.9146 230.292 83.1815 232.555 81.8817C234.818 80.5819 237.534 80.1487 240.25 80.1487C245.229 80.1487 249.302 81.4485 252.018 84.4813V66.2842H257.902V108.311H252.018V104.411C250.66 106.145 248.85 107.444 247.039 107.878C245.229 108.744 242.06 109.466 240.25 109.177C237.534 108.744 234.818 108.311 232.555 107.011ZM247.944 102.245C249.755 100.945 251.113 99.2123 252.018 97.4793V91.4135C251.565 89.2472 250.208 87.5142 248.397 86.6476C246.587 85.3478 244.323 84.9146 242.06 84.9146C240.25 84.9146 238.439 85.3478 236.629 86.2144C235.271 87.0809 233.913 88.3807 233.008 89.6805C232.102 90.9803 231.65 92.7134 231.65 94.8797C231.65 97.046 232.102 98.3458 233.008 100.079C233.913 101.379 235.271 102.678 236.629 103.545C237.987 104.412 239.797 104.845 242.06 104.845C243.871 104.411 246.134 103.545 247.944 102.245Z" fill="#CCFF3D"/>
<path d="M268.313 105.711C266.503 103.545 265.598 100.945 265.598 97.9126V80.582H271.029V97.9126C271.029 102.245 273.292 104.412 277.819 104.412C281.892 104.412 285.061 102.679 287.324 99.2124V80.582H293.661V107.878H287.776V103.978C286.419 105.711 285.061 106.578 282.798 107.444C280.987 108.311 279.177 108.744 276.913 108.744C272.84 108.744 270.124 107.878 268.313 105.711Z" fill="#CCFF3D"/>
<path d="M305.429 107.878C303.166 107.444 301.355 106.578 300.45 106.145V101.379C301.808 102.245 303.619 103.112 305.882 103.545C307.692 103.978 309.955 104.412 311.766 104.412C314.029 104.412 315.387 103.978 316.292 103.545C317.197 103.112 317.65 102.245 317.65 100.945C317.65 100.079 317.197 99.6457 316.745 98.7791C316.292 98.3459 315.387 97.9126 314.482 97.4794C313.576 97.0461 311.766 96.6128 309.503 96.1796C307.24 95.313 305.429 94.8798 304.071 94.0132C302.713 93.1467 301.808 92.7134 300.903 91.4136C300.45 90.5471 299.998 89.2473 299.998 87.5143C299.998 84.9147 300.903 82.7483 303.166 81.4485C305.429 80.1487 308.145 79.2822 311.766 79.2822C313.576 79.2822 315.387 79.2822 317.197 79.7155C319.008 80.1488 320.366 80.582 321.724 81.0153V85.7812C320.366 85.3479 319.008 84.4814 317.65 84.4814C316.292 84.4814 314.482 84.0482 312.671 84.0482C310.408 84.0482 309.05 84.4814 307.692 84.9147C306.787 85.3479 305.882 86.2145 305.882 87.5143C305.882 88.3808 306.334 88.8141 306.787 89.2473C307.24 89.6806 308.145 90.1139 309.05 90.5471C309.955 90.9804 311.766 91.4136 314.029 91.8469C317.65 92.7134 319.913 94.0132 321.724 95.313C323.082 96.6128 323.987 98.3459 323.987 100.512C323.987 102.679 323.082 104.845 320.818 106.145C318.555 107.444 315.84 108.311 311.766 108.311C309.803 108.311 307.252 108.227 305.429 107.878Z" fill="#CCFF3D"/>
<path d="M333.492 106.58C332.134 104.846 331.229 102.68 331.229 99.6473V84.9163H326.703V80.5836H331.229V72.3516H337.113V80.5836H344.355V84.9163H337.113V99.214C337.113 100.947 337.566 102.247 338.018 103.113C338.924 103.98 340.282 104.413 342.092 104.413C343.45 104.413 344.355 103.98 345.713 103.547V107.879C344.355 108.313 342.545 108.746 340.281 108.746C337.113 108.746 335.303 107.879 333.492 106.58Z" fill="#CCFF3D"/>
<path d="M351.596 80.5836H357.48V85.3496C358.838 83.6165 360.196 82.3167 362.459 81.4502C364.722 80.5836 366.985 80.1504 370.154 80.1504V84.483C366.985 84.483 364.269 84.9163 362.459 85.7828C360.196 86.6493 358.838 88.3824 357.933 90.1155V107.013H352.048V80.5836H351.596Z" fill="#CCFF3D"/>
<path d="M376.039 74.5169C375.586 73.6503 375.133 72.7838 375.133 71.9173C375.133 71.0508 375.586 70.1842 376.039 69.3177C376.491 68.8844 377.396 68.4512 378.754 68.4512C380.112 68.4512 380.565 68.8844 381.47 69.3177C382.375 69.751 382.375 70.6175 382.375 71.9173C382.375 73.2171 381.923 73.6503 381.47 74.5169C380.565 74.9501 380.112 75.3834 378.754 75.3834C377.849 75.3834 376.944 74.9501 376.039 74.5169ZM375.586 80.5826H381.47V107.878H375.586V80.5826Z" fill="#CCFF3D"/>
<path d="M393.24 104.845C390.071 102.245 388.713 98.7791 388.713 94.0132C388.713 89.6806 390.071 86.2145 392.787 83.1816C395.503 80.582 399.124 79.2822 404.103 79.2822C407.271 79.2822 409.987 79.7155 412.25 81.0153C414.513 82.3151 416.324 84.0481 417.229 85.7812C418.587 87.9475 419.04 90.1139 419.04 93.1467V96.1796H394.145C394.145 98.7791 395.503 100.512 397.313 101.812C399.576 103.112 402.292 103.545 405.913 103.545C407.724 103.545 409.534 103.545 411.345 103.112C413.155 102.679 414.966 102.245 416.324 101.812V106.578C414.966 107.011 413.608 107.444 411.345 107.878C409.082 108.311 407.271 108.311 405.008 108.311C400.482 108.744 396.408 107.444 393.24 104.845ZM413.608 92.7135C413.608 90.1139 412.703 87.9475 410.892 86.6477C409.082 85.3479 406.819 84.4814 403.65 84.4814C400.482 84.4814 398.219 85.3479 396.408 86.6477C394.598 87.9475 393.692 90.1139 393.692 92.7135H413.608Z" fill="#CCFF3D"/>
<path d="M430.355 107.877C428.092 107.444 426.281 106.577 425.376 106.144V101.378C426.734 102.245 428.545 103.111 430.808 103.544C432.618 103.978 434.881 104.411 436.692 104.411C438.955 104.411 440.313 103.978 441.218 103.544C442.123 103.111 442.576 102.245 442.576 100.945C442.576 100.078 442.123 99.645 441.671 98.7785C441.218 98.3452 440.313 97.912 439.408 97.4787C438.502 97.0455 436.692 96.6122 434.429 96.1789C432.166 95.3124 430.355 94.8791 428.997 94.0126C427.639 93.1461 426.734 92.7128 425.829 91.413C425.376 90.5465 424.924 89.2467 424.924 87.9469C424.924 85.3473 425.829 83.181 428.092 81.8812C430.355 80.5814 433.071 79.7148 436.692 79.7148C438.502 79.7148 440.313 79.7149 442.123 80.1481C443.934 80.5814 445.292 81.0146 446.65 81.4479V86.2138C445.292 85.7806 443.934 84.914 442.576 84.914C440.766 84.4808 439.408 84.4808 437.597 84.4808C435.334 84.4808 433.976 84.914 432.618 85.3473C431.713 85.7806 430.808 86.6471 430.808 87.9469C430.808 88.8134 431.26 89.2467 431.713 89.6799C432.166 90.1132 433.071 90.5465 433.976 90.9797C434.881 91.413 436.692 91.8463 438.955 92.2795C442.576 93.146 444.839 94.4459 446.65 95.7457C448.008 97.0454 448.913 98.7785 448.913 100.945C448.913 103.111 448.008 105.277 445.744 106.577C443.934 107.877 440.766 108.744 436.692 108.744C434.429 108.744 432.618 108.744 430.355 107.877Z" fill="#CCFF3D"/>
<path d="M180.051 54.1527C177.335 51.5532 175.978 47.6538 175.978 42.8878V19.9248H190.462V41.5881C190.462 45.9207 192.725 48.087 196.798 48.087C198.609 48.087 200.419 47.6538 201.777 46.7872C203.135 45.9207 204.493 44.6209 205.398 42.8878V19.9248H219.883V57.6189H205.851V53.7195C204.041 55.4525 202.23 56.7523 199.514 57.6189C197.251 58.4854 194.535 58.9187 191.82 58.9187C186.841 58.4854 182.767 57.1856 180.051 54.1527Z" fill="#CCFF3D"/>
<path d="M227.126 19.9261H241.157V23.8255C244.778 20.3594 249.305 19.0596 255.189 19.0596C259.263 19.0596 262.884 19.9261 266.052 21.6592C269.22 23.3922 271.484 25.5585 273.294 28.5914C275.105 31.6243 276.01 35.0904 276.01 38.9898C276.01 42.8892 275.105 46.3553 273.294 49.3881C271.484 52.421 269.22 55.0206 266.052 56.3204C262.884 57.6202 259.263 58.92 255.189 58.92C252.473 58.92 250.21 58.4867 247.494 57.6202C245.231 56.7536 242.968 55.8871 241.61 54.5873V74.9508H227.126C227.126 74.5175 227.126 19.9261 227.126 19.9261ZM258.357 45.4887C260.168 43.7557 261.073 41.5893 261.073 38.5565C261.073 35.5236 260.168 33.3573 258.357 31.6243C256.547 29.8912 254.284 29.0247 251.115 29.0247C248.852 29.0247 247.042 29.4579 245.231 30.7577C243.421 32.0575 242.063 33.3573 241.61 35.0904V41.5894C242.515 43.3224 243.421 45.0555 245.231 45.922C247.042 47.2218 248.852 47.6551 251.115 47.6551C254.284 47.6551 256.547 47.2218 258.357 45.4887Z" fill="#CCFF3D"/>
<path d="M285.059 54.5872C282.796 51.9876 281.438 48.5215 281.438 43.7556V29.0246H275.554V19.926H280.986V8.66113H295.47V19.926H304.522V29.4578H295.47V42.4558C295.47 44.6221 295.922 45.9219 296.828 46.7884C297.733 47.655 299.091 48.0882 300.901 48.0882C302.712 48.0882 304.522 47.655 306.333 46.7884V57.1868C304.975 57.6201 303.617 58.4866 301.807 58.4866C299.996 58.9199 298.186 58.9199 295.922 58.9199C290.944 58.4866 287.323 57.1868 285.059 54.5872Z" fill="#CCFF3D"/>
<path d="M312.673 12.5598C311.315 11.26 310.41 9.52693 310.41 7.36061C310.41 5.19428 311.315 3.46124 312.673 2.16144C314.031 0.861647 315.842 -0.00488281 318.105 -0.00488281C320.368 -0.00488281 322.178 0.861647 323.536 2.16144C324.894 3.46124 325.799 5.19428 325.799 7.36061C325.799 9.52693 324.894 11.26 323.536 12.5598C322.178 13.8596 320.368 14.7261 318.105 14.7261C316.294 14.7261 314.484 13.8596 312.673 12.5598ZM311.315 19.9253H325.347V57.6194H310.863V19.9253H311.315Z" fill="#CCFF3D"/>
<path d="M333.492 19.9258H347.071V23.8252C348.881 22.0921 350.692 20.7923 352.955 19.9258C355.218 19.0592 357.481 18.626 359.744 18.626C362.46 18.626 365.176 19.0592 366.986 19.9258C368.797 20.7923 370.155 22.0921 371.513 23.8252C373.323 22.0921 375.134 21.2256 377.397 19.9258C379.66 19.0592 381.923 18.626 384.639 18.626C389.618 18.626 393.691 19.9258 395.954 22.5254C398.218 25.1249 399.123 28.5911 399.123 33.357V57.6198H384.186V35.5233C384.186 33.357 383.733 32.0572 382.828 30.7574C381.923 29.8909 380.565 29.4576 378.755 29.4576C376.491 29.4576 374.228 30.3241 372.87 32.0572C372.87 32.9237 372.87 34.2235 372.87 35.9566V57.6198H359.292V35.09C359.292 33.357 358.839 31.6239 358.386 30.7574C357.481 29.8909 356.576 29.4576 354.765 29.4576C352.049 29.4576 349.786 30.7574 347.523 33.7902V57.6198H333.492V19.9258Z" fill="#CCFF3D"/>
<path d="M409.988 53.2859C405.462 49.8198 403.199 45.0538 403.199 38.5549C403.199 32.4892 405.009 27.29 409.083 23.8239C413.157 20.3577 418.588 18.1914 425.83 18.1914C430.357 18.1914 434.43 19.0579 438.051 20.791C441.22 22.5241 443.936 24.6904 445.746 27.7232C447.557 30.7561 448.462 34.2222 448.462 37.6883V42.8875H417.23C417.683 45.0538 419.041 46.3536 421.304 47.6534C423.567 48.9532 426.283 48.9532 430.357 48.9532C433.072 48.9532 435.788 48.5199 438.504 48.5199C441.22 48.0867 443.483 47.6534 445.293 46.7869V55.8855C443.483 56.752 440.767 57.1853 437.599 57.6185C434.43 58.0518 431.262 58.4851 428.094 58.4851C420.399 58.4851 414.515 56.752 409.988 53.2859ZM434.883 34.6555C434.43 32.4892 433.978 31.1894 432.167 29.8896C430.809 28.5898 428.546 28.1565 425.83 28.1565C423.115 28.1565 421.304 28.5898 419.494 29.8896C417.683 31.1894 417.23 32.4892 416.778 34.6555C417.23 34.6555 434.883 34.6555 434.883 34.6555Z" fill="#CCFF3D"/>
</g>
<defs>
<clipPath id="clip0_407_7675">
<rect width="450" height="110.695" fill="white" transform="translate(0 0.390625)"/>
</clipPath>
</defs>
</svg>
