<svg width="1020" height="432" viewBox="0 0 1020 432" fill="none" xmlns="http://www.w3.org/2000/svg">
<rect width="1020" height="432" fill="#F2F2F2"/>
<mask id="path-1-inside-1_4_1039" fill="white">
<path d="M990 402H1020V432H990V402Z"/>
</mask>
<path d="M1017 402V432H1023V402H1017Z" fill="black" mask="url(#path-1-inside-1_4_1039)"/>
<mask id="path-3-inside-2_4_1039" fill="white">
<path d="M990 402H1020V432H990V402Z"/>
</mask>
<path d="M1020 429H990V435H1020V429Z" fill="black" mask="url(#path-3-inside-2_4_1039)"/>
<mask id="path-5-inside-3_4_1039" fill="white">
<path d="M0 0H30V30H0V0Z"/>
</mask>
<path d="M3 30V0H-3V30H3Z" fill="black" mask="url(#path-5-inside-3_4_1039)"/>
<mask id="path-7-inside-4_4_1039" fill="white">
<path d="M0 0H30V30H0V0Z"/>
</mask>
<path d="M0 3H30V-3H0V3Z" fill="black" mask="url(#path-7-inside-4_4_1039)"/>
<mask id="path-9-inside-5_4_1039" fill="white">
<path d="M990 0H1020V30H990V0Z"/>
</mask>
<path d="M1017 0V30H1023V0H1017Z" fill="black" mask="url(#path-9-inside-5_4_1039)"/>
<mask id="path-11-inside-6_4_1039" fill="white">
<path d="M990 0H1020V30H990V0Z"/>
</mask>
<path d="M990 3H1020V-3H990V3Z" fill="black" mask="url(#path-11-inside-6_4_1039)"/>
<mask id="path-13-inside-7_4_1039" fill="white">
<path d="M0 402H30V432H0V402Z"/>
</mask>
<path d="M3 432V402H-3V432H3Z" fill="black" mask="url(#path-13-inside-7_4_1039)"/>
<mask id="path-15-inside-8_4_1039" fill="white">
<path d="M0 402H30V432H0V402Z"/>
</mask>
<path d="M30 429H0V435H30V429Z" fill="black" mask="url(#path-15-inside-8_4_1039)"/>
<rect width="201" height="55" transform="translate(583 48)" fill="#050505"/>
<path d="M605.944 88.36C604.264 88.36 602.788 88.048 601.516 87.424C600.268 86.776 599.296 85.876 598.6 84.724C597.928 83.548 597.592 82.168 597.592 80.584V69.136C597.592 67.528 597.928 66.148 598.6 64.996C599.296 63.844 600.268 62.956 601.516 62.332C602.788 61.684 604.264 61.36 605.944 61.36C607.648 61.36 609.112 61.684 610.336 62.332C611.584 62.956 612.556 63.844 613.252 64.996C613.948 66.148 614.296 67.528 614.296 69.136H609.76C609.76 67.888 609.424 66.94 608.752 66.292C608.104 65.644 607.168 65.32 605.944 65.32C604.72 65.32 603.772 65.644 603.1 66.292C602.428 66.94 602.092 67.876 602.092 69.1V80.584C602.092 81.808 602.428 82.756 603.1 83.428C603.772 84.1 604.72 84.436 605.944 84.436C607.168 84.436 608.104 84.1 608.752 83.428C609.424 82.756 609.76 81.808 609.76 80.584V77.92H605.296V74.032H614.296V80.584C614.296 82.168 613.948 83.548 613.252 84.724C612.556 85.876 611.584 86.776 610.336 87.424C609.112 88.048 607.648 88.36 605.944 88.36ZM619.178 88V61.72H624.686L631.994 82.96C631.922 82.192 631.838 81.292 631.742 80.26C631.67 79.204 631.61 78.136 631.562 77.056C631.514 75.952 631.49 74.992 631.49 74.176V61.72H635.594V88H630.086L622.85 66.76C622.898 67.456 622.958 68.296 623.03 69.28C623.102 70.264 623.162 71.272 623.21 72.304C623.258 73.336 623.282 74.284 623.282 75.148V88H619.178ZM640.872 88V61.72H648.684C650.46 61.72 651.996 62.056 653.292 62.728C654.612 63.4 655.632 64.348 656.352 65.572C657.072 66.796 657.432 68.248 657.432 69.928V79.756C657.432 81.412 657.072 82.864 656.352 84.112C655.632 85.336 654.612 86.296 653.292 86.992C651.996 87.664 650.46 88 648.684 88H640.872ZM645.372 83.86H648.684C649.98 83.86 651.012 83.5 651.78 82.78C652.548 82.036 652.932 81.028 652.932 79.756V69.928C652.932 68.68 652.548 67.696 651.78 66.976C651.012 66.232 649.98 65.86 648.684 65.86H645.372V83.86Z" fill="white"/>
<rect width="201" height="55" transform="translate(235 47.6997)" fill="#FFA41B"/>
<path d="M257.944 88.0597C256.264 88.0597 254.788 87.7477 253.516 87.1237C252.268 86.4757 251.296 85.5757 250.6 84.4237C249.928 83.2477 249.592 81.8677 249.592 80.2837V68.8357C249.592 67.2277 249.928 65.8477 250.6 64.6957C251.296 63.5437 252.268 62.6557 253.516 62.0317C254.788 61.3837 256.264 61.0597 257.944 61.0597C259.648 61.0597 261.112 61.3837 262.336 62.0317C263.584 62.6557 264.556 63.5437 265.252 64.6957C265.948 65.8477 266.296 67.2277 266.296 68.8357H261.76C261.76 67.5877 261.424 66.6397 260.752 65.9917C260.104 65.3437 259.168 65.0197 257.944 65.0197C256.72 65.0197 255.772 65.3437 255.1 65.9917C254.428 66.6397 254.092 67.5757 254.092 68.7997V80.2837C254.092 81.5077 254.428 82.4557 255.1 83.1277C255.772 83.7997 256.72 84.1357 257.944 84.1357C259.168 84.1357 260.104 83.7997 260.752 83.1277C261.424 82.4557 261.76 81.5077 261.76 80.2837V77.6197H257.296V73.7317H266.296V80.2837C266.296 81.8677 265.948 83.2477 265.252 84.4237C264.556 85.5757 263.584 86.4757 262.336 87.1237C261.112 87.7477 259.648 88.0597 257.944 88.0597ZM271.358 87.6997V61.4197H280.106C281.858 61.4197 283.382 61.7557 284.678 62.4277C285.998 63.0997 287.018 64.0477 287.738 65.2717C288.458 66.4717 288.818 67.8877 288.818 69.5197C288.818 71.1277 288.446 72.5437 287.702 73.7677C286.982 74.9917 285.974 75.9397 284.678 76.6117C283.382 77.2837 281.858 77.6197 280.106 77.6197H275.858V87.6997H271.358ZM275.858 73.5517H280.106C281.354 73.5517 282.35 73.1917 283.094 72.4717C283.862 71.7277 284.246 70.7437 284.246 69.5197C284.246 68.2717 283.862 67.2877 283.094 66.5677C282.35 65.8477 281.354 65.4877 280.106 65.4877H275.858V73.5517ZM293.412 87.6997V83.7397H298.704V65.3797H293.412V61.4197H308.532V65.3797H303.24V83.7397H308.532V87.6997H293.412ZM322.558 88.0597C320.878 88.0597 319.414 87.7477 318.166 87.1237C316.942 86.4757 315.994 85.5757 315.322 84.4237C314.674 83.2477 314.35 81.8677 314.35 80.2837V68.8357C314.35 67.2517 314.674 65.8837 315.322 64.7317C315.994 63.5557 316.942 62.6557 318.166 62.0317C319.414 61.3837 320.878 61.0597 322.558 61.0597C324.262 61.0597 325.726 61.3837 326.95 62.0317C328.174 62.6557 329.11 63.5557 329.758 64.7317C330.43 65.8837 330.766 67.2397 330.766 68.7997V80.2837C330.766 81.8677 330.43 83.2477 329.758 84.4237C329.11 85.5757 328.174 86.4757 326.95 87.1237C325.726 87.7477 324.262 88.0597 322.558 88.0597ZM322.558 84.0997C323.782 84.0997 324.706 83.7757 325.33 83.1277C325.954 82.4557 326.266 81.5077 326.266 80.2837V68.8357C326.266 67.5877 325.954 66.6397 325.33 65.9917C324.706 65.3437 323.782 65.0197 322.558 65.0197C321.334 65.0197 320.41 65.3437 319.786 65.9917C319.162 66.6397 318.85 67.5877 318.85 68.8357V80.2837C318.85 81.5077 319.162 82.4557 319.786 83.1277C320.434 83.7757 321.358 84.0997 322.558 84.0997ZM357.954 87.6997V83.7397H364.794V65.4157L357.918 70.5277V65.7757L363.966 61.4197H369.294V83.7397H374.802V87.6997H357.954ZM387.28 88.0597C384.856 88.0597 382.912 87.4597 381.448 86.2597C379.984 85.0357 379.18 83.3797 379.036 81.2917H383.536C383.632 82.2037 383.992 82.9117 384.616 83.4157C385.264 83.8957 386.152 84.1357 387.28 84.1357C388.528 84.1357 389.476 83.8117 390.124 83.1637C390.772 82.4917 391.096 81.5677 391.096 80.3917V77.8357C391.096 76.6357 390.772 75.7237 390.124 75.0997C389.476 74.4517 388.528 74.1277 387.28 74.1277C386.512 74.1277 385.852 74.2837 385.3 74.5957C384.748 74.9077 384.328 75.3397 384.04 75.8917H379.648L379.828 61.4197H394.624V65.4877H384.076L384.004 73.1197H385.048L383.968 74.0197C383.968 72.9157 384.4 72.0517 385.264 71.4277C386.152 70.7797 387.34 70.4557 388.828 70.4557C390.964 70.4317 392.62 71.0797 393.796 72.3997C394.996 73.6957 395.596 75.5077 395.596 77.8357V80.3917C395.596 82.7677 394.852 84.6397 393.364 86.0077C391.9 87.3757 389.872 88.0597 387.28 88.0597Z" fill="white"/>
<rect width="201" height="55" transform="translate(34 47.6997)" fill="#6CD129"/>
<path d="M56.8 88.0597C54.232 88.0597 52.216 87.3637 50.752 85.9717C49.312 84.5557 48.592 82.6357 48.592 80.2117V61.4197H53.128V80.1757C53.128 81.4237 53.44 82.3957 54.064 83.0917C54.688 83.7877 55.6 84.1357 56.8 84.1357C57.976 84.1357 58.876 83.7877 59.5 83.0917C60.148 82.3957 60.472 81.4237 60.472 80.1757V61.4197H65.008V80.2117C65.008 82.6357 64.288 84.5557 62.848 85.9717C61.408 87.3637 59.392 88.0597 56.8 88.0597ZM68.8459 87.6997L75.4699 61.4197H81.2659L87.9259 87.6997H83.3179L81.8779 81.3277H74.8939L73.4539 87.6997H68.8459ZM75.7219 77.6557H81.0499L79.4659 70.5997C79.2019 69.4237 78.9739 68.3677 78.7819 67.4317C78.5899 66.4717 78.4579 65.7757 78.3859 65.3437C78.3139 65.7757 78.1819 66.4717 77.9899 67.4317C77.8219 68.3677 77.5939 69.4117 77.3059 70.5637L75.7219 77.6557ZM91.9079 87.6997V61.4197H100.224C101.976 61.4197 103.488 61.7437 104.76 62.3917C106.056 63.0397 107.064 63.9517 107.784 65.1277C108.504 66.2797 108.864 67.6477 108.864 69.2317C108.864 70.9597 108.42 72.4837 107.532 73.8037C106.668 75.1237 105.492 76.0597 104.004 76.6117L109.224 87.6997H104.184L99.6119 77.2597H96.4079V87.6997H91.9079ZM96.4079 73.2997H100.224C101.496 73.2997 102.492 72.9517 103.212 72.2557C103.932 71.5597 104.292 70.5997 104.292 69.3757C104.292 68.1277 103.932 67.1557 103.212 66.4597C102.492 65.7397 101.496 65.3797 100.224 65.3797H96.4079V73.2997ZM119.29 87.6997V65.5957H112.414V61.4197H130.702V65.5957H123.826V87.6997H119.29ZM143.144 88.0597C141.44 88.0597 139.964 87.7357 138.716 87.0877C137.468 86.4397 136.496 85.5277 135.8 84.3517C135.128 83.1757 134.792 81.7957 134.792 80.2117V68.9077C134.792 67.3237 135.128 65.9437 135.8 64.7677C136.496 63.5917 137.468 62.6797 138.716 62.0317C139.964 61.3837 141.44 61.0597 143.144 61.0597C144.872 61.0597 146.348 61.3837 147.572 62.0317C148.82 62.6797 149.78 63.5917 150.452 64.7677C151.148 65.9437 151.496 67.3237 151.496 68.9077V80.2117C151.496 81.7957 151.148 83.1757 150.452 84.3517C149.78 85.5277 148.82 86.4397 147.572 87.0877C146.324 87.7357 144.848 88.0597 143.144 88.0597ZM143.144 84.1717C144.392 84.1717 145.388 83.8117 146.132 83.0917C146.876 82.3717 147.248 81.4117 147.248 80.2117V68.9077C147.248 67.7077 146.876 66.7477 146.132 66.0277C145.388 65.3077 144.392 64.9477 143.144 64.9477C141.896 64.9477 140.9 65.3077 140.156 66.0277C139.412 66.7477 139.04 67.7077 139.04 68.9077V80.2117C139.04 81.4117 139.412 82.3717 140.156 83.0917C140.9 83.8117 141.896 84.1717 143.144 84.1717ZM143.144 76.8997C142.448 76.8997 141.872 76.6717 141.416 76.2157C140.984 75.7597 140.768 75.1717 140.768 74.4517C140.768 73.7317 140.984 73.1557 141.416 72.7237C141.848 72.2917 142.424 72.0757 143.144 72.0757C143.864 72.0757 144.44 72.2917 144.872 72.7237C145.304 73.1557 145.52 73.7317 145.52 74.4517C145.52 75.1717 145.304 75.7597 144.872 76.2157C144.44 76.6717 143.864 76.8997 143.144 76.8997ZM178.252 87.6997V61.4197H186.568C188.32 61.4197 189.832 61.7437 191.104 62.3917C192.4 63.0397 193.408 63.9517 194.128 65.1277C194.848 66.2797 195.208 67.6477 195.208 69.2317C195.208 70.9597 194.764 72.4837 193.876 73.8037C193.012 75.1237 191.836 76.0597 190.348 76.6117L195.568 87.6997H190.528L185.956 77.2597H182.752V87.6997H178.252ZM182.752 73.2997H186.568C187.84 73.2997 188.836 72.9517 189.556 72.2557C190.276 71.5597 190.636 70.5997 190.636 69.3757C190.636 68.1277 190.276 67.1557 189.556 66.4597C188.836 65.7397 187.84 65.3797 186.568 65.3797H182.752V73.2997ZM198.11 87.6997L205.382 74.2357L198.542 61.4197H203.582L206.894 68.0077C207.134 68.4877 207.35 68.9557 207.542 69.4117C207.734 69.8437 207.878 70.1797 207.974 70.4197C208.046 70.1797 208.178 69.8437 208.37 69.4117C208.562 68.9557 208.778 68.4877 209.018 68.0077L212.366 61.4197H217.262L210.422 74.1277L217.694 87.6997H212.654L208.946 80.4277C208.706 79.9477 208.478 79.4797 208.262 79.0237C208.07 78.5677 207.926 78.2077 207.83 77.9437C207.734 78.2077 207.59 78.5677 207.398 79.0237C207.206 79.4797 206.99 79.9477 206.75 80.4277L203.006 87.6997H198.11Z" fill="white"/>
<rect width="201" height="55" transform="translate(583 119.7)" fill="#FFA41B"/>
<path d="M605.944 160.06C604.264 160.06 602.788 159.748 601.516 159.124C600.268 158.476 599.296 157.576 598.6 156.424C597.928 155.248 597.592 153.868 597.592 152.284V140.836C597.592 139.228 597.928 137.848 598.6 136.696C599.296 135.544 600.268 134.656 601.516 134.032C602.788 133.384 604.264 133.06 605.944 133.06C607.648 133.06 609.112 133.384 610.336 134.032C611.584 134.656 612.556 135.544 613.252 136.696C613.948 137.848 614.296 139.228 614.296 140.836H609.76C609.76 139.588 609.424 138.64 608.752 137.992C608.104 137.344 607.168 137.02 605.944 137.02C604.72 137.02 603.772 137.344 603.1 137.992C602.428 138.64 602.092 139.576 602.092 140.8V152.284C602.092 153.508 602.428 154.456 603.1 155.128C603.772 155.8 604.72 156.136 605.944 156.136C607.168 156.136 608.104 155.8 608.752 155.128C609.424 154.456 609.76 153.508 609.76 152.284V149.62H605.296V145.732H614.296V152.284C614.296 153.868 613.948 155.248 613.252 156.424C612.556 157.576 611.584 158.476 610.336 159.124C609.112 159.748 607.648 160.06 605.944 160.06ZM619.358 159.7V133.42H628.106C629.858 133.42 631.382 133.756 632.678 134.428C633.998 135.1 635.018 136.048 635.738 137.272C636.458 138.472 636.818 139.888 636.818 141.52C636.818 143.128 636.446 144.544 635.702 145.768C634.982 146.992 633.974 147.94 632.678 148.612C631.382 149.284 629.858 149.62 628.106 149.62H623.858V159.7H619.358ZM623.858 145.552H628.106C629.354 145.552 630.35 145.192 631.094 144.472C631.862 143.728 632.246 142.744 632.246 141.52C632.246 140.272 631.862 139.288 631.094 138.568C630.35 137.848 629.354 137.488 628.106 137.488H623.858V145.552ZM641.412 159.7V155.74H646.704V137.38H641.412V133.42H656.532V137.38H651.24V155.74H656.532V159.7H641.412ZM670.558 160.06C668.878 160.06 667.414 159.748 666.166 159.124C664.942 158.476 663.994 157.576 663.322 156.424C662.674 155.248 662.35 153.868 662.35 152.284V140.836C662.35 139.252 662.674 137.884 663.322 136.732C663.994 135.556 664.942 134.656 666.166 134.032C667.414 133.384 668.878 133.06 670.558 133.06C672.262 133.06 673.726 133.384 674.95 134.032C676.174 134.656 677.11 135.556 677.758 136.732C678.43 137.884 678.766 139.24 678.766 140.8V152.284C678.766 153.868 678.43 155.248 677.758 156.424C677.11 157.576 676.174 158.476 674.95 159.124C673.726 159.748 672.262 160.06 670.558 160.06ZM670.558 156.1C671.782 156.1 672.706 155.776 673.33 155.128C673.954 154.456 674.266 153.508 674.266 152.284V140.836C674.266 139.588 673.954 138.64 673.33 137.992C672.706 137.344 671.782 137.02 670.558 137.02C669.334 137.02 668.41 137.344 667.786 137.992C667.162 138.64 666.85 139.588 666.85 140.836V152.284C666.85 153.508 667.162 154.456 667.786 155.128C668.434 155.776 669.358 156.1 670.558 156.1ZM716.97 159.7V154.48H705.27V147.964L715.386 133.42H720.426L709.59 149.152V150.52H716.97V144.58H721.47V159.7H716.97Z" fill="white"/>
<rect width="201" height="55" transform="translate(235 119.7)" fill="#FFA41B"/>
<path d="M257.944 160.06C256.264 160.06 254.788 159.748 253.516 159.124C252.268 158.476 251.296 157.576 250.6 156.424C249.928 155.248 249.592 153.868 249.592 152.284V140.836C249.592 139.228 249.928 137.848 250.6 136.696C251.296 135.544 252.268 134.656 253.516 134.032C254.788 133.384 256.264 133.06 257.944 133.06C259.648 133.06 261.112 133.384 262.336 134.032C263.584 134.656 264.556 135.544 265.252 136.696C265.948 137.848 266.296 139.228 266.296 140.836H261.76C261.76 139.588 261.424 138.64 260.752 137.992C260.104 137.344 259.168 137.02 257.944 137.02C256.72 137.02 255.772 137.344 255.1 137.992C254.428 138.64 254.092 139.576 254.092 140.8V152.284C254.092 153.508 254.428 154.456 255.1 155.128C255.772 155.8 256.72 156.136 257.944 156.136C259.168 156.136 260.104 155.8 260.752 155.128C261.424 154.456 261.76 153.508 261.76 152.284V149.62H257.296V145.732H266.296V152.284C266.296 153.868 265.948 155.248 265.252 156.424C264.556 157.576 263.584 158.476 262.336 159.124C261.112 159.748 259.648 160.06 257.944 160.06ZM271.358 159.7V133.42H280.106C281.858 133.42 283.382 133.756 284.678 134.428C285.998 135.1 287.018 136.048 287.738 137.272C288.458 138.472 288.818 139.888 288.818 141.52C288.818 143.128 288.446 144.544 287.702 145.768C286.982 146.992 285.974 147.94 284.678 148.612C283.382 149.284 281.858 149.62 280.106 149.62H275.858V159.7H271.358ZM275.858 145.552H280.106C281.354 145.552 282.35 145.192 283.094 144.472C283.862 143.728 284.246 142.744 284.246 141.52C284.246 140.272 283.862 139.288 283.094 138.568C282.35 137.848 281.354 137.488 280.106 137.488H275.858V145.552ZM293.412 159.7V155.74H298.704V137.38H293.412V133.42H308.532V137.38H303.24V155.74H308.532V159.7H293.412ZM322.558 160.06C320.878 160.06 319.414 159.748 318.166 159.124C316.942 158.476 315.994 157.576 315.322 156.424C314.674 155.248 314.35 153.868 314.35 152.284V140.836C314.35 139.252 314.674 137.884 315.322 136.732C315.994 135.556 316.942 134.656 318.166 134.032C319.414 133.384 320.878 133.06 322.558 133.06C324.262 133.06 325.726 133.384 326.95 134.032C328.174 134.656 329.11 135.556 329.758 136.732C330.43 137.884 330.766 139.24 330.766 140.8V152.284C330.766 153.868 330.43 155.248 329.758 156.424C329.11 157.576 328.174 158.476 326.95 159.124C325.726 159.748 324.262 160.06 322.558 160.06ZM322.558 156.1C323.782 156.1 324.706 155.776 325.33 155.128C325.954 154.456 326.266 153.508 326.266 152.284V140.836C326.266 139.588 325.954 138.64 325.33 137.992C324.706 137.344 323.782 137.02 322.558 137.02C321.334 137.02 320.41 137.344 319.786 137.992C319.162 138.64 318.85 139.588 318.85 140.836V152.284C318.85 153.508 319.162 154.456 319.786 155.128C320.434 155.776 321.358 156.1 322.558 156.1ZM357.954 159.7V155.74H364.794V137.416L357.918 142.528V137.776L363.966 133.42H369.294V155.74H374.802V159.7H357.954ZM390.556 159.7V154.48H378.856V147.964L388.972 133.42H394.012L383.176 149.152V150.52H390.556V144.58H395.056V159.7H390.556Z" fill="white"/>
<rect width="201" height="55" transform="translate(34 119.7)" fill="#6CD129"/>
<path d="M56.8 160.06C54.232 160.06 52.216 159.364 50.752 157.972C49.312 156.556 48.592 154.636 48.592 152.212V133.42H53.128V152.176C53.128 153.424 53.44 154.396 54.064 155.092C54.688 155.788 55.6 156.136 56.8 156.136C57.976 156.136 58.876 155.788 59.5 155.092C60.148 154.396 60.472 153.424 60.472 152.176V133.42H65.008V152.212C65.008 154.636 64.288 156.556 62.848 157.972C61.408 159.364 59.392 160.06 56.8 160.06ZM68.8459 159.7L75.4699 133.42H81.2659L87.9259 159.7H83.3179L81.8779 153.328H74.8939L73.4539 159.7H68.8459ZM75.7219 149.656H81.0499L79.4659 142.6C79.2019 141.424 78.9739 140.368 78.7819 139.432C78.5899 138.472 78.4579 137.776 78.3859 137.344C78.3139 137.776 78.1819 138.472 77.9899 139.432C77.8219 140.368 77.5939 141.412 77.3059 142.564L75.7219 149.656ZM91.9079 159.7V133.42H100.224C101.976 133.42 103.488 133.744 104.76 134.392C106.056 135.04 107.064 135.952 107.784 137.128C108.504 138.28 108.864 139.648 108.864 141.232C108.864 142.96 108.42 144.484 107.532 145.804C106.668 147.124 105.492 148.06 104.004 148.612L109.224 159.7H104.184L99.6119 149.26H96.4079V159.7H91.9079ZM96.4079 145.3H100.224C101.496 145.3 102.492 144.952 103.212 144.256C103.932 143.56 104.292 142.6 104.292 141.376C104.292 140.128 103.932 139.156 103.212 138.46C102.492 137.74 101.496 137.38 100.224 137.38H96.4079V145.3ZM119.29 159.7V137.596H112.414V133.42H130.702V137.596H123.826V159.7H119.29ZM143.144 160.06C141.44 160.06 139.964 159.736 138.716 159.088C137.468 158.44 136.496 157.528 135.8 156.352C135.128 155.176 134.792 153.796 134.792 152.212V140.908C134.792 139.324 135.128 137.944 135.8 136.768C136.496 135.592 137.468 134.68 138.716 134.032C139.964 133.384 141.44 133.06 143.144 133.06C144.872 133.06 146.348 133.384 147.572 134.032C148.82 134.68 149.78 135.592 150.452 136.768C151.148 137.944 151.496 139.324 151.496 140.908V152.212C151.496 153.796 151.148 155.176 150.452 156.352C149.78 157.528 148.82 158.44 147.572 159.088C146.324 159.736 144.848 160.06 143.144 160.06ZM143.144 156.172C144.392 156.172 145.388 155.812 146.132 155.092C146.876 154.372 147.248 153.412 147.248 152.212V140.908C147.248 139.708 146.876 138.748 146.132 138.028C145.388 137.308 144.392 136.948 143.144 136.948C141.896 136.948 140.9 137.308 140.156 138.028C139.412 138.748 139.04 139.708 139.04 140.908V152.212C139.04 153.412 139.412 154.372 140.156 155.092C140.9 155.812 141.896 156.172 143.144 156.172ZM143.144 148.9C142.448 148.9 141.872 148.672 141.416 148.216C140.984 147.76 140.768 147.172 140.768 146.452C140.768 145.732 140.984 145.156 141.416 144.724C141.848 144.292 142.424 144.076 143.144 144.076C143.864 144.076 144.44 144.292 144.872 144.724C145.304 145.156 145.52 145.732 145.52 146.452C145.52 147.172 145.304 147.76 144.872 148.216C144.44 148.672 143.864 148.9 143.144 148.9ZM184.048 159.7V137.596H177.172V133.42H195.46V137.596H188.584V159.7H184.048ZM198.11 159.7L205.382 146.236L198.542 133.42H203.582L206.894 140.008C207.134 140.488 207.35 140.956 207.542 141.412C207.734 141.844 207.878 142.18 207.974 142.42C208.046 142.18 208.178 141.844 208.37 141.412C208.562 140.956 208.778 140.488 209.018 140.008L212.366 133.42H217.262L210.422 146.128L217.694 159.7H212.654L208.946 152.428C208.706 151.948 208.478 151.48 208.262 151.024C208.07 150.568 207.926 150.208 207.83 149.944C207.734 150.208 207.59 150.568 207.398 151.024C207.206 151.48 206.99 151.948 206.75 152.428L203.006 159.7H198.11Z" fill="white"/>
<rect width="201" height="55" transform="translate(583 191.7)" fill="#FFA41B"/>
<path d="M605.944 232.06C604.264 232.06 602.788 231.748 601.516 231.124C600.268 230.476 599.296 229.576 598.6 228.424C597.928 227.248 597.592 225.868 597.592 224.284V212.836C597.592 211.228 597.928 209.848 598.6 208.696C599.296 207.544 600.268 206.656 601.516 206.032C602.788 205.384 604.264 205.06 605.944 205.06C607.648 205.06 609.112 205.384 610.336 206.032C611.584 206.656 612.556 207.544 613.252 208.696C613.948 209.848 614.296 211.228 614.296 212.836H609.76C609.76 211.588 609.424 210.64 608.752 209.992C608.104 209.344 607.168 209.02 605.944 209.02C604.72 209.02 603.772 209.344 603.1 209.992C602.428 210.64 602.092 211.576 602.092 212.8V224.284C602.092 225.508 602.428 226.456 603.1 227.128C603.772 227.8 604.72 228.136 605.944 228.136C607.168 228.136 608.104 227.8 608.752 227.128C609.424 226.456 609.76 225.508 609.76 224.284V221.62H605.296V217.732H614.296V224.284C614.296 225.868 613.948 227.248 613.252 228.424C612.556 229.576 611.584 230.476 610.336 231.124C609.112 231.748 607.648 232.06 605.944 232.06ZM619.358 231.7V205.42H628.106C629.858 205.42 631.382 205.756 632.678 206.428C633.998 207.1 635.018 208.048 635.738 209.272C636.458 210.472 636.818 211.888 636.818 213.52C636.818 215.128 636.446 216.544 635.702 217.768C634.982 218.992 633.974 219.94 632.678 220.612C631.382 221.284 629.858 221.62 628.106 221.62H623.858V231.7H619.358ZM623.858 217.552H628.106C629.354 217.552 630.35 217.192 631.094 216.472C631.862 215.728 632.246 214.744 632.246 213.52C632.246 212.272 631.862 211.288 631.094 210.568C630.35 209.848 629.354 209.488 628.106 209.488H623.858V217.552ZM641.412 231.7V227.74H646.704V209.38H641.412V205.42H656.532V209.38H651.24V227.74H656.532V231.7H641.412ZM670.558 232.06C668.878 232.06 667.414 231.748 666.166 231.124C664.942 230.476 663.994 229.576 663.322 228.424C662.674 227.248 662.35 225.868 662.35 224.284V212.836C662.35 211.252 662.674 209.884 663.322 208.732C663.994 207.556 664.942 206.656 666.166 206.032C667.414 205.384 668.878 205.06 670.558 205.06C672.262 205.06 673.726 205.384 674.95 206.032C676.174 206.656 677.11 207.556 677.758 208.732C678.43 209.884 678.766 211.24 678.766 212.8V224.284C678.766 225.868 678.43 227.248 677.758 228.424C677.11 229.576 676.174 230.476 674.95 231.124C673.726 231.748 672.262 232.06 670.558 232.06ZM670.558 228.1C671.782 228.1 672.706 227.776 673.33 227.128C673.954 226.456 674.266 225.508 674.266 224.284V212.836C674.266 211.588 673.954 210.64 673.33 209.992C672.706 209.344 671.782 209.02 670.558 209.02C669.334 209.02 668.41 209.344 667.786 209.992C667.162 210.64 666.85 211.588 666.85 212.836V224.284C666.85 225.508 667.162 226.456 667.786 227.128C668.434 227.776 669.358 228.1 670.558 228.1ZM713.478 232.06C711.774 232.06 710.286 231.748 709.014 231.124C707.766 230.5 706.794 229.624 706.098 228.496C705.402 227.368 705.054 226.036 705.054 224.5H709.59C709.59 225.676 709.926 226.6 710.598 227.272C711.294 227.92 712.266 228.244 713.514 228.244C714.762 228.244 715.722 227.908 716.394 227.236C717.066 226.564 717.402 225.652 717.402 224.5V222.448C717.402 221.272 717.066 220.36 716.394 219.712C715.722 219.04 714.762 218.704 713.514 218.704H710.562V214.636L716.358 209.272H706.242V205.42H720.93V209.488L713.514 216.292V214.852C716.106 214.852 718.158 215.536 719.67 216.904C721.182 218.272 721.938 220.12 721.938 222.448V224.5C721.938 226.036 721.59 227.368 720.894 228.496C720.198 229.624 719.214 230.5 717.942 231.124C716.67 231.748 715.182 232.06 713.478 232.06Z" fill="white"/>
<rect width="201" height="55" transform="translate(235 191.7)" fill="#050505"/>
<path d="M257.944 232.06C256.264 232.06 254.788 231.748 253.516 231.124C252.268 230.476 251.296 229.576 250.6 228.424C249.928 227.248 249.592 225.868 249.592 224.284V212.836C249.592 211.228 249.928 209.848 250.6 208.696C251.296 207.544 252.268 206.656 253.516 206.032C254.788 205.384 256.264 205.06 257.944 205.06C259.648 205.06 261.112 205.384 262.336 206.032C263.584 206.656 264.556 207.544 265.252 208.696C265.948 209.848 266.296 211.228 266.296 212.836H261.76C261.76 211.588 261.424 210.64 260.752 209.992C260.104 209.344 259.168 209.02 257.944 209.02C256.72 209.02 255.772 209.344 255.1 209.992C254.428 210.64 254.092 211.576 254.092 212.8V224.284C254.092 225.508 254.428 226.456 255.1 227.128C255.772 227.8 256.72 228.136 257.944 228.136C259.168 228.136 260.104 227.8 260.752 227.128C261.424 226.456 261.76 225.508 261.76 224.284V221.62H257.296V217.732H266.296V224.284C266.296 225.868 265.948 227.248 265.252 228.424C264.556 229.576 263.584 230.476 262.336 231.124C261.112 231.748 259.648 232.06 257.944 232.06ZM271.178 231.7V205.42H276.686L283.994 226.66C283.922 225.892 283.838 224.992 283.742 223.96C283.67 222.904 283.61 221.836 283.562 220.756C283.514 219.652 283.49 218.692 283.49 217.876V205.42H287.594V231.7H282.086L274.85 210.46C274.898 211.156 274.958 211.996 275.03 212.98C275.102 213.964 275.162 214.972 275.21 216.004C275.258 217.036 275.282 217.984 275.282 218.848V231.7H271.178ZM292.872 231.7V205.42H300.684C302.46 205.42 303.996 205.756 305.292 206.428C306.612 207.1 307.632 208.048 308.352 209.272C309.072 210.496 309.432 211.948 309.432 213.628V223.456C309.432 225.112 309.072 226.564 308.352 227.812C307.632 229.036 306.612 229.996 305.292 230.692C303.996 231.364 302.46 231.7 300.684 231.7H292.872ZM297.372 227.56H300.684C301.98 227.56 303.012 227.2 303.78 226.48C304.548 225.736 304.932 224.728 304.932 223.456V213.628C304.932 212.38 304.548 211.396 303.78 210.676C303.012 209.932 301.98 209.56 300.684 209.56H297.372V227.56Z" fill="white"/>
<rect width="197" height="55" transform="translate(784 191.7)" fill="#58C5DE"/>
<path d="M799.24 231.7V227.74H804.532V209.38H799.24V205.42H814.36V209.38H809.068V227.74H814.36V231.7H799.24ZM820.43 231.7V227.344L828.638 219.1C829.79 217.924 830.642 216.868 831.194 215.932C831.746 214.972 832.022 213.988 832.022 212.98C832.022 211.756 831.686 210.808 831.014 210.136C830.342 209.44 829.43 209.092 828.278 209.092C827.006 209.092 826.01 209.464 825.29 210.208C824.57 210.928 824.21 211.936 824.21 213.232H819.71C819.734 211.552 820.094 210.112 820.79 208.912C821.51 207.688 822.518 206.74 823.814 206.068C825.11 205.396 826.622 205.06 828.35 205.06C830.006 205.06 831.446 205.372 832.67 205.996C833.894 206.62 834.842 207.496 835.514 208.624C836.186 209.752 836.522 211.096 836.522 212.656C836.522 214.264 836.102 215.836 835.262 217.372C834.446 218.884 833.126 220.516 831.302 222.268L825.83 227.632H836.846V231.7H820.43ZM850.116 232.06C848.436 232.06 846.96 231.748 845.688 231.124C844.44 230.476 843.468 229.576 842.772 228.424C842.1 227.248 841.764 225.868 841.764 224.284V212.836C841.764 211.228 842.1 209.848 842.772 208.696C843.468 207.544 844.44 206.656 845.688 206.032C846.96 205.384 848.436 205.06 850.116 205.06C851.82 205.06 853.284 205.384 854.508 206.032C855.756 206.656 856.728 207.544 857.424 208.696C858.12 209.848 858.468 211.228 858.468 212.836H853.932C853.932 211.588 853.596 210.64 852.924 209.992C852.276 209.344 851.34 209.02 850.116 209.02C848.892 209.02 847.944 209.344 847.272 209.992C846.6 210.64 846.264 211.576 846.264 212.8V224.284C846.264 225.508 846.6 226.456 847.272 227.128C847.944 227.776 848.892 228.1 850.116 228.1C851.34 228.1 852.276 227.776 852.924 227.128C853.596 226.456 853.932 225.508 853.932 224.284H858.468C858.468 225.844 858.12 227.212 857.424 228.388C856.728 229.564 855.756 230.476 854.508 231.124C853.284 231.748 851.82 232.06 850.116 232.06ZM863.782 231.7V227.74H870.622V209.416L863.746 214.528V209.776L869.794 205.42H875.122V227.74H880.63V231.7H863.782ZM914.802 232.06C913.002 232.06 911.442 231.76 910.122 231.16C908.802 230.56 907.782 229.708 907.062 228.604C906.366 227.476 906.006 226.156 905.982 224.644H910.482C910.482 225.724 910.866 226.576 911.634 227.2C912.426 227.8 913.494 228.1 914.838 228.1C916.134 228.1 917.142 227.8 917.862 227.2C918.606 226.6 918.978 225.772 918.978 224.716C918.978 223.828 918.714 223.06 918.186 222.412C917.682 221.74 916.95 221.284 915.99 221.044L912.966 220.216C910.902 219.688 909.306 218.74 908.178 217.372C907.074 216.004 906.522 214.348 906.522 212.404C906.522 210.916 906.858 209.62 907.53 208.516C908.202 207.412 909.15 206.56 910.374 205.96C911.622 205.36 913.086 205.06 914.766 205.06C917.31 205.06 919.326 205.72 920.814 207.04C922.302 208.336 923.058 210.088 923.082 212.296H918.582C918.582 211.264 918.246 210.46 917.574 209.884C916.902 209.284 915.954 208.984 914.73 208.984C913.554 208.984 912.642 209.26 911.994 209.812C911.346 210.364 911.022 211.144 911.022 212.152C911.022 213.064 911.262 213.844 911.742 214.492C912.246 215.116 912.966 215.56 913.902 215.824L917.034 216.688C919.122 217.216 920.718 218.164 921.822 219.532C922.926 220.876 923.478 222.544 923.478 224.536C923.478 226.024 923.118 227.344 922.398 228.496C921.678 229.624 920.67 230.5 919.374 231.124C918.078 231.748 916.554 232.06 914.802 232.06ZM929.224 231.7V205.42H933.724V227.524H944.884V231.7H929.224ZM958.046 232.06C956.366 232.06 954.89 231.748 953.618 231.124C952.37 230.476 951.398 229.576 950.702 228.424C950.03 227.248 949.694 225.868 949.694 224.284V212.836C949.694 211.228 950.03 209.848 950.702 208.696C951.398 207.544 952.37 206.656 953.618 206.032C954.89 205.384 956.366 205.06 958.046 205.06C959.75 205.06 961.214 205.384 962.438 206.032C963.686 206.656 964.658 207.544 965.354 208.696C966.05 209.848 966.398 211.228 966.398 212.836H961.862C961.862 211.588 961.526 210.64 960.854 209.992C960.206 209.344 959.27 209.02 958.046 209.02C956.822 209.02 955.874 209.344 955.202 209.992C954.53 210.64 954.194 211.576 954.194 212.8V224.284C954.194 225.508 954.53 226.456 955.202 227.128C955.874 227.776 956.822 228.1 958.046 228.1C959.27 228.1 960.206 227.776 960.854 227.128C961.526 226.456 961.862 225.508 961.862 224.284H966.398C966.398 225.844 966.05 227.212 965.354 228.388C964.658 229.564 963.686 230.476 962.438 231.124C961.214 231.748 959.75 232.06 958.046 232.06Z" fill="white"/>
<rect width="197" height="55" transform="translate(784 260.7)" fill="#58C5DE"/>
<path d="M799.24 300.7V296.74H804.532V278.38H799.24V274.42H814.36V278.38H809.068V296.74H814.36V300.7H799.24ZM820.43 300.7V296.344L828.638 288.1C829.79 286.924 830.642 285.868 831.194 284.932C831.746 283.972 832.022 282.988 832.022 281.98C832.022 280.756 831.686 279.808 831.014 279.136C830.342 278.44 829.43 278.092 828.278 278.092C827.006 278.092 826.01 278.464 825.29 279.208C824.57 279.928 824.21 280.936 824.21 282.232H819.71C819.734 280.552 820.094 279.112 820.79 277.912C821.51 276.688 822.518 275.74 823.814 275.068C825.11 274.396 826.622 274.06 828.35 274.06C830.006 274.06 831.446 274.372 832.67 274.996C833.894 275.62 834.842 276.496 835.514 277.624C836.186 278.752 836.522 280.096 836.522 281.656C836.522 283.264 836.102 284.836 835.262 286.372C834.446 287.884 833.126 289.516 831.302 291.268L825.83 296.632H836.846V300.7H820.43ZM850.116 301.06C848.436 301.06 846.96 300.748 845.688 300.124C844.44 299.476 843.468 298.576 842.772 297.424C842.1 296.248 841.764 294.868 841.764 293.284V281.836C841.764 280.228 842.1 278.848 842.772 277.696C843.468 276.544 844.44 275.656 845.688 275.032C846.96 274.384 848.436 274.06 850.116 274.06C851.82 274.06 853.284 274.384 854.508 275.032C855.756 275.656 856.728 276.544 857.424 277.696C858.12 278.848 858.468 280.228 858.468 281.836H853.932C853.932 280.588 853.596 279.64 852.924 278.992C852.276 278.344 851.34 278.02 850.116 278.02C848.892 278.02 847.944 278.344 847.272 278.992C846.6 279.64 846.264 280.576 846.264 281.8V293.284C846.264 294.508 846.6 295.456 847.272 296.128C847.944 296.776 848.892 297.1 850.116 297.1C851.34 297.1 852.276 296.776 852.924 296.128C853.596 295.456 853.932 294.508 853.932 293.284H858.468C858.468 294.844 858.12 296.212 857.424 297.388C856.728 298.564 855.756 299.476 854.508 300.124C853.284 300.748 851.82 301.06 850.116 301.06ZM863.782 300.7V296.74H870.622V278.416L863.746 283.528V278.776L869.794 274.42H875.122V296.74H880.63V300.7H863.782ZM914.802 301.06C913.002 301.06 911.442 300.76 910.122 300.16C908.802 299.56 907.782 298.708 907.062 297.604C906.366 296.476 906.006 295.156 905.982 293.644H910.482C910.482 294.724 910.866 295.576 911.634 296.2C912.426 296.8 913.494 297.1 914.838 297.1C916.134 297.1 917.142 296.8 917.862 296.2C918.606 295.6 918.978 294.772 918.978 293.716C918.978 292.828 918.714 292.06 918.186 291.412C917.682 290.74 916.95 290.284 915.99 290.044L912.966 289.216C910.902 288.688 909.306 287.74 908.178 286.372C907.074 285.004 906.522 283.348 906.522 281.404C906.522 279.916 906.858 278.62 907.53 277.516C908.202 276.412 909.15 275.56 910.374 274.96C911.622 274.36 913.086 274.06 914.766 274.06C917.31 274.06 919.326 274.72 920.814 276.04C922.302 277.336 923.058 279.088 923.082 281.296H918.582C918.582 280.264 918.246 279.46 917.574 278.884C916.902 278.284 915.954 277.984 914.73 277.984C913.554 277.984 912.642 278.26 911.994 278.812C911.346 279.364 911.022 280.144 911.022 281.152C911.022 282.064 911.262 282.844 911.742 283.492C912.246 284.116 912.966 284.56 913.902 284.824L917.034 285.688C919.122 286.216 920.718 287.164 921.822 288.532C922.926 289.876 923.478 291.544 923.478 293.536C923.478 295.024 923.118 296.344 922.398 297.496C921.678 298.624 920.67 299.5 919.374 300.124C918.078 300.748 916.554 301.06 914.802 301.06ZM928.216 300.7V274.42H936.028C937.804 274.42 939.34 274.756 940.636 275.428C941.956 276.1 942.976 277.048 943.696 278.272C944.416 279.496 944.776 280.948 944.776 282.628V292.456C944.776 294.112 944.416 295.564 943.696 296.812C942.976 298.036 941.956 298.996 940.636 299.692C939.34 300.364 937.804 300.7 936.028 300.7H928.216ZM932.716 296.56H936.028C937.324 296.56 938.356 296.2 939.124 295.48C939.892 294.736 940.276 293.728 940.276 292.456V282.628C940.276 281.38 939.892 280.396 939.124 279.676C938.356 278.932 937.324 278.56 936.028 278.56H932.716V296.56ZM948.362 300.7L954.986 274.42H960.782L967.442 300.7H962.834L961.394 294.328H954.41L952.97 300.7H948.362ZM955.238 290.656H960.566L958.982 283.6C958.718 282.424 958.49 281.368 958.298 280.432C958.106 279.472 957.974 278.776 957.902 278.344C957.83 278.776 957.698 279.472 957.506 280.432C957.338 281.368 957.11 282.412 956.822 283.564L955.238 290.656Z" fill="white"/>
<rect width="201" height="55" transform="translate(583 260.7)" fill="#FFA41B"/>
<path d="M605.944 301.06C604.264 301.06 602.788 300.748 601.516 300.124C600.268 299.476 599.296 298.576 598.6 297.424C597.928 296.248 597.592 294.868 597.592 293.284V281.836C597.592 280.228 597.928 278.848 598.6 277.696C599.296 276.544 600.268 275.656 601.516 275.032C602.788 274.384 604.264 274.06 605.944 274.06C607.648 274.06 609.112 274.384 610.336 275.032C611.584 275.656 612.556 276.544 613.252 277.696C613.948 278.848 614.296 280.228 614.296 281.836H609.76C609.76 280.588 609.424 279.64 608.752 278.992C608.104 278.344 607.168 278.02 605.944 278.02C604.72 278.02 603.772 278.344 603.1 278.992C602.428 279.64 602.092 280.576 602.092 281.8V293.284C602.092 294.508 602.428 295.456 603.1 296.128C603.772 296.8 604.72 297.136 605.944 297.136C607.168 297.136 608.104 296.8 608.752 296.128C609.424 295.456 609.76 294.508 609.76 293.284V290.62H605.296V286.732H614.296V293.284C614.296 294.868 613.948 296.248 613.252 297.424C612.556 298.576 611.584 299.476 610.336 300.124C609.112 300.748 607.648 301.06 605.944 301.06ZM619.358 300.7V274.42H628.106C629.858 274.42 631.382 274.756 632.678 275.428C633.998 276.1 635.018 277.048 635.738 278.272C636.458 279.472 636.818 280.888 636.818 282.52C636.818 284.128 636.446 285.544 635.702 286.768C634.982 287.992 633.974 288.94 632.678 289.612C631.382 290.284 629.858 290.62 628.106 290.62H623.858V300.7H619.358ZM623.858 286.552H628.106C629.354 286.552 630.35 286.192 631.094 285.472C631.862 284.728 632.246 283.744 632.246 282.52C632.246 281.272 631.862 280.288 631.094 279.568C630.35 278.848 629.354 278.488 628.106 278.488H623.858V286.552ZM641.412 300.7V296.74H646.704V278.38H641.412V274.42H656.532V278.38H651.24V296.74H656.532V300.7H641.412ZM670.558 301.06C668.878 301.06 667.414 300.748 666.166 300.124C664.942 299.476 663.994 298.576 663.322 297.424C662.674 296.248 662.35 294.868 662.35 293.284V281.836C662.35 280.252 662.674 278.884 663.322 277.732C663.994 276.556 664.942 275.656 666.166 275.032C667.414 274.384 668.878 274.06 670.558 274.06C672.262 274.06 673.726 274.384 674.95 275.032C676.174 275.656 677.11 276.556 677.758 277.732C678.43 278.884 678.766 280.24 678.766 281.8V293.284C678.766 294.868 678.43 296.248 677.758 297.424C677.11 298.576 676.174 299.476 674.95 300.124C673.726 300.748 672.262 301.06 670.558 301.06ZM670.558 297.1C671.782 297.1 672.706 296.776 673.33 296.128C673.954 295.456 674.266 294.508 674.266 293.284V281.836C674.266 280.588 673.954 279.64 673.33 278.992C672.706 278.344 671.782 278.02 670.558 278.02C669.334 278.02 668.41 278.344 667.786 278.992C667.162 279.64 666.85 280.588 666.85 281.836V293.284C666.85 294.508 667.162 295.456 667.786 296.128C668.434 296.776 669.358 297.1 670.558 297.1ZM705.774 300.7V296.344L713.982 288.1C715.134 286.924 715.986 285.868 716.538 284.932C717.09 283.972 717.366 282.988 717.366 281.98C717.366 280.756 717.03 279.808 716.358 279.136C715.686 278.44 714.774 278.092 713.622 278.092C712.35 278.092 711.354 278.464 710.634 279.208C709.914 279.928 709.554 280.936 709.554 282.232H705.054C705.078 280.552 705.438 279.112 706.134 277.912C706.854 276.688 707.862 275.74 709.158 275.068C710.454 274.396 711.966 274.06 713.694 274.06C715.35 274.06 716.79 274.372 718.014 274.996C719.238 275.62 720.186 276.496 720.858 277.624C721.53 278.752 721.866 280.096 721.866 281.656C721.866 283.264 721.446 284.836 720.606 286.372C719.79 287.884 718.47 289.516 716.646 291.268L711.174 296.632H722.19V300.7H705.774Z" fill="white"/>
<rect width="201" height="55" transform="translate(235 260.7)" fill="#FF443A"/>
<path d="M257.764 301.06C255.34 301.06 253.396 300.46 251.932 299.26C250.468 298.036 249.664 296.38 249.52 294.292H254.02C254.116 295.204 254.476 295.912 255.1 296.416C255.748 296.896 256.636 297.136 257.764 297.136C259.012 297.136 259.96 296.812 260.608 296.164C261.256 295.492 261.58 294.568 261.58 293.392V290.836C261.58 289.636 261.256 288.724 260.608 288.1C259.96 287.452 259.012 287.128 257.764 287.128C256.996 287.128 256.336 287.284 255.784 287.596C255.232 287.908 254.812 288.34 254.524 288.892H250.132L250.312 274.42H265.108V278.488H254.56L254.488 286.12H255.532L254.452 287.02C254.452 285.916 254.884 285.052 255.748 284.428C256.636 283.78 257.824 283.456 259.312 283.456C261.448 283.432 263.104 284.08 264.28 285.4C265.48 286.696 266.08 288.508 266.08 290.836V293.392C266.08 295.768 265.336 297.64 263.848 299.008C262.384 300.376 260.356 301.06 257.764 301.06ZM276.47 300.7L269.846 274.42H274.526L278.486 291.556C278.702 292.396 278.906 293.296 279.098 294.256C279.29 295.216 279.434 295.996 279.53 296.596C279.626 295.996 279.758 295.216 279.926 294.256C280.094 293.296 280.274 292.384 280.466 291.52L284.39 274.42H288.926L282.302 300.7H276.47ZM314.53 300.7V274.42H323.278C325.03 274.42 326.554 274.756 327.85 275.428C329.17 276.1 330.19 277.048 330.91 278.272C331.63 279.472 331.99 280.888 331.99 282.52C331.99 284.128 331.618 285.544 330.874 286.768C330.154 287.992 329.146 288.94 327.85 289.612C326.554 290.284 325.03 290.62 323.278 290.62H319.03V300.7H314.53ZM319.03 286.552H323.278C324.526 286.552 325.522 286.192 326.266 285.472C327.034 284.728 327.418 283.744 327.418 282.52C327.418 281.272 327.034 280.288 326.266 279.568C325.522 278.848 324.526 278.488 323.278 278.488H319.03V286.552ZM336.62 300.7L333.92 274.42H337.808L339.392 292.78C339.44 293.188 339.476 293.692 339.5 294.292C339.548 294.868 339.584 295.456 339.608 296.056C339.656 296.656 339.68 297.184 339.68 297.64C339.728 297.184 339.776 296.656 339.824 296.056C339.872 295.456 339.92 294.868 339.968 294.292C340.04 293.692 340.1 293.188 340.148 292.78L342.308 274.42H346.088L348.104 292.78C348.176 293.188 348.236 293.692 348.284 294.292C348.356 294.868 348.428 295.456 348.5 296.056C348.572 296.656 348.632 297.184 348.68 297.64C348.704 297.184 348.728 296.656 348.752 296.056C348.776 295.456 348.8 294.868 348.824 294.292C348.872 293.692 348.92 293.188 348.968 292.78L350.516 274.42H354.368L351.524 300.7H346.556L344.612 282.268C344.564 281.812 344.504 281.284 344.432 280.684C344.384 280.06 344.336 279.448 344.288 278.848C344.24 278.224 344.204 277.696 344.18 277.264C344.156 277.696 344.108 278.224 344.036 278.848C343.988 279.448 343.94 280.06 343.892 280.684C343.844 281.284 343.796 281.812 343.748 282.268L341.624 300.7H336.62ZM357.666 300.7V274.42H365.982C367.734 274.42 369.246 274.744 370.518 275.392C371.814 276.04 372.822 276.952 373.542 278.128C374.262 279.28 374.622 280.648 374.622 282.232C374.622 283.96 374.178 285.484 373.29 286.804C372.426 288.124 371.25 289.06 369.762 289.612L374.982 300.7H369.942L365.37 290.26H362.166V300.7H357.666ZM362.166 286.3H365.982C367.254 286.3 368.25 285.952 368.97 285.256C369.69 284.56 370.05 283.6 370.05 282.376C370.05 281.128 369.69 280.156 368.97 279.46C368.25 278.74 367.254 278.38 365.982 278.38H362.166V286.3Z" fill="white"/>
<rect width="201" height="55" transform="translate(583 332.7)" fill="#FF443A"/>
<path d="M605.548 373.06C603.844 373.06 602.356 372.748 601.084 372.124C599.836 371.5 598.864 370.624 598.168 369.496C597.472 368.368 597.124 367.036 597.124 365.5H601.66C601.66 366.676 601.996 367.6 602.668 368.272C603.364 368.92 604.336 369.244 605.584 369.244C606.832 369.244 607.792 368.908 608.464 368.236C609.136 367.564 609.472 366.652 609.472 365.5V363.448C609.472 362.272 609.136 361.36 608.464 360.712C607.792 360.04 606.832 359.704 605.584 359.704H602.632V355.636L608.428 350.272H598.312V346.42H613V350.488L605.584 357.292V355.852C608.176 355.852 610.228 356.536 611.74 357.904C613.252 359.272 614.008 361.12 614.008 363.448V365.5C614.008 367.036 613.66 368.368 612.964 369.496C612.268 370.624 611.284 371.5 610.012 372.124C608.74 372.748 607.252 373.06 605.548 373.06ZM624.47 372.7L617.846 346.42H622.526L626.486 363.556C626.702 364.396 626.906 365.296 627.098 366.256C627.29 367.216 627.434 367.996 627.53 368.596C627.626 367.996 627.758 367.216 627.926 366.256C628.094 365.296 628.274 364.384 628.466 363.52L632.39 346.42H636.926L630.302 372.7H624.47ZM648.72 373.06C647.016 373.06 645.528 372.748 644.256 372.124C643.008 371.5 642.036 370.624 641.34 369.496C640.644 368.368 640.296 367.036 640.296 365.5H644.832C644.832 366.676 645.168 367.6 645.84 368.272C646.536 368.92 647.508 369.244 648.756 369.244C650.004 369.244 650.964 368.908 651.636 368.236C652.308 367.564 652.644 366.652 652.644 365.5V363.448C652.644 362.272 652.308 361.36 651.636 360.712C650.964 360.04 650.004 359.704 648.756 359.704H645.804V355.636L651.6 350.272H641.484V346.42H656.172V350.488L648.756 357.292V355.852C651.348 355.852 653.4 356.536 654.912 357.904C656.424 359.272 657.18 361.12 657.18 363.448V365.5C657.18 367.036 656.832 368.368 656.136 369.496C655.44 370.624 654.456 371.5 653.184 372.124C651.912 372.748 650.424 373.06 648.72 373.06ZM684.116 372.7V346.42H692.864C694.616 346.42 696.14 346.756 697.436 347.428C698.756 348.1 699.776 349.048 700.496 350.272C701.216 351.472 701.576 352.888 701.576 354.52C701.576 356.128 701.204 357.544 700.46 358.768C699.74 359.992 698.732 360.94 697.436 361.612C696.14 362.284 694.616 362.62 692.864 362.62H688.616V372.7H684.116ZM688.616 358.552H692.864C694.112 358.552 695.108 358.192 695.852 357.472C696.62 356.728 697.004 355.744 697.004 354.52C697.004 353.272 696.62 352.288 695.852 351.568C695.108 350.848 694.112 350.488 692.864 350.488H688.616V358.552ZM706.206 372.7L703.506 346.42H707.394L708.978 364.78C709.026 365.188 709.062 365.692 709.086 366.292C709.134 366.868 709.17 367.456 709.194 368.056C709.242 368.656 709.266 369.184 709.266 369.64C709.314 369.184 709.362 368.656 709.41 368.056C709.458 367.456 709.506 366.868 709.554 366.292C709.626 365.692 709.686 365.188 709.734 364.78L711.894 346.42H715.674L717.69 364.78C717.762 365.188 717.822 365.692 717.87 366.292C717.942 366.868 718.014 367.456 718.086 368.056C718.158 368.656 718.218 369.184 718.266 369.64C718.29 369.184 718.314 368.656 718.338 368.056C718.362 367.456 718.386 366.868 718.41 366.292C718.458 365.692 718.506 365.188 718.554 364.78L720.102 346.42H723.954L721.11 372.7H716.142L714.198 354.268C714.15 353.812 714.09 353.284 714.018 352.684C713.97 352.06 713.922 351.448 713.874 350.848C713.826 350.224 713.79 349.696 713.766 349.264C713.742 349.696 713.694 350.224 713.622 350.848C713.574 351.448 713.526 352.06 713.478 352.684C713.43 353.284 713.382 353.812 713.334 354.268L711.21 372.7H706.206ZM727.252 372.7V346.42H735.568C737.32 346.42 738.832 346.744 740.104 347.392C741.4 348.04 742.408 348.952 743.128 350.128C743.848 351.28 744.208 352.648 744.208 354.232C744.208 355.96 743.764 357.484 742.876 358.804C742.012 360.124 740.836 361.06 739.348 361.612L744.568 372.7H739.528L734.956 362.26H731.752V372.7H727.252ZM731.752 358.3H735.568C736.84 358.3 737.836 357.952 738.556 357.256C739.276 356.56 739.636 355.6 739.636 354.376C739.636 353.128 739.276 352.156 738.556 351.46C737.836 350.74 736.84 350.38 735.568 350.38H731.752V358.3Z" fill="white"/>
<rect width="201" height="55" transform="translate(235 332.7)" fill="#FF443A"/>
<path d="M257.764 373.06C255.34 373.06 253.396 372.46 251.932 371.26C250.468 370.036 249.664 368.38 249.52 366.292H254.02C254.116 367.204 254.476 367.912 255.1 368.416C255.748 368.896 256.636 369.136 257.764 369.136C259.012 369.136 259.96 368.812 260.608 368.164C261.256 367.492 261.58 366.568 261.58 365.392V362.836C261.58 361.636 261.256 360.724 260.608 360.1C259.96 359.452 259.012 359.128 257.764 359.128C256.996 359.128 256.336 359.284 255.784 359.596C255.232 359.908 254.812 360.34 254.524 360.892H250.132L250.312 346.42H265.108V350.488H254.56L254.488 358.12H255.532L254.452 359.02C254.452 357.916 254.884 357.052 255.748 356.428C256.636 355.78 257.824 355.456 259.312 355.456C261.448 355.432 263.104 356.08 264.28 357.4C265.48 358.696 266.08 360.508 266.08 362.836V365.392C266.08 367.768 265.336 369.64 263.848 371.008C262.384 372.376 260.356 373.06 257.764 373.06ZM276.47 372.7L269.846 346.42H274.526L278.486 363.556C278.702 364.396 278.906 365.296 279.098 366.256C279.29 367.216 279.434 367.996 279.53 368.596C279.626 367.996 279.758 367.216 279.926 366.256C280.094 365.296 280.274 364.384 280.466 363.52L284.39 346.42H288.926L282.302 372.7H276.47ZM314.53 372.7V346.42H323.278C325.03 346.42 326.554 346.756 327.85 347.428C329.17 348.1 330.19 349.048 330.91 350.272C331.63 351.472 331.99 352.888 331.99 354.52C331.99 356.128 331.618 357.544 330.874 358.768C330.154 359.992 329.146 360.94 327.85 361.612C326.554 362.284 325.03 362.62 323.278 362.62H319.03V372.7H314.53ZM319.03 358.552H323.278C324.526 358.552 325.522 358.192 326.266 357.472C327.034 356.728 327.418 355.744 327.418 354.52C327.418 353.272 327.034 352.288 326.266 351.568C325.522 350.848 324.526 350.488 323.278 350.488H319.03V358.552ZM336.62 372.7L333.92 346.42H337.808L339.392 364.78C339.44 365.188 339.476 365.692 339.5 366.292C339.548 366.868 339.584 367.456 339.608 368.056C339.656 368.656 339.68 369.184 339.68 369.64C339.728 369.184 339.776 368.656 339.824 368.056C339.872 367.456 339.92 366.868 339.968 366.292C340.04 365.692 340.1 365.188 340.148 364.78L342.308 346.42H346.088L348.104 364.78C348.176 365.188 348.236 365.692 348.284 366.292C348.356 366.868 348.428 367.456 348.5 368.056C348.572 368.656 348.632 369.184 348.68 369.64C348.704 369.184 348.728 368.656 348.752 368.056C348.776 367.456 348.8 366.868 348.824 366.292C348.872 365.692 348.92 365.188 348.968 364.78L350.516 346.42H354.368L351.524 372.7H346.556L344.612 354.268C344.564 353.812 344.504 353.284 344.432 352.684C344.384 352.06 344.336 351.448 344.288 350.848C344.24 350.224 344.204 349.696 344.18 349.264C344.156 349.696 344.108 350.224 344.036 350.848C343.988 351.448 343.94 352.06 343.892 352.684C343.844 353.284 343.796 353.812 343.748 354.268L341.624 372.7H336.62ZM357.666 372.7V346.42H365.982C367.734 346.42 369.246 346.744 370.518 347.392C371.814 348.04 372.822 348.952 373.542 350.128C374.262 351.28 374.622 352.648 374.622 354.232C374.622 355.96 374.178 357.484 373.29 358.804C372.426 360.124 371.25 361.06 369.762 361.612L374.982 372.7H369.942L365.37 362.26H362.166V372.7H357.666ZM362.166 358.3H365.982C367.254 358.3 368.25 357.952 368.97 357.256C369.69 356.56 370.05 355.6 370.05 354.376C370.05 353.128 369.69 352.156 368.97 351.46C368.25 350.74 367.254 350.38 365.982 350.38H362.166V358.3Z" fill="white"/>
<path d="M452.869 36L436 46.1435V104.42L446.543 109.79V111.282L436 117.448V176.718L446.945 181.79V182.983L436 188.95V246.729L446.945 252.298V253.293L436 259.459L436 315.447L447.648 323.304V323.702L436 328.575V387.348L451.162 396H567.838L583 387.348V328.575L571.353 323.702V323.304L583 315.447V259.459L572.055 253.293V252.298L583 246.729V188.95L571.955 182.983V181.79L583 176.718V117.448L572.457 111.282V109.79L583 104.42V46.1435L566.131 36L452.768 36H452.869ZM579.787 102.331L569.244 107.702V113.072L579.787 119.238V174.53L568.842 179.602V184.773L579.787 190.74V244.641L568.842 250.21V255.182L579.787 261.448V313.856L568.139 321.713V325.989L579.787 330.862V385.558L567.035 392.818H452.166L439.414 385.558V330.862L451.061 325.989V321.713L439.414 313.856L439.414 261.448L450.459 255.182V250.21L439.414 244.641V190.74L450.459 184.773V179.602L439.414 174.53V119.238L450.057 113.072V107.702L439.414 102.331V47.9337L453.873 39.2818L565.428 39.2818L579.887 47.9337V102.331H579.787Z" fill="black" stroke="black" stroke-width="0.75"/>
<path d="M535 87H562V60H535V87ZM544.959 79.5861H552.041L555.803 83.3483H541.307L545.069 79.5861H544.959ZM546.066 70.9548H551.045V75.9344H546.066V70.9548ZM554.697 76.9303V69.8483L558.459 66.0861V80.582L554.697 76.8197V76.9303ZM552.151 67.3033H545.069L541.307 63.5409H555.803L552.041 67.3033H552.151ZM542.524 69.8483V76.9303L538.762 80.6925V66.1967L542.524 69.9589V69.8483Z" fill="black"/>
<path d="M457 87H484V60H457V87ZM466.959 79.5861H474.041L477.803 83.3483H463.307L467.069 79.5861H466.959ZM468.066 70.9548H473.045V75.9344H468.066V70.9548ZM476.697 76.9303V69.8483L480.459 66.0861V80.582L476.697 76.8197V76.9303ZM474.151 67.3033H467.069L463.307 63.5409H477.803L474.041 67.3033H474.151ZM464.524 69.8483V76.9303L460.762 80.6925V66.1967L464.524 69.9589V69.8483Z" fill="black"/>
<path d="M535 159H562V132H535V159ZM544.959 151.586H552.041L555.803 155.348H541.307L545.069 151.586H544.959ZM546.066 142.955H551.045V147.934H546.066V142.955ZM554.697 148.93V141.848L558.459 138.086V152.582L554.697 148.82V148.93ZM552.151 139.303H545.069L541.307 135.541H555.803L552.041 139.303H552.151ZM542.524 141.848V148.93L538.762 152.693V138.197L542.524 141.959V141.848Z" fill="black"/>
<path d="M457 159H484V132H457V159ZM466.959 151.586H474.041L477.803 155.348H463.307L467.069 151.586H466.959ZM468.066 142.955H473.045V147.934H468.066V142.955ZM476.697 148.93V141.848L480.459 138.086V152.582L476.697 148.82V148.93ZM474.151 139.303H467.069L463.307 135.541H477.803L474.041 139.303H474.151ZM464.524 141.848V148.93L460.762 152.693V138.197L464.524 141.959V141.848Z" fill="black"/>
<path d="M535 231H562V204H535V231ZM544.959 223.586H552.041L555.803 227.348H541.307L545.069 223.586H544.959ZM546.066 214.955H551.045V219.934H546.066V214.955ZM554.697 220.93V213.848L558.459 210.086V224.582L554.697 220.82V220.93ZM552.151 211.303H545.069L541.307 207.541H555.803L552.041 211.303H552.151ZM542.524 213.848V220.93L538.762 224.693V210.197L542.524 213.959V213.848Z" fill="black"/>
<path d="M457 231H484V204H457V231ZM466.959 223.586H474.041L477.803 227.348H463.307L467.069 223.586H466.959ZM468.066 214.955H473.045V219.934H468.066V214.955ZM476.697 220.93V213.848L480.459 210.086V224.582L476.697 220.82V220.93ZM474.151 211.303H467.069L463.307 207.541H477.803L474.041 211.303H474.151ZM464.524 213.848V220.93L460.762 224.693V210.197L464.524 213.959V213.848Z" fill="black"/>
<path d="M535 303H562V276H535V303ZM544.959 295.586H552.041L555.803 299.348H541.307L545.069 295.586H544.959ZM546.066 286.955H551.045V291.934H546.066V286.955ZM554.697 292.93V285.848L558.459 282.086V296.582L554.697 292.82V292.93ZM552.151 283.303H545.069L541.307 279.541H555.803L552.041 283.303H552.151ZM542.524 285.848V292.93L538.762 296.693V282.197L542.524 285.959V285.848Z" fill="black"/>
<path d="M457 303H484V276H457V303ZM466.959 295.586H474.041L477.803 299.348H463.307L467.069 295.586H466.959ZM468.066 286.955H473.045V291.934H468.066V286.955ZM476.697 292.93V285.848L480.459 282.086V296.582L476.697 292.82V292.93ZM474.151 283.303H467.069L463.307 279.541H477.803L474.041 283.303H474.151ZM464.524 285.848V292.93L460.762 296.693V282.197L464.524 285.959V285.848Z" fill="black"/>
<path d="M535 375H562V348H535V375ZM544.959 367.586H552.041L555.803 371.348H541.307L545.069 367.586H544.959ZM546.066 358.955H551.045V363.934H546.066V358.955ZM554.697 364.93V357.848L558.459 354.086V368.582L554.697 364.82V364.93ZM552.151 355.303H545.069L541.307 351.541H555.803L552.041 355.303H552.151ZM542.524 357.848V364.93L538.762 368.693V354.197L542.524 357.959V357.848Z" fill="black"/>
<path d="M457 375H484V348H457V375ZM466.959 367.586H474.041L477.803 371.348H463.307L467.069 367.586H466.959ZM468.066 358.955H473.045V363.934H468.066V358.955ZM476.697 364.93V357.848L480.459 354.086V368.582L476.697 364.82V364.93ZM474.151 355.303H467.069L463.307 351.541H477.803L474.041 355.303H474.151ZM464.524 357.848V364.93L460.762 368.693V354.197L464.524 357.959V357.848Z" fill="black"/>
</svg>
