<svg width="252" height="198" viewBox="0 0 252 198" fill="none" xmlns="http://www.w3.org/2000/svg">
<rect width="252" height="198" fill="#F2F2F2"/>
<path d="M22.11 19H23.72V23.17C23.72 25.62 22.14 26.15 20.21 26.15C18.29 26.15 16.7 25.62 16.7 23.17V19H18.31V23.07C18.31 24.5 19.01 24.93 20.21 24.93C21.41 24.93 22.11 24.5 22.11 23.07V19ZM30.9627 26L30.3727 24.63H26.5327L25.9327 26H24.2227L27.4627 19H29.4427L32.6727 26H30.9627ZM27.0727 23.4H29.8327L28.4527 20.22L27.0727 23.4ZM40.7999 26H39.0099L37.5299 23.63C37.5199 23.63 37.4999 23.63 37.4899 23.63H34.9799V26H33.3699V19H37.6899C39.5899 19 40.5699 19.91 40.5699 21.32C40.5699 22.42 40.0499 23.08 39.1299 23.4L40.7999 26ZM34.9799 20.24V22.41H37.6299C38.6099 22.41 38.9299 21.9 38.9299 21.32C38.9299 20.72 38.6299 20.24 37.6299 20.24H34.9799ZM48.0147 19V20.24H45.3647V26H43.7547V20.24H41.1047V19H48.0147ZM57.7772 22.34C58.6972 22.56 59.2172 23.04 59.2172 23.94C59.2172 25.52 58.2172 26 56.0272 26H51.8172V19H56.2372C57.9172 19 58.9572 19.39 58.9572 20.8C58.9572 21.62 58.5372 22.07 57.7772 22.29V22.34ZM56.3172 20.24H53.4272V21.89H56.3172C57.0172 21.89 57.4072 21.66 57.4072 21.06C57.4072 20.46 56.9672 20.24 56.3172 20.24ZM56.3572 24.77C57.2872 24.77 57.5772 24.41 57.5772 23.82C57.5772 23.23 57.1472 23.04 56.3572 23.04H53.4272V24.77H56.3572ZM62.7656 20.53C64.2956 20.53 65.6356 20.97 65.6356 22.54V26H64.1156V25.29C63.8856 25.64 63.1156 26.15 61.9256 26.15C60.6756 26.15 59.8156 25.63 59.8156 24.58C59.8156 23.46 60.3956 22.56 64.1156 22.79V22.54C64.1156 21.98 63.8656 21.57 62.7656 21.57C61.8456 21.57 61.5556 21.84 61.4756 22.21H60.0556C60.2256 21.03 61.3056 20.53 62.7656 20.53ZM64.1156 24.44V23.69C62.0956 23.58 61.3456 23.77 61.3456 24.53C61.3456 25.03 61.7156 25.23 62.3756 25.23C63.1956 25.23 63.8356 24.91 64.1156 24.44ZM69.7344 25.1C70.7344 25.1 71.2244 24.59 71.4044 23.92H72.7644C72.4844 25.52 71.1344 26.15 69.7344 26.15C68.1744 26.15 66.5344 25.4 66.5344 23.34C66.5344 21.28 68.1744 20.53 69.7344 20.53C71.1344 20.53 72.4844 21.16 72.7644 22.76H71.4044C71.2244 22.08 70.7344 21.57 69.7344 21.57C68.4544 21.57 67.9644 22.4 67.9644 23.34C67.9644 24.27 68.4544 25.1 69.7344 25.1ZM77.8605 26L76.1705 23.75L75.1805 24.67V26H73.6605V19H75.1805V22.99L77.6405 20.67H79.4905L77.2105 22.79L79.6205 26H77.8605Z" fill="black"/>
<rect width="221" height="140" transform="translate(16 42)" fill="#F2F2F2"/>
<mask id="path-2-inside-1_307_69378" fill="white">
<path d="M16 172H26V182H16V172Z"/>
</mask>
<path d="M17 182V172H15V182H17Z" fill="black" mask="url(#path-2-inside-1_307_69378)"/>
<mask id="path-4-inside-2_307_69378" fill="white">
<path d="M16 172H26V182H16V172Z"/>
</mask>
<path d="M26 181H16V183H26V181Z" fill="black" mask="url(#path-4-inside-2_307_69378)"/>
<mask id="path-6-inside-3_307_69378" fill="white">
<path d="M16 42H26V52H16V42Z"/>
</mask>
<path d="M17 52V42H15V52H17Z" fill="black" mask="url(#path-6-inside-3_307_69378)"/>
<mask id="path-8-inside-4_307_69378" fill="white">
<path d="M16 42H26V52H16V42Z"/>
</mask>
<path d="M16 43H26V41H16V43Z" fill="black" mask="url(#path-8-inside-4_307_69378)"/>
<mask id="path-10-inside-5_307_69378" fill="white">
<path d="M227 42H237V52H227V42Z"/>
</mask>
<path d="M236 42V52H238V42H236Z" fill="black" mask="url(#path-10-inside-5_307_69378)"/>
<mask id="path-12-inside-6_307_69378" fill="white">
<path d="M227 42H237V52H227V42Z"/>
</mask>
<path d="M227 43H237V41H227V43Z" fill="black" mask="url(#path-12-inside-6_307_69378)"/>
<mask id="path-14-inside-7_307_69378" fill="white">
<path d="M227 172H237V182H227V172Z"/>
</mask>
<path d="M236 172V182H238V172H236Z" fill="black" mask="url(#path-14-inside-7_307_69378)"/>
<mask id="path-16-inside-8_307_69378" fill="white">
<path d="M227 172H237V182H227V172Z"/>
</mask>
<path d="M237 181H227V183H237V181Z" fill="black" mask="url(#path-16-inside-8_307_69378)"/>
<rect width="67" height="18" transform="translate(105 116)" fill="#050505"/>
<path d="M112.648 129.12C112.088 129.12 111.596 129.016 111.172 128.808C110.756 128.592 110.432 128.292 110.2 127.908C109.976 127.516 109.864 127.056 109.864 126.528V122.712C109.864 122.176 109.976 121.716 110.2 121.332C110.432 120.948 110.756 120.652 111.172 120.444C111.596 120.228 112.088 120.12 112.648 120.12C113.216 120.12 113.704 120.228 114.112 120.444C114.528 120.652 114.852 120.948 115.084 121.332C115.316 121.716 115.432 122.176 115.432 122.712H113.92C113.92 122.296 113.808 121.98 113.584 121.764C113.368 121.548 113.056 121.44 112.648 121.44C112.24 121.44 111.924 121.548 111.7 121.764C111.476 121.98 111.364 122.292 111.364 122.7V126.528C111.364 126.936 111.476 127.252 111.7 127.476C111.924 127.7 112.24 127.812 112.648 127.812C113.056 127.812 113.368 127.7 113.584 127.476C113.808 127.252 113.92 126.936 113.92 126.528V125.64H112.432V124.344H115.432V126.528C115.432 127.056 115.316 127.516 115.084 127.908C114.852 128.292 114.528 128.592 114.112 128.808C113.704 129.016 113.216 129.12 112.648 129.12ZM117.059 129V120.24H118.895L121.331 127.32C121.307 127.064 121.279 126.764 121.247 126.42C121.223 126.068 121.203 125.712 121.187 125.352C121.171 124.984 121.163 124.664 121.163 124.392V120.24H122.531V129H120.695L118.283 121.92C118.299 122.152 118.319 122.432 118.343 122.76C118.367 123.088 118.387 123.424 118.403 123.768C118.419 124.112 118.427 124.428 118.427 124.716V129H117.059ZM124.291 129V120.24H126.895C127.487 120.24 127.999 120.352 128.431 120.576C128.871 120.8 129.211 121.116 129.451 121.524C129.691 121.932 129.811 122.416 129.811 122.976V126.252C129.811 126.804 129.691 127.288 129.451 127.704C129.211 128.112 128.871 128.432 128.431 128.664C127.999 128.888 127.487 129 126.895 129H124.291ZM125.791 127.62H126.895C127.327 127.62 127.671 127.5 127.927 127.26C128.183 127.012 128.311 126.676 128.311 126.252V122.976C128.311 122.56 128.183 122.232 127.927 121.992C127.671 121.744 127.327 121.62 126.895 121.62H125.791V127.62Z" fill="white"/>
<rect width="67" height="18" transform="translate(105 66)" fill="#6CD129"/>
<path d="M112.6 79.12C111.744 79.12 111.072 78.888 110.584 78.424C110.104 77.952 109.864 77.312 109.864 76.504V70.24H111.376V76.492C111.376 76.908 111.48 77.232 111.688 77.464C111.896 77.696 112.2 77.812 112.6 77.812C112.992 77.812 113.292 77.696 113.5 77.464C113.716 77.232 113.824 76.908 113.824 76.492V70.24H115.336V76.504C115.336 77.312 115.096 77.952 114.616 78.424C114.136 78.888 113.464 79.12 112.6 79.12ZM116.615 79L118.823 70.24H120.755L122.975 79H121.439L120.959 76.876H118.631L118.151 79H116.615ZM118.907 75.652H120.683L120.155 73.3C120.067 72.908 119.991 72.556 119.927 72.244C119.863 71.924 119.819 71.692 119.795 71.548C119.771 71.692 119.727 71.924 119.663 72.244C119.607 72.556 119.531 72.904 119.435 73.288L118.907 75.652ZM124.303 79V70.24H127.075C127.659 70.24 128.163 70.348 128.587 70.564C129.019 70.78 129.355 71.084 129.595 71.476C129.835 71.86 129.955 72.316 129.955 72.844C129.955 73.42 129.807 73.928 129.511 74.368C129.223 74.808 128.831 75.12 128.335 75.304L130.075 79H128.395L126.871 75.52H125.803V79H124.303ZM125.803 74.2H127.075C127.499 74.2 127.831 74.084 128.071 73.852C128.311 73.62 128.431 73.3 128.431 72.892C128.431 72.476 128.311 72.152 128.071 71.92C127.831 71.68 127.499 71.56 127.075 71.56H125.803V74.2ZM133.43 79V71.632H131.138V70.24H137.234V71.632H134.942V79H133.43ZM141.381 79.12C140.813 79.12 140.321 79.012 139.905 78.796C139.489 78.58 139.165 78.276 138.933 77.884C138.709 77.492 138.597 77.032 138.597 76.504V72.736C138.597 72.208 138.709 71.748 138.933 71.356C139.165 70.964 139.489 70.66 139.905 70.444C140.321 70.228 140.813 70.12 141.381 70.12C141.957 70.12 142.449 70.228 142.857 70.444C143.273 70.66 143.593 70.964 143.817 71.356C144.049 71.748 144.165 72.208 144.165 72.736V76.504C144.165 77.032 144.049 77.492 143.817 77.884C143.593 78.276 143.273 78.58 142.857 78.796C142.441 79.012 141.949 79.12 141.381 79.12ZM141.381 77.824C141.797 77.824 142.129 77.704 142.377 77.464C142.625 77.224 142.749 76.904 142.749 76.504V72.736C142.749 72.336 142.625 72.016 142.377 71.776C142.129 71.536 141.797 71.416 141.381 71.416C140.965 71.416 140.633 71.536 140.385 71.776C140.137 72.016 140.013 72.336 140.013 72.736V76.504C140.013 76.904 140.137 77.224 140.385 77.464C140.633 77.704 140.965 77.824 141.381 77.824ZM141.381 75.4C141.149 75.4 140.957 75.324 140.805 75.172C140.661 75.02 140.589 74.824 140.589 74.584C140.589 74.344 140.661 74.152 140.805 74.008C140.949 73.864 141.141 73.792 141.381 73.792C141.621 73.792 141.813 73.864 141.957 74.008C142.101 74.152 142.173 74.344 142.173 74.584C142.173 74.824 142.101 75.02 141.957 75.172C141.813 75.324 141.621 75.4 141.381 75.4ZM153.084 79V70.24H155.856C156.44 70.24 156.944 70.348 157.368 70.564C157.8 70.78 158.136 71.084 158.376 71.476C158.616 71.86 158.736 72.316 158.736 72.844C158.736 73.42 158.588 73.928 158.292 74.368C158.004 74.808 157.612 75.12 157.116 75.304L158.856 79H157.176L155.652 75.52H154.584V79H153.084ZM154.584 74.2H155.856C156.28 74.2 156.612 74.084 156.852 73.852C157.092 73.62 157.212 73.3 157.212 72.892C157.212 72.476 157.092 72.152 156.852 71.92C156.612 71.68 156.28 71.56 155.856 71.56H154.584V74.2ZM159.703 79L162.127 74.512L159.847 70.24H161.527L162.631 72.436C162.711 72.596 162.783 72.752 162.847 72.904C162.911 73.048 162.959 73.16 162.991 73.24C163.015 73.16 163.059 73.048 163.123 72.904C163.187 72.752 163.259 72.596 163.339 72.436L164.455 70.24H166.087L163.807 74.476L166.231 79H164.551L163.315 76.576C163.235 76.416 163.159 76.26 163.087 76.108C163.023 75.956 162.975 75.836 162.943 75.748C162.911 75.836 162.863 75.956 162.799 76.108C162.735 76.26 162.663 76.416 162.583 76.576L161.335 79H159.703Z" fill="white"/>
<rect width="67" height="18" transform="translate(105 91)" fill="#6CD129"/>
<path d="M112.6 104.12C111.744 104.12 111.072 103.888 110.584 103.424C110.104 102.952 109.864 102.312 109.864 101.504V95.24H111.376V101.492C111.376 101.908 111.48 102.232 111.688 102.464C111.896 102.696 112.2 102.812 112.6 102.812C112.992 102.812 113.292 102.696 113.5 102.464C113.716 102.232 113.824 101.908 113.824 101.492V95.24H115.336V101.504C115.336 102.312 115.096 102.952 114.616 103.424C114.136 103.888 113.464 104.12 112.6 104.12ZM116.615 104L118.823 95.24H120.755L122.975 104H121.439L120.959 101.876H118.631L118.151 104H116.615ZM118.907 100.652H120.683L120.155 98.3C120.067 97.908 119.991 97.556 119.927 97.244C119.863 96.924 119.819 96.692 119.795 96.548C119.771 96.692 119.727 96.924 119.663 97.244C119.607 97.556 119.531 97.904 119.435 98.288L118.907 100.652ZM124.303 104V95.24H127.075C127.659 95.24 128.163 95.348 128.587 95.564C129.019 95.78 129.355 96.084 129.595 96.476C129.835 96.86 129.955 97.316 129.955 97.844C129.955 98.42 129.807 98.928 129.511 99.368C129.223 99.808 128.831 100.12 128.335 100.304L130.075 104H128.395L126.871 100.52H125.803V104H124.303ZM125.803 99.2H127.075C127.499 99.2 127.831 99.084 128.071 98.852C128.311 98.62 128.431 98.3 128.431 97.892C128.431 97.476 128.311 97.152 128.071 96.92C127.831 96.68 127.499 96.56 127.075 96.56H125.803V99.2ZM133.43 104V96.632H131.138V95.24H137.234V96.632H134.942V104H133.43ZM141.381 104.12C140.813 104.12 140.321 104.012 139.905 103.796C139.489 103.58 139.165 103.276 138.933 102.884C138.709 102.492 138.597 102.032 138.597 101.504V97.736C138.597 97.208 138.709 96.748 138.933 96.356C139.165 95.964 139.489 95.66 139.905 95.444C140.321 95.228 140.813 95.12 141.381 95.12C141.957 95.12 142.449 95.228 142.857 95.444C143.273 95.66 143.593 95.964 143.817 96.356C144.049 96.748 144.165 97.208 144.165 97.736V101.504C144.165 102.032 144.049 102.492 143.817 102.884C143.593 103.276 143.273 103.58 142.857 103.796C142.441 104.012 141.949 104.12 141.381 104.12ZM141.381 102.824C141.797 102.824 142.129 102.704 142.377 102.464C142.625 102.224 142.749 101.904 142.749 101.504V97.736C142.749 97.336 142.625 97.016 142.377 96.776C142.129 96.536 141.797 96.416 141.381 96.416C140.965 96.416 140.633 96.536 140.385 96.776C140.137 97.016 140.013 97.336 140.013 97.736V101.504C140.013 101.904 140.137 102.224 140.385 102.464C140.633 102.704 140.965 102.824 141.381 102.824ZM141.381 100.4C141.149 100.4 140.957 100.324 140.805 100.172C140.661 100.02 140.589 99.824 140.589 99.584C140.589 99.344 140.661 99.152 140.805 99.008C140.949 98.864 141.141 98.792 141.381 98.792C141.621 98.792 141.813 98.864 141.957 99.008C142.101 99.152 142.173 99.344 142.173 99.584C142.173 99.824 142.101 100.02 141.957 100.172C141.813 100.324 141.621 100.4 141.381 100.4ZM155.016 104V96.632H152.724V95.24H158.82V96.632H156.528V104H155.016ZM159.703 104L162.127 99.512L159.847 95.24H161.527L162.631 97.436C162.711 97.596 162.783 97.752 162.847 97.904C162.911 98.048 162.959 98.16 162.991 98.24C163.015 98.16 163.059 98.048 163.123 97.904C163.187 97.752 163.259 97.596 163.339 97.436L164.455 95.24H166.087L163.807 99.476L166.231 104H164.551L163.315 101.576C163.235 101.416 163.159 101.26 163.087 101.108C163.023 100.956 162.975 100.836 162.943 100.748C162.911 100.836 162.863 100.956 162.799 101.108C162.735 101.26 162.663 101.416 162.583 101.576L161.335 104H159.703Z" fill="white"/>
<rect width="67" height="18" transform="translate(105 141)" fill="#FF443A"/>
<path d="M112.588 154.12C111.78 154.12 111.132 153.92 110.644 153.52C110.156 153.112 109.888 152.56 109.84 151.864H111.34C111.372 152.168 111.492 152.404 111.7 152.572C111.916 152.732 112.212 152.812 112.588 152.812C113.004 152.812 113.32 152.704 113.536 152.488C113.752 152.264 113.86 151.956 113.86 151.564V150.712C113.86 150.312 113.752 150.008 113.536 149.8C113.32 149.584 113.004 149.476 112.588 149.476C112.332 149.476 112.112 149.528 111.928 149.632C111.744 149.736 111.604 149.88 111.508 150.064H110.044L110.104 145.24H115.036V146.596H111.52L111.496 149.14H111.844L111.484 149.44C111.484 149.072 111.628 148.784 111.916 148.576C112.212 148.36 112.608 148.252 113.104 148.252C113.816 148.244 114.368 148.46 114.76 148.9C115.16 149.332 115.36 149.936 115.36 150.712V151.564C115.36 152.356 115.112 152.98 114.616 153.436C114.128 153.892 113.452 154.12 112.588 154.12ZM118.823 154L116.615 145.24H118.175L119.495 150.952C119.567 151.232 119.635 151.532 119.699 151.852C119.763 152.172 119.811 152.432 119.843 152.632C119.875 152.432 119.919 152.172 119.975 151.852C120.031 151.532 120.091 151.228 120.155 150.94L121.463 145.24H122.975L120.767 154H118.823ZM131.51 154V145.24H134.426C135.01 145.24 135.518 145.352 135.95 145.576C136.39 145.8 136.73 146.116 136.97 146.524C137.21 146.924 137.33 147.396 137.33 147.94C137.33 148.476 137.206 148.948 136.958 149.356C136.718 149.764 136.382 150.08 135.95 150.304C135.518 150.528 135.01 150.64 134.426 150.64H133.01V154H131.51ZM133.01 149.284H134.426C134.842 149.284 135.174 149.164 135.422 148.924C135.678 148.676 135.806 148.348 135.806 147.94C135.806 147.524 135.678 147.196 135.422 146.956C135.174 146.716 134.842 146.596 134.426 146.596H133.01V149.284ZM138.873 154L137.973 145.24H139.269L139.797 151.36C139.813 151.496 139.825 151.664 139.833 151.864C139.849 152.056 139.861 152.252 139.869 152.452C139.885 152.652 139.893 152.828 139.893 152.98C139.909 152.828 139.925 152.652 139.941 152.452C139.957 152.252 139.973 152.056 139.989 151.864C140.013 151.664 140.033 151.496 140.049 151.36L140.769 145.24H142.029L142.701 151.36C142.725 151.496 142.745 151.664 142.761 151.864C142.785 152.056 142.809 152.252 142.833 152.452C142.857 152.652 142.877 152.828 142.893 152.98C142.901 152.828 142.909 152.652 142.917 152.452C142.925 152.252 142.933 152.056 142.941 151.864C142.957 151.664 142.973 151.496 142.989 151.36L143.505 145.24H144.789L143.841 154H142.185L141.537 147.856C141.521 147.704 141.501 147.528 141.477 147.328C141.461 147.12 141.445 146.916 141.429 146.716C141.413 146.508 141.401 146.332 141.393 146.188C141.385 146.332 141.369 146.508 141.345 146.716C141.329 146.916 141.313 147.12 141.297 147.328C141.281 147.528 141.265 147.704 141.249 147.856L140.541 154H138.873ZM145.889 154V145.24H148.661C149.245 145.24 149.749 145.348 150.173 145.564C150.605 145.78 150.941 146.084 151.181 146.476C151.421 146.86 151.541 147.316 151.541 147.844C151.541 148.42 151.393 148.928 151.097 149.368C150.809 149.808 150.417 150.12 149.921 150.304L151.661 154H149.981L148.457 150.52H147.389V154H145.889ZM147.389 149.2H148.661C149.085 149.2 149.417 149.084 149.657 148.852C149.897 148.62 150.017 148.3 150.017 147.892C150.017 147.476 149.897 147.152 149.657 146.92C149.417 146.68 149.085 146.56 148.661 146.56H147.389V149.2Z" fill="white"/>
<path d="M83.1956 62L80 64.9177V85.3762L82.744 86.9045V87.2171L80 88.8843V110.315L82.8135 111.913V112.087L80 113.754L80 134.386L82.9524 136.574L80 137.86V159.464L82.9177 162H102.334L105.252 159.464V137.86L102.299 136.574L105.252 134.386V113.754L102.438 112.087V111.913L105.252 110.315V88.8843L102.508 87.2171V86.9045L105.252 85.3762V64.9177L102.056 62H83.2303H83.1956ZM104.106 84.6815L101.362 86.2098V87.8423L104.106 89.5095V109.621L101.292 111.218V112.712L104.106 114.379V133.796L101.153 136.019L101.153 137.339L104.106 138.624V158.978L101.917 160.888H83.3345L81.1463 158.978V138.624L84.0986 137.339V136.019L81.1463 133.796L81.1463 114.379L83.9944 112.712V111.218L81.1463 109.621V89.5095L83.8902 87.8423V86.2098L81.1463 84.6815V65.404L83.6472 63.1115H101.605L104.106 65.404V84.6815Z" fill="black" stroke="black" stroke-width="0.25"/>
<path d="M88.3721 153.003H96.8472V144.632H88.3721V153.003ZM91.4981 150.711H93.7212L94.8674 151.857H90.3519L91.4981 150.711ZM91.8455 148.071H93.4086V149.565H91.8455V148.071ZM94.5548 149.912V147.758L95.7357 146.612V151.093L94.5548 149.947V149.912ZM93.7558 146.925H91.5329L90.3866 145.779H94.9021L93.7558 146.925ZM90.734 147.724V149.877L89.553 151.023V146.543L90.734 147.689V147.724Z" fill="black" stroke="black" stroke-width="0.25"/>
<path d="M88.3706 128.273H96.8458V119.902H88.3706V128.273ZM91.4967 125.981H93.7197L94.8659 127.127H90.3505L91.4967 125.981ZM91.844 123.341H93.4071V124.835H91.844V123.341ZM94.5533 125.182V123.029L95.7343 121.882V126.363L94.5533 125.217V125.182ZM93.7544 122.195H91.5314L90.3851 121.049H94.9007L93.7544 122.195ZM90.7325 122.994V125.147L89.5516 126.294V121.813L90.7325 122.959V122.994Z" fill="black" stroke="black" stroke-width="0.25"/>
<path d="M88.3721 103.507H96.8472V95.1364H88.3721V103.507ZM91.4981 101.215H93.7212L94.8674 102.361H90.3519L91.4981 101.215ZM91.8455 98.5751H93.4086V100.069H91.8455V98.5751ZM94.5548 100.416V98.2625L95.7357 97.1162V101.597L94.5548 100.451V100.416ZM93.7558 97.4289H91.5329L90.3866 96.2827H94.9021L93.7558 97.4289ZM90.734 98.2278V100.381L89.553 101.528V97.0468L90.734 98.193V98.2278Z" fill="black" stroke="black" stroke-width="0.25"/>
<path d="M88.3696 78.7773H96.8448V70.4064H88.3696V78.7773ZM91.4957 76.4849H93.7187L94.8649 77.6311H90.3495L91.4957 76.4849ZM91.8431 73.8451H93.4061V75.3387H91.8431V73.8451ZM94.5523 75.686V73.5325L95.7333 72.3863V76.8669L94.5523 75.7208V75.686ZM93.7534 72.6988H91.5305L90.3842 71.5526H94.8997L93.7534 72.6988ZM90.7315 73.4978V75.6513L89.5506 76.7975V72.3168L90.7315 73.463V73.4978Z" fill="black" stroke="black" stroke-width="0.25"/>
</svg>
