<svg width="252" height="198" viewBox="0 0 252 198" fill="none" xmlns="http://www.w3.org/2000/svg">
<rect width="252" height="198" fill="#F2F2F2"/>
<path d="M22.11 19H23.72V23.17C23.72 25.62 22.14 26.15 20.21 26.15C18.29 26.15 16.7 25.62 16.7 23.17V19H18.31V23.07C18.31 24.5 19.01 24.93 20.21 24.93C21.41 24.93 22.11 24.5 22.11 23.07V19ZM30.9627 26L30.3727 24.63H26.5327L25.9327 26H24.2227L27.4627 19H29.4427L32.6727 26H30.9627ZM27.0727 23.4H29.8327L28.4527 20.22L27.0727 23.4ZM40.7999 26H39.0099L37.5299 23.63C37.5199 23.63 37.4999 23.63 37.4899 23.63H34.9799V26H33.3699V19H37.6899C39.5899 19 40.5699 19.91 40.5699 21.32C40.5699 22.42 40.0499 23.08 39.1299 23.4L40.7999 26ZM34.9799 20.24V22.41H37.6299C38.6099 22.41 38.9299 21.9 38.9299 21.32C38.9299 20.72 38.6299 20.24 37.6299 20.24H34.9799ZM48.0147 19V20.24H45.3647V26H43.7547V20.24H41.1047V19H48.0147ZM57.9672 20.24H53.4272V21.98H57.6772V23.21H53.4272V26H51.8172V19H57.9672V20.24ZM62.3756 20.54C62.7256 20.54 62.9856 20.57 63.1656 20.62V22.02H63.1156C62.9256 21.94 62.5656 21.85 62.1056 21.85C60.8456 21.85 60.3856 22.64 60.3856 23.47V26H58.8656V20.67H60.3856V21.65C60.6056 21.27 61.2356 20.54 62.3756 20.54ZM66.7456 20.53C68.3056 20.53 69.9256 21.33 69.9256 23.34C69.9256 25.35 68.3056 26.15 66.7456 26.15C65.1956 26.15 63.5656 25.35 63.5656 23.34C63.5656 21.33 65.1956 20.53 66.7456 20.53ZM66.7456 25.1C68.0256 25.1 68.5056 24.27 68.5056 23.34C68.5056 22.4 68.0256 21.57 66.7456 21.57C65.4656 21.57 64.9956 22.4 64.9956 23.34C64.9956 24.27 65.4656 25.1 66.7456 25.1ZM74.3685 20.53C75.7385 20.53 76.5385 21.27 76.5385 22.47V26H75.0185V22.85C75.0185 22.21 74.6485 21.66 73.7085 21.66C72.7685 21.66 72.3485 22.23 72.3485 22.85V26H70.8285V20.67H72.3485V21.42C72.5785 21.1 73.2285 20.53 74.3685 20.53ZM81.2173 21.71H79.6573V23.95C79.6573 24.82 79.9773 24.99 81.2173 24.86V26C81.0173 26.03 80.7773 26.08 80.4273 26.08C78.5073 26.08 78.1373 25.25 78.1373 23.92V21.71H77.1473V20.67H78.1373V19.29H79.6573V20.67H81.2173V21.71Z" fill="black"/>
<rect width="220" height="140" transform="translate(16 42)" fill="#F2F2F2"/>
<mask id="path-2-inside-1_307_69351" fill="white">
<path d="M16 172H26V182H16V172Z"/>
</mask>
<path d="M17 182V172H15V182H17Z" fill="black" mask="url(#path-2-inside-1_307_69351)"/>
<mask id="path-4-inside-2_307_69351" fill="white">
<path d="M16 172H26V182H16V172Z"/>
</mask>
<path d="M26 181H16V183H26V181Z" fill="black" mask="url(#path-4-inside-2_307_69351)"/>
<mask id="path-6-inside-3_307_69351" fill="white">
<path d="M16 42H26V52H16V42Z"/>
</mask>
<path d="M17 52V42H15V52H17Z" fill="black" mask="url(#path-6-inside-3_307_69351)"/>
<mask id="path-8-inside-4_307_69351" fill="white">
<path d="M16 42H26V52H16V42Z"/>
</mask>
<path d="M16 43H26V41H16V43Z" fill="black" mask="url(#path-8-inside-4_307_69351)"/>
<mask id="path-10-inside-5_307_69351" fill="white">
<path d="M226 42H236V52H226V42Z"/>
</mask>
<path d="M235 42V52H237V42H235Z" fill="black" mask="url(#path-10-inside-5_307_69351)"/>
<mask id="path-12-inside-6_307_69351" fill="white">
<path d="M226 42H236V52H226V42Z"/>
</mask>
<path d="M226 43H236V41H226V43Z" fill="black" mask="url(#path-12-inside-6_307_69351)"/>
<mask id="path-14-inside-7_307_69351" fill="white">
<path d="M226 172H236V182H226V172Z"/>
</mask>
<path d="M235 172V182H237V172H235Z" fill="black" mask="url(#path-14-inside-7_307_69351)"/>
<mask id="path-16-inside-8_307_69351" fill="white">
<path d="M226 172H236V182H226V172Z"/>
</mask>
<path d="M236 181H226V183H236V181Z" fill="black" mask="url(#path-16-inside-8_307_69351)"/>
<rect width="67" height="18" transform="translate(105.435 79)" fill="#050505"/>
<path d="M113.083 92.12C112.523 92.12 112.031 92.016 111.607 91.808C111.191 91.592 110.867 91.292 110.635 90.908C110.411 90.516 110.299 90.056 110.299 89.528V85.712C110.299 85.176 110.411 84.716 110.635 84.332C110.867 83.948 111.191 83.652 111.607 83.444C112.031 83.228 112.523 83.12 113.083 83.12C113.651 83.12 114.139 83.228 114.547 83.444C114.963 83.652 115.287 83.948 115.519 84.332C115.751 84.716 115.867 85.176 115.867 85.712H114.355C114.355 85.296 114.243 84.98 114.019 84.764C113.803 84.548 113.491 84.44 113.083 84.44C112.675 84.44 112.359 84.548 112.135 84.764C111.911 84.98 111.799 85.292 111.799 85.7V89.528C111.799 89.936 111.911 90.252 112.135 90.476C112.359 90.7 112.675 90.812 113.083 90.812C113.491 90.812 113.803 90.7 114.019 90.476C114.243 90.252 114.355 89.936 114.355 89.528V88.64H112.867V87.344H115.867V89.528C115.867 90.056 115.751 90.516 115.519 90.908C115.287 91.292 114.963 91.592 114.547 91.808C114.139 92.016 113.651 92.12 113.083 92.12ZM117.494 92V83.24H119.33L121.766 90.32C121.742 90.064 121.714 89.764 121.682 89.42C121.658 89.068 121.638 88.712 121.622 88.352C121.606 87.984 121.598 87.664 121.598 87.392V83.24H122.966V92H121.13L118.718 84.92C118.734 85.152 118.754 85.432 118.778 85.76C118.802 86.088 118.822 86.424 118.838 86.768C118.854 87.112 118.862 87.428 118.862 87.716V92H117.494ZM124.725 92V83.24H127.329C127.921 83.24 128.433 83.352 128.865 83.576C129.305 83.8 129.645 84.116 129.885 84.524C130.125 84.932 130.245 85.416 130.245 85.976V89.252C130.245 89.804 130.125 90.288 129.885 90.704C129.645 91.112 129.305 91.432 128.865 91.664C128.433 91.888 127.921 92 127.329 92H124.725ZM126.225 90.62H127.329C127.761 90.62 128.105 90.5 128.361 90.26C128.617 90.012 128.745 89.676 128.745 89.252V85.976C128.745 85.56 128.617 85.232 128.361 84.992C128.105 84.744 127.761 84.62 127.329 84.62H126.225V90.62Z" fill="white"/>
<rect width="67" height="18" transform="translate(105.435 103)" fill="#6CD129"/>
<path d="M113.035 116.12C112.179 116.12 111.507 115.888 111.019 115.424C110.539 114.952 110.299 114.312 110.299 113.504V107.24H111.811V113.492C111.811 113.908 111.915 114.232 112.123 114.464C112.331 114.696 112.635 114.812 113.035 114.812C113.427 114.812 113.727 114.696 113.935 114.464C114.151 114.232 114.259 113.908 114.259 113.492V107.24H115.771V113.504C115.771 114.312 115.531 114.952 115.051 115.424C114.571 115.888 113.899 116.12 113.035 116.12ZM117.05 116L119.258 107.24H121.19L123.41 116H121.874L121.394 113.876H119.066L118.586 116H117.05ZM119.342 112.652H121.118L120.59 110.3C120.502 109.908 120.426 109.556 120.362 109.244C120.298 108.924 120.254 108.692 120.23 108.548C120.206 108.692 120.162 108.924 120.098 109.244C120.042 109.556 119.966 109.904 119.87 110.288L119.342 112.652ZM124.737 116V107.24H127.509C128.093 107.24 128.597 107.348 129.021 107.564C129.453 107.78 129.789 108.084 130.029 108.476C130.269 108.86 130.389 109.316 130.389 109.844C130.389 110.42 130.241 110.928 129.945 111.368C129.657 111.808 129.265 112.12 128.769 112.304L130.509 116H128.829L127.305 112.52H126.237V116H124.737ZM126.237 111.2H127.509C127.933 111.2 128.265 111.084 128.505 110.852C128.745 110.62 128.865 110.3 128.865 109.892C128.865 109.476 128.745 109.152 128.505 108.92C128.265 108.68 127.933 108.56 127.509 108.56H126.237V111.2ZM133.865 116V108.632H131.573V107.24H137.669V108.632H135.377V116H133.865ZM141.816 116.12C141.248 116.12 140.756 116.012 140.34 115.796C139.924 115.58 139.6 115.276 139.368 114.884C139.144 114.492 139.032 114.032 139.032 113.504V109.736C139.032 109.208 139.144 108.748 139.368 108.356C139.6 107.964 139.924 107.66 140.34 107.444C140.756 107.228 141.248 107.12 141.816 107.12C142.392 107.12 142.884 107.228 143.292 107.444C143.708 107.66 144.028 107.964 144.252 108.356C144.484 108.748 144.6 109.208 144.6 109.736V113.504C144.6 114.032 144.484 114.492 144.252 114.884C144.028 115.276 143.708 115.58 143.292 115.796C142.876 116.012 142.384 116.12 141.816 116.12ZM141.816 114.824C142.232 114.824 142.564 114.704 142.812 114.464C143.06 114.224 143.184 113.904 143.184 113.504V109.736C143.184 109.336 143.06 109.016 142.812 108.776C142.564 108.536 142.232 108.416 141.816 108.416C141.4 108.416 141.068 108.536 140.82 108.776C140.572 109.016 140.448 109.336 140.448 109.736V113.504C140.448 113.904 140.572 114.224 140.82 114.464C141.068 114.704 141.4 114.824 141.816 114.824ZM141.816 112.4C141.584 112.4 141.392 112.324 141.24 112.172C141.096 112.02 141.024 111.824 141.024 111.584C141.024 111.344 141.096 111.152 141.24 111.008C141.384 110.864 141.576 110.792 141.816 110.792C142.056 110.792 142.248 110.864 142.392 111.008C142.536 111.152 142.608 111.344 142.608 111.584C142.608 111.824 142.536 112.02 142.392 112.172C142.248 112.324 142.056 112.4 141.816 112.4ZM153.518 116V107.24H156.29C156.874 107.24 157.378 107.348 157.802 107.564C158.234 107.78 158.57 108.084 158.81 108.476C159.05 108.86 159.17 109.316 159.17 109.844C159.17 110.42 159.022 110.928 158.726 111.368C158.438 111.808 158.046 112.12 157.55 112.304L159.29 116H157.61L156.086 112.52H155.018V116H153.518ZM155.018 111.2H156.29C156.714 111.2 157.046 111.084 157.286 110.852C157.526 110.62 157.646 110.3 157.646 109.892C157.646 109.476 157.526 109.152 157.286 108.92C157.046 108.68 156.714 108.56 156.29 108.56H155.018V111.2ZM160.138 116L162.562 111.512L160.282 107.24H161.962L163.066 109.436C163.146 109.596 163.218 109.752 163.282 109.904C163.346 110.048 163.394 110.16 163.426 110.24C163.45 110.16 163.494 110.048 163.558 109.904C163.622 109.752 163.694 109.596 163.774 109.436L164.89 107.24H166.522L164.242 111.476L166.666 116H164.986L163.75 113.576C163.67 113.416 163.594 113.26 163.522 113.108C163.458 112.956 163.41 112.836 163.378 112.748C163.346 112.836 163.298 112.956 163.234 113.108C163.17 113.26 163.098 113.416 163.018 113.576L161.77 116H160.138Z" fill="white"/>
<rect width="67" height="18" transform="translate(105.435 128)" fill="#6CD129"/>
<path d="M113.035 141.12C112.179 141.12 111.507 140.888 111.019 140.424C110.539 139.952 110.299 139.312 110.299 138.504V132.24H111.811V138.492C111.811 138.908 111.915 139.232 112.123 139.464C112.331 139.696 112.635 139.812 113.035 139.812C113.427 139.812 113.727 139.696 113.935 139.464C114.151 139.232 114.259 138.908 114.259 138.492V132.24H115.771V138.504C115.771 139.312 115.531 139.952 115.051 140.424C114.571 140.888 113.899 141.12 113.035 141.12ZM117.05 141L119.258 132.24H121.19L123.41 141H121.874L121.394 138.876H119.066L118.586 141H117.05ZM119.342 137.652H121.118L120.59 135.3C120.502 134.908 120.426 134.556 120.362 134.244C120.298 133.924 120.254 133.692 120.23 133.548C120.206 133.692 120.162 133.924 120.098 134.244C120.042 134.556 119.966 134.904 119.87 135.288L119.342 137.652ZM124.737 141V132.24H127.509C128.093 132.24 128.597 132.348 129.021 132.564C129.453 132.78 129.789 133.084 130.029 133.476C130.269 133.86 130.389 134.316 130.389 134.844C130.389 135.42 130.241 135.928 129.945 136.368C129.657 136.808 129.265 137.12 128.769 137.304L130.509 141H128.829L127.305 137.52H126.237V141H124.737ZM126.237 136.2H127.509C127.933 136.2 128.265 136.084 128.505 135.852C128.745 135.62 128.865 135.3 128.865 134.892C128.865 134.476 128.745 134.152 128.505 133.92C128.265 133.68 127.933 133.56 127.509 133.56H126.237V136.2ZM133.865 141V133.632H131.573V132.24H137.669V133.632H135.377V141H133.865ZM141.816 141.12C141.248 141.12 140.756 141.012 140.34 140.796C139.924 140.58 139.6 140.276 139.368 139.884C139.144 139.492 139.032 139.032 139.032 138.504V134.736C139.032 134.208 139.144 133.748 139.368 133.356C139.6 132.964 139.924 132.66 140.34 132.444C140.756 132.228 141.248 132.12 141.816 132.12C142.392 132.12 142.884 132.228 143.292 132.444C143.708 132.66 144.028 132.964 144.252 133.356C144.484 133.748 144.6 134.208 144.6 134.736V138.504C144.6 139.032 144.484 139.492 144.252 139.884C144.028 140.276 143.708 140.58 143.292 140.796C142.876 141.012 142.384 141.12 141.816 141.12ZM141.816 139.824C142.232 139.824 142.564 139.704 142.812 139.464C143.06 139.224 143.184 138.904 143.184 138.504V134.736C143.184 134.336 143.06 134.016 142.812 133.776C142.564 133.536 142.232 133.416 141.816 133.416C141.4 133.416 141.068 133.536 140.82 133.776C140.572 134.016 140.448 134.336 140.448 134.736V138.504C140.448 138.904 140.572 139.224 140.82 139.464C141.068 139.704 141.4 139.824 141.816 139.824ZM141.816 137.4C141.584 137.4 141.392 137.324 141.24 137.172C141.096 137.02 141.024 136.824 141.024 136.584C141.024 136.344 141.096 136.152 141.24 136.008C141.384 135.864 141.576 135.792 141.816 135.792C142.056 135.792 142.248 135.864 142.392 136.008C142.536 136.152 142.608 136.344 142.608 136.584C142.608 136.824 142.536 137.02 142.392 137.172C142.248 137.324 142.056 137.4 141.816 137.4ZM155.45 141V133.632H153.158V132.24H159.254V133.632H156.962V141H155.45ZM160.138 141L162.562 136.512L160.282 132.24H161.962L163.066 134.436C163.146 134.596 163.218 134.752 163.282 134.904C163.346 135.048 163.394 135.16 163.426 135.24C163.45 135.16 163.494 135.048 163.558 134.904C163.622 134.752 163.694 134.596 163.774 134.436L164.89 132.24H166.522L164.242 136.476L166.666 141H164.986L163.75 138.576C163.67 138.416 163.594 138.26 163.522 138.108C163.458 137.956 163.41 137.836 163.378 137.748C163.346 137.836 163.298 137.956 163.234 138.108C163.17 138.26 163.098 138.416 163.018 138.576L161.77 141H160.138Z" fill="white"/>
<path d="M99.6808 150.605L105.359 147.26V126.946L100.697 125.187V124.773L105.359 122.325V102.287L100.697 100.873V100.356L105.359 98V78L99.6457 74.7659H84.7135L79.3155 77.9388V98.1487L83.6619 100.356V100.873L79 102.287V122.325L83.6619 124.773V125.187L79 126.946L79 147.26L84.6785 150.605H99.6107H99.6808ZM80.2268 127.739L84.8888 125.98V124.084L80.2268 121.635V103.115L84.8888 101.701V99.6662L80.5423 97.459V78.5941L85.0991 75.904H99.4004L104.273 78.6202V97.3354L99.6107 99.6662V101.701L104.273 103.115V121.635L99.6107 124.084V125.98L104.273 127.739V146.604L99.4354 149.467H85.1341L80.2969 146.604L80.2969 127.739H80.2268Z" fill="black" stroke="black" stroke-width="0.25"/>
<path d="M87.4346 92H96.4346V83H87.4346V92ZM90.7542 89.5287H93.1148L94.3689 90.7828H89.5369L90.791 89.5287H90.7542ZM91.1231 86.6516H92.7829V88.3115H91.1231V86.6516ZM94.0001 88.6434V86.2828L95.2542 85.0287V89.8607L94.0001 88.6066V88.6434ZM93.1517 85.4344H90.791L89.5369 84.1803H94.3689L93.1148 85.4344H93.1517ZM89.9427 86.2828V88.6434L88.6887 89.8975V85.0656L89.9427 86.3196V86.2828Z" fill="black"/>
<path d="M87.4346 117H96.4346V108H87.4346V117ZM90.7542 114.529H93.1148L94.3689 115.783H89.5369L90.791 114.529H90.7542ZM91.1231 111.652H92.7829V113.311H91.1231V111.652ZM94.0001 113.643V111.283L95.2542 110.029V114.861L94.0001 113.607V113.643ZM93.1517 110.434H90.791L89.5369 109.18H94.3689L93.1148 110.434H93.1517ZM89.9427 111.283V113.643L88.6887 114.898V110.066L89.9427 111.32V111.283Z" fill="black"/>
<path d="M87.4346 142H96.4346V133H87.4346V142ZM90.7542 139.529H93.1148L94.3689 140.783H89.5369L90.791 139.529H90.7542ZM91.1231 136.652H92.7829V138.311H91.1231V136.652ZM94.0001 138.643V136.283L95.2542 135.029V139.861L94.0001 138.607V138.643ZM93.1517 135.434H90.791L89.5369 134.18H94.3689L93.1148 135.434H93.1517ZM89.9427 136.283V138.643L88.6887 139.898V135.066L89.9427 136.32V136.283Z" fill="black"/>
</svg>
